<svg id="Layer_1" data-name="Layer 1" xmlns="http://www.w3.org/2000/svg" xmlns:xlink="http://www.w3.org/1999/xlink" viewBox="0 0 345.77 345.77"><defs><style>.cls-1{fill:url(#New_Gradient_Swatch);}.cls-2{fill:url(#New_Gradient_Swatch-2);}.cls-3,.cls-4{fill:#f5c8c5;}.cls-4{font-size:107.3px;font-family:Gunplay-Regular, Gunplay;letter-spacing:0.01em;}.cls-5{fill:#f6c7c4;}</style><linearGradient id="New_Gradient_Swatch" x1="145.84" y1="300" x2="452.16" y2="300" gradientUnits="userSpaceOnUse"><stop offset="0" stop-color="#c98b7c"/><stop offset="0.06" stop-color="#d39585"/><stop offset="0.21" stop-color="#e5a896"/><stop offset="0.36" stop-color="#f0b3a1"/><stop offset="0.52" stop-color="#f4b7a4"/><stop offset="1" stop-color="#914f4c"/></linearGradient><linearGradient id="New_Gradient_Swatch-2" x1="126.11" y1="300" x2="471.88" y2="300" xlink:href="#New_Gradient_Swatch"/></defs><title>logo_10.5</title><path class="cls-1" d="M299,453.16c-84.45,0-153.16-68.71-153.16-153.16S214.55,146.84,299,146.84,452.16,215.55,452.16,300,383.45,453.16,299,453.16Zm0-304.75c-83.59,0-151.59,68-151.59,151.59s68,151.59,151.59,151.59,151.59-68,151.59-151.59S382.58,148.41,299,148.41Z" transform="translate(-126.11 -127.11)"/><path class="cls-2" d="M299,472.89c-95.33,0-172.89-77.56-172.89-172.89S203.67,127.11,299,127.11,471.88,204.67,471.88,300,394.33,472.89,299,472.89ZM299,135c-91,0-165,74-165,165S208,465,299,465s165-74,165-165S390,135,299,135Z" transform="translate(-126.11 -127.11)"/><path class="cls-3" d="M169.16,249.67l0-.12.2-.42q.09-.19-.18-.78s0-.36.11-1l0-.09c-.05-.21-.08-.36-.1-.45l.15-.3a1.29,1.29,0,0,0,0-.33,4.11,4.11,0,0,1,.11-1.11,5.23,5.23,0,0,0,.14-1.1,7.58,7.58,0,0,1,.24-.75l.13-.48.2-.34c.27-.56.83-.78,1.69-.67a.55.55,0,0,0,.24,0,.54.54,0,0,1,.24,0,2.44,2.44,0,0,1,1.09,1.32l.48.5a1.93,1.93,0,0,1,.16.29,2.57,2.57,0,0,0,.34.52,3.84,3.84,0,0,1,.51,1.09c.1.12.25.31.47.55a2.62,2.62,0,0,1,.39.55,11.8,11.8,0,0,0,.66,1.08,4.27,4.27,0,0,0,.73,1,1,1,0,0,0,.43.6,2.8,2.8,0,0,1,.63.7l.09.09a.68.68,0,0,0-.31-.78s-.07-.14-.11-.38l-.16-.24a.78.78,0,0,1-.1-.45,1.14,1.14,0,0,1-.21-.51q-.1-.42-.15-.57a1.68,1.68,0,0,1,0-.44c0-.19-.17-.5-.53-.92a.4.4,0,0,1-.09-.34.8.8,0,0,0-.09-.48,1.62,1.62,0,0,1-.13-.36l-.13-.22a1.74,1.74,0,0,1-.08-.33l-.58-1.24a2,2,0,0,0-.29-1l0-.14,0-.09c-.06-.24-.1-.4-.13-.48a.67.67,0,0,1-.45-.65,1.44,1.44,0,0,0-.12-.7.5.5,0,0,1,0-.45.68.68,0,0,1,.18-.13v0s0-.09-.11-.17l-.16-.08a.7.7,0,0,1-.37-.37.89.89,0,0,1,0-.54,1,1,0,0,0-.16-.72.86.86,0,0,1-.09-.75.51.51,0,0,0,0-.56,1.53,1.53,0,0,1-.19-.93,3.89,3.89,0,0,1,0-.86,1.15,1.15,0,0,0,0-.31.49.49,0,0,1,0-.27,1.78,1.78,0,0,1,.32-.42l.2-.26a2,2,0,0,1,.91-.4l.24-.08.06,0,.29.1.12.06c.13-.11.23-.15.29-.12l.16.21a.55.55,0,0,0,.23.19l.3.16.26.18a2.31,2.31,0,0,1,.23.18l.18.2a1.43,1.43,0,0,1,.14.2l.45.38a2.27,2.27,0,0,1,.56.68,3,3,0,0,0,.44.61,2.41,2.41,0,0,1,.34.44l.11,0,.23.1c.11-.35.06-.57-.15-.68a.58.58,0,0,1-.3-.63l-.12-.49a2.27,2.27,0,0,1-.47-1.48.82.82,0,0,1-.38-.55l-.28-.88,0-.55a1.4,1.4,0,0,1-.4-1l-.06-.46a.69.69,0,0,0-.14-.51.71.71,0,0,1-.19-.39c0-.19-.12-.48-.23-.86v-.16l-.08-.23a2,2,0,0,1,0-.48v-.15a2.53,2.53,0,0,1-.06-.92,4.28,4.28,0,0,0,0-.88l.18-.59a1.1,1.1,0,0,1,.06-.28c.48-1,1.29-1.25,2.43-.7l.24.15.93.41c.31.47.48.72.5.73l.3.1a1.42,1.42,0,0,1,.28.39c.14.23.22.38.25.42a3.83,3.83,0,0,1,.2.46l.4.38a1,1,0,0,1,.17.42l.19.09c.16.08.3.4.42,1a1.25,1.25,0,0,1,.48.57,1.83,1.83,0,0,0,.27.5,1.4,1.4,0,0,1,.25.52,1.81,1.81,0,0,1,.57.6,3,3,0,0,1,.43.73,1.68,1.68,0,0,0,.32.53v.17c.38.26.57.44.58.55l-.15.24.06,0a.24.24,0,0,0,.14,0,.36.36,0,0,1,.21,0,.28.28,0,0,1,.14.19.38.38,0,0,0,.11.19.31.31,0,0,1,.12.15.92.92,0,0,0,.28.22,1.67,1.67,0,0,1,.51.54,2.11,2.11,0,0,0,.43.49l.22.17a.66.66,0,0,0,.17.12,3.66,3.66,0,0,1,.46.32l1.18,0a1.45,1.45,0,0,1,.39,0,1.7,1.7,0,0,1,.78.57c.09.17,0,.47-.16.88a1.1,1.1,0,0,1-.61.57.88.88,0,0,0-.53.38l-.29-.14,0,0-.13.26a.74.74,0,0,0-.17.08,1.22,1.22,0,0,1-.32.09l-.14.05a1.76,1.76,0,0,1-.63,0l-.37-.06-.24-.15-.41-.16a.83.83,0,0,1-.24-.15l-.41-.24a.93.93,0,0,1-.25-.2A3.18,3.18,0,0,0,186,236a.86.86,0,0,1-.39-.36.68.68,0,0,0-.2-.27.34.34,0,0,1-.14-.18,1,1,0,0,0-.3-.29.7.7,0,0,1-.3-.55,6.55,6.55,0,0,0-.42-.53,4.35,4.35,0,0,1-.29-.57l.11-.23a1,1,0,0,1-.3.06q-.44-.21-.27-.54a.56.56,0,0,1,.1-.15l-.09-.12-.3-.07c-.18-.08-.3-.31-.35-.67a1.22,1.22,0,0,1-.62-.82l-.27-.1a2.27,2.27,0,0,0-.29-.47,4.92,4.92,0,0,1-.45-.76l-.51-.85-.15-.34s0,0,0,0l0-.06a1.08,1.08,0,0,0-.15-.14l-.19-.21-.07-.17c.05-.31,0-.49-.09-.55a.86.86,0,0,0-.27,0l-.06,0c-.09,0-.16-.16-.23-.35a2.53,2.53,0,0,0-.36-.61,2.27,2.27,0,0,0-.34-.37c-.05,0-.08,0-.1,0a.76.76,0,0,0,0,.86c.06,0,.09.3.09.81l.16.27a.6.6,0,0,1,0,.42.8.8,0,0,0,0,.46c0,.21.16.68.34,1.41a12,12,0,0,0,.51,1.65l.08.49c0,.18,0,.28.07.31s.2.2.29.47l.14.3a1.8,1.8,0,0,0-.2.22.39.39,0,0,0,0,.39c.13-.05.2-.07.22-.06s.27.33.3.73l.38,1a1.15,1.15,0,0,1,.06.33,1,1,0,0,0,.21.48,5.12,5.12,0,0,1,.48.93,4.28,4.28,0,0,1,.31.81.86.86,0,0,0,.13.3,3.17,3.17,0,0,1,.27.7,1.25,1.25,0,0,0,.51.73c0,.24,0,.37,0,.39l.12.18v.15a.65.65,0,0,0,.19.16c.1.05.18.35.24.89a2.78,2.78,0,0,1,0,1,.29.29,0,0,0,0,.17.4.4,0,0,1,0,.16,2.19,2.19,0,0,1-.39.33,1.4,1.4,0,0,1-1.15.12l-.36-.32-.36-.1a.46.46,0,0,1-.18-.27.61.61,0,0,0-.33-.34c-.3-.36-.51-.61-.63-.77l-.24-.16a1.78,1.78,0,0,1-.25-.38,1.07,1.07,0,0,0-.36-.4.38.38,0,0,1-.21-.36A11.35,11.35,0,0,0,178,238l-.22-.1-.58-.84c-.17-.25-.35-.55-.55-.89l-.3-.32a6,6,0,0,0-.44.43.44.44,0,0,0,0,.3c.18.09.22.49.11,1.21a2,2,0,0,0,.23.71l0,.57a3.33,3.33,0,0,0,.11.42l.1.32a1.36,1.36,0,0,0,.12.9l.09.57a3.23,3.23,0,0,0,.12.37,3.15,3.15,0,0,1,.07.76l.13.37,0,.3a4.14,4.14,0,0,0,.27.61.53.53,0,0,1,.07.44l0,.41a1.66,1.66,0,0,1,.51,1l.35.73a1.63,1.63,0,0,1,.07.31.4.4,0,0,1,.12.33c.1.22.18.36.22.44l0,.26c0,.33,0,.52.05.55l.3.1q.18.09.15.54a.37.37,0,0,0,.17.31,1.39,1.39,0,0,1,.31.29l-.14.29a1.39,1.39,0,0,0,0,.38.11.11,0,0,0,0,.08l.4.11a.74.74,0,0,1,.31.46,4.76,4.76,0,0,0,.25.6c.09.15.12.25.1.29l-.05.1,0,.12a1,1,0,0,1,.46.71l.15.31a5.61,5.61,0,0,0,.54.92,10.09,10.09,0,0,1,.76,1.4,2.54,2.54,0,0,1,.24,1c0,.27,0,.56,0,.86l-.44.6a.73.73,0,0,0-.42.14.36.36,0,0,1-.33.07l-.64-.08a1.34,1.34,0,0,1-.47-.44,2.52,2.52,0,0,0-.41-.46,2.61,2.61,0,0,1-.4-.41,2.4,2.4,0,0,0-.27-.31c-.29-.14-.45-.27-.47-.39s-.09-.4-.18-.84c0,0,0,0,0-.06l0,0-.29-.09c-.29-.45-.43-.7-.4-.76l.1-.11-.4-.08s-.08-.11-.12-.27a1.15,1.15,0,0,0-.19-.42l-.22,0-.07,0a1,1,0,0,1-.43-.7c-.06-.08-.24-.27-.53-.56l-.53-.77a1.19,1.19,0,0,1-.25-.53.37.37,0,0,0-.15-.31,1.08,1.08,0,0,1-.27-.26c.06,0,.06,0,0,0l-.27-.23a.68.68,0,0,1-.21-.55q-.76-.81-.66-1a.51.51,0,0,1,.15-.15l0-.06c.08-.17.06-.29-.07-.35a.07.07,0,0,0-.1,0,.41.41,0,0,1,0,.33c0,.07-.07.1-.12.08s0,0,0-.08l-.55-.69-.28-.18a2,2,0,0,1-.17-.39l-.23-.45-.16-.07a2.21,2.21,0,0,1-.26-.3,3.19,3.19,0,0,0-.48-.49l-.27-.46a1.28,1.28,0,0,0-.32-.23c-.16-.08-.25-.09-.27-.05l-.27,1a11.09,11.09,0,0,0,.1,1.36l-.1.4a3.14,3.14,0,0,0,0,.53,1.9,1.9,0,0,1-.09.8,1,1,0,0,0,0,.63v.08l-.15.3a2.63,2.63,0,0,0,.2.39c.05.08.06.13.05.16.2,1.41.3,2.3.31,2.65a3.52,3.52,0,0,0,.1.85,3.23,3.23,0,0,1,.08.51l.19.09a1,1,0,0,1,.42.68,1.21,1.21,0,0,1,0,.84.76.76,0,0,1-.24.25,1.42,1.42,0,0,0-.35.38c-.1.15-.34.14-.72,0-.55-.26-.83-.94-.85-2.05a2,2,0,0,0,0-.49,13.92,13.92,0,0,1,.06-1.71v-.57a1.53,1.53,0,0,1,0-.67c0-.29,0-.53,0-.7a2.78,2.78,0,0,1,0-.4Zm11-13.1-.21-.3h0s0,0-.06.05,0,.24.19.4c.08,0,.12,0,.13,0A.12.12,0,0,0,180.16,236.57Z" transform="translate(-126.11 -127.11)"/><path class="cls-3" d="M198.62,219.76l0-.38a.29.29,0,0,0,0-.39.55.55,0,0,1-.08-.53,1.49,1.49,0,0,0-.1-.83.75.75,0,0,1,0-.72c0-.06.14-.09.29-.1a.58.58,0,0,1,.31.06,2.38,2.38,0,0,1,.75,1l.35.35.11.24a.79.79,0,0,0,0,.45,1.34,1.34,0,0,1,.06.56l.1.29a.79.79,0,0,0,0,.66.51.51,0,0,1,0,.49.91.91,0,0,0,0,.63,2.27,2.27,0,0,1-.13.43l.12.14a1.23,1.23,0,0,1-.1.61,3.5,3.5,0,0,0-.17.57.88.88,0,0,1-.08.27,1.31,1.31,0,0,1-.47.41,1.62,1.62,0,0,0-.48.37.37.37,0,0,1-.26,0,.88.88,0,0,0-.37-.05A.86.86,0,0,1,198,224l-.23-.25a.32.32,0,0,0-.19,0,.29.29,0,0,1-.2,0s-.06-.06-.06-.09a.24.24,0,0,0-.06-.09.51.51,0,0,0-.18-.09.4.4,0,0,1-.16-.08l-.63-.6c-.06,0-.1,0-.13,0s0,.14,0,.31a.6.6,0,0,1-.12.45.8.8,0,0,0,.22.45,1.42,1.42,0,0,1,0,.47l0,.12c.06.07.06.18,0,.33a.65.65,0,0,0,0,.38l0,.24-.23.25a3.31,3.31,0,0,0,.13.34,1.27,1.27,0,0,1,.12.6l.08,1.73c0,.17,0,.4-.08.7l0,.15a4.64,4.64,0,0,1-.44,2.16,2.92,2.92,0,0,1-.88.73,1,1,0,0,1-.92.18l-.68-.29a1.31,1.31,0,0,1-.65-.29,1.06,1.06,0,0,1-.21-.19l-.08-.07-.49-.32q-.17-.12,0-.39l-.4-.26a2.16,2.16,0,0,1-.26-.58,2.18,2.18,0,0,1-.2-.66l-.08-.28a.6.6,0,0,1-.22-.47,2.43,2.43,0,0,0-.13-.63,2,2,0,0,1-.08-.8l-.11-.75a5.13,5.13,0,0,1,0-1.66,2,2,0,0,0,0-.56,2,2,0,0,1,.07-.88,6.09,6.09,0,0,0,.18-.87,1.31,1.31,0,0,1,.19-.64l.08-.12a6.21,6.21,0,0,0,.21-1l.06-.09a1.2,1.2,0,0,1,.31-.18l0,0,.05-.31a.4.4,0,0,1,.08-.16c.43-.59,1.08-.61,1.93-.06.19.1.31.12.36,0s0-.35-.21-.78a1.4,1.4,0,0,1,.31-1.5c.3-.4.71-.42,1.23,0a3.07,3.07,0,0,1,1.13,2.12,1.48,1.48,0,0,0,.19.27l.43.63,0,0a.51.51,0,0,1,.15.3.51.51,0,0,0,.17.31l.37.24.36.35a.6.6,0,0,0,.43.16,1.51,1.51,0,0,0,.11-.93,1.4,1.4,0,0,1-.08-.51l.05-.18A1.68,1.68,0,0,1,198.62,219.76Zm-3.5,4.7a.81.81,0,0,1-.21-.7.85.85,0,0,0-.08-.59,9.38,9.38,0,0,0-.13-1.3,2.54,2.54,0,0,0-.25-1s-.06,0-.09,0l0,0v.16l-.22.23-.17.3-.25.12-.11.21-.26.24a.9.9,0,0,0-.2.45,3.6,3.6,0,0,1-.26.78,2.88,2.88,0,0,0-.23,1.12,1.27,1.27,0,0,1-.12.74,2.81,2.81,0,0,1,.12,1.12.82.82,0,0,0,.16.81,2,2,0,0,0,.07.62l.17.28a1.16,1.16,0,0,1-.05.4.41.41,0,0,0,.15.42.92.92,0,0,1,.28.51.7.7,0,0,0,.19.39c.46.34.76.42.89.24a2,2,0,0,0,.2-.58,2.53,2.53,0,0,0,.11-.57.84.84,0,0,1,0-.31l.06-.38a.29.29,0,0,1,0-.18.35.35,0,0,0,0-.21,1,1,0,0,1,0-.38.83.83,0,0,0,0-.47c0-.23.07-.6.14-1.1v-.47a1.3,1.3,0,0,0,0-.56A.9.9,0,0,1,195.12,224.46Z" transform="translate(-126.11 -127.11)"/><path class="cls-3" d="M199.25,213l.13-.24-.09-.23a4.62,4.62,0,0,0,.13-1.57.31.31,0,0,1,0-.21,1.07,1.07,0,0,0,0-.36,2.1,2.1,0,0,1,.58-1.58c.48-.52,1.05-.5,1.71.05l.27.1a7.87,7.87,0,0,1,1,.4,4.25,4.25,0,0,1,.86.45,1.78,1.78,0,0,1,.49.87,6.85,6.85,0,0,0,.16,1.77l0,.21a3.68,3.68,0,0,1,.21.71c-.1.23-.11.37-.05.44l.24.21a.75.75,0,0,1,0,.16,2.47,2.47,0,0,0,.14.44l.06.24a.72.72,0,0,0,.12.31,1.56,1.56,0,0,1,.15.41.47.47,0,0,0,.11.29c.13.12.35,0,.67-.32a1.3,1.3,0,0,0,.1-.26l.22-.14s0-.08,0-.2a1.17,1.17,0,0,1,.16-.45,1.52,1.52,0,0,0,.19-.51,2.27,2.27,0,0,1,.18-.56,1.78,1.78,0,0,0,.15-.67,2.34,2.34,0,0,1,.13-.64,1.44,1.44,0,0,0,.11-.59,5.61,5.61,0,0,1,.07-.68,7.43,7.43,0,0,0,0-1.27,1.85,1.85,0,0,1,.13-.68,2.71,2.71,0,0,0-.13-.55.74.74,0,0,1,.08-.77.32.32,0,0,1,.51,0,.46.46,0,0,1,.15.38l.08.07.23.17a.23.23,0,0,1,.14.08s.06.11.07.24a.7.7,0,0,0,.13.38.41.41,0,0,1,0,.45c.14.23.18.39.13.5a1.39,1.39,0,0,0-.06.58,7.89,7.89,0,0,1-.06,1.1,6.94,6.94,0,0,0-.06,1,.63.63,0,0,1,0,.35.41.41,0,0,1-.15.05.37.37,0,0,0-.15.06q-.08.08.09.27l.08.17a1.1,1.1,0,0,1-.08.29l-.1,0-.05.06c-.09.1-.1.19,0,.26l.2,0,0,0c.12.11.12.23,0,.37a3.66,3.66,0,0,0-.29,1.27l-.28.45-.12.46a1.46,1.46,0,0,0-.27.11l-.13.27-.32.4-.7.23a1.56,1.56,0,0,1-1,.06,4.8,4.8,0,0,0-.73-.25,1.14,1.14,0,0,1-.5-.21,3.46,3.46,0,0,1-.79-.92,3.32,3.32,0,0,0-.27-.5.86.86,0,0,1-.14-.41,1.57,1.57,0,0,0-.3-.65,8.26,8.26,0,0,1-.43-1.37,1.53,1.53,0,0,0-.21-.61l-.08-.38a.91.91,0,0,0-.12-.26c-.09-.15-.11-.25-.08-.32a.89.89,0,0,0-.14-.32c-.25-.23-.48-.24-.68,0,0,0,0,.13,0,.26a1.09,1.09,0,0,1-.07.61,1.5,1.5,0,0,0-.12.52,1.59,1.59,0,0,1-.1.43,1.28,1.28,0,0,0,0,.65l-.11.31c.1.22.14.37.11.44l-.32.59a.9.9,0,0,0,0,.28.48.48,0,0,1-.13.43,5.2,5.2,0,0,0,.07.64,1.78,1.78,0,0,0-.15.37l-.18.32a1.54,1.54,0,0,0,0,.45.76.76,0,0,1-.26.62c-.12.13-.29.09-.49-.1a1.69,1.69,0,0,1-.59-1.38,2.3,2.3,0,0,1,.21-1,.37.37,0,0,0,.08-.4.64.64,0,0,1,0-.45,2.11,2.11,0,0,0,.07-.81,1.78,1.78,0,0,1,.14-.94Z" transform="translate(-126.11 -127.11)"/><path class="cls-3" d="M207.55,196l-.53-.44-.07-.08c-.37-.42-.43-.77-.19-1.06.05-.07.19-.29.4-.67a1.27,1.27,0,0,1,.86,0,1.57,1.57,0,0,1,.83.41.5.5,0,0,1,.07.16,1.44,1.44,0,0,0,.25.39.79.79,0,0,1,.14.68,1.07,1.07,0,0,1-.35.65,1,1,0,0,1-.69.16A1.1,1.1,0,0,1,207.55,196Zm.15,11.66.05-.37.08-.07a.77.77,0,0,0,.1-.45l.08-.17a1.48,1.48,0,0,1,.06-.87l.07-.35a.55.55,0,0,1,.07-.22,1.92,1.92,0,0,0,.09-.54.81.81,0,0,1,.15-.53.9.9,0,0,1,.24-.16,1.13,1.13,0,0,1,0-.59,1.73,1.73,0,0,0,.06-.71l.11-.23a2,2,0,0,0,.13-.6.8.8,0,0,1,.28-.55,1.68,1.68,0,0,1,1.15-.32,1.46,1.46,0,0,1,1.08.38l.68,1.23c.53.89.71,1.43.56,1.63l.19.33a.49.49,0,0,0,0,.37l.36.25s0,.15,0,.32,0,.05,0,.11l.48.54a.37.37,0,0,1,0,.4.32.32,0,0,0,.13,0c0-.1.1-.23.28-.39l.24-.16,0-.55a1.33,1.33,0,0,0,.15-.35,5.23,5.23,0,0,1,.33-.76l.56-2.85a1.32,1.32,0,0,1,.22-.84c.13-.11.27-.09.42.08a1.3,1.3,0,0,1,.32.58,2.79,2.79,0,0,0,.2.65,1.11,1.11,0,0,1,.12.56,1.48,1.48,0,0,0,0,.42,2.36,2.36,0,0,1-.11.74,5.91,5.91,0,0,0-.17,1,4.47,4.47,0,0,1-.09.71l-.2.91,0,.2a1.8,1.8,0,0,1-.14.33,2.51,2.51,0,0,0-.2.56l-.12.34a.65.65,0,0,1-.2.3.6.6,0,0,0-.17.43.5.5,0,0,1-.09.32l-.22.15-.2.31a1.19,1.19,0,0,1-.78.22,1,1,0,0,1-.84-.29l-.07-.08-.13-.21a2.11,2.11,0,0,0-.32-.2,1.89,1.89,0,0,1-.3-.17l-.14-.21-.09-.05a1.65,1.65,0,0,1-.35-.5,1.14,1.14,0,0,0-.15-.33,2.21,2.21,0,0,1-.18-.32l-.23-.38a.55.55,0,0,1-.06-.33l-.21-.45-.15-.29,0-.3a.6.6,0,0,0-.12-.39,1.34,1.34,0,0,1-.2-.5,1.48,1.48,0,0,0-.09-.35.19.19,0,0,0-.3,0,1.75,1.75,0,0,0-.14.5l-.31.13s0,.1,0,.26,0,.1-.05.19a.48.48,0,0,0,0,.39l-.09.12-.24.08,0,0c-.09.08-.06.23.1.43a.89.89,0,0,1-.14.62l-.22.34a.44.44,0,0,0,0,.42,1,1,0,0,1,0,.57.78.78,0,0,1-.13.39c-.24.22-.49.19-.73-.08l-.44-.71Z" transform="translate(-126.11 -127.11)"/><path class="cls-3" d="M227.77,193.57l.08-.36a.29.29,0,0,0,.12-.38.6.6,0,0,1,.09-.53,1.42,1.42,0,0,0,.15-.82.79.79,0,0,1,.22-.69.4.4,0,0,1,.31,0,.51.51,0,0,1,.28.15,2.47,2.47,0,0,1,.41,1.18l.23.44,0,.26a.84.84,0,0,0-.1.45,1.26,1.26,0,0,1-.11.55v.3a.86.86,0,0,0-.19.64.49.49,0,0,1-.11.47.93.93,0,0,0-.22.59,2.23,2.23,0,0,1-.25.38l.08.16a1.37,1.37,0,0,1-.29.56,2.59,2.59,0,0,0-.34.49.74.74,0,0,1-.15.23,1.48,1.48,0,0,1-.58.25,2,2,0,0,0-.57.2.38.38,0,0,1-.24-.11.71.71,0,0,0-.33-.16.88.88,0,0,1-.45-.36l-.14-.32a.49.49,0,0,0-.18-.09.3.3,0,0,1-.17-.09.11.11,0,0,1,0-.1.17.17,0,0,0,0-.11.47.47,0,0,0-.14-.14.51.51,0,0,1-.13-.12l-.42-.76c0-.06-.08-.08-.12,0a.56.56,0,0,0-.1.29.63.63,0,0,1-.25.4.78.78,0,0,0,.07.49,1.52,1.52,0,0,1-.1.46v.13a.37.37,0,0,1-.09.32.59.59,0,0,0-.14.35l0,.25-.3.16s0,.16,0,.37a1.5,1.5,0,0,1-.07.6l-.45,1.67c-.06.16-.16.37-.3.65l0,.15a4.62,4.62,0,0,1-1.08,1.92,2.94,2.94,0,0,1-1,.43c-.45.11-.76.07-.93-.11l-.57-.49a1.23,1.23,0,0,1-.53-.46.65.65,0,0,1-.13-.25l-.07-.09-.36-.45c-.09-.12,0-.24.14-.37l-.3-.37a4.27,4.27,0,0,1-.06-1.32v-.29a.56.56,0,0,1-.07-.51,2.12,2.12,0,0,0,.07-.64,2,2,0,0,1,.17-.79l.12-.74a5.11,5.11,0,0,1,.51-1.59,2.11,2.11,0,0,0,.15-.54,1.93,1.93,0,0,1,.33-.81,5.35,5.35,0,0,0,.43-.78,1.52,1.52,0,0,1,.38-.56l.11-.08a7.25,7.25,0,0,0,.51-.9l.08-.07a1.63,1.63,0,0,1,.36-.08l0,0,.15-.28a.36.36,0,0,1,.12-.13c.59-.42,1.21-.25,1.86.53.14.16.25.21.33.16s.1-.34,0-.82a1.42,1.42,0,0,1,.75-1.33c.41-.29.81-.18,1.18.35a3,3,0,0,1,.44,2.35,1,1,0,0,0,.1.33l.22.73,0,0a.51.51,0,0,1,.05.32.5.5,0,0,0,.07.35l.28.34.23.44c.13.18.25.28.36.29a1.44,1.44,0,0,0,.39-.86,1.25,1.25,0,0,1,.08-.5l.11-.16A1.58,1.58,0,0,1,227.77,193.57ZM223,197a.82.82,0,0,1,0-.73.94.94,0,0,0,.11-.59,9.83,9.83,0,0,0,.26-1.28,2.57,2.57,0,0,0,.06-1s0,0-.09,0l0,0-.06.15-.28.16-.25.22-.28,0-.16.17-.33.14a1.16,1.16,0,0,0-.33.38,3.13,3.13,0,0,1-.48.66,2.81,2.81,0,0,0-.55,1,1.41,1.41,0,0,1-.35.67,2.59,2.59,0,0,1-.23,1.1.82.82,0,0,0-.08.82,1.94,1.94,0,0,0-.13.61l.08.32a1.34,1.34,0,0,1-.17.37.39.39,0,0,0,0,.44.92.92,0,0,1,.12.57.64.64,0,0,0,.06.43c.33.47.59.64.77.5a1.92,1.92,0,0,0,.37-.49,2.3,2.3,0,0,0,.28-.51.79.79,0,0,1,.14-.28l.17-.34a.34.34,0,0,1,.08-.16.37.37,0,0,0,.08-.2,1.06,1.06,0,0,1,.13-.36.83.83,0,0,0,.11-.45c.09-.22.25-.55.47-1l.13-.45a1.26,1.26,0,0,0,.22-.52A.86.86,0,0,1,223,197Z" transform="translate(-126.11 -127.11)"/><path class="cls-3" d="M243.63,185.94l.06,0,.19,0a.1.1,0,0,0,.05-.06.6.6,0,0,1,0-.58.81.81,0,0,1,.12-.64l.59-1,.21-.55.13-.19.05-.22c0-.2.11-.33.22-.38s.26-.07.32.05l0,.38.33.48a.78.78,0,0,1,.07.6c-.05.22-.14.54-.26,1l-.35,1.27-.3.44a1.76,1.76,0,0,0-.17.37l-.33.84a.41.41,0,0,1,0,.4l-.25.13-.09.13a1.45,1.45,0,0,1-.33.91l-.14.28a.36.36,0,0,1-.15.2l-.47.17-.26.22a.88.88,0,0,1-.4,0,2.38,2.38,0,0,0-.54,0,1.51,1.51,0,0,1-.86-.28,3.55,3.55,0,0,1-.72-.46s-.08-.1-.18-.18a.61.61,0,0,1-.16-.14,2.49,2.49,0,0,1,0-.39l0,0a.62.62,0,0,0-.2-.17,1.05,1.05,0,0,1-.31-.37,1,1,0,0,0-.28-.31c0-.13.05-.21,0-.26a.6.6,0,0,0-.14-.15.6.6,0,0,1-.14-.15l-.31-.82-.27-.35-.17-.39c-.11-.22-.27-.28-.45-.18s-.16.15-.22.33l-.09.09a4.64,4.64,0,0,0-.42.65.6.6,0,0,1-.28.32.92.92,0,0,1-.27.36l-.07.16a2,2,0,0,1-.15.32,3.88,3.88,0,0,1-.31.83c-.22.53-.41,1-.57,1.46a2.06,2.06,0,0,1-.43.82c-.12.1-.12.27,0,.5,0,0,0,.18-.14.4a2.52,2.52,0,0,0-.15.52,1.45,1.45,0,0,0-.38,0c-.13.07-.14.3,0,.67,0,.17-.11.34-.37.52a.81.81,0,0,0,0,.29l0,.09-.16.09a1,1,0,0,0-.12.29,1,1,0,0,1-.21.4c0,.36,0,.56-.12.61a.51.51,0,0,1-.21,0,2.5,2.5,0,0,0-.35,0,.88.88,0,0,1-.58-.17,1.42,1.42,0,0,1-.52-.46c-.61-1.15-.72-1.9-.33-2.24v-.08l-.07-.13a.33.33,0,0,1,0-.38,1.14,1.14,0,0,0,.18-.54,1.77,1.77,0,0,1,.1-.42l.2-.1s0-.15-.11-.37a.25.25,0,0,1,0-.21.44.44,0,0,0,0-.27,1.72,1.72,0,0,1,0-.61,1.91,1.91,0,0,0,0-.51l-.07,0a1.8,1.8,0,0,1-.35.69,1.18,1.18,0,0,0-.23.7l-.27.08a7.64,7.64,0,0,1-.52,1,1,1,0,0,0-.16.54c0,.06,0,.12,0,.18a2.14,2.14,0,0,0-.27.47l-.1.05c-.26.14-.49,0-.68-.36l-.15-1.06A1.49,1.49,0,0,1,229,190a8.17,8.17,0,0,0,.59-1,1.44,1.44,0,0,1,.57-.66l0-.21a1.38,1.38,0,0,0,.38-1c0-.36.06-.6.28-.71a1.69,1.69,0,0,1,1.64-.07,2.17,2.17,0,0,1,1,.77l.25.4a2.89,2.89,0,0,1,.23.66,1.07,1.07,0,0,0,0,.52c.05.08.12.1.22,0s.12-.12.18-.26a2.49,2.49,0,0,1,.22-.43.56.56,0,0,0,.13-.31,1,1,0,0,1,.27-.8,1.85,1.85,0,0,0,.36-.49l.09-.21v-.3a2.11,2.11,0,0,0,.38-.64.69.69,0,0,1,.26-.4,1.4,1.4,0,0,0,.38-.56l.2-.19.15-.24a.72.72,0,0,1,.15-.18,4.54,4.54,0,0,0,.37-.41,1.81,1.81,0,0,1,.35-.33,1.68,1.68,0,0,1,1.6,0,2.21,2.21,0,0,1,1,.79l.12.29.29.39,0,.06.33.93.19.28a1.52,1.52,0,0,1,.23,1.17c0,.05,0,.12,0,.2l.07.14.66.49c.22.18.35.25.4.23l.43-.41a.7.7,0,0,0,.18-.52,2,2,0,0,0,.24-.6A.37.37,0,0,1,243.63,185.94Z" transform="translate(-126.11 -127.11)"/><path class="cls-3" d="M258.59,178.92l.18-.33a.29.29,0,0,0,.21-.33.58.58,0,0,1,.23-.49,1.47,1.47,0,0,0,.37-.75q.1-.5.39-.6c.07,0,.17,0,.29.08s.21.15.23.21a2.35,2.35,0,0,1,.09,1.25l.1.49,0,.26a.7.7,0,0,0-.22.4,1.34,1.34,0,0,1-.26.51l-.08.29a.81.81,0,0,0-.35.56.48.48,0,0,1-.23.43.89.89,0,0,0-.37.51,2.67,2.67,0,0,1-.34.29l0,.18a1.28,1.28,0,0,1-.43.46,3.69,3.69,0,0,0-.46.38.55.55,0,0,1-.2.18,1.38,1.38,0,0,1-.63.09,1.72,1.72,0,0,0-.6,0,.44.44,0,0,1-.2-.18.78.78,0,0,0-.28-.24.92.92,0,0,1-.34-.47l-.05-.34a.25.25,0,0,0-.14-.13c-.08-.05-.13-.09-.14-.14a.14.14,0,0,1,0-.11.14.14,0,0,0,0-.11.75.75,0,0,0-.1-.17.77.77,0,0,1-.1-.15l-.2-.85c0-.07,0-.09-.1-.08a.65.65,0,0,0-.18.26.61.61,0,0,1-.34.31.74.74,0,0,0-.06.5,1.75,1.75,0,0,1-.23.42l0,.12c0,.09,0,.18-.17.28a.61.61,0,0,0-.23.3l-.11.23-.32.08a2,2,0,0,0-.08.36,1.37,1.37,0,0,1-.22.56L252,185c-.1.14-.26.32-.46.55l-.06.13a4.79,4.79,0,0,1-1.55,1.57,3,3,0,0,1-1.14.14c-.45,0-.74-.14-.86-.36l-.42-.62a1.28,1.28,0,0,1-.38-.59.91.91,0,0,1-.07-.28l0-.1-.24-.53c0-.13,0-.24.24-.32l-.2-.43a3.08,3.08,0,0,1,.1-.63,2.32,2.32,0,0,1,.2-.66l.08-.28a.59.59,0,0,1,.08-.51,2.37,2.37,0,0,0,.23-.6,2.1,2.1,0,0,1,.38-.72l.31-.68a5.17,5.17,0,0,1,.92-1.39,1.87,1.87,0,0,0,.28-.48,2,2,0,0,1,.54-.7,5.46,5.46,0,0,0,.63-.64,1.31,1.31,0,0,1,.51-.43l.13,0a7.36,7.36,0,0,0,.72-.73l.1,0a1,1,0,0,1,.37,0l0,0,.22-.23a.27.27,0,0,1,.15-.09c.69-.25,1.24.08,1.65,1,.1.19.19.27.28.23s.19-.3.25-.77.41-.84,1.07-1.09c.48-.17.83,0,1.05.65a3,3,0,0,1-.21,2.39,1.85,1.85,0,0,0,0,.33l0,.77v0a.46.46,0,0,1,0,.33.48.48,0,0,0,0,.35l.18.41.11.48c.07.21.16.34.27.37a1.39,1.39,0,0,0,.6-.72,1.53,1.53,0,0,1,.21-.46l.14-.13A1.83,1.83,0,0,1,258.59,178.92Zm-5.5,2a.85.85,0,0,1,.2-.71.91.91,0,0,0,.27-.53,9.36,9.36,0,0,0,.59-1.17,2.35,2.35,0,0,0,.32-.94s0,0-.08,0l0,0-.1.13-.31.07-.3.15-.27,0-.21.12-.35.05a1,1,0,0,0-.42.28,3.27,3.27,0,0,1-.64.51,2.8,2.8,0,0,0-.8.81,1.43,1.43,0,0,1-.51.55,2.66,2.66,0,0,1-.52,1,.83.83,0,0,0-.3.77,2,2,0,0,0-.28.56v.32a1.08,1.08,0,0,1-.26.31.42.42,0,0,0-.11.44.9.9,0,0,1,0,.58.7.7,0,0,0-.06.42c.2.54.41.77.62.7A2.36,2.36,0,0,0,250,185a2.39,2.39,0,0,0,.4-.42.81.81,0,0,1,.21-.23l.26-.28a.33.33,0,0,1,.12-.14.32.32,0,0,0,.12-.17,1.14,1.14,0,0,1,.23-.31.87.87,0,0,0,.22-.41l.72-.85.25-.39a1.28,1.28,0,0,0,.35-.45A.78.78,0,0,1,253.09,181Z" transform="translate(-126.11 -127.11)"/><path class="cls-3" d="M273.35,172l-.47,0a.83.83,0,0,0-.21.28,1.89,1.89,0,0,1-.47.47.92.92,0,0,0-.38.42,1.07,1.07,0,0,1-.1.29c0,.07-.08.17-.12.28a.93.93,0,0,1-.2.3.76.76,0,0,0-.18.36.32.32,0,0,1-.28.26c-.5.08-.8-.21-.89-.85a3,3,0,0,1,.19-1.08,1.54,1.54,0,0,1,.64-1,3.82,3.82,0,0,0,.6-.33l.37-.24a7.28,7.28,0,0,0,.87-.78,7.5,7.5,0,0,1,.85-.4l.59-.48a.54.54,0,0,1,.22-.23,1.14,1.14,0,0,0,.26-.14l.29-.08a1.24,1.24,0,0,1,.56-.44l.46-.28a5.92,5.92,0,0,1,1.18-.7l.09-.09a.49.49,0,0,1,.1-.08l.47,0c.14,0,.22-.14.23-.37l.1,0,.44,0a.55.55,0,0,0,.16-.11.85.85,0,0,1,.31-.17.6.6,0,0,0,.28-.24.32.32,0,0,1,.23-.2l.3,0c.09,0,.19-.12.29-.32a3.16,3.16,0,0,1,.44-.63.38.38,0,0,0,.15,0c.07,0,.12-.1.15-.26a.92.92,0,0,1,.2-.42,1.79,1.79,0,0,0,.3-.55,1.14,1.14,0,0,1,.33-.51,1.21,1.21,0,0,0,.3-.33.51.51,0,0,1,.31-.25l0-.05,0-.22c0-.19.11-.39.41-.6a.88.88,0,0,0,.17-.17l0-.26a.92.92,0,0,1,.14-.26.56.56,0,0,0,.13-.31,2.25,2.25,0,0,1,.44-.83,5.42,5.42,0,0,1,.67-.86,2,2,0,0,0,.47-.78l.23-.12a4.56,4.56,0,0,1,.5-.8,2.29,2.29,0,0,0,.37-.64l.22-.34a.13.13,0,0,0,.08-.15c0-.07-.08-.09-.22-.07a2.11,2.11,0,0,1-.67,0l-.28.15-.32,0-.41.27-.42,0a2.18,2.18,0,0,1-.57.39,1.35,1.35,0,0,0-.26.11l-.2.1a1.53,1.53,0,0,0-.31.21,1.12,1.12,0,0,1-.56.2.62.62,0,0,0-.31.22,6.59,6.59,0,0,1-.56.51,0,0,0,0,1,0,0l-.51.05c-.45.6-.74.91-.88.93h-.41a2.91,2.91,0,0,0-.87.67,4.43,4.43,0,0,1-.59.57h-.32c-.23.32-.39.51-.45.58a.61.61,0,0,0-.17.3.35.35,0,0,1-.32.24l-.33.36a.86.86,0,0,1-.32.63l0,.08,0,.38c0,.09,0,.23-.21.41s-.28.29-.37.3a.87.87,0,0,1-.7-.31,1,1,0,0,1-.4-1.16l.06-.78c0-.38.58-.83,1.64-1.35l.24-.25a1.25,1.25,0,0,1,.48-.29l.2-.1.06-.28.33-.23a1.74,1.74,0,0,0,.42-.34,2.4,2.4,0,0,1,.57-.43l.25-.21.36-.06a10.1,10.1,0,0,1,3.52-2.26,18.34,18.34,0,0,1,4.67-1.59,1.37,1.37,0,0,1,1.1.49,2,2,0,0,1,.67,1.1,1,1,0,0,1-.28.74.94.94,0,0,0-.32.7,1.28,1.28,0,0,1-.37.79,3.93,3.93,0,0,0-.63.87l-.11.37a.42.42,0,0,1-.19.26.68.68,0,0,0-.24.43c-.06.22-.28.41-.65.58,0,0,0,.09,0,.22s-.11.3-.35.49l-.18.21q-.09.58-.24.69l-.15.2c-.07.6-.3.92-.67,1-.08,0-.14.12-.17.34a1.09,1.09,0,0,1-.43.62v.11a4.28,4.28,0,0,1,1.05-.41l.23-.07.09-.12a.36.36,0,0,0,.22,0,.81.81,0,0,0,.47-.32h.29s.06,0,.12,0l.85-.4c.25-.08.53-.18.83-.3l.18,0a1.21,1.21,0,0,1,1,.23,1.32,1.32,0,0,1,.47.84v.5l.07.26c0,.07-.08.19-.28.36l-.16.17a1.38,1.38,0,0,1-.83.5c-.54.08-.88,0-1-.26,0-.05-.09-.07-.25-.05a.8.8,0,0,1-.37,0,.47.47,0,0,0-.21,0,1.54,1.54,0,0,1-.48,0,1.16,1.16,0,0,1-.65.31l-.1,0-.22,0-.3.3-.11,0a.36.36,0,0,0-.14,0,.47.47,0,0,0-.23.12.62.62,0,0,1-.26.12l-.25-.05a.8.8,0,0,1-.23.1.51.51,0,0,0-.25.27.46.46,0,0,1-.3.26c-.2,0-.37.25-.49.66l-.09.12-.11,0c-.08,0-.12.12-.13.31a.82.82,0,0,1-.07.38c-.18.05-.29.13-.31.23a6,6,0,0,0-.1.63l-.11.34-.19.15a3.58,3.58,0,0,1-.45,1.36,8.61,8.61,0,0,0-.53,1.08,1.78,1.78,0,0,1-.32.6.77.77,0,0,0-.19.5.93.93,0,0,1-.11.46,5.34,5.34,0,0,0-.3.82l-.4,1-.15.54c-.06.17-.15.27-.28.29s-.1.07-.08.19l0,.35a6.48,6.48,0,0,1-.22.89l-.07.36a.42.42,0,0,1-.19.19.64.64,0,0,0-.17.49.84.84,0,0,1-.13.5.66.66,0,0,0-.1.47.48.48,0,0,1-.28.5,2.9,2.9,0,0,1,0,.43q0,.1-.27.27h0l.2.58c0,.08,0,.12-.05.13s-.16.15-.15.2l.1.2v.07a1,1,0,0,1-.09.35v0a4.07,4.07,0,0,0,.23.63l-.07.22c0,.21.14.3.32.28l.49-.43q.24,0,.33.54l.08.16c-.09.09-.14.15-.13.2a.47.47,0,0,0,.06.15.77.77,0,0,1,.06.15c.05.39-.26.63-.94.73h-.07a.49.49,0,0,1-.22,0l-.37.09a1.83,1.83,0,0,1-.81-.29,2.47,2.47,0,0,1-1-1.09,4.44,4.44,0,0,1-.51-1.38l.19-2.08a.32.32,0,0,0,0-.23.65.65,0,0,1,.07-.39l.12-.61a5.21,5.21,0,0,1,.44-1,2.71,2.71,0,0,1,.27-.22.73.73,0,0,0,.23-.25c-.22,0-.34-.08-.34-.14a2.24,2.24,0,0,1,.19-.57c.13-.34.25-.53.37-.57s0,0,0,0l-.06-.13v0a1.53,1.53,0,0,1,.15-.41l-.11-.26a.79.79,0,0,1,.17-.23,2.49,2.49,0,0,0,.27-.64,1.32,1.32,0,0,1,.27-.6.53.53,0,0,0,.15-.15l-.13-.48a.38.38,0,0,1,.1-.21l.07-.23a1.11,1.11,0,0,1,.14-.29,4.65,4.65,0,0,0,.21-.46l.1-.16a2.4,2.4,0,0,0,.15-.46,1.11,1.11,0,0,1,.27-.81l.51-1.13a5,5,0,0,0,.51-1.33v0a2.26,2.26,0,0,0-.95.49,3.54,3.54,0,0,1-.63.44l-.41,0a3.72,3.72,0,0,0-.48.62,2.73,2.73,0,0,0-1.51.78l-.06.05-.35,0-.07,0-.07.19a3.36,3.36,0,0,0-.44.31,3.36,3.36,0,0,1-.43.31Z" transform="translate(-126.11 -127.11)"/><path class="cls-3" d="M300.56,173l.28-.25a.3.3,0,0,0,.31-.25c0-.16.15-.28.37-.38a1.46,1.46,0,0,0,.6-.59c.18-.29.37-.44.57-.44s.15.06.25.17a.48.48,0,0,1,.14.28,2.38,2.38,0,0,1-.33,1.21l-.06.49-.12.24a.79.79,0,0,0-.34.3,1.18,1.18,0,0,1-.41.4l-.17.25a.77.77,0,0,0-.51.41.52.52,0,0,1-.37.33.89.89,0,0,0-.51.36,2.85,2.85,0,0,1-.42.16l0,.18a1.23,1.23,0,0,1-.55.29,3.81,3.81,0,0,0-.56.21,1,1,0,0,1-.26.11,1.44,1.44,0,0,1-.62-.13,2,2,0,0,0-.58-.15.42.42,0,0,1-.13-.23.7.7,0,0,0-.18-.32.87.87,0,0,1-.17-.56l.06-.33a.3.3,0,0,0-.09-.18.31.31,0,0,1-.09-.17.12.12,0,0,1,0-.11.16.16,0,0,0,0-.11.46.46,0,0,0,0-.19.74.74,0,0,1,0-.18l.09-.86c0-.07,0-.11-.07-.11s-.13.06-.25.18a.65.65,0,0,1-.43.19.78.78,0,0,0-.22.44,1.84,1.84,0,0,1-.35.33l-.07.1c0,.09-.11.16-.26.21a.74.74,0,0,0-.32.21l-.17.18-.33,0a1.61,1.61,0,0,0-.19.31,1.5,1.5,0,0,1-.4.46l-1.32,1.11c-.14.1-.35.22-.61.37l-.11.1a4.43,4.43,0,0,1-2,1,2.82,2.82,0,0,1-1.11-.24c-.43-.17-.66-.38-.7-.63l-.19-.72a1.2,1.2,0,0,1-.17-.68.81.81,0,0,1,0-.28v-.11l-.05-.58c0-.14.11-.21.33-.22l0-.47a2.34,2.34,0,0,1,.3-.56,3.12,3.12,0,0,1,.4-.57l.18-.23a.54.54,0,0,1,.24-.45,2.58,2.58,0,0,0,.41-.5,2.29,2.29,0,0,1,.59-.55l.52-.54a5.26,5.26,0,0,1,1.33-1,2.28,2.28,0,0,0,.43-.36,1.93,1.93,0,0,1,.73-.48,5.53,5.53,0,0,0,.81-.4,1.59,1.59,0,0,1,.62-.24h.14a6.15,6.15,0,0,0,.93-.46h.11a1.2,1.2,0,0,1,.33.14h0l.28-.15a.48.48,0,0,1,.18,0c.73,0,1.13.49,1.22,1.5,0,.21.09.32.18.31s.29-.21.5-.65a1.42,1.42,0,0,1,1.37-.67c.51,0,.77.31.78,1a3.06,3.06,0,0,1-1,2.19,1.34,1.34,0,0,0-.1.32l-.23.73v0a.58.58,0,0,1-.15.3.52.52,0,0,0-.14.32l0,.44-.06.5a.55.55,0,0,0,.13.44,1.47,1.47,0,0,0,.81-.48c.16-.22.28-.35.35-.37l.18-.07A1.62,1.62,0,0,1,300.56,173Zm-5.86.1a.81.81,0,0,1,.42-.6.91.91,0,0,0,.43-.42,9.69,9.69,0,0,0,.94-.9c.42-.43.62-.69.62-.79s0-.05-.07-.05h0l-.14.09-.32,0-.33,0-.25-.12-.23,0-.35-.06a1,1,0,0,0-.49.12,3.32,3.32,0,0,1-.77.27,2.86,2.86,0,0,0-1,.5,1.36,1.36,0,0,1-.67.36,2.58,2.58,0,0,1-.81.77.83.83,0,0,0-.54.63c-.3.25-.45.39-.45.43l-.12.3a.93.93,0,0,1-.35.21.41.41,0,0,0-.24.38,1,1,0,0,1-.23.53.63.63,0,0,0-.19.38c0,.58.12.86.34.86a4.4,4.4,0,0,0,1.11-.46.69.69,0,0,1,.28-.15l.33-.18a.29.29,0,0,1,.16-.09.3.3,0,0,0,.17-.12,1.24,1.24,0,0,1,.32-.21.88.88,0,0,0,.34-.32l1-.56.36-.29a1.19,1.19,0,0,0,.47-.31A1,1,0,0,1,294.7,173.11Zm4.42-9.08-.4.59a3.69,3.69,0,0,0-.66.38,1.81,1.81,0,0,0-.54.47l-.23.11a1.6,1.6,0,0,0-.35.3.64.64,0,0,1-.44.23l-.39-.1-.17.07-.23-.14a1.55,1.55,0,0,1-.32.15c-.22,0-.34-.14-.34-.43s.21-.4.64-.67a1.53,1.53,0,0,1,.61-.7l.17-.18a1.14,1.14,0,0,1,.35-.37.64.64,0,0,0,.25-.35,3.87,3.87,0,0,1,.29-.6,2.14,2.14,0,0,0,.28-.67,2.57,2.57,0,0,0,.23-.36.57.57,0,0,1,.55-.27.26.26,0,0,1,.22.08.17.17,0,0,0,.14.09l.69-.09c.59,0,.89.23.89.71a1.79,1.79,0,0,1-.33.6,7.83,7.83,0,0,0-.53.86Z" transform="translate(-126.11 -127.11)"/><path class="cls-3" d="M304.46,170.17l.08-.14a.72.72,0,0,0,.8-.4l.08-.06a2.43,2.43,0,0,0,.95-.4,2.48,2.48,0,0,1,1-.41c.49-.1.75-.16.77-.15a2.26,2.26,0,0,1,.61.37,1.27,1.27,0,0,1,.42,1.25,2.12,2.12,0,0,1-.46,1.14l-.05.55-.05.13a.61.61,0,0,0-.35.45v.65l-.6,1c-.21.07-.31.14-.32.21s0,.11.13.19a.29.29,0,0,1,.13.28,3.74,3.74,0,0,1-.18.71s.05,0,.07,0h.07a.46.46,0,0,1,.3-.18l.19-.11a.49.49,0,0,1,.15-.27l.21,0c.09,0,.15-.08.17-.27s.29-.34.86-.83a11.21,11.21,0,0,0,1-.94,2.07,2.07,0,0,1,.4-.34.61.61,0,0,0,.26-.28.51.51,0,0,1,.23-.28,2,2,0,0,0,.3-.27,1.16,1.16,0,0,1,.32-.24,1.38,1.38,0,0,0,.44-.39,4.9,4.9,0,0,1,.93-.76,1.3,1.3,0,0,0,.28-.29,1.69,1.69,0,0,1,.56-.42,3.67,3.67,0,0,0,.77-.51,1.7,1.7,0,0,1,1.21-.23,1.61,1.61,0,0,1,1.24,1.5.67.67,0,0,1-.13.37l-.33.42c-.16.2-.29.29-.41.28l-.31-.13a1,1,0,0,1-.71.27l-.33-.11a1.22,1.22,0,0,1-.53.18.42.42,0,0,0-.34.18.46.46,0,0,1-.32.19,1,1,0,0,0-.36.14l-.3.11a1.16,1.16,0,0,1-.81.58,3.13,3.13,0,0,0-.44.45s-.06.08-.18.13a1.09,1.09,0,0,0-.37.28c-.13.14-.23.21-.3.2h-.16a1,1,0,0,0-.26.47c-.07.22-.28.35-.62.4a.84.84,0,0,0-.24.24.91.91,0,0,1-.43.3,1.15,1.15,0,0,1-.52.61l-.25.35a1,1,0,0,1-.37.31,1.24,1.24,0,0,0-.29.17s-.11.17-.28.45a1.06,1.06,0,0,1-.52.5,1.94,1.94,0,0,0-.53.35c-.19.17-.33.24-.45.23-.41,0-.82-.41-1.22-1.12a3.53,3.53,0,0,1-.58-1.34,3.69,3.69,0,0,1,.41-1.51,3.15,3.15,0,0,0,.43-1,3.53,3.53,0,0,1,.28-.85l.15-.53.17-.24a1.13,1.13,0,0,0,.25-.45l.12-.27c0-.21,0-.33-.16-.34a.53.53,0,0,0-.46.28l-.07.06-.45-.15c-.08,0-.18.17-.28.53a.43.43,0,0,1-.37.19,1.11,1.11,0,0,0-.67.5l-.1.07-.22,0c-.18.26-.31.38-.39.38s-.13-.09-.2-.23a.78.78,0,0,0-.26-.33.31.31,0,0,1-.15-.28c0-.27.33-.59.89-1a.61.61,0,0,0,.24-.25c0-.08.19-.11.49-.11A1.12,1.12,0,0,0,304.46,170.17Z" transform="translate(-126.11 -127.11)"/><path class="cls-3" d="M318.56,172.2,319,172a.44.44,0,0,0,.53-.35,1,1,0,0,1,.71-.58l.26-.25a4.64,4.64,0,0,1,1.56-.4,1.39,1.39,0,0,0,.45-.24.13.13,0,0,1,.08,0l.26.12a2,2,0,0,0,.61,0,2,2,0,0,1,.7,0l.74.11a.74.74,0,0,1,.26.16,1.33,1.33,0,0,0,.51.2,1,1,0,0,1,.64.48,1.06,1.06,0,0,1,.19.71,1.59,1.59,0,0,1-.77,1,9.86,9.86,0,0,0-1.52.74,1.25,1.25,0,0,0-.37.18.46.46,0,0,1-.3.11s-.08,0-.09-.06a.13.13,0,0,0-.1-.07c-.18,0-.43.15-.73.56l-.31-.09a.94.94,0,0,0-.46.34.35.35,0,0,1-.41.15c-.51.35-.84.5-1,.47l-.22-.11a.55.55,0,0,0-.21.33c0,.14-.14.21-.33.19l-.26.17-.17-.07-.42.3a1.06,1.06,0,0,0-.57.06,4,4,0,0,1-.2.51,3.39,3.39,0,0,0-.14.34c-.07.34.21.57.82.69l.85,0a1.2,1.2,0,0,0,.65-.06,1.21,1.21,0,0,1,.65,0,1.28,1.28,0,0,0,.33,0l.16.1a1.21,1.21,0,0,1,.54-.38,1.09,1.09,0,0,1,.56-.1l.19-.07a.49.49,0,0,1,.26-.24l.17-.09a.34.34,0,0,1,.28-.09l.25,0,.07,0a.86.86,0,0,1,.69-.41.7.7,0,0,0,.51-.16.41.41,0,0,1,.38-.14.67.67,0,0,0,.45-.16,2.27,2.27,0,0,1,.48-.29,3.19,3.19,0,0,0,.39-.2.29.29,0,0,1,.18-.05c.07,0,.1.07.08.18s0,.16,0,.17.08,0,.09-.06a.54.54,0,0,0,0-.18l0-.12a.34.34,0,0,1,.34-.29l.88-.35c.07-.24.17-.37.28-.39a.84.84,0,0,0,.28-.09.32.32,0,0,1,.21,0c.15,0,.21.13.17.3l-.17.44v.48c0,.07-.08.15-.22.25a1.34,1.34,0,0,0-.36.51q-.15.36-.3.36l-.1,0a1.73,1.73,0,0,1-.57.3.52.52,0,0,0-.33.16l-.72.56-.36.25c-.1.08-.17.11-.22.1l-.11-.16s0,0-.06,0-.2,0-.26.17a.72.72,0,0,1-.25.32,2,2,0,0,0-.77.32l-.11,0-.31-.06c-.15,0-.27.06-.38.27a.53.53,0,0,1-.57.3,1.11,1.11,0,0,0-.62.09.37.37,0,0,1-.17,0,2.87,2.87,0,0,0-.53.18l-1.56.24a.77.77,0,0,1-.24,0l-.5,0a.31.31,0,0,1-.18-.18c-.05-.11-.09-.16-.12-.17l-.33,0a2.53,2.53,0,0,1-.68,0,.81.81,0,0,1-.35-.19l-.3-.24c-.34-.07-.52-.37-.56-.92h-.21a4.61,4.61,0,0,1-.23-1.32.62.62,0,0,0-.29-.26.31.31,0,0,1-.16-.38,1.3,1.3,0,0,1,.54-1,1.08,1.08,0,0,0,.45-.34l.42-.85a1.06,1.06,0,0,0,.24-.31l.54-.65Zm3.86-.33-.22.07a3.34,3.34,0,0,0-.47.22,4,4,0,0,1-.74.31,1.91,1.91,0,0,0-.83.73,3.7,3.7,0,0,0-.49.73c0,.07,0,.11.08.12l.64-.14a3.44,3.44,0,0,0,.69-.28,8.09,8.09,0,0,1,.94-.43l.17-.11a1,1,0,0,1,.37-.19,2.14,2.14,0,0,0,.49-.27l.19,0a1.27,1.27,0,0,1,.71-.45c.21,0,.33-.08.34-.15s-.07-.23-.29-.28a1.1,1.1,0,0,0-.45.1l-.4-.08a1.53,1.53,0,0,0-.42.13Z" transform="translate(-126.11 -127.11)"/><path class="cls-3" d="M331.54,173.64h.27l.17-.19a4.36,4.36,0,0,0,1.46-.58.37.37,0,0,1,.19-.09,1,1,0,0,0,.33-.16,2.13,2.13,0,0,1,1.67-.18c.68.2.92.72.72,1.55l0,.29a5.86,5.86,0,0,1,.1,1.08,4.69,4.69,0,0,1,0,1,1.81,1.81,0,0,1-.56.83,6.31,6.31,0,0,0-1.51.93l-.21.07a2.89,2.89,0,0,1-.54.5c-.24,0-.38.07-.41.16l-.09.3s0,.06-.12.12a2.31,2.31,0,0,0-.32.32l-.2.16a1.08,1.08,0,0,0-.22.24,1.36,1.36,0,0,1-.3.33.48.48,0,0,0-.21.23c-.05.17.14.32.58.45a1,1,0,0,0,.29,0l.21.14s.09,0,.21-.06a1,1,0,0,1,.46-.05,1.6,1.6,0,0,0,.55-.06,2.43,2.43,0,0,1,.58-.09,1.87,1.87,0,0,0,.67-.16,2,2,0,0,1,.63-.17,1.6,1.6,0,0,0,.58-.17,4.6,4.6,0,0,1,.63-.24,7.59,7.59,0,0,0,1.16-.54,2,2,0,0,1,.66-.19,1.82,1.82,0,0,0,.43-.36.75.75,0,0,1,.73-.27c.24.07.33.22.26.44a.54.54,0,0,1-.27.31l0,.1,0,.28a.3.3,0,0,1,0,.16c0,.05-.08.1-.19.17a.71.71,0,0,0-.28.29.43.43,0,0,1-.41.19c-.14.22-.27.34-.38.34a1.32,1.32,0,0,0-.55.21,8.24,8.24,0,0,1-1,.43,6.38,6.38,0,0,0-.9.39.66.66,0,0,1-.33.13.35.35,0,0,1-.11-.11c-.06-.06-.09-.1-.12-.1s-.13,0-.2.19l-.12.15a.87.87,0,0,1-.3.06l-.09-.06-.06,0c-.14,0-.22,0-.25.09l0,.2v0c0,.16-.16.21-.34.16a3.62,3.62,0,0,0-1.27.3l-.52,0-.47.1a1,1,0,0,0-.22-.2h-.3l-.5-.11-.51-.53a1.48,1.48,0,0,1-.52-.89,5.61,5.61,0,0,0-.1-.77,1.21,1.21,0,0,1,0-.54,3.7,3.7,0,0,1,.48-1.12c.15-.2.26-.36.32-.46a.79.79,0,0,1,.3-.31,1.52,1.52,0,0,0,.45-.56,10.9,10.9,0,0,1,1-1,1.48,1.48,0,0,0,.45-.45l.31-.24a.76.76,0,0,0,.18-.23c.09-.14.18-.21.25-.21a1,1,0,0,0,.23-.27.44.44,0,0,0-.3-.62c-.05,0-.13,0-.24.12a1,1,0,0,1-.56.21,2,2,0,0,0-.53.12,1.33,1.33,0,0,1-.43.11,1.21,1.21,0,0,0-.6.25l-.32.05c-.16.19-.27.28-.35.28s-.3,0-.67,0c0,0-.1,0-.23.15a.48.48,0,0,1-.45.07,6.08,6.08,0,0,0-.54.35,1.77,1.77,0,0,0-.4,0H328a1.69,1.69,0,0,0-.39.23.72.72,0,0,1-.67,0c-.17,0-.21-.21-.13-.48a1.73,1.73,0,0,1,1-1.15,2.27,2.27,0,0,1,1-.27.39.39,0,0,0,.4-.1.58.58,0,0,1,.41-.18,1.92,1.92,0,0,0,.76-.31,1.94,1.94,0,0,1,.9-.29Z" transform="translate(-126.11 -127.11)"/><path class="cls-3" d="M347.12,186.25l-1.05.36a.16.16,0,0,0-.1-.12c-.11-.05-.28,0-.52.13s-.39.18-.46.15l-.15-.1a2.38,2.38,0,0,1-.73.12,2.15,2.15,0,0,0-.51,0,1.41,1.41,0,0,1-.52,0,.53.53,0,0,0-.39,0,1.18,1.18,0,0,1-.69-.14l-.24-.14a1.12,1.12,0,0,1-.32,0,.46.46,0,0,1-.22-.25.57.57,0,0,0-.26-.29.59.59,0,0,1-.25-.37,1.08,1.08,0,0,0-.22-.43.82.82,0,0,1-.16-.34l-.14-.29a2.92,2.92,0,0,1-.17-1.86l0-.07.16-.29.11-.37a1.4,1.4,0,0,0,.28-.21l.22-.53.93-1.14s0-.13-.05-.27a.65.65,0,0,1-.44.16.37.37,0,0,0-.32.14c-.09.1-.18.14-.26.1l-.17-.15a1.93,1.93,0,0,0-.29.28.45.45,0,0,1-.52.14c-.2-.08-.26-.2-.2-.35l.15-.28.07-.45a1.54,1.54,0,0,1,.48-.41,1.11,1.11,0,0,1,.66-.24.71.71,0,0,0,.5-.15,2.72,2.72,0,0,1,.93-.34A.88.88,0,0,0,343,178a2,2,0,0,1,.71,0,1.28,1.28,0,0,0,.7-.1,4.66,4.66,0,0,1,1.39-.23,3.88,3.88,0,0,1,1.54.09,1.46,1.46,0,0,0,.39.08l.48,0a2,2,0,0,0,.48,0,.82.82,0,0,1,.4,0l.4.36a4.76,4.76,0,0,1,.55.47,1.6,1.6,0,0,0,.28.28,3.76,3.76,0,0,1,.5.54.75.75,0,0,1,0,.8,5.08,5.08,0,0,0-.46.33s.09.16.3.35a8,8,0,0,0,.13.8l-.06.64-.52,1.35-.08.12c-.17.06-.26.1-.27.14l-.09.34-.31.41a.52.52,0,0,1-.28.21.3.3,0,0,0-.22.1l-.15.09a2.6,2.6,0,0,0-.25.23,1.38,1.38,0,0,1-.39.27.62.62,0,0,0-.29.24.39.39,0,0,1-.27.19.57.57,0,0,0-.26.1A.49.49,0,0,1,347.12,186.25Zm-5.25-1.66-.09.4,0,0,.26.11.07.07a3.94,3.94,0,0,0,.46.27,1.4,1.4,0,0,0,.91.08.93.93,0,0,1,.59-.06c.12.05.25,0,.4-.12s.23-.19.25-.18l.23.09h.08a.59.59,0,0,1,.56-.4,1.14,1.14,0,0,0,.65-.24,1.33,1.33,0,0,1,.48-.28.76.76,0,0,0,.4-.26l.21-.15c.06,0,.11-.09.16-.21l.56-.46a4.66,4.66,0,0,0,.36-.6.65.65,0,0,0-.13-.68.88.88,0,0,1,0-.91,1,1,0,0,1,.67-.54c.35-.1.53-.18.54-.22a.09.09,0,0,0-.05-.14,2.19,2.19,0,0,0-.43,0c-.14.13-.61.17-1.41.13a4,4,0,0,0-.3-.32c-.07,0-.16,0-.28.12a1.06,1.06,0,0,1-.31.2l-.21-.09a.86.86,0,0,0-.3.12.61.61,0,0,1-.54,0l-.28.11a.73.73,0,0,1-.55.41l-.26.13a6.14,6.14,0,0,1-.61.28l-.6.62a1.91,1.91,0,0,0-.44.56.61.61,0,0,1-.31.11.36.36,0,0,0-.28.2.53.53,0,0,0,.05.21.4.4,0,0,1,0,.25l-.15.18-.32.58Z" transform="translate(-126.11 -127.11)"/><path class="cls-3" d="M375.67,201l-.05,0a1.73,1.73,0,0,1-.54.15l-.22-.15-.11,0a1.38,1.38,0,0,1-.79,0l-.25-.26-.06,0a.58.58,0,0,0-.53,0,.62.62,0,0,1-.56-.07,1.14,1.14,0,0,1-.26-.31.73.73,0,0,1-.69-.14l-1.09-.14-.32-.06a.67.67,0,0,1-.33-.12,1.18,1.18,0,0,0-.5-.15.92.92,0,0,1-.43-.12l-.26-.34a2.34,2.34,0,0,1-1.25-.26,7.68,7.68,0,0,0-.78-.37l-.43-.26-.73-.28a1.51,1.51,0,0,1-.56-.27,1.24,1.24,0,0,1-.48-.75,3.1,3.1,0,0,0-.58,0l-.11,0-.08-.13a.42.42,0,0,0-.11-.14.22.22,0,0,0-.14,0,.5.5,0,0,1-.2-.08,1.57,1.57,0,0,1-.24-.63.37.37,0,0,1-.25,0,.84.84,0,0,1-.23-.94l-.3-.09s0-.15,0-.37a1.37,1.37,0,0,1,.21-.53c.26-.37,1.51-.5,3.77-.39a22.26,22.26,0,0,1,4.09.41h.22a.31.31,0,0,1,.25,0,.74.74,0,0,1,.1.16l.09.06a.31.31,0,0,0,.38,0,.4.4,0,0,1,.49,0l.16.07,2.27.26c.1,0,.43.1,1,.26a7.76,7.76,0,0,0,1.2.27,3.1,3.1,0,0,1,.94.34h.21a1.16,1.16,0,0,1,.46.18,1,1,0,0,1,.29,1.63l-.55.3a.82.82,0,0,1-.94.07.24.24,0,0,1-.12-.2c0-.08,0-.13,0-.15l-.76-.49-.23-.34-.42-.12-.23-.16a1.67,1.67,0,0,0-.54-.06L374,196a9.49,9.49,0,0,0-2.13-.6,4.93,4.93,0,0,1-1.58-.43,1.61,1.61,0,0,0-.69,0,2,2,0,0,1-1-.12c-1.76-.28-2.72-.28-2.91,0s.37.75,1.56,1.59a2.36,2.36,0,0,0,1.14.57l1.79.75.26-.06.3.21a.84.84,0,0,0,.51.13,1.11,1.11,0,0,1,.65.22.91.91,0,0,0,.48.15,1,1,0,0,1,.44.08.72.72,0,0,0,.27.07,2.93,2.93,0,0,1,.59.19,1,1,0,0,0,.67.1l.24,0,.38,0,.17.12a2,2,0,0,0,.42,0l.95.09.17.12c.2.14.5.11.91-.09a.8.8,0,0,1,.56.16,4,4,0,0,0,1.48-.11l.57,0a7.84,7.84,0,0,0,.91-.16s0,0,0,0l.21.19.09-.07a.4.4,0,0,0,0-.12l0-.06a.22.22,0,0,1,.24-.09c.1,0,.17,0,.2,0l.12-.37a.25.25,0,0,0,.18-.13.68.68,0,0,0,.05-.68l0-.11.08-.11a1.53,1.53,0,0,0-.27-.32,1.48,1.48,0,0,0-.34-1.11,13.29,13.29,0,0,0-1.53-1.83l-1.05-1.11-.63-.36a3.63,3.63,0,0,1-.38-.36,2.63,2.63,0,0,0-.37-.35,1.49,1.49,0,0,1-.33-.38,2.63,2.63,0,0,1-.6-.23l-.28-.33-.46-.24c-.82-.58-1.15-1-1-1.23a2.21,2.21,0,0,1,2.52-.75,1.72,1.72,0,0,0,.48.08l1.41.46a2.26,2.26,0,0,0,.52.13c.24,0,.46.08.65.13l.28,0,.18.08a1.59,1.59,0,0,1,.69.05,11,11,0,0,0,1.68.15,7.18,7.18,0,0,0,1.4,0,1.85,1.85,0,0,1,.34.05c.14,0,.32-.09.51-.37a.5.5,0,0,0,0-.61l-.09-.24a.26.26,0,0,0-.07-.18,2.5,2.5,0,0,1-.18-.24c-.06-.09-.45-.46-1.17-1.12l-.73-.73-.38-.18L383,186l-.78-.27-.15-.38s0,0,0-.07-.13,0-.27,0a.41.41,0,0,1-.35,0,3,3,0,0,1-.42-.38l0,0c-.15-.11-.25-.11-.32,0a3,3,0,0,0-.12.8l-.24.22-.2.35a1,1,0,0,1-.48.22l-.17.17a11,11,0,0,1-1,.62,5.3,5.3,0,0,0-.85.55l-1.22.65-.29.23a12.82,12.82,0,0,1-1.25.76,2.36,2.36,0,0,0-.57.35,1.69,1.69,0,0,1-.63.31l-1.74,1.15a1.58,1.58,0,0,1-.37.06c-.28.19-.58.4-.88.65a1.61,1.61,0,0,1-.79.59l-.25.23a1.17,1.17,0,0,1-.3.19,2.22,2.22,0,0,0-.44.26.25.25,0,0,1-.3.05,1.15,1.15,0,0,1-.35-1.1,2.81,2.81,0,0,0,0-1,1.05,1.05,0,0,1,.15-.73,2.26,2.26,0,0,1,.81-.59c.43-.22.7-.38.84-.47a3.57,3.57,0,0,1,.48-.26,2.22,2.22,0,0,0,.44-.25.86.86,0,0,1,.27-.14,1,1,0,0,0,.6-.35.92.92,0,0,1,.74-.28.48.48,0,0,1,.08-.18.61.61,0,0,1,.38-.17,1,1,0,0,0,.46-.18,2.29,2.29,0,0,1,.31-.2l.15,0a1.47,1.47,0,0,0,.25-.25.25.25,0,0,1,.35,0c.32-.35.54-.5.68-.46a1.41,1.41,0,0,0,.54,0c-.06-.17-.06-.28,0-.34a.77.77,0,0,1,.71-.3,1.23,1.23,0,0,0,0-.19.23.23,0,0,1,0-.13l.92-.56a1.6,1.6,0,0,1,.93-.29l0,0,.19-.45c.1-.14.33-.15.69-.06a.44.44,0,0,0,.35-.22l-.07-.05-.17-.25-.71-.34a7.83,7.83,0,0,0-.89-.27l-.13-.18-.07-.05a.64.64,0,0,0-.31,0H377a.61.61,0,0,0-.14-.17,3.27,3.27,0,0,0-.8-.42,1.36,1.36,0,0,1-.55-.29l-.39-.1-.14-.1a.38.38,0,0,0-.18,0,2.16,2.16,0,0,1-.6-.17,1.34,1.34,0,0,0-.16-.2,1.78,1.78,0,0,0-.56,0,1.41,1.41,0,0,1-.71-.12.62.62,0,0,0-.38-.12l-.44,0-.35.14a.78.78,0,0,1-.55.12,1.94,1.94,0,0,0-.52,0,.33.33,0,0,1-.27,0,.71.71,0,0,1-.22-.53.81.81,0,0,1,.08-.58,1.26,1.26,0,0,1,.77-.57c.3-.05.59-.12.89-.2a3.65,3.65,0,0,1,1.57.37,4.76,4.76,0,0,0,1.1.41s0,0,.05,0l.18.26c0,.08.18.1.45,0a7.55,7.55,0,0,1,2.31.85l.06.05.37.3.38.1a1.73,1.73,0,0,1,.56.22c.11.08.18.15.19.21s0,.11.08.13.17,0,.35-.06a2.58,2.58,0,0,1,.88.35,6.26,6.26,0,0,0,.88.43l.09.06.32.27.83.39.93.76.49.25.36.29.87.53,1.17,1.13a4.74,4.74,0,0,1,1.11,1.64,6.07,6.07,0,0,1,.5,1.43,1.25,1.25,0,0,1-.28.89c-.49.7-1.45,1-2.88,1a8.91,8.91,0,0,1-3.12-.38,4.26,4.26,0,0,0-1.35-.25c-.05.06.1.25.43.58a4.66,4.66,0,0,1,.6.67,1.45,1.45,0,0,0,.2.29c.06.08.2.28.41.6a4.52,4.52,0,0,0,.51.66c.85,1.23,1.21,2.13,1.09,2.69a1.84,1.84,0,0,0,.19.21c.11.12.07.43-.12.94.14.15.1.47-.11,1l-.07.21a.7.7,0,0,1-.13.36c-.54.77-.93,1.14-1.17,1.12a.57.57,0,0,0-.27.19,2.71,2.71,0,0,1-1.08.35,2,2,0,0,1-1.21,0,1.3,1.3,0,0,0-.42.07l-.23,0a1.45,1.45,0,0,0-.45,0,.32.32,0,0,1-.22,0,.57.57,0,0,0-.33.08.39.39,0,0,1-.42,0s0-.08-.1-.16l0,0A2,2,0,0,1,375.67,201Z" transform="translate(-126.11 -127.11)"/><path class="cls-3" d="M385.24,212.41l-1.1-.06a.23.23,0,0,0-.05-.15.74.74,0,0,0-.54-.07c-.27,0-.43,0-.48,0L383,212a2.42,2.42,0,0,1-.73-.16,2,2,0,0,0-.47-.19,1.24,1.24,0,0,1-.46-.23.61.61,0,0,0-.37-.14c-.13,0-.32-.13-.59-.38l-.18-.23a.72.72,0,0,1-.28-.13.44.44,0,0,1-.12-.31.53.53,0,0,0-.13-.36.66.66,0,0,1-.1-.45,1.28,1.28,0,0,0,0-.47.67.67,0,0,1,0-.37l0-.33a2,2,0,0,1,.12-1,2.19,2.19,0,0,1,.4-.83l0,0,.26-.22.25-.3a.93.93,0,0,0,.33-.1l.39-.4,1.29-.72q.09,0,.06-.27a.76.76,0,0,1-.48,0,.32.32,0,0,0-.34,0c-.12.06-.22.06-.28,0l-.11-.2a2.1,2.1,0,0,0-.37.15.45.45,0,0,1-.53-.07c-.15-.14-.17-.28-.06-.4l.25-.2.23-.39a1.24,1.24,0,0,1,.59-.2,1.06,1.06,0,0,1,.7,0,.68.68,0,0,0,.53.05,2.41,2.41,0,0,1,1,0,.88.88,0,0,0,.71.05,1.79,1.79,0,0,1,.68.22,1.33,1.33,0,0,0,.69.16,4.85,4.85,0,0,1,1.38.3,3.88,3.88,0,0,1,1.4.65,1.1,1.1,0,0,0,.33.21l.43.22a2.35,2.35,0,0,0,.45.17.76.76,0,0,1,.36.16l.25.48a4.18,4.18,0,0,1,.33.65,2.4,2.4,0,0,0,.16.36,4.52,4.52,0,0,1,.27.69.75.75,0,0,1-.26.75,3.35,3.35,0,0,0-.54.14s0,.18.14.43c-.05.2-.11.46-.17.79l-.29.58-1,1.07-.12.07c-.18,0-.28,0-.3,0l-.21.29-.44.25a.45.45,0,0,1-.34.1.33.33,0,0,0-.24,0l-.17,0-.32.12a1.59,1.59,0,0,1-.46.11.58.58,0,0,0-.36.12.44.44,0,0,1-.32.08.54.54,0,0,0-.28,0A.48.48,0,0,1,385.24,212.41ZM381,208.93l-.23.34v0l.21.2,0,.08a2.17,2.17,0,0,0,.33.42,1.32,1.32,0,0,0,.81.41,1,1,0,0,1,.57.16c.09.09.23.1.42,0a.74.74,0,0,1,.3-.08l.18.17.07,0a.61.61,0,0,1,.67-.17,1.09,1.09,0,0,0,.69,0,1.26,1.26,0,0,1,.55-.08.79.79,0,0,0,.47-.1l.25-.06a.39.39,0,0,0,.23-.14l.68-.22a4.43,4.43,0,0,0,.56-.42.67.67,0,0,0,.13-.69.87.87,0,0,1,.3-.86,1,1,0,0,1,.82-.25,1.5,1.5,0,0,0,.59,0c.05-.05,0-.1,0-.15a2.63,2.63,0,0,0-.39-.18,2.76,2.76,0,0,1-1.35-.4,1.75,1.75,0,0,0-.17-.4q-.07-.07-.3,0a.87.87,0,0,1-.36.07l-.16-.16a.88.88,0,0,0-.33,0,.61.61,0,0,1-.51-.18h-.3a.72.72,0,0,1-.66.18l-.3,0-.67,0-.78.35a1.92,1.92,0,0,0-.61.36.62.62,0,0,1-.33,0,.34.34,0,0,0-.33.08.5.5,0,0,0,0,.22c0,.12,0,.2-.06.23l-.21.12-.5.42Z" transform="translate(-126.11 -127.11)"/><path class="cls-3" d="M398.93,225.8l0,.06.06.18a.08.08,0,0,0,.07,0,.64.64,0,0,1,.58-.1.81.81,0,0,1,.65,0c.21.09.57.22,1.06.4l.58.1.22.1h.23a.52.52,0,0,1,.41.14c.11.14.11.25,0,.33l-.37.1-.41.42a.86.86,0,0,1-.58.18l-1-.07-1.31-.11-.49-.21a1.86,1.86,0,0,0-.39-.1l-.89-.17a.4.4,0,0,1-.38.11l-.18-.22-.14-.06a1.49,1.49,0,0,1-1-.16l-.29-.08a.41.41,0,0,1-.23-.11l-.25-.43-.27-.22a.83.83,0,0,1-.13-.38,2.09,2.09,0,0,0-.13-.52,1.7,1.7,0,0,1,.11-.9,2.81,2.81,0,0,1,.33-.79.58.58,0,0,0,.13-.21.67.67,0,0,1,.11-.19,1.77,1.77,0,0,1,.38-.1l0,0a.85.85,0,0,0,.14-.23.9.9,0,0,1,.31-.38,1,1,0,0,0,.24-.34.38.38,0,0,0,.26,0,.53.53,0,0,0,.12-.17.67.67,0,0,1,.13-.17l.74-.46.3-.33.35-.24c.19-.15.22-.31.09-.47a.56.56,0,0,0-.37-.16l-.11-.07a4.31,4.31,0,0,0-.71-.28.66.66,0,0,1-.37-.22,1,1,0,0,1-.41-.2l-.17,0a2.41,2.41,0,0,1-.34-.08,4.16,4.16,0,0,1-.87-.15l-1.54-.29a2.06,2.06,0,0,1-.88-.26c-.13-.11-.29-.08-.5.09,0,0-.18,0-.42-.07a3.18,3.18,0,0,0-.54,0,1.12,1.12,0,0,0,0-.38c-.09-.12-.32-.08-.66.1-.17,0-.36,0-.58-.26a.7.7,0,0,0-.28.07h-.1l-.11-.14a.9.9,0,0,0-.32-.06,1.22,1.22,0,0,1-.43-.13c-.34.08-.55.08-.61,0a.43.43,0,0,1-.08-.2,1.73,1.73,0,0,0-.1-.33.86.86,0,0,1,.06-.61,1.39,1.39,0,0,1,.35-.59c1-.82,1.73-1.07,2.14-.75h.08l.11-.09a.33.33,0,0,1,.38-.05,1.25,1.25,0,0,0,.56.08,1.61,1.61,0,0,1,.43,0l.15.18s.14,0,.33-.17a.24.24,0,0,1,.21-.06.35.35,0,0,0,.26-.08,1.78,1.78,0,0,1,.59-.14,1.81,1.81,0,0,0,.5-.1l0-.07a1.69,1.69,0,0,1-.74-.22,1.26,1.26,0,0,0-.73-.09l-.14-.25a7.41,7.41,0,0,1-1.05-.33,1,1,0,0,0-.56-.05.14.14,0,0,1-.19,0,1.81,1.81,0,0,0-.51-.19l-.07-.08c-.18-.23-.11-.48.22-.74l1-.34a1.53,1.53,0,0,1,1.1.07,8.87,8.87,0,0,0,1.11.39,1.45,1.45,0,0,1,.76.43h.21a1.37,1.37,0,0,0,1.08.17.66.66,0,0,1,.75.15,1.71,1.71,0,0,1,.37,1.6,2.25,2.25,0,0,1-.57,1.11l-.35.33a3.17,3.17,0,0,1-.6.35,1,1,0,0,0-.5.13c-.08.06-.07.13,0,.23a.53.53,0,0,0,.29.12,2.69,2.69,0,0,1,.46.14.59.59,0,0,0,.33.06,1,1,0,0,1,.84.12,1.83,1.83,0,0,0,.55.26l.22,0,.29-.06a2,2,0,0,0,.7.25.75.75,0,0,1,.45.19,1.5,1.5,0,0,0,.62.26l.22.17.27.1a.57.57,0,0,1,.2.11l.47.29a1.44,1.44,0,0,1,.72,1.84,2.21,2.21,0,0,1-.58,1.13l-.27.18-.32.35-.06,0-.84.5-.24.24a1.45,1.45,0,0,1-1.12.44s-.12,0-.19.05l-.12.1-.36.74c-.13.24-.18.39-.15.43l.48.34a.7.7,0,0,0,.55.09,3,3,0,0,0,.64.12A.35.35,0,0,1,398.93,225.8Z" transform="translate(-126.11 -127.11)"/><path class="cls-3" d="M405.14,228.4l.46.15a.43.43,0,0,0,.61.15,1,1,0,0,1,.91.12l.37,0a4.88,4.88,0,0,1,1.35.86,1.38,1.38,0,0,0,.48.18.08.08,0,0,1,.07,0l.09.27a1.85,1.85,0,0,0,.42.44,2.07,2.07,0,0,1,.47.52l.43.61a1.22,1.22,0,0,1,.06.3,1.17,1.17,0,0,0,.2.52,1.19,1.19,0,0,1-.3,1.41,1.58,1.58,0,0,1-1.24.11,2.05,2.05,0,0,1-1-.42,2,2,0,0,1-.56-.18,1.27,1.27,0,0,0-.39-.15c-.15,0-.25-.08-.28-.14a.13.13,0,0,1,0-.12.15.15,0,0,0,0-.11c-.1-.16-.4-.21-.91-.15l-.14-.29a.86.86,0,0,0-.56-.1.38.38,0,0,1-.4-.2,2,2,0,0,1-1-.4s0-.1-.07-.24a.57.57,0,0,0-.39.08c-.11.07-.24,0-.36-.11l-.3-.08-.06-.17-.5-.1a1,1,0,0,0-.44-.37l-.51.19a2.69,2.69,0,0,0-.35.14c-.29.18-.26.53.07,1.06l.55.65a1.2,1.2,0,0,0,.48.44,1.16,1.16,0,0,1,.49.44,1,1,0,0,0,.23.23l0,.19a1.16,1.16,0,0,1,.65.13,1.23,1.23,0,0,1,.46.34l.18.09a.41.41,0,0,1,.35,0l.18.05a.38.38,0,0,1,.26.15l.13.21.07,0a.86.86,0,0,1,.77.22.75.75,0,0,0,.47.27.43.43,0,0,1,.36.18.67.67,0,0,0,.42.22,2,2,0,0,1,.55.15,2.77,2.77,0,0,0,.4.15.27.27,0,0,1,.17.1c0,.06,0,.11-.08.17s-.12.1-.1.14a.07.07,0,0,0,.1,0l.13-.13.1-.06a.34.34,0,0,1,.45.05l.86.4c.22-.11.38-.13.47-.06a.67.67,0,0,0,.26.14.37.37,0,0,1,.17.13c.08.13,0,.24-.1.33l-.44.17-.36.33a.49.49,0,0,1-.33,0,1.32,1.32,0,0,0-.62.08c-.24.09-.4.1-.47,0l-.06-.09a1.36,1.36,0,0,1-.6-.22.59.59,0,0,0-.34-.13l-.9-.14-.43-.08a.36.36,0,0,1-.23-.09l0-.2s0,0,0-.08-.16-.12-.29-.07a.86.86,0,0,1-.42,0,1.83,1.83,0,0,0-.75-.34l-.09-.07-.17-.27c-.08-.13-.23-.16-.46-.09a.54.54,0,0,1-.6-.21,1.07,1.07,0,0,0-.49-.39.42.42,0,0,1-.15-.1,2.12,2.12,0,0,0-.5-.27l-1.24-1a.74.74,0,0,1-.19-.15l-.33-.38a.34.34,0,0,1,0-.26c0-.11.06-.17.05-.19l-.26-.22a2.12,2.12,0,0,1-.45-.51.75.75,0,0,1-.1-.39c0-.17,0-.29,0-.38-.18-.29-.08-.63.29-1l-.14-.17a5.12,5.12,0,0,1,.8-1.07.58.58,0,0,0,0-.39c-.05-.15,0-.27.17-.38a1.31,1.31,0,0,1,1.09-.27,1,1,0,0,0,.55.1l.91-.28a.88.88,0,0,0,.39,0l.84-.05ZM408,231l-.2-.12a3.33,3.33,0,0,0-.48-.19,3.28,3.28,0,0,1-.73-.33,1.93,1.93,0,0,0-1.1-.1,4.55,4.55,0,0,0-.87.13.1.1,0,0,0,0,.15l.54.37a2.79,2.79,0,0,0,.68.31,8.07,8.07,0,0,1,.95.4l.2,0a1.28,1.28,0,0,1,.39.14,1.53,1.53,0,0,0,.53.17l.16.12a1.34,1.34,0,0,1,.81.2c.17.14.29.19.35.15s.12-.2,0-.39a1,1,0,0,0-.38-.27l-.21-.34a1.29,1.29,0,0,0-.39-.22Z" transform="translate(-126.11 -127.11)"/><path class="cls-3" d="M412.53,238.4l.51,0a2.69,2.69,0,0,1,.41.1,2.48,2.48,0,0,0,.94-.08,2.65,2.65,0,0,1,1.05-.06.93.93,0,0,1,.56.5,1.53,1.53,0,0,1,.09.74c0,.34-.35.82-1,1.46a6.87,6.87,0,0,1-1.42,1.2,1.61,1.61,0,0,0-.42.36,3.07,3.07,0,0,1-.38.37l-.36,0-.63.36-.61.08-.38.2a1.34,1.34,0,0,0-.49,0,.34.34,0,0,0-.15.16,3,3,0,0,0,1,.63.83.83,0,0,1,.4.18,1.76,1.76,0,0,0,.66.28l.31.22.48.09a.66.66,0,0,1,.34.15,1.75,1.75,0,0,0,.4.24,4.33,4.33,0,0,1,.67.41l.27.06a1.94,1.94,0,0,1,.71.34l.34.27c0,.07,0,.2-.18.37a1.68,1.68,0,0,1-.51.42.79.79,0,0,1-.68,0c-.28-.11-.48-.19-.6-.22a1.13,1.13,0,0,1-.48-.38,8,8,0,0,0-.91-.19l-.35-.22-.28-.05c-.06,0-.17-.12-.35-.35,0,0-.06,0-.19,0s-.25-.05-.39-.22a4.5,4.5,0,0,0-.88-.28l-.23-.3a1.29,1.29,0,0,1-.45,0c-.19-.22-.36-.3-.53-.26l-.14-.12-.08,0a1.81,1.81,0,0,1-.71-.53l-.28-.31-.25,0s-.19-.06-.4-.28a1.67,1.67,0,0,0-.61-.41l-.34-.16a1.71,1.71,0,0,0-.66-.43l-.12-.22a1.6,1.6,0,0,0-.67-.52,1.71,1.71,0,0,1-.71-.59,2.81,2.81,0,0,1-.42-1.36,2.24,2.24,0,0,1,.28-.85,6.11,6.11,0,0,0,.34-.68.63.63,0,0,1,.23-.35.34.34,0,0,1,.3,0,1.5,1.5,0,0,0,.61.09c.29,0,.58.22.89.65a1.25,1.25,0,0,0,.21.18,1.06,1.06,0,0,1,.26.27.77.77,0,0,1-.08.54s0,0,0,.08l.16.23a.65.65,0,0,0,0,.31,1.41,1.41,0,0,0,.79.6l.07.05.06.12s.13,0,.35,0l.68,0,1,.19.16-.08a1,1,0,0,1,.33,0l.24-.12q.14-.08.27.09a.23.23,0,0,0,.3.09l.11-.1c.07-.14.13-.23.2-.26h.39l.31-.2H412l.22-.19.43-.14.25-.24c.16-.16.23-.25.21-.28a2.33,2.33,0,0,0-.79-.35,3.74,3.74,0,0,0-1-.24.92.92,0,0,1-.57-.21,1.06,1.06,0,0,0-.59-.22.51.51,0,0,1-.37-.15l-1.39-.62-1.44-.7a.61.61,0,0,1-.22-.09c-.2-.39-.08-.69.34-.91a2.7,2.7,0,0,1,.86-.15l.18.12s.07,0,.08,0,0,0,0,0l0,.13,0,0a5.56,5.56,0,0,1,.84.52.71.71,0,0,0,.51.13l.81.42c.21.1.57.24,1.09.42A4.86,4.86,0,0,0,412.53,238.4Z" transform="translate(-126.11 -127.11)"/><path class="cls-3" d="M416.91,247.39l.5.06a1.86,1.86,0,0,1,.41.12,2.3,2.3,0,0,0,.94,0,2.45,2.45,0,0,1,1.05,0,.87.87,0,0,1,.52.54,1.54,1.54,0,0,1,0,.74c-.05.33-.41.79-1.09,1.38a7.14,7.14,0,0,1-1.52,1.09,1.38,1.38,0,0,0-.44.32,3.76,3.76,0,0,1-.41.34h-.36l-.65.32-.62,0-.39.16a1.4,1.4,0,0,0-.49,0,.34.34,0,0,0-.17.15,3.08,3.08,0,0,0,.92.7.8.8,0,0,1,.39.21,1.74,1.74,0,0,0,.64.33l.29.24.46.13a.66.66,0,0,1,.34.18,1.64,1.64,0,0,0,.38.26,4.8,4.8,0,0,1,.63.46l.27.08a2.19,2.19,0,0,1,.68.39,3,3,0,0,1,.31.3c0,.08,0,.2-.2.36a1.49,1.49,0,0,1-.54.37.82.82,0,0,1-.68-.08,4.78,4.78,0,0,0-.58-.27c-.12,0-.27-.18-.45-.42,0,0-.31-.1-.89-.25l-.33-.24-.28-.08c-.05,0-.16-.13-.31-.38h-.2c-.12,0-.25-.07-.37-.25a5.23,5.23,0,0,0-.86-.35l-.21-.31a1.11,1.11,0,0,1-.44,0q-.26-.34-.51-.3a.78.78,0,0,1-.13-.13l-.08-.05a1.73,1.73,0,0,1-.66-.58l-.26-.33-.25-.05c-.05,0-.18-.08-.38-.31a1.67,1.67,0,0,0-.57-.45l-.33-.19a1.7,1.7,0,0,0-.63-.48l-.09-.23a1.76,1.76,0,0,0-.64-.57,1.67,1.67,0,0,1-.66-.64,2.74,2.74,0,0,1-.31-1.39,2.38,2.38,0,0,1,.34-.82,5.07,5.07,0,0,0,.39-.66.73.73,0,0,1,.26-.33.36.36,0,0,1,.3.06,1.42,1.42,0,0,0,.6.14c.28,0,.56.26.83.72a1.24,1.24,0,0,0,.2.19.8.8,0,0,1,.23.3c.05.11,0,.28-.12.53,0,0,0,0,0,.07l.14.25a.58.58,0,0,0,0,.3,1.4,1.4,0,0,0,.74.66l.06.05.06.13s.13,0,.34,0l.69,0,1,.26.16-.07a1,1,0,0,1,.34,0l.24-.1c.1,0,.19,0,.27.11s.18.16.28.11l.12-.08a.62.62,0,0,1,.22-.25l.4,0,.32-.18h.16l.23-.18.44-.1.27-.22c.17-.14.25-.23.23-.26s-.28-.2-.76-.41a3.54,3.54,0,0,0-1-.32,1,1,0,0,1-.56-.25,1.15,1.15,0,0,0-.56-.27.48.48,0,0,1-.36-.17l-1.34-.72-1.38-.82a.63.63,0,0,1-.21-.1c-.17-.41,0-.7.41-.89a2.75,2.75,0,0,1,.87-.08,1.1,1.1,0,0,0,.17.13s.06.05.07,0,0,0,0,0l0,.13v0a5.75,5.75,0,0,1,.8.58.77.77,0,0,0,.5.18l.77.47a10.43,10.43,0,0,0,1.06.5A5.13,5.13,0,0,0,416.91,247.39Z" transform="translate(-126.11 -127.11)"/><path class="cls-3" d="M416.3,264.81l-.94-.57a.25.25,0,0,0,0-.16c0-.11-.18-.22-.44-.31s-.39-.19-.41-.25l0-.18a2.3,2.3,0,0,1-.56-.49,4.32,4.32,0,0,0-.33-.39,1.1,1.1,0,0,1-.3-.42.58.58,0,0,0-.25-.3c-.12-.06-.23-.27-.34-.61l-.05-.28a.76.76,0,0,1-.19-.26.41.41,0,0,1,.05-.33.57.57,0,0,0,.05-.38.68.68,0,0,1,.12-.44,1.14,1.14,0,0,0,.19-.44.84.84,0,0,1,.16-.33l.12-.3a2,2,0,0,1,.57-.79,2,2,0,0,1,.75-.54l.07,0,.33-.07.36-.15a1.2,1.2,0,0,0,.34.07l.53-.17,1.48,0c.06,0,.12-.07.17-.21a.7.7,0,0,1-.41-.24.35.35,0,0,0-.31-.15.22.22,0,0,1-.24-.14v-.22a1.45,1.45,0,0,0-.39,0,.44.44,0,0,1-.44-.31c-.07-.2,0-.33.13-.38l.32-.06.38-.24a1.47,1.47,0,0,1,.62.1,1.06,1.06,0,0,1,.61.35.7.7,0,0,0,.45.29,2.69,2.69,0,0,1,.85.5.92.92,0,0,0,.6.38,1.92,1.92,0,0,1,.5.52,1.33,1.33,0,0,0,.53.46,4.85,4.85,0,0,1,1.07.92,3.68,3.68,0,0,1,.92,1.24,1.46,1.46,0,0,0,.2.34l.27.4a2.07,2.07,0,0,0,.32.36.83.83,0,0,1,.24.31v.54a4.67,4.67,0,0,1,0,.73,1.45,1.45,0,0,0,0,.39,3.17,3.17,0,0,1-.09.73.73.73,0,0,1-.58.55,2.9,2.9,0,0,0-.55-.14s-.07.17-.07.45-.32.35-.53.62l-.53.37-1.37.47h-.14a.67.67,0,0,0-.28-.11l-.32.16H419a.42.42,0,0,1-.34-.08.33.33,0,0,0-.22-.09l-.17-.06-.34-.05a1.14,1.14,0,0,1-.45-.13.62.62,0,0,0-.38-.06.39.39,0,0,1-.32-.08.5.5,0,0,0-.24-.14A.62.62,0,0,1,416.3,264.81Zm-2.1-5.09-.37.19,0,0,.09.27v.09a4.67,4.67,0,0,0,.09.53,1.31,1.31,0,0,0,.53.74,1,1,0,0,1,.42.41c0,.13.15.2.35.23a.73.73,0,0,1,.3.08l.08.24,0,.05a.62.62,0,0,1,.67.17,1.1,1.1,0,0,0,.6.35,1.23,1.23,0,0,1,.52.19.8.8,0,0,0,.46.13l.24.07a.39.39,0,0,0,.28,0l.7.12a3,3,0,0,0,.69-.11.63.63,0,0,0,.44-.53c.06-.29.28-.49.68-.62a1,1,0,0,1,.84.17,1.56,1.56,0,0,0,.52.27.1.1,0,0,0,.07-.14,3.24,3.24,0,0,0-.26-.34c-.18,0-.52-.36-1-1a3.09,3.09,0,0,0,0-.44c0-.07-.11-.11-.26-.14a.8.8,0,0,1-.35-.11l-.07-.22a1,1,0,0,0-.29-.14.61.61,0,0,1-.37-.4l-.27-.14a.75.75,0,0,1-.66-.16l-.28-.11-.61-.29-.85-.06a2.16,2.16,0,0,0-.71,0,.55.55,0,0,1-.28-.16.35.35,0,0,0-.34-.08s-.06.06-.13.17-.12.17-.16.18h-.24l-.65.13Z" transform="translate(-126.11 -127.11)"/><text class="cls-4" transform="translate(61.3 218.66)">MFB</text><path class="cls-5" d="M256.29,429.34l.35,0,.38-.09a1.47,1.47,0,0,1,.69,0,.19.19,0,0,1,.11.11l.56-.23a1.27,1.27,0,0,1,.67,0,.76.76,0,0,0,.19-.17,1.58,1.58,0,0,1,.32-.26l.33-.31a3.38,3.38,0,0,0,.48-.51l0-.12a1.55,1.55,0,0,1,.2-.23.83.83,0,0,1,.29-.23.23.23,0,0,0,.15-.12l0-.13a.6.6,0,0,1,.14-.18,1,1,0,0,1,.3-.22,1.6,1.6,0,0,0,.45-.42l.17-.14.13,0s0,0,0-.09a.5.5,0,0,0,0-.16.54.54,0,0,0,.19-.17l.17-.3.12,0,.06-.22a.79.79,0,0,1,.24-.25,3.7,3.7,0,0,0,.57-.72l.52-.62v-.05a1.9,1.9,0,0,0-.32.09l-.34.1s-.1,0-.24.12a.53.53,0,0,1-.37.1,1,1,0,0,1-.65.23.84.84,0,0,0-.45.05l-.14,0a.21.21,0,0,0-.14,0,.21.21,0,0,1-.15,0,.58.58,0,0,1-.22-.21h0l0,.09c0,.13-.08.19-.14.19h-.2a.27.27,0,0,1-.15,0c-.2-.06-.3-.14-.3-.27a.42.42,0,0,0,0-.25.19.19,0,0,1,0-.16,1,1,0,0,1,.43-.57.9.9,0,0,1,.53-.23.47.47,0,0,0,.2,0h0l.19.11c.14.08.22.15.23.2a.13.13,0,0,0,.09.09l.18,0,.14.06s.1,0,.22-.13a.5.5,0,0,1,.4-.12,4.3,4.3,0,0,0,1.17-.28.25.25,0,0,1,.22-.11l.18-.15s.09-.05.26-.06a.85.85,0,0,0,.54-.31,2.6,2.6,0,0,0,.29-.35v-.1a.16.16,0,0,1,.1-.05,1.36,1.36,0,0,1,.37-.49,2.45,2.45,0,0,0,.54-.33v-.18l0,0a.9.9,0,0,1,.64-.69c.18-.4.35-.61.52-.64l.15,0,.05-.38c0-.06.11-.09.26-.08l.07,0,.6-.67c.12-.14.24-.2.36-.17a.11.11,0,0,1,0,.05l0,0q.09,0,.12-.09a.32.32,0,0,0,0-.08l0-.07c0-.17.23-.33.53-.49a1.33,1.33,0,0,1,1-.09c.07,0,.18.15.33.4a1.23,1.23,0,0,1,.05,1l-.25.42c0,.19,0,.29,0,.31s-.09.09-.21.1,0,.06-.06.14a.7.7,0,0,1-.11.23,1.41,1.41,0,0,0-.19.34l-.08,0-.2,0q-.12.3-.15.3H270l-.12,0c-.1,0-.16,0-.18.1s0,.07,0,.15a.21.21,0,0,1,0,.08c-.05.19-.26.27-.62.25a.4.4,0,0,1-.24.28.91.91,0,0,0-.28.17l-.65.44a4.88,4.88,0,0,1-1.07.43,2.34,2.34,0,0,0-.18.28.8.8,0,0,1-.21.29l-.65.89,0,.09a.29.29,0,0,1-.2.19l0,.17a1.34,1.34,0,0,1-.21.26l-.6.87c-.14.17-.26.31-.36.41a2,2,0,0,0-.25.34,1.3,1.3,0,0,1-.26.31,1.05,1.05,0,0,0-.22.26c-.06.09-.2.13-.43.12a.25.25,0,0,0,.07.12c0,.05.06.08.05.11a.77.77,0,0,0-.1.12.93.93,0,0,0-.1.17.62.62,0,0,1-.12.19l-.14.13a.49.49,0,0,0-.13.12.42.42,0,0,1-.14.09l-.15.23-.13.07s0,0,0,.06a.11.11,0,0,0,0,.08,1.76,1.76,0,0,1-.37.39,1.75,1.75,0,0,0-.1.3.66.66,0,0,1,.25.11,1.22,1.22,0,0,1,.31-.05.41.41,0,0,1,.14.08l.09.07.19,0,.22.15h.13l.28.1h.18l.17.08H264l.08,0a3.58,3.58,0,0,1,.45.21h0a.6.6,0,0,0,.23-.05h0l.14.08a.56.56,0,0,0,.17.09l.27,0,.46.24H266s0,0,0,0a7.16,7.16,0,0,1,1.15.64l.3.16s0,0,.1.05a.6.6,0,0,0,.29,0,1.58,1.58,0,0,1,.61.48l.11.12a.73.73,0,0,1,.14.18,1.85,1.85,0,0,0,.2.3.47.47,0,0,1,.1.43,2.23,2.23,0,0,1-.41.9c-.16.17-.29.24-.4.21a1.92,1.92,0,0,1-.86-.7.71.71,0,0,0-.14-.29.41.41,0,0,1-.07-.29l0-.06-.3-.08s-.06,0-.1-.11l-.2-.1a1.73,1.73,0,0,1-.21-.25.25.25,0,0,0-.12-.1.36.36,0,0,1-.17-.13.91.91,0,0,1-.3-.21l-.21-.06-.05-.06c0-.11,0-.18-.11-.2l-.09,0-.08-.05-.19-.05-.12-.16h0l-.17,0-.19-.15-.17,0a1.22,1.22,0,0,1-.47-.21l-.17,0a.6.6,0,0,0-.11-.13l-.58-.06-.22-.08-.22,0-.07-.09s-.07,0-.17.07a1.78,1.78,0,0,1-.56,0l-.36,0-.2-.08H261a1.11,1.11,0,0,1-.53.41s-.06,0-.1.12a.43.43,0,0,1-.21.21,1.17,1.17,0,0,0-.23.13.44.44,0,0,1-.17.08c-.05,0-.15.11-.28.29a.42.42,0,0,1-.47.19l-.15-.09a.56.56,0,0,0,0,.12.14.14,0,0,1,0,.11c0,.14-.15.19-.33.14l-.18.07a1,1,0,0,1-.38.09l-.11.08a.31.31,0,0,1-.21,0l-.69.1h0l-.15-.08h-.09l-.21-.05a.53.53,0,0,1-.19-.17l-.17.07a.59.59,0,0,0-.21-.17.56.56,0,0,1-.34-.2c0-.08-.07-.12-.1-.13l-.09-.07a1,1,0,0,0-.23-.13c-.09,0-.19-.2-.29-.5a1.3,1.3,0,0,1-.1-.63.38.38,0,0,1,.15-.21.74.74,0,0,1,.32-.12l.47-.11ZM256,430l-.44.09c-.09,0-.15,0-.16.09a.15.15,0,0,1,0,.08.8.8,0,0,1,.26.21.38.38,0,0,0,.22.16l.27.15.29.05.07.07a2,2,0,0,0,.32-.13s0,0,0,0l.25.09.19-.1a1.11,1.11,0,0,1,.29-.08,1.63,1.63,0,0,1,.43-.3.84.84,0,0,1,.14-.19l.13-.23-.59-.09-.84.07C256.3,429.94,256,430,256,430Zm13.51-10.22.36-.15a2.71,2.71,0,0,0,.58-.58,2.59,2.59,0,0,0,.58-.9l0-.19a.88.88,0,0,0-.43.15,7.13,7.13,0,0,1-.6.53,2.21,2.21,0,0,0-.56.56,1.67,1.67,0,0,1-.3.43,2.1,2.1,0,0,0-.27.35,1,1,0,0,1-.17.21.59.59,0,0,0-.14.19,0,0,0,0,0,0,.06,3.86,3.86,0,0,0,.74-.51A.64.64,0,0,1,269.46,419.76Z" transform="translate(-126.11 -127.11)"/><path class="cls-5" d="M270.32,429.74l.2-.13h.06c.05,0,.14,0,.26-.14l.12,0a.94.94,0,0,1,.45-.35l.2-.11a.26.26,0,0,1,.13-.06,1.2,1.2,0,0,0,.3-.19.51.51,0,0,1,.32-.15l.17.06a.73.73,0,0,1,.31-.24,1.22,1.22,0,0,0,.37-.27l.15-.05a1.09,1.09,0,0,0,.35-.19.43.43,0,0,1,.37-.08,1,1,0,0,1,.58.47,1.09,1.09,0,0,1,.2.75l-.36.91c-.25.67-.45,1-.6,1l-.09.24c-.12.06-.18.12-.19.17v.3s-.06.09-.15.16,0,0,0,.06l-.1.5c0,.09-.08.15-.19.19a.17.17,0,0,0,.06.06.39.39,0,0,1,.3,0l.16.06.29-.22.22-.08a3.17,3.17,0,0,1,.5-.15l1.61-1c.24-.18.4-.26.5-.24s.14.11.12.26a1,1,0,0,1-.18.42,3.33,3.33,0,0,0-.24.39.75.75,0,0,1-.24.31l-.21.18a1.31,1.31,0,0,1-.4.27,3.61,3.61,0,0,0-.56.35,2.16,2.16,0,0,1-.39.26l-.52.29-.09.11-.22.06a1.51,1.51,0,0,0-.35.14l-.21.09a.47.47,0,0,1-.22,0,.36.36,0,0,0-.27.09c-.09.07-.15.1-.2.09l-.15-.05-.23,0a.7.7,0,0,1-.39-.33.71.71,0,0,1-.16-.57v-.07l.05-.17a1.29,1.29,0,0,0,0-.26.78.78,0,0,1,0-.23l0-.17v-.07a1.26,1.26,0,0,1,.12-.41.64.64,0,0,0,.11-.22,1.54,1.54,0,0,1,.09-.24l.11-.29a.31.31,0,0,1,.14-.17l.15-.31.08-.21.14-.15a.42.42,0,0,0,.15-.24,1,1,0,0,1,.17-.32.77.77,0,0,0,.14-.2.13.13,0,0,0-.1-.17s-.13,0-.3.14l-.18-.11a.5.5,0,0,0-.14.1s0,.05-.11.06a.31.31,0,0,0-.21.14H272l-.13-.1h0q-.11,0-.18.24a.54.54,0,0,1-.35.19l-.25,0a.34.34,0,0,0-.21.19.75.75,0,0,1-.27.26c-.12.08-.2.11-.24.1-.2,0-.27-.18-.23-.43l.2-.55Zm5.72-5.16,0-.48,0-.08c.07-.37.22-.56.46-.56a3.6,3.6,0,0,0,.47-.07.8.8,0,0,1,.33.45,1.16,1.16,0,0,1,.09.63l-.05.1a1.59,1.59,0,0,0-.1.31.58.58,0,0,1-.28.37.66.66,0,0,1-.46.1c-.1,0-.21-.12-.33-.31A.79.79,0,0,1,276,424.58Z" transform="translate(-126.11 -127.11)"/><path class="cls-5" d="M274.58,438.25l.15-.25.1-.3s.05-.07.13-.13.12-.11.12-.15a5.31,5.31,0,0,1,.75-1.47l.36-.69a.64.64,0,0,1,.25-.36c.12-.09.18-.16.19-.24s-.05-.13-.19-.24-.19-.21-.18-.29.27-.21.78-.38a1.14,1.14,0,0,1,.42-.67.21.21,0,0,0,.1-.16,1.13,1.13,0,0,1,.17-.46l.13-.26a1.09,1.09,0,0,1,.22-.3.56.56,0,0,0,.19-.33v-.09c-.09,0-.24.09-.46.35-.17,0-.34.11-.5.39a.51.51,0,0,1-.44.27.79.79,0,0,1-.52.34c-.13-.13-.2-.23-.19-.3l.21-.74c0-.17.45-.55,1.27-1.12.05,0,.21-.13.49-.4l.69-.67.85-.7a3.12,3.12,0,0,0,.61-1,1.94,1.94,0,0,0,.5-.85,6.11,6.11,0,0,1,.43-.95,2.17,2.17,0,0,0,.22-.44,12.7,12.7,0,0,1,.9-1.75l.16-.39.18-.12a1.75,1.75,0,0,0,.1-.37c.08,0,.19-.19.32-.5a2.36,2.36,0,0,1,.35-.63,1,1,0,0,0,.23-.36.76.76,0,0,1,.32-.36.64.64,0,0,1,.47-.14s.12.1.22.28a1.27,1.27,0,0,1,.13.61,3.07,3.07,0,0,0,0,.44,2,2,0,0,1,0,.31l0,.36a5.54,5.54,0,0,1-.17.61l-.23.73a.36.36,0,0,1-.26.26q-.19,0-.21.12a.16.16,0,0,0,.07.13c.06,0,.08.06.08.08a1.27,1.27,0,0,1-.17.3.93.93,0,0,1-.28.32.84.84,0,0,1,0,.18,1.24,1.24,0,0,1-.21.36,2,2,0,0,1-.31.39,1.47,1.47,0,0,0-.27.47,1.11,1.11,0,0,1-.58.59,1.41,1.41,0,0,0-.34.52.76.76,0,0,1-.4.44l-.17.21v0a.94.94,0,0,1-.16.38,4.23,4.23,0,0,0-.29.49,1.1,1.1,0,0,1-.26.36,2,2,0,0,1-.22.49,1.18,1.18,0,0,0-.19.37l-.09.09a.22.22,0,0,0-.24.2v.27a3.44,3.44,0,0,1-.25.38l-.08.23a.57.57,0,0,1-.26.38.69.69,0,0,0-.26.43l-.08.28a.25.25,0,0,0,0,.08s.06,0,.15-.12l.16.09s.09,0,.14-.09a.37.37,0,0,1,.21-.12l0,0c.06-.11.12-.16.19-.16a.28.28,0,0,0,.2-.09c.06-.06.1-.09.13-.08a.61.61,0,0,1,.14.12h0l.1,0v-.19a.16.16,0,0,1,.12-.15.23.23,0,0,0,.15-.1l.44-.23a1.37,1.37,0,0,0,.42-.21.65.65,0,0,1,.29-.16.73.73,0,0,0,.25-.12c.06-.06.18-.08.37-.07a3.48,3.48,0,0,1,.54-.34l.11-.12s0,0,.09,0a.55.55,0,0,0,.19-.12.29.29,0,0,1,.2-.1c.14,0,.2.12.18.28a.81.81,0,0,1-.41.6l0,0c-.08.32-.2.47-.34.45s-.09,0-.18.18l-.13,0a1.09,1.09,0,0,1-.25.23h-.07a6.71,6.71,0,0,0-1.54.94l-.12.08-.2-.05a1.08,1.08,0,0,1-.16.22,1.62,1.62,0,0,0-.39.18,1.41,1.41,0,0,1-.31.18.41.41,0,0,0-.19.14.41.41,0,0,1-.23.13l-.16.13H279a.43.43,0,0,0-.38.31s0,.1.07.2.22.24.49.82a3,3,0,0,1,.29,1.63,1.14,1.14,0,0,1-.25.69c-.11.09-.17.16-.17.21a1.72,1.72,0,0,0,0,.29v0a.13.13,0,0,1-.14.13c-.09,0-.14,0-.16.08l0,.3-.07.14a1.21,1.21,0,0,0-.37.53,1.57,1.57,0,0,1-.52.36l0,.05,0,.33a.27.27,0,0,1-.13.18,1.53,1.53,0,0,0-.3.27,1.3,1.3,0,0,1-.39.29.51.51,0,0,1-.21.3,1.47,1.47,0,0,0-.29.24l-.07,0c-.07,0-.14.09-.22.25H276a1.41,1.41,0,0,1-.36.37,1.05,1.05,0,0,0-.24.21l-.19.1a1.69,1.69,0,0,1-.47.44s0,0-.07-.09h0s-.06,0-.09.09a.45.45,0,0,1-.15.16,1.11,1.11,0,0,0-.2.22l-.05,0c-.09,0-.26.11-.5.36a1.13,1.13,0,0,0-.38.12c-.17.18-.29.26-.35.25s-.07-.08-.21-.23a.84.84,0,0,1-.13-.67.44.44,0,0,0-.09-.28c0-.09,0-.22,0-.39l0-.11a.87.87,0,0,1,.13-.33l.1-.24a.49.49,0,0,1,.09-.15,2.13,2.13,0,0,0,.17-.33q.12-.27.27-.54l0-.12c.13-.38.23-.56.27-.54a3.88,3.88,0,0,0,.2-.47c.07-.2.13-.36.16-.48a.59.59,0,0,1,.2-.3Zm2.55-2,0,.53a5,5,0,0,1-.25.45,4.18,4.18,0,0,0-.32.64c-.06.16-.15.23-.27.22l-.11,0a.3.3,0,0,0,0,.1v.27a4.12,4.12,0,0,1-.16.54.92.92,0,0,1-.28.48l-.08.08a3.15,3.15,0,0,1-.25.55c-.13.25-.24.45-.33.59a2.82,2.82,0,0,0-.23.54,1,1,0,0,1-.2.41,3.83,3.83,0,0,1-.21.54l-.24.58s0,.06.05.06.11-.08.2-.24a.23.23,0,0,1,.15-.05c.07,0,.15-.08.22-.24l0,0a.26.26,0,0,0,.19-.12.22.22,0,0,1,.14-.12.37.37,0,0,0,.16-.1h.08a.38.38,0,0,0,.1-.13.76.76,0,0,1,.09-.16l.15,0,.05,0a1.1,1.1,0,0,1,.28-.48.76.76,0,0,0,.23-.24.6.6,0,0,1,.19-.22.59.59,0,0,0,.18-.3,1.6,1.6,0,0,0,.3-.37.79.79,0,0,1,.18-.22l0-.08,0-.15v0a1.61,1.61,0,0,1,.32-.45,2.3,2.3,0,0,0,.41-.61c.07-.16.13-.3.18-.4a2.18,2.18,0,0,0,.14-.34.75.75,0,0,1,.16-.31.63.63,0,0,0,.14-.34,2.22,2.22,0,0,0-.17-1,.4.4,0,0,1,0-.15.59.59,0,0,0-.17-.32c-.11-.12-.19-.19-.25-.2l-.09,0-.14,0c-.08,0-.13.09-.15.22v0l0,.28C277.44,436.07,277.33,436.15,277.13,436.23Z" transform="translate(-126.11 -127.11)"/><path class="cls-5" d="M283.67,431.14l.24-.19a.29.29,0,0,0,.31-.28.67.67,0,0,1,.4-.45l.15-.2a2.88,2.88,0,0,1,.93-.39.94.94,0,0,0,.27-.19,0,0,0,0,1,0,0l.17.06a1.11,1.11,0,0,0,.37-.05,1.08,1.08,0,0,1,.43,0l.46,0a.44.44,0,0,1,.16.09.8.8,0,0,0,.33.1.59.59,0,0,1,.41.29.72.72,0,0,1,.15.47,1.16,1.16,0,0,1-.42.74,1.36,1.36,0,0,1-.59.38,1.16,1.16,0,0,1-.3.24.86.86,0,0,0-.22.15.28.28,0,0,1-.17.1.05.05,0,0,1-.06,0,.09.09,0,0,0-.07,0c-.11,0-.25.13-.42.44l-.19,0a.6.6,0,0,0-.26.27.22.22,0,0,1-.24.14c-.3.28-.49.41-.58.4l-.15-.06a.47.47,0,0,0-.11.25c0,.09-.07.14-.19.15l-.15.13-.11,0-.24.23a.58.58,0,0,0-.34.09c0,.1-.06.22-.1.37s-.07.23-.07.25c0,.23.16.37.54.4l.52,0a.66.66,0,0,0,.39-.09.7.7,0,0,1,.4-.08l.2,0,.1.06a.75.75,0,0,1,.31-.3.6.6,0,0,1,.34-.12l.11-.06a.34.34,0,0,1,.15-.19l.09-.07c.07-.06.12-.09.17-.08H287l0,0a.57.57,0,0,1,.4-.34.38.38,0,0,0,.3-.15.28.28,0,0,1,.23-.12.45.45,0,0,0,.27-.14,1.11,1.11,0,0,1,.28-.24l.22-.16s.08-.06.11-.06.06.05.05.12,0,.11,0,.11,0,0,0,0a.26.26,0,0,0,0-.12v-.09a.26.26,0,0,1,.2-.23l.52-.3c0-.17.08-.27.15-.29a.54.54,0,0,0,.17-.08.15.15,0,0,1,.12-.05c.09,0,.13.08.12.2l-.08.31,0,.34a.55.55,0,0,1-.12.19,1,1,0,0,0-.2.37c-.05.18-.11.27-.17.28h-.06a1.21,1.21,0,0,1-.33.25.34.34,0,0,0-.2.13l-.41.44-.2.2c-.06.06-.1.09-.13.09l-.08-.11s0,0,0,0-.12,0-.15.13a.6.6,0,0,1-.13.25,1.09,1.09,0,0,0-.45.27l-.07,0-.19,0c-.1,0-.17.07-.22.22a.33.33,0,0,1-.33.25.57.57,0,0,0-.38.11l-.1,0a1.25,1.25,0,0,0-.32.16l-.94.28a.35.35,0,0,1-.15.05l-.3,0a.2.2,0,0,1-.12-.11c0-.07-.06-.11-.08-.11l-.2.06a1.5,1.5,0,0,1-.41,0,.41.41,0,0,1-.23-.11l-.19-.14c-.21,0-.34-.22-.39-.59h-.13a3.73,3.73,0,0,1-.21-.9.44.44,0,0,0-.19-.16c-.09,0-.13-.12-.12-.25a1.05,1.05,0,0,1,.28-.72.67.67,0,0,0,.26-.26l.21-.62s.08-.1.14-.23l.29-.49Zm2.34-.51-.13.06a1.16,1.16,0,0,0-.28.19,2.3,2.3,0,0,1-.44.26,1.3,1.3,0,0,0-.46.57,3.89,3.89,0,0,0-.27.54.07.07,0,0,0,.06.08l.38-.15a1.46,1.46,0,0,0,.41-.25c.13-.1.32-.22.55-.36l.1-.09a1,1,0,0,1,.21-.16,1,1,0,0,0,.29-.22l.11,0a.9.9,0,0,1,.41-.37c.13,0,.2-.08.21-.13s-.06-.15-.19-.16a.46.46,0,0,0-.27.09l-.25,0a.91.91,0,0,0-.25.12Z" transform="translate(-126.11 -127.11)"/><path class="cls-5" d="M298.49,430.36l.12-.15v-.1a2.3,2.3,0,0,1,.1-.3,1.07,1.07,0,0,1,.2-.34.63.63,0,0,0,.13-.2.23.23,0,0,1,.19-.15.5.5,0,0,1-.07-.19l0-.24a.29.29,0,0,1,.06-.1l.06-.09.14-.13a.3.3,0,0,0,.1-.2.72.72,0,0,1,.15-.36c.09-.16.16-.23.21-.23a.19.19,0,0,0,.13-.05.22.22,0,0,1,.1-.06s.08,0,.11.11.06.11.08.11.08,0,.08-.12,0-.07-.1-.09a.19.19,0,0,1-.14-.13,1.26,1.26,0,0,0-.07-.16l0-.09a.38.38,0,0,1,.1-.23.26.26,0,0,1,.18-.12.21.21,0,0,0,.17-.12.2.2,0,0,1-.13-.17,1.46,1.46,0,0,0,.25-.44c.08-.19.17-.29.27-.29l.11,0,.11-.33-.08-.25a1.17,1.17,0,0,1,.29-.38l.08-.08a.87.87,0,0,1,.5-.58c.37-.47.6-.7.68-.7s0,0,.09.08l.1,0s.07,0,.07.09a2.75,2.75,0,0,0-.34.4h0l.08-.07.17-.17s0,0,0,0a.52.52,0,0,0,.11-.35s0-.05-.12-.1l0-.07c0-.05.13-.21.38-.46a4.92,4.92,0,0,1,.82-.69L304,422a.12.12,0,0,1,.11-.07.56.56,0,0,1,.26.13l0,0a.62.62,0,0,1,0-.18.09.09,0,0,1,.08-.1.82.82,0,0,1,.46-.33,1.65,1.65,0,0,0,.48-.27l.22-.1a1.19,1.19,0,0,0,.3-.08.84.84,0,0,1,.29-.05l.17-.08a.47.47,0,0,1,.21-.09s.12,0,.24.16,0,0,0,0l.14-.11h0l.33.3a1.16,1.16,0,0,1,.47.91l-.05.52,0,.43a.47.47,0,0,1-.16.37,3.21,3.21,0,0,1-.18.79,2.21,2.21,0,0,0-.18.66,3.2,3.2,0,0,1-.61,1.18,1.42,1.42,0,0,1-.13.22,3,3,0,0,0-.32.67,2.74,2.74,0,0,0-.38.59.6.6,0,0,1-.3.33h0l.05.27c-.27.51-.53.77-.8.77a.62.62,0,0,1-.48-.24.69.69,0,0,1-.25-.5c0-.4.39-.9,1.2-1.48l.09,0,.08-.18a.42.42,0,0,1-.05-.12c0-.11.11-.25.33-.41s.2-.36.32-.38l.41-.76,0-.12v-.19s.07-.1.22-.22l0-.05v-.26a.3.3,0,0,1,.17-.25,1.2,1.2,0,0,0,.09-.4,2,2,0,0,1,.17-.61,2,2,0,0,0-.14-.7.27.27,0,0,0-.26-.13,1.39,1.39,0,0,0-.5.23,1.2,1.2,0,0,1-.46.22l-.09,0a.12.12,0,0,0-.08,0s-.08,0-.11.13a.27.27,0,0,1-.13.16.44.44,0,0,0-.18.13,1.3,1.3,0,0,1-.31.22l-.17.26-.18.15a.25.25,0,0,1-.27.26s-.1.1-.18.3l-.09.1h-.17l0,.11v.13a.14.14,0,0,1-.07.12l-.4.51-.07.05h-.09l0,0q0,.43-.21.45c0,.11-.1.26-.31.44l-.08.12h-.14l0,0c.05.05.07.08.07.1s0,.14-.12.28-.14.19-.18.18a1.41,1.41,0,0,1-.19.6l-.09.19a1.17,1.17,0,0,1-.12.2v.09c0,.22-.17.41-.52.59l.07.31-.17.29L301,429q-.06.22-.15.27a.54.54,0,0,1-.1.2c0,.06-.07.1-.07.13l0,.18a3.2,3.2,0,0,0-.19.47.79.79,0,0,1-.1.27.78.78,0,0,0-.11.28.88.88,0,0,1-.2.32c-.08.36-.12.55-.12.58l-.15.15a1,1,0,0,1-.06.19l0,.1v.17c0,.1-.09.23-.26.38a.2.2,0,0,1,.13.2.83.83,0,0,1-.09.43,1.35,1.35,0,0,0-.14.3,1.71,1.71,0,0,1-.15.4.26.26,0,0,1,.12.21l-.08.82.08.23a.39.39,0,0,1-.14.08.47.47,0,0,0,.13.25,2.4,2.4,0,0,1,.35.6.26.26,0,0,0,.18.05.53.53,0,0,0,.2,0,1.1,1.1,0,0,1,.28-.06,1,1,0,0,0,.47-.23h.17a.36.36,0,0,0,.36-.22c.06-.14.13-.22.21-.22a.86.86,0,0,0,.31-.1H302a.42.42,0,0,1,.09-.14l.17-.23c.09-.13.17-.19.24-.19a4.46,4.46,0,0,0,.57-.52.25.25,0,0,1,.12,0,.2.2,0,0,0,.15-.13,3.67,3.67,0,0,1,.48-.52,2.23,2.23,0,0,0,.51-.66c.05-.16.12-.24.2-.24l.15,0h0s.05,0,.06-.11.16-.21.44-.4a.52.52,0,0,1,.33-.43l.37-.43.17,0a.27.27,0,0,0,.07-.22.25.25,0,0,1,.17-.23h.09l.06-.05c.05-.27.13-.4.24-.41h.09c.06,0,.09-.08.08-.23s.15-.27.46-.35l.22-.13s0,0,.09,0,.28.16.29.5a.29.29,0,0,1-.08.21l-.15.15,0,.21-.38.41a.28.28,0,0,0-.1.23c0,.09,0,.14-.07.14a.25.25,0,0,1-.13.11.21.21,0,0,0-.13.13.72.72,0,0,1-.47.5,1.13,1.13,0,0,1-.34.57c-.1.07-.16.13-.17.2s-.13.31-.29.3a3.26,3.26,0,0,0-.5.69s0,0,0,0l-.15,0-.11.15a.33.33,0,0,1-.25.13c-.1,0-.17.09-.21.22a.79.79,0,0,1-.12.26.85.85,0,0,0-.11.16c-.05.08-.09.12-.13.12s-.11-.06-.15-.2a.59.59,0,0,0-.17.18l.07.17a.1.1,0,0,1,0,.09,1.29,1.29,0,0,0-.15.24.74.74,0,0,1-.53.29s0,.05-.08.17a.35.35,0,0,1-.31.19c-.14.26-.26.39-.37.39l-.46.18-.2,0c0,.11-.09.17-.15.17l-.15.05a.23.23,0,0,1-.18.13c-.1,0-.15,0-.16-.1a.17.17,0,0,1,0-.07v0c0-.05,0-.07,0-.07,0,.35-.07.53-.24.53a.77.77,0,0,1-.24-.1h0l-.2.12a.12.12,0,0,1-.09,0,1.42,1.42,0,0,1-.8-.27h-.11c-.22,0-.4-.14-.52-.43l0-.05a.41.41,0,0,1-.3-.38,1.63,1.63,0,0,0-.22-.25.81.81,0,0,0-.1-.31.68.68,0,0,1-.08-.17l-.26-.91q0-.41-.06-.66l0-.1v-.07l0-.34,0-.12a4.36,4.36,0,0,1,.19-.73,7.1,7.1,0,0,0,.24-.93,1.37,1.37,0,0,1,.09-.39Z" transform="translate(-126.11 -127.11)"/><path class="cls-5" d="M313.63,435l-.46.54a.12.12,0,0,0-.09,0c-.07,0-.15.09-.24.25s-.16.23-.2.24l-.11,0a1.33,1.33,0,0,1-.36.31,1,1,0,0,0-.27.16,1,1,0,0,1-.3.14.33.33,0,0,0-.21.12c-.05.07-.19.11-.41.13h-.17a.46.46,0,0,1-.18.09.24.24,0,0,1-.19-.08.32.32,0,0,0-.22-.1.36.36,0,0,1-.25-.15.79.79,0,0,0-.24-.2.46.46,0,0,1-.18-.16l-.17-.13a1.37,1.37,0,0,1-.4-.5,1.58,1.58,0,0,1-.23-.6v-.28l-.05-.27a1.5,1.5,0,0,0,.09-.22l0-.39.17-1s0-.09-.1-.15a.45.45,0,0,1-.2.24.23.23,0,0,0-.13.19c0,.09-.05.14-.11.14l-.13,0a.82.82,0,0,0-.08.25c0,.16-.12.24-.24.25s-.2,0-.21-.15v-.22l-.09-.3a.92.92,0,0,1,.14-.4.7.7,0,0,1,.28-.36.43.43,0,0,0,.23-.26,2,2,0,0,1,.4-.5.56.56,0,0,0,.31-.34,1.16,1.16,0,0,1,.37-.26.75.75,0,0,0,.34-.28,2.92,2.92,0,0,1,.69-.59,2.14,2.14,0,0,1,.86-.43.79.79,0,0,0,.23-.07l.27-.13a.88.88,0,0,0,.25-.16.55.55,0,0,1,.22-.11l.33.09.43.12a.71.71,0,0,0,.23.09,2.94,2.94,0,0,1,.43.17.56.56,0,0,1,.26.49,1.25,1.25,0,0,0-.15.34s.08.08.26.13l.3.45.16.42.11,1v.09c-.07.09-.11.15-.1.17l0,.25,0,.35a.37.37,0,0,1-.09.21.22.22,0,0,0-.09.14l-.05.1a.77.77,0,0,0-.07.22.87.87,0,0,1-.14.29.41.41,0,0,0-.08.24.34.34,0,0,1-.09.21.29.29,0,0,0-.11.14A.29.29,0,0,1,313.63,435Zm-3.31.62.07.28,0,0h.17l.05,0a1.28,1.28,0,0,0,.33,0,.76.76,0,0,0,.51-.23c.12-.14.22-.22.3-.22s.14-.08.18-.2.07-.2.09-.2h.15l0,0a.41.41,0,0,1,.18-.42.74.74,0,0,0,.28-.36,1,1,0,0,1,.18-.32.5.5,0,0,0,.14-.29l.07-.15a.26.26,0,0,0,0-.19l.16-.46a2.91,2.91,0,0,0,0-.48.48.48,0,0,0-.27-.39.61.61,0,0,1-.28-.55.69.69,0,0,1,.2-.54,1.06,1.06,0,0,0,.23-.31c0-.05,0-.07-.07-.07a.93.93,0,0,0-.24.12c0,.12-.28.29-.72.52a1,1,0,0,0-.26-.09s-.08.05-.11.15a.63.63,0,0,1-.11.22l-.14,0s-.06,0-.13.17a.35.35,0,0,1-.28.18l-.12.16a.55.55,0,0,1-.18.43l-.1.17a3.47,3.47,0,0,1-.25.36l-.14.57a1.48,1.48,0,0,0-.07.49.45.45,0,0,1-.13.17.24.24,0,0,0-.1.21.38.38,0,0,0,.09.11.51.51,0,0,1,.09.14l0,.17v.45Z" transform="translate(-126.11 -127.11)"/><path class="cls-5" d="M324.34,431.52l.14-.2a.19.19,0,0,0,.17-.2.35.35,0,0,1,.18-.29,1,1,0,0,0,.31-.46c.08-.21.18-.33.3-.35s.1,0,.17.1a.3.3,0,0,1,.11.18,1.73,1.73,0,0,1-.08.86l0,.34-.05.17a.47.47,0,0,0-.18.24.83.83,0,0,1-.21.31l-.08.19a.51.51,0,0,0-.26.32c0,.14-.1.23-.19.26a.56.56,0,0,0-.28.29,1.25,1.25,0,0,1-.24.15v.13a.76.76,0,0,1-.3.24,1.5,1.5,0,0,0-.32.2l-.15.09a.86.86,0,0,1-.39,0,1.15,1.15,0,0,0-.37-.06.31.31,0,0,1-.1-.15.48.48,0,0,0-.14-.2.66.66,0,0,1-.15-.37V433a.2.2,0,0,0-.07-.11.16.16,0,0,1-.07-.11.08.08,0,0,1,0-.08.15.15,0,0,0,0-.07.69.69,0,0,0-.05-.13l0-.12,0-.61s0-.07-.05-.06-.08.05-.14.14a.34.34,0,0,1-.24.17.55.55,0,0,0-.09.32,1.1,1.1,0,0,1-.18.26l0,.07a.25.25,0,0,1-.14.17.46.46,0,0,0-.17.17l-.09.14h-.2a1.67,1.67,0,0,0-.09.23.92.92,0,0,1-.19.35l-.69.88-.33.3-.06.08a2.7,2.7,0,0,1-1.1.84,1.65,1.65,0,0,1-.7-.08c-.28-.08-.44-.2-.49-.37l-.18-.47a1,1,0,0,1-.17-.46.47.47,0,0,1,0-.2l0-.07-.08-.4q0-.15.18-.18l-.08-.32a2.33,2.33,0,0,1,.13-.41,1.72,1.72,0,0,1,.19-.42l.08-.18a.42.42,0,0,1,.1-.33,1.4,1.4,0,0,0,.2-.38,1.54,1.54,0,0,1,.31-.43l.26-.41a3.1,3.1,0,0,1,.7-.81,1.38,1.38,0,0,0,.22-.29,1.35,1.35,0,0,1,.4-.39,3,3,0,0,0,.45-.34.84.84,0,0,1,.35-.22h.09a5.44,5.44,0,0,0,.52-.4h.06a.78.78,0,0,1,.22.07h0l.15-.13.11,0c.44-.07.74.24.89.93,0,.14.09.2.14.2s.15-.18.24-.5a.82.82,0,0,1,.76-.57c.31-.05.5.15.57.59a2.25,2.25,0,0,1-.38,1.59.85.85,0,0,0,0,.23l-.07.52v0a.38.38,0,0,1-.06.22.45.45,0,0,0-.05.24l.07.3v.34c0,.16.07.25.13.29a.87.87,0,0,0,.44-.4.8.8,0,0,1,.18-.28l.09-.07A1.29,1.29,0,0,1,324.34,431.52Zm-3.54.56a.55.55,0,0,1,.19-.44.54.54,0,0,0,.22-.33,5.61,5.61,0,0,0,.48-.7,1.7,1.7,0,0,0,.3-.59s0,0-.05,0h0l-.08.07h-.19l-.2.06-.17-.06-.13,0h-.22a.56.56,0,0,0-.28.12,2.27,2.27,0,0,1-.44.26,1.59,1.59,0,0,0-.57.43c-.16.19-.29.29-.37.3a1.7,1.7,0,0,1-.42.6.54.54,0,0,0-.26.48c-.16.2-.24.31-.23.33l0,.22a.66.66,0,0,1-.19.18.27.27,0,0,0-.11.27.75.75,0,0,1-.09.39.54.54,0,0,0-.08.28c.06.4.16.58.3.56a1.24,1.24,0,0,0,.34-.18,1.45,1.45,0,0,0,.28-.23.46.46,0,0,1,.16-.12l.18-.16a.16.16,0,0,1,.09-.07.3.3,0,0,0,.09-.1.67.67,0,0,1,.17-.17.64.64,0,0,0,.18-.25l.52-.47.2-.23c.14-.11.23-.19.25-.25A.68.68,0,0,1,320.8,432.08Z" transform="translate(-126.11 -127.11)"/><path class="cls-5" d="M326.83,430.62l0-.12a1.65,1.65,0,0,1,.1-.56,1.12,1.12,0,0,1,.36-.62s0,0,0,0l-.07-.19s.07-.16.14-.36.17-.3.28-.3a1,1,0,0,1,.22-.39,1.44,1.44,0,0,0,.25-.4l.33-.36a1.24,1.24,0,0,1,.53-.45l.15,0a.39.39,0,0,1,.28-.31c.14,0,.23,0,.28,0s0,0,.05,0,0,0,.11-.12a.42.42,0,0,1,.26-.16,3,3,0,0,1,.52.08.38.38,0,0,1,.2-.2.54.54,0,0,1,.17,0l.24.08c.08,0,.19.15.32.39a2.35,2.35,0,0,1,.2.41.75.75,0,0,1-.17.52.85.85,0,0,1-.46.37c-.06,0-.14,0-.25-.12a3.3,3.3,0,0,1-.58-.05,1.39,1.39,0,0,0-.41.28h0l-.12-.07h-.11a1.18,1.18,0,0,0,0,.19,1,1,0,0,1-.25.23.48.48,0,0,0-.17.18.79.79,0,0,1-.2.24.64.64,0,0,0-.2.32,1.35,1.35,0,0,1-.27.23h-.06a5.77,5.77,0,0,1-.24.73l-.16.57-.18.28a.38.38,0,0,0-.09.25l.05.11,0,.12a.3.3,0,0,1-.06.2c0,.08-.08.14-.07.17l.08.26v.44c.06.25.25.33.56.26l.16,0,.43-.19.36-.16.16-.07a.65.65,0,0,0,.13-.17l.11,0,.09-.05c0-.17.16-.36.5-.56a.74.74,0,0,1,.36-.41,1.51,1.51,0,0,0,.5-.57l.16,0a1.18,1.18,0,0,0,.16-.18,1.66,1.66,0,0,1,.29-.3.71.71,0,0,0,.18-.19.35.35,0,0,1,.13-.15.9.9,0,0,1,.36-.52l0-.06c.09-.13.15-.21.17-.21h.14q.11,0,.09-.18a1,1,0,0,1,.25-.48,1.2,1.2,0,0,1,.33-.35c.13,0,.22,0,.26.2a.19.19,0,0,1-.14.24,3.38,3.38,0,0,1,.2.32.52.52,0,0,1-.23.6s0,0,0,.08l0,.22s0,0,0,0l0,.07-.16.06,0,.08a2.61,2.61,0,0,0-.43.61l-.15.3h0a.27.27,0,0,0-.2-.08s0,.07-.07.19a1.89,1.89,0,0,1-.4.58,1,1,0,0,0-.18.24l-.18.21-.16,0a1,1,0,0,0,0,.12.63.63,0,0,1-.14.24,1.6,1.6,0,0,0-.17.28.39.39,0,0,1-.16.2h-.2a.37.37,0,0,1-.31.27c0,.05-.08.12-.14.23s-.1.17-.13.18a.88.88,0,0,1-.25-.1h0c-.07,0-.1.08-.07.2a.18.18,0,0,1-.15.24.7.7,0,0,0-.34.2h0a.5.5,0,0,1-.37,0,1,1,0,0,0-.22-.1l-.32.2a.39.39,0,0,1-.27-.07l-.51-.16a1,1,0,0,1-.22-.29l-.09-.08q-.36,0-.63-.69l-.15-.26a.19.19,0,0,1-.05-.11,1.17,1.17,0,0,1,0-.38,4.87,4.87,0,0,0,0-.7A.65.65,0,0,1,326.83,430.62Z" transform="translate(-126.11 -127.11)"/><path class="cls-5" d="M333.63,428.13l.05-.15a.53.53,0,0,0,.27-.34,4.06,4.06,0,0,1,.33-.77,6.48,6.48,0,0,1,.38-.72,5.47,5.47,0,0,0,.09-1.15.23.23,0,0,0,.08-.2l0-.21.09,0,0-.06,0-.11a3.61,3.61,0,0,1,.11-1.11c.08-.71.12-1.1.12-1.18a1.77,1.77,0,0,1,0-.33c0-.15,0-.42.06-.83a4.91,4.91,0,0,1,.25-1.33.9.9,0,0,0,0-.3,2,2,0,0,1,.12-.56l.05-.28q0-.13.09-.48a5.1,5.1,0,0,1,.15-.55,1.43,1.43,0,0,0,.09-.41.56.56,0,0,1,.08-.32,1,1,0,0,0,.1-.36.34.34,0,0,1,.24-.31.65.65,0,0,1,.7.2,1.63,1.63,0,0,1,.37.61,4.42,4.42,0,0,1,0,.54l.16,1.11a.34.34,0,0,0-.12.33,2.56,2.56,0,0,1,0,1.42.75.75,0,0,0,0,.32.7.7,0,0,1,0,.48,1.61,1.61,0,0,0-.12.64l-.49,1.85-.05.12a.57.57,0,0,0-.09.24h-.18c-.19.06-.26.15-.22.29a.66.66,0,0,0,.1.17v0s-.13.5-.39,1.47a2.13,2.13,0,0,0,0,.5l0,.4a2.62,2.62,0,0,0-.11.75,1.74,1.74,0,0,1-.07.59,4,4,0,0,0,0,.62.06.06,0,0,0,.08.05s.1-.16.19-.44a1.85,1.85,0,0,1,.24-.58,1,1,0,0,0,.16-.41l.07-.11a1.41,1.41,0,0,0,.14-.2h.11a.3.3,0,0,0,.05-.2.63.63,0,0,1,0-.16c.18-.08.27-.19.27-.32s0-.22.11-.24.1-.11.15-.28a1.18,1.18,0,0,1,.27-.47A1.55,1.55,0,0,0,338,425a2.59,2.59,0,0,1,.41-.4,1.91,1.91,0,0,1,.44-.29l.07,0H339l.14-.07a1.45,1.45,0,0,1,.8,0,.72.72,0,0,1,.52.62l.14.76.05.61a4.35,4.35,0,0,1,0,.67,3.45,3.45,0,0,0,0,.6l0,.23.13.29.06.26a.1.1,0,0,0,.14.08s.08-.1.16-.28c.08,0,.14-.07.17-.2a2.85,2.85,0,0,1,.18-.43s0-.07.11-.12a1.47,1.47,0,0,0,.29-.39,1.86,1.86,0,0,1,.26-.57,3.63,3.63,0,0,1,.53-.75l0-.11c.07-.17.16-.27.26-.29s.16,0,.19.13a.72.72,0,0,1,0,.26,1.56,1.56,0,0,0,0,.36,2.1,2.1,0,0,1,0,.65v.13c0,.15,0,.25-.11.29a.55.55,0,0,0-.16.26,1.18,1.18,0,0,1-.4.45c0,.27-.09.41-.15.43l-.22,0a.62.62,0,0,0-.09.48,2.83,2.83,0,0,0-.22.43l-.21,0c-.06,0-.06.11,0,.28s-.05.09-.16.23a2.59,2.59,0,0,0-.26.33c-.05.1-.2.18-.45.26a.32.32,0,0,1-.15,0,.72.72,0,0,0-.28-.07.37.37,0,0,1-.31-.21,1.31,1.31,0,0,0-.24-.3.54.54,0,0,1-.13-.17l-.05-.24-.12-.23,0-.2a1.23,1.23,0,0,1-.13-.2l-.11-.75a6.87,6.87,0,0,1-.11-1.06.31.31,0,0,0,0-.15l-.11-.29,0-.17c0-.12-.09-.17-.16-.16s-.12,0-.14,0-.17,0-.18,0-.09.08-.1.19a.85.85,0,0,1-.09.31l-.27,0v0c0,.07,0,.22-.17.45a.93.93,0,0,0-.36.44.74.74,0,0,0-.23.27,1.09,1.09,0,0,1-.2.28l0,.22-.15.1a.45.45,0,0,1-.25.41l0,.26a.36.36,0,0,0-.23.34c0,.17,0,.26-.05.27h-.18c-.15.05-.19.2-.13.47a4.06,4.06,0,0,1-.26.68,5.08,5.08,0,0,1-.3.65s0,.11-.05.28a.74.74,0,0,1-.14.41l-.18.25a.27.27,0,0,1-.09.11c-.15,0-.3,0-.46-.25l-.24-.32,0-.27-.08-.2s0-.18,0-.52a3.2,3.2,0,0,1,.07-.82,2.41,2.41,0,0,0,0-.94,2,2,0,0,1-.45.52q-.21.06-.3-.24A1.75,1.75,0,0,1,333.63,428.13Z" transform="translate(-126.11 -127.11)"/></svg>