<svg xmlns="http://www.w3.org/2000/svg" xmlns:xlink="http://www.w3.org/1999/xlink" viewBox="0 0 345.77 345.77"><defs><style>.cls-1{fill:url(#New_Gradient_Swatch);}.cls-2{fill:url(#New_Gradient_Swatch-2);}.cls-3,.cls-4{fill:#f5c8c5;}.cls-4{font-size:107.3px;font-family:Gunplay-Regular, Gunplay;letter-spacing:0.01em;}.cls-5{fill:#f6c7c4;}</style><linearGradient id="New_Gradient_Swatch" x1="19.73" y1="172.89" x2="326.05" y2="172.89" gradientUnits="userSpaceOnUse"><stop offset="0" stop-color="#c98b7c"/><stop offset="0.06" stop-color="#d39585"/><stop offset="0.21" stop-color="#e5a896"/><stop offset="0.36" stop-color="#f0b3a1"/><stop offset="0.52" stop-color="#f4b7a4"/><stop offset="1" stop-color="#914f4c"/></linearGradient><linearGradient id="New_Gradient_Swatch-2" x1="0" y1="172.89" x2="345.77" y2="172.89" xlink:href="#New_Gradient_Swatch"/></defs><title>Asset 3</title><g id="Layer_2" data-name="Layer 2"><g id="Layer_1-2" data-name="Layer 1"><path class="cls-1" d="M172.89,326c-84.45,0-153.16-68.7-153.16-153.15S88.44,19.73,172.89,19.73,326.05,88.44,326.05,172.89,257.34,326,172.89,326Zm0-304.74C89.3,21.3,21.3,89.3,21.3,172.89s68,151.59,151.59,151.59,151.59-68,151.59-151.59S256.47,21.3,172.89,21.3Z"/><path class="cls-2" d="M172.89,345.77C77.56,345.77,0,268.22,0,172.89S77.56,0,172.89,0,345.77,77.56,345.77,172.89,268.22,345.77,172.89,345.77Zm0-337.93c-91,0-165,74-165,165s74,165,165,165,165-74,165-165S263.89,7.84,172.89,7.84Z"/><path class="cls-3" d="M43.05,122.55l0-.11.2-.43c.06-.12,0-.38-.18-.77,0,0,0-.36.11-1l0-.1c0-.21-.08-.35-.1-.44l.15-.3a1.29,1.29,0,0,0,0-.33,4.11,4.11,0,0,1,.11-1.11,5.3,5.3,0,0,0,.14-1.1,6.12,6.12,0,0,1,.24-.75l.13-.48.2-.34c.27-.56.83-.79,1.69-.68a.51.51,0,0,0,.24,0,.43.43,0,0,1,.24,0A2.39,2.39,0,0,1,47.25,116l.49.5a1.56,1.56,0,0,1,.16.28,2.37,2.37,0,0,0,.34.53,3.87,3.87,0,0,1,.51,1.08c.1.13.25.31.47.56a2.62,2.62,0,0,1,.39.55,11.8,11.8,0,0,0,.66,1.08,3.84,3.84,0,0,0,.73,1,1,1,0,0,0,.43.61,2.32,2.32,0,0,1,.62.7l.1.09c.05-.4-.06-.66-.31-.78,0,0-.07-.14-.11-.38l-.17-.24a.88.88,0,0,1-.09-.45,1.13,1.13,0,0,1-.21-.52q-.1-.42-.15-.57a1.6,1.6,0,0,1,0-.43c0-.19-.17-.5-.53-.92a.42.42,0,0,1-.09-.35.83.83,0,0,0-.09-.48,1.33,1.33,0,0,1-.13-.36l-.13-.21a1.74,1.74,0,0,1-.08-.33l-.58-1.24a1.91,1.91,0,0,0-.29-1l0-.14,0-.1c-.06-.23-.1-.39-.13-.47a.67.67,0,0,1-.45-.66,1.42,1.42,0,0,0-.12-.69.5.5,0,0,1-.05-.45.42.42,0,0,1,.18-.13v0s0-.09-.11-.17l-.16-.08a.74.74,0,0,1-.37-.37.89.89,0,0,1,0-.54,1,1,0,0,0-.16-.72.88.88,0,0,1-.09-.76.51.51,0,0,0,0-.56,1.53,1.53,0,0,1-.19-.93,4,4,0,0,1,0-.86.77.77,0,0,0,0-.3.67.67,0,0,1,.06-.28A2,2,0,0,1,48,106l.2-.26a1.87,1.87,0,0,1,.91-.4l.24-.09.06,0,.29.09.12.06c.13-.1.23-.14.29-.11l.16.21a.55.55,0,0,0,.23.19l.3.16.26.18a2,2,0,0,1,.23.18l.18.19c.05.07.1.14.14.21l.45.37a2.47,2.47,0,0,1,.56.69,4.09,4.09,0,0,0,.43.61,1.8,1.8,0,0,1,.35.44h.11l.23.11c.11-.35.06-.58-.15-.68a.6.6,0,0,1-.3-.64l-.12-.48a2.23,2.23,0,0,1-.47-1.48.85.85,0,0,1-.38-.56l-.28-.88,0-.54a1.41,1.41,0,0,1-.4-1l-.06-.46a.69.69,0,0,0-.14-.51.68.68,0,0,1-.19-.39c0-.19-.12-.48-.23-.86v-.16l-.08-.24a2,2,0,0,1,0-.47V99.4a2.46,2.46,0,0,1-.06-.91,4.28,4.28,0,0,0,0-.88L51,97a1.22,1.22,0,0,1,.06-.29c.48-1,1.29-1.24,2.43-.7l.24.16.93.41a8.31,8.31,0,0,0,.5.72l.3.11a1.79,1.79,0,0,1,.28.38l.25.43a4.2,4.2,0,0,1,.2.45l.4.39a1,1,0,0,1,.17.42l.19.09q.24.1.42,1a1.35,1.35,0,0,1,.48.57,1.58,1.58,0,0,0,.27.5,1.48,1.48,0,0,1,.25.52,2,2,0,0,1,.57.61,3.66,3.66,0,0,1,.43.72,1.7,1.7,0,0,0,.32.54v.17c.38.26.57.44.58.55l-.15.24.06,0a.24.24,0,0,0,.14,0,.3.3,0,0,1,.21,0,.28.28,0,0,1,.14.19.38.38,0,0,0,.11.19.33.33,0,0,1,.12.14.69.69,0,0,0,.28.22,1.91,1.91,0,0,1,.51.54,2,2,0,0,0,.43.5l.22.16a.52.52,0,0,0,.17.13,3.17,3.17,0,0,1,.46.31c.57,0,1,0,1.17,0a.93.93,0,0,1,.4,0,1.7,1.7,0,0,1,.78.57c.09.17,0,.47-.16.88a1.08,1.08,0,0,1-.61.56.93.93,0,0,0-.53.39l-.29-.14,0,0-.13.25-.17.08a.93.93,0,0,1-.32.1l-.14,0a1.76,1.76,0,0,1-.63,0l-.37-.06L61.7,110l-.41-.16a.67.67,0,0,1-.24-.16l-.41-.23a1.21,1.21,0,0,1-.25-.2,2.56,2.56,0,0,0-.47-.32,1,1,0,0,1-.39-.36.65.65,0,0,0-.2-.28.29.29,0,0,1-.14-.17.9.9,0,0,0-.3-.29.74.74,0,0,1-.31-.56c-.14-.19-.27-.37-.41-.53a4.35,4.35,0,0,1-.29-.57l.11-.22a.79.79,0,0,1-.3,0q-.44-.2-.27-.54a.53.53,0,0,1,.1-.14l-.09-.12-.3-.07a.82.82,0,0,1-.35-.67,1.22,1.22,0,0,1-.62-.83l-.27-.09a2.27,2.27,0,0,0-.29-.47,5.44,5.44,0,0,1-.45-.76l-.51-.85-.15-.35h0s0,0,0-.06a1.08,1.08,0,0,0-.15-.14l-.19-.21-.07-.17c.05-.31,0-.5-.09-.55a1.06,1.06,0,0,0-.27,0l-.06,0c-.09,0-.16-.15-.23-.34A2.36,2.36,0,0,0,53,99a1.87,1.87,0,0,0-.34-.37c-.05,0-.08,0-.1,0a.76.76,0,0,0,0,.86q.09,0,.09.81l.16.27a.61.61,0,0,1,0,.42.79.79,0,0,0,0,.46c.05.21.16.68.34,1.4a11.77,11.77,0,0,0,.51,1.66l.08.48c0,.19,0,.29.07.31s.2.21.28.47l.15.31-.2.21a.39.39,0,0,0,0,.39.56.56,0,0,1,.22,0c.17.08.27.33.3.73l.38,1a1.75,1.75,0,0,1,.06.32,1,1,0,0,0,.21.49,4.59,4.59,0,0,1,.48.92,4.23,4.23,0,0,1,.31.82.92.92,0,0,0,.13.29,3.4,3.4,0,0,1,.27.7,1.28,1.28,0,0,0,.51.74c0,.23,0,.37,0,.39l.12.17v.16a.88.88,0,0,0,.19.15q.15.09.24.9a2.71,2.71,0,0,1,0,1,.32.32,0,0,0,0,.18.41.41,0,0,1,0,.16,2.19,2.19,0,0,1-.39.33,1.44,1.44,0,0,1-1.15.12l-.36-.33-.36-.09a.46.46,0,0,1-.18-.28.64.64,0,0,0-.33-.34c-.3-.35-.51-.61-.63-.77l-.24-.15a1.65,1.65,0,0,1-.25-.39,1.12,1.12,0,0,0-.36-.39.36.36,0,0,1-.21-.36,11.66,11.66,0,0,0-1.31-2.21l-.22-.11-.58-.84c-.17-.25-.35-.54-.55-.89l-.3-.32c-.28.27-.43.42-.44.44a.44.44,0,0,0,0,.3c.18.08.22.48.11,1.2a2,2,0,0,0,.23.72l0,.56a3,3,0,0,0,.11.43l.1.32a1.31,1.31,0,0,0,.12.9l.09.57a3.23,3.23,0,0,0,.12.37,3.15,3.15,0,0,1,.07.76l.13.37v.3a4.41,4.41,0,0,0,.28.6.54.54,0,0,1,.07.44l0,.42a1.63,1.63,0,0,1,.51,1l.35.74a1.48,1.48,0,0,1,.07.31.4.4,0,0,1,.12.33c.1.21.18.36.22.43l0,.26c0,.34,0,.52.05.55l.3.11c.12,0,.17.24.15.54a.39.39,0,0,0,.17.31,1.39,1.39,0,0,1,.31.29l-.14.29a1.32,1.32,0,0,0,0,.37.11.11,0,0,0,0,.08l.4.11a.8.8,0,0,1,.31.47,4.76,4.76,0,0,0,.25.6c.09.15.12.25.1.29l0,.09,0,.13a1,1,0,0,1,.46.71l.15.3a5.94,5.94,0,0,0,.54.93,9.55,9.55,0,0,1,.76,1.4,2.54,2.54,0,0,1,.24,1c0,.27,0,.56,0,.86l-.44.59a.91.91,0,0,0-.42.14.34.34,0,0,1-.33.07l-.64-.07a1.34,1.34,0,0,1-.47-.44,2.52,2.52,0,0,0-.41-.46,2.36,2.36,0,0,1-.4-.42,1.7,1.7,0,0,0-.28-.3c-.28-.14-.44-.27-.46-.4s-.09-.4-.18-.83c0,0,0,0-.05-.06l0,0-.29-.1c-.29-.44-.43-.69-.4-.76a.41.41,0,0,1,.1-.11l-.4-.07s-.08-.11-.12-.27a1.3,1.3,0,0,0-.19-.43l-.22,0-.07,0a1,1,0,0,1-.43-.7c-.06-.08-.24-.27-.53-.57l-.53-.76a1.24,1.24,0,0,1-.25-.53.36.36,0,0,0-.15-.31,1.15,1.15,0,0,1-.27-.27c.06,0,.06,0,0,0l-.27-.23a.65.65,0,0,1-.21-.54c-.51-.54-.73-.89-.66-1a.35.35,0,0,1,.15-.15l0-.06c.08-.17.05-.29-.07-.35a.07.07,0,0,0-.1,0c.06.15.08.26,0,.33s-.07.1-.12.08,0,0,0-.07l-.55-.7-.28-.17a2.47,2.47,0,0,1-.17-.4l-.23-.44-.16-.08a2.21,2.21,0,0,1-.26-.3,2.72,2.72,0,0,0-.48-.48l-.27-.46a1.28,1.28,0,0,0-.32-.23c-.16-.08-.25-.1-.27-.05l-.27,1a10.92,10.92,0,0,0,.1,1.36l-.1.41a3.14,3.14,0,0,0,0,.53,1.92,1.92,0,0,1-.09.8,1,1,0,0,0,0,.63v.08l-.15.3a3.28,3.28,0,0,0,.2.39.2.2,0,0,1,0,.16c.2,1.41.3,2.29.31,2.65a3.59,3.59,0,0,0,.1.85,3.07,3.07,0,0,1,.08.51l.19.09c.18.08.32.31.42.68a1.21,1.21,0,0,1,0,.84.75.75,0,0,1-.24.24,1.46,1.46,0,0,0-.35.39c-.1.15-.34.14-.72-.05-.55-.25-.83-.94-.85-2a2,2,0,0,0,0-.49,13.89,13.89,0,0,1,.06-1.71v-.57a1.56,1.56,0,0,1,0-.68c0-.29.05-.52.05-.7a2,2,0,0,1,0-.4Zm11-13.09-.21-.3,0,0s0,0-.06,0,0,.24.19.41c.08,0,.12,0,.13,0A.11.11,0,0,0,54.05,109.46Z"/><path class="cls-3" d="M72.51,92.64l0-.37a.29.29,0,0,0,0-.39.56.56,0,0,1-.08-.53,1.49,1.49,0,0,0-.1-.83.77.77,0,0,1,0-.73.43.43,0,0,1,.29-.09.5.5,0,0,1,.31.06,2.41,2.41,0,0,1,.75,1l.35.36.11.23a.81.81,0,0,0,0,.46,1.31,1.31,0,0,1,.06.56l.1.29a.79.79,0,0,0,0,.66.51.51,0,0,1,0,.49.89.89,0,0,0,0,.62,2.35,2.35,0,0,1-.13.44l.12.13a1.25,1.25,0,0,1-.1.62,3,3,0,0,0-.17.57.71.71,0,0,1-.08.26,1.44,1.44,0,0,1-.47.42,1.81,1.81,0,0,0-.49.37.42.42,0,0,1-.25,0,.75.75,0,0,0-.37,0,.92.92,0,0,1-.54-.21l-.23-.25a.32.32,0,0,0-.19,0,.36.36,0,0,1-.2,0,.15.15,0,0,1-.06-.1.24.24,0,0,0-.06-.09.75.75,0,0,0-.18-.08.59.59,0,0,1-.16-.08l-.64-.6s-.09,0-.12,0,0,.14,0,.31a.6.6,0,0,1-.12.45.77.77,0,0,0,.22.45,1.51,1.51,0,0,1,0,.48l0,.11c.06.07.06.18,0,.34a.62.62,0,0,0,0,.37l0,.25-.23.25s0,.15.13.34a1.23,1.23,0,0,1,.12.59l.08,1.73c0,.17,0,.41-.08.71l0,.15a4.62,4.62,0,0,1-.44,2.15,2.93,2.93,0,0,1-.88.74c-.39.23-.7.29-.92.17l-.68-.29a1.28,1.28,0,0,1-.65-.28.81.81,0,0,1-.21-.2l-.08-.06-.49-.32c-.11-.08-.1-.22,0-.39l-.4-.26a2.37,2.37,0,0,1-.27-.58,2.46,2.46,0,0,1-.19-.66l-.08-.28a.62.62,0,0,1-.22-.47,2.26,2.26,0,0,0-.13-.63,2,2,0,0,1-.08-.81l-.11-.74a5.19,5.19,0,0,1,0-1.67,1.93,1.93,0,0,0,0-.55,2,2,0,0,1,.07-.88,6,6,0,0,0,.18-.88,1.39,1.39,0,0,1,.19-.64l.08-.11a6.92,6.92,0,0,0,.21-1l.06-.09a1.12,1.12,0,0,1,.31-.19l0,0,0-.31a.44.44,0,0,1,.08-.17c.43-.58,1.08-.6,1.93-.06.19.11.31.13.36,0s0-.36-.21-.79a1.38,1.38,0,0,1,.31-1.49q.45-.61,1.23,0a3,3,0,0,1,1.13,2.11,1.26,1.26,0,0,0,.19.28l.43.63,0,0a.51.51,0,0,1,.15.29.54.54,0,0,0,.17.32l.37.23.36.35a.58.58,0,0,0,.43.17,1.53,1.53,0,0,0,.11-.94,1.34,1.34,0,0,1-.08-.5l0-.19A1.63,1.63,0,0,1,72.51,92.64ZM69,97.35a.81.81,0,0,1-.21-.7.87.87,0,0,0-.08-.6,9.38,9.38,0,0,0-.13-1.3,2.46,2.46,0,0,0-.25-1s-.06,0-.09,0l0,0V94l-.22.23-.17.29-.25.13-.11.2-.26.24a.93.93,0,0,0-.2.46,3.78,3.78,0,0,1-.26.78,2.87,2.87,0,0,0-.23,1.11,1.4,1.4,0,0,1-.12.75,2.78,2.78,0,0,1,.12,1.12.8.8,0,0,0,.16.8,2,2,0,0,0,.07.62l.17.28a1.21,1.21,0,0,1,0,.41.42.42,0,0,0,.15.42.92.92,0,0,1,.28.5.63.63,0,0,0,.19.39c.46.35.76.43.89.25a2.06,2.06,0,0,0,.2-.59,2.35,2.35,0,0,0,.11-.57.87.87,0,0,1,0-.31l.06-.37a.27.27,0,0,1,0-.18.37.37,0,0,0,0-.21,1,1,0,0,1,0-.38.82.82,0,0,0,0-.47c0-.23.07-.6.14-1.11v-.46a1.3,1.3,0,0,0,0-.56A.9.9,0,0,1,69,97.35Z"/><path class="cls-3" d="M73.14,85.87l.13-.24-.09-.24a4.55,4.55,0,0,0,.13-1.56.34.34,0,0,1,0-.22,1.07,1.07,0,0,0,0-.36,2.09,2.09,0,0,1,.58-1.58q.72-.77,1.71.06l.27.1a6.55,6.55,0,0,1,1,.4,4.25,4.25,0,0,1,.86.45,1.78,1.78,0,0,1,.49.87,6.85,6.85,0,0,0,.16,1.77l0,.21a3.58,3.58,0,0,1,.21.7c-.1.23-.11.38,0,.44l.24.22a.81.81,0,0,1,0,.15,2,2,0,0,0,.14.44l.06.25a.65.65,0,0,0,.12.3,1.77,1.77,0,0,1,.15.42.5.5,0,0,0,.11.29c.13.12.35,0,.67-.32a2.13,2.13,0,0,0,.1-.27l.22-.13s0-.08,0-.21a1.13,1.13,0,0,1,.16-.44,1.82,1.82,0,0,0,.19-.52A2.34,2.34,0,0,1,81,86.3a1.78,1.78,0,0,0,.15-.67,2.34,2.34,0,0,1,.13-.64,1.46,1.46,0,0,0,.11-.6,4,4,0,0,1,.07-.67,7.56,7.56,0,0,0,0-1.28,1.91,1.91,0,0,1,.13-.68,2.9,2.9,0,0,0-.13-.54.76.76,0,0,1,.08-.78.32.32,0,0,1,.51,0,.49.49,0,0,1,.15.38l.08.08.23.16a.33.33,0,0,1,.14.09s.06.11.07.24a.72.72,0,0,0,.13.38.39.39,0,0,1,0,.44c.14.23.18.4.13.51a1.37,1.37,0,0,0-.06.58,7.89,7.89,0,0,1-.06,1.1,6.82,6.82,0,0,0-.06,1c0,.2,0,.32,0,.35a.37.37,0,0,1-.15.06l-.15,0q-.08.09.09.27l.08.18a1.26,1.26,0,0,1-.08.29l-.1,0,0,0c-.09.11-.1.19,0,.27l.21,0,0,0a.24.24,0,0,1,0,.38,3.51,3.51,0,0,0-.29,1.27l-.28.44-.12.47a1,1,0,0,0-.27.11l-.13.27-.32.39s-.24.09-.7.23a1.52,1.52,0,0,1-1,.07,4.81,4.81,0,0,0-.73-.26,1.31,1.31,0,0,1-.5-.2,3.32,3.32,0,0,1-.79-.93,3.1,3.1,0,0,0-.27-.49.9.9,0,0,1-.14-.41,1.52,1.52,0,0,0-.3-.65,8.91,8.91,0,0,1-.43-1.37,1.71,1.71,0,0,0-.21-.61L76,85.3a.91.91,0,0,0-.12-.27c-.09-.14-.11-.25-.08-.31a.8.8,0,0,0-.14-.32.43.43,0,0,0-.69,0c0,.05,0,.14,0,.27a1,1,0,0,1-.07.6,2.14,2.14,0,0,0-.13.52,1.11,1.11,0,0,1-.09.43,1.29,1.29,0,0,0,0,.65l-.11.32c.1.22.14.36.11.43s-.14.27-.32.6a.84.84,0,0,0,0,.27.47.47,0,0,1-.13.43,5.35,5.35,0,0,0,.07.65,1.54,1.54,0,0,0-.15.37l-.18.31a1.61,1.61,0,0,0,0,.46.74.74,0,0,1-.26.61c-.12.13-.29.1-.49-.09a1.72,1.72,0,0,1-.59-1.39,2.09,2.09,0,0,1,.21-1c.11-.16.14-.29.08-.4A.64.64,0,0,1,73,88a2,2,0,0,0,.06-.82,1.91,1.91,0,0,1,.15-.94Z"/><path class="cls-3" d="M81.44,68.84l-.53-.45-.08-.08c-.36-.41-.42-.76-.18-1.06a6,6,0,0,0,.4-.66,1.22,1.22,0,0,1,.86,0,1.5,1.5,0,0,1,.83.41.52.52,0,0,1,.07.15,1.32,1.32,0,0,0,.25.4.78.78,0,0,1,.14.68,1.07,1.07,0,0,1-.35.65,1.06,1.06,0,0,1-.69.16A1.23,1.23,0,0,1,81.44,68.84Zm.15,11.65,0-.37.08-.07c.06,0,.09-.2.1-.44l.08-.17a1.48,1.48,0,0,1,.06-.87l.07-.35A.59.59,0,0,1,82.1,78a1.78,1.78,0,0,0,.09-.54.78.78,0,0,1,.15-.52.71.71,0,0,1,.24-.16,1.16,1.16,0,0,1,0-.6,1.68,1.68,0,0,0,.06-.7l.1-.23a1.87,1.87,0,0,0,.14-.61.78.78,0,0,1,.28-.54,1.63,1.63,0,0,1,1.15-.32,1.43,1.43,0,0,1,1.08.38l.68,1.23c.53.89.71,1.43.56,1.63l.19.32c0,.2,0,.33,0,.38l.36.24a.5.5,0,0,1,0,.33s0,0,0,.1l.48.55a.37.37,0,0,1,0,.4l.13,0c0-.1.1-.23.28-.4l.24-.16,0-.54a1.43,1.43,0,0,0,.15-.36A5.77,5.77,0,0,1,89,77.1l.56-2.85a1.32,1.32,0,0,1,.22-.84c.13-.12.27-.09.42.08a1.25,1.25,0,0,1,.32.58,2.73,2.73,0,0,0,.2.64,1.16,1.16,0,0,1,.12.57,1.41,1.41,0,0,0,0,.41,2.44,2.44,0,0,1-.11.75,5.76,5.76,0,0,0-.17,1,4.32,4.32,0,0,1-.09.7l-.2.91,0,.21a1.8,1.8,0,0,1-.14.33,2,2,0,0,0-.2.56l-.12.34a.81.81,0,0,1-.2.3.57.57,0,0,0-.17.42.54.54,0,0,1-.09.33l-.22.15-.2.31a1.32,1.32,0,0,1-.78.22,1,1,0,0,1-.84-.29l-.07-.08-.13-.21a2.9,2.9,0,0,0-.32-.2l-.3-.17-.14-.21L86.25,81a1.66,1.66,0,0,1-.35-.49,1,1,0,0,0-.15-.33,2.91,2.91,0,0,1-.18-.32l-.23-.39a.53.53,0,0,1-.06-.33l-.21-.45-.15-.28,0-.3a.62.62,0,0,0-.12-.4,1.28,1.28,0,0,1-.2-.5,1.49,1.49,0,0,0-.09-.34.19.19,0,0,0-.3,0,1.75,1.75,0,0,0-.14.51l-.31.13s0,.1,0,.26,0,.1,0,.18a.51.51,0,0,0,0,.4l-.09.12-.24.07,0,0c-.09.08-.06.22.1.43a.9.9,0,0,1-.14.62L83,80a.47.47,0,0,0,0,.43A1,1,0,0,1,83,81a.78.78,0,0,1-.13.39c-.24.22-.49.19-.73-.09l-.44-.71Z"/><path class="cls-3" d="M101.66,66.46l.08-.36a.3.3,0,0,0,.12-.38.6.6,0,0,1,.09-.53,1.44,1.44,0,0,0,.15-.82.79.79,0,0,1,.22-.69.4.4,0,0,1,.31,0,.51.51,0,0,1,.28.15,2.44,2.44,0,0,1,.41,1.18l.23.44,0,.26a.81.81,0,0,0-.1.44,1.3,1.3,0,0,1-.11.56V67a.86.86,0,0,0-.19.64.49.49,0,0,1-.11.47.93.93,0,0,0-.22.59,1.85,1.85,0,0,1-.25.37l.07.17a1.19,1.19,0,0,1-.28.55,2.59,2.59,0,0,0-.34.5.56.56,0,0,1-.15.22,1.51,1.51,0,0,1-.58.26,1.55,1.55,0,0,0-.57.2.45.45,0,0,1-.24-.11.76.76,0,0,0-.33-.17.76.76,0,0,1-.45-.36L99.59,70a.3.3,0,0,0-.18-.09.3.3,0,0,1-.17-.09.13.13,0,0,1,0-.11.19.19,0,0,0,0-.11A.6.6,0,0,0,99,69.5l-.13-.12-.42-.77c0-.06-.08-.07-.12,0s-.07.12-.1.29a.59.59,0,0,1-.25.39.81.81,0,0,0,.07.5,1.59,1.59,0,0,1-.1.46v.13a.37.37,0,0,1-.09.32.59.59,0,0,0-.14.35l0,.24-.3.17s0,.15,0,.36a1.55,1.55,0,0,1-.07.61l-.45,1.67a6.34,6.34,0,0,1-.3.64l0,.15a4.61,4.61,0,0,1-1.08,1.93,3.13,3.13,0,0,1-1,.43q-.68.15-.93-.12L93,76.61a1.26,1.26,0,0,1-.53-.47.54.54,0,0,1-.13-.25l-.07-.08-.36-.46c-.09-.11,0-.23.14-.36l-.3-.37a2.65,2.65,0,0,1-.08-.63,2.44,2.44,0,0,1,0-.69V73a.56.56,0,0,1-.07-.51,2.16,2.16,0,0,0,.07-.64,2.19,2.19,0,0,1,.16-.8l.13-.74a5.14,5.14,0,0,1,.51-1.58,2.11,2.11,0,0,0,.15-.54,1.93,1.93,0,0,1,.33-.81,5.46,5.46,0,0,0,.43-.79,1.46,1.46,0,0,1,.38-.55l.11-.08a7,7,0,0,0,.51-.91l.08-.06a1.18,1.18,0,0,1,.36-.08l0,0,.15-.28a.29.29,0,0,1,.12-.13c.59-.43,1.21-.25,1.86.53.14.16.25.21.33.16s.1-.35,0-.82A1.41,1.41,0,0,1,98.09,63c.41-.3.81-.18,1.18.34a3.06,3.06,0,0,1,.44,2.36,1,1,0,0,0,.1.32l.22.73,0,0a.57.57,0,0,1,0,.33.52.52,0,0,0,.07.35l.28.34.23.44c.13.18.25.28.36.28a1.42,1.42,0,0,0,.39-.85,1.28,1.28,0,0,1,.08-.51l.1-.16A1.78,1.78,0,0,1,101.66,66.46ZM96.9,69.88a.82.82,0,0,1,0-.73.86.86,0,0,0,.1-.59,8.37,8.37,0,0,0,.27-1.28,2.63,2.63,0,0,0,.06-1s0,0-.09,0l0,0-.06.16-.28.15-.25.23-.28,0-.16.16-.33.15a1.07,1.07,0,0,0-.33.38,3.13,3.13,0,0,1-.48.66,2.85,2.85,0,0,0-.55,1,1.46,1.46,0,0,1-.35.68,2.61,2.61,0,0,1-.23,1.1.82.82,0,0,0-.08.82,1.94,1.94,0,0,0-.13.61l.08.31a1.27,1.27,0,0,1-.17.38.39.39,0,0,0,0,.44.92.92,0,0,1,.12.57.6.6,0,0,0,.06.42c.33.47.59.64.77.51a1.92,1.92,0,0,0,.37-.49,2.07,2.07,0,0,0,.28-.52.86.86,0,0,1,.14-.27l.17-.34a.34.34,0,0,1,.08-.17.33.33,0,0,0,.08-.19,1.06,1.06,0,0,1,.13-.36.87.87,0,0,0,.11-.46c.09-.21.25-.55.47-1l.13-.44a1.23,1.23,0,0,0,.22-.53A.83.83,0,0,1,96.9,69.88Z"/><path class="cls-3" d="M117.52,58.83l.06,0,.19,0a.09.09,0,0,0,0-.06.65.65,0,0,1,0-.59.82.82,0,0,1,.12-.64l.59-1,.21-.55.13-.2,0-.22a.48.48,0,0,1,.22-.37c.15-.09.26-.07.32,0l0,.39.33.48a.78.78,0,0,1,.07.6c0,.22-.14.54-.26,1l-.35,1.26-.3.45a1.69,1.69,0,0,0-.17.36l-.33.84a.41.41,0,0,1,0,.4l-.25.14-.09.12a1.45,1.45,0,0,1-.33.92l-.14.27a.36.36,0,0,1-.15.2l-.47.17-.26.22a.75.75,0,0,1-.4.06,2.38,2.38,0,0,0-.54,0,1.6,1.6,0,0,1-.86-.28,3,3,0,0,1-.72-.47.59.59,0,0,0-.18-.17A.61.61,0,0,1,114,62a1.57,1.57,0,0,1,0-.39l0,0a.62.62,0,0,0-.2-.17,1.1,1.1,0,0,1-.31-.38,1.23,1.23,0,0,0-.28-.31c0-.12,0-.21,0-.25a.6.6,0,0,0-.14-.15.6.6,0,0,1-.14-.16l-.31-.81-.27-.36-.17-.39c-.11-.22-.27-.28-.45-.18a.57.57,0,0,0-.22.34l-.09.09a4.12,4.12,0,0,0-.42.65.63.63,0,0,1-.28.32.92.92,0,0,1-.27.36l-.07.16a2.45,2.45,0,0,1-.15.32,4.72,4.72,0,0,1-.31.83c-.22.52-.41,1-.57,1.45a2,2,0,0,1-.43.82q-.18.15,0,.51s0,.18-.14.4a2.29,2.29,0,0,0-.15.51,1.72,1.72,0,0,0-.38,0c-.13.07-.14.29,0,.67,0,.17-.11.34-.37.51a.87.87,0,0,0,0,.3l0,.09-.16.08a1.13,1.13,0,0,0-.12.3,1,1,0,0,1-.21.4q0,.53-.12.6a.37.37,0,0,1-.21,0,1.56,1.56,0,0,0-.35,0A.9.9,0,0,1,106,68a1.41,1.41,0,0,1-.52-.45c-.61-1.16-.72-1.9-.33-2.25v-.07l-.07-.13a.33.33,0,0,1,0-.38,1.14,1.14,0,0,0,.18-.54,1.51,1.51,0,0,1,.1-.42l.2-.11s0-.14-.11-.36a.25.25,0,0,1,0-.21.47.47,0,0,0,0-.28,1.63,1.63,0,0,1,0-.6,1.86,1.86,0,0,0,0-.51l-.07,0a1.73,1.73,0,0,1-.35.68,1.22,1.22,0,0,0-.23.7l-.27.09a8.5,8.5,0,0,1-.52,1,1,1,0,0,0-.16.54c0,.06,0,.12,0,.18a2,2,0,0,0-.27.46l-.1,0c-.26.14-.49,0-.68-.35l-.15-1.06a1.49,1.49,0,0,1,.28-1.06,9.9,9.9,0,0,0,.59-1,1.39,1.39,0,0,1,.57-.66l0-.22a1.35,1.35,0,0,0,.38-1,.66.66,0,0,1,.28-.71,1.71,1.71,0,0,1,1.64-.06,2.17,2.17,0,0,1,1,.77l.25.4a2.57,2.57,0,0,1,.23.66,1.08,1.08,0,0,0,0,.52c0,.08.12.09.22,0s.12-.12.18-.27a2.82,2.82,0,0,1,.22-.42c.09-.15.14-.25.13-.31a1,1,0,0,1,.27-.8,1.84,1.84,0,0,0,.36-.5l.09-.2v-.3a2.24,2.24,0,0,0,.38-.64.66.66,0,0,1,.26-.4,1.53,1.53,0,0,0,.38-.57l.2-.18.15-.24a.72.72,0,0,1,.15-.18c.09-.09.21-.22.37-.41a1.53,1.53,0,0,1,.35-.33,1.64,1.64,0,0,1,1.59,0,2.19,2.19,0,0,1,1,.78l.12.3.28.39,0,.06.33.92.19.28a1.49,1.49,0,0,1,.22,1.18s0,.11,0,.2l.07.14.66.49c.22.17.35.25.4.22l.43-.4a.71.71,0,0,0,.18-.52,2.06,2.06,0,0,0,.24-.61C117.33,59,117.38,58.9,117.52,58.83Z"/><path class="cls-3" d="M132.48,51.81l.18-.33a.29.29,0,0,0,.21-.33.56.56,0,0,1,.23-.49,1.47,1.47,0,0,0,.37-.75c.07-.34.2-.54.39-.61a.42.42,0,0,1,.29.08c.13.08.21.15.23.22a2.34,2.34,0,0,1,.09,1.25l.1.49,0,.25a.73.73,0,0,0-.22.4,1.34,1.34,0,0,1-.26.51l-.08.29a.85.85,0,0,0-.35.57.48.48,0,0,1-.23.42,1,1,0,0,0-.37.51,2.07,2.07,0,0,1-.34.3l0,.18a1.28,1.28,0,0,1-.43.45,4.67,4.67,0,0,0-.46.39.87.87,0,0,1-.2.18,1.38,1.38,0,0,1-.63.09,1.71,1.71,0,0,0-.6,0,.42.42,0,0,1-.2-.17.79.79,0,0,0-.28-.25.89.89,0,0,1-.34-.46l-.05-.34c0-.05-.06-.09-.14-.14a.25.25,0,0,1-.14-.13.14.14,0,0,1,0-.11s0-.07,0-.12a.7.7,0,0,0-.1-.16.59.59,0,0,1-.1-.16l-.2-.85c0-.06-.05-.09-.1-.07a.67.67,0,0,0-.18.25.59.59,0,0,1-.34.32.76.76,0,0,0-.07.49,1.31,1.31,0,0,1-.22.42l0,.13c0,.08-.05.17-.17.28a.55.55,0,0,0-.23.3l-.11.22-.32.09a2,2,0,0,0-.08.35,1.41,1.41,0,0,1-.22.57l-.88,1.49c-.1.13-.26.32-.46.54l-.06.14a4.79,4.79,0,0,1-1.55,1.57,3,3,0,0,1-1.14.13c-.45,0-.74-.14-.86-.36l-.42-.61a1.34,1.34,0,0,1-.38-.59,1,1,0,0,1-.07-.28l0-.1-.24-.53c-.05-.14,0-.24.24-.32l-.2-.43a3,3,0,0,1,.1-.63,2.44,2.44,0,0,1,.2-.67l.08-.27a.59.59,0,0,1,.08-.51,2.37,2.37,0,0,0,.23-.6,2.14,2.14,0,0,1,.37-.72l.32-.68a5.23,5.23,0,0,1,.92-1.4,1.78,1.78,0,0,0,.28-.48,2.12,2.12,0,0,1,.53-.69,4.84,4.84,0,0,0,.64-.64,1.31,1.31,0,0,1,.51-.43l.13-.05a8.39,8.39,0,0,0,.72-.74l.1,0a.91.91,0,0,1,.37,0h0l.22-.23a.36.36,0,0,1,.15-.1c.68-.25,1.24.09,1.65,1,.1.19.19.27.28.24s.19-.3.25-.78.41-.84,1.07-1.08c.48-.18.83,0,1.05.65a3,3,0,0,1-.21,2.39,1.87,1.87,0,0,0,0,.33l0,.76v0a.44.44,0,0,1,0,.32.51.51,0,0,0,0,.36l.18.4.11.49a.56.56,0,0,0,.26.37,1.45,1.45,0,0,0,.61-.72,1.4,1.4,0,0,1,.21-.46l.14-.13A1.83,1.83,0,0,1,132.48,51.81Zm-5.5,2a.84.84,0,0,1,.2-.71.83.83,0,0,0,.26-.54,7.73,7.73,0,0,0,.6-1.16,2.4,2.4,0,0,0,.32-.94s0-.05-.08,0h0l-.1.13-.31.08-.3.15-.28,0-.2.11-.35.06a1,1,0,0,0-.42.27,3.27,3.27,0,0,1-.64.51,2.72,2.72,0,0,0-.8.82,1.43,1.43,0,0,1-.51.55,2.74,2.74,0,0,1-.52,1,.82.82,0,0,0-.3.77,2,2,0,0,0-.28.55v.33a1.23,1.23,0,0,1-.26.31.4.4,0,0,0-.11.43,1,1,0,0,1,0,.58.73.73,0,0,0-.06.43c.2.54.41.77.62.69a1.9,1.9,0,0,0,.49-.37,2.39,2.39,0,0,0,.4-.42.7.7,0,0,1,.21-.23l.26-.29a.32.32,0,0,1,.12-.14.3.3,0,0,0,.12-.16,1,1,0,0,1,.23-.31.92.92,0,0,0,.22-.41l.72-.85.25-.4a1.41,1.41,0,0,0,.35-.44A.73.73,0,0,1,127,53.84Z"/><path class="cls-3" d="M147.24,44.93l-.47,0a1,1,0,0,0-.21.28,1.76,1.76,0,0,1-.47.48.88.88,0,0,0-.38.42,1.21,1.21,0,0,1-.1.29,2.9,2.9,0,0,0-.12.28,1,1,0,0,1-.2.29.87.87,0,0,0-.18.36.33.33,0,0,1-.28.27c-.5.07-.8-.21-.89-.85a3,3,0,0,1,.19-1.08,1.51,1.51,0,0,1,.64-1,6.74,6.74,0,0,0,.6-.33l.37-.24a6.84,6.84,0,0,0,.87-.79s.31-.15.85-.39l.59-.48c.08-.13.15-.21.22-.23a.92.92,0,0,0,.26-.15l.29-.08a1.31,1.31,0,0,1,.56-.44l.46-.28A5.93,5.93,0,0,1,151,40.6l.09-.09a.29.29,0,0,1,.1-.08l.47,0c.14,0,.22-.15.23-.37L152,40l.44,0a.68.68,0,0,0,.16-.12,1,1,0,0,1,.31-.17.5.5,0,0,0,.28-.24.32.32,0,0,1,.23-.19l.3,0c.09,0,.19-.12.29-.32a3.16,3.16,0,0,1,.44-.63.39.39,0,0,0,.15,0q.1,0,.15-.27a.93.93,0,0,1,.2-.41,1.79,1.79,0,0,0,.3-.55,1.14,1.14,0,0,1,.33-.51,1.43,1.43,0,0,0,.3-.34.55.55,0,0,1,.31-.25l0,0,0-.23c0-.18.11-.38.41-.59a1.32,1.32,0,0,0,.17-.17l0-.26a.8.8,0,0,1,.14-.26A.56.56,0,0,0,157,34a2.24,2.24,0,0,1,.44-.82,4.5,4.5,0,0,1,.67-.86,2,2,0,0,0,.46-.79l.24-.12a5,5,0,0,1,.5-.8,2.38,2.38,0,0,0,.37-.63l.22-.34a.13.13,0,0,0,.08-.15c0-.07-.09-.1-.23-.08a2,2,0,0,1-.66,0l-.28.15h-.32l-.41.28-.42,0a2.18,2.18,0,0,1-.57.39l-.26.11-.2.11a1.4,1.4,0,0,0-.31.2,1.15,1.15,0,0,1-.56.21.62.62,0,0,0-.31.22,5.36,5.36,0,0,1-.56.5s0,0,0,0l-.51,0c-.45.6-.74.92-.88.94h-.41a2.9,2.9,0,0,0-.87.66,3.45,3.45,0,0,1-.59.57h-.32a3.89,3.89,0,0,1-.46.58.84.84,0,0,0-.16.3.37.37,0,0,1-.32.25l-.33.35a.86.86,0,0,1-.32.64l0,.07,0,.39c0,.09,0,.23-.21.41s-.28.29-.37.3a.86.86,0,0,1-.7-.32A1.31,1.31,0,0,1,148,36a1.43,1.43,0,0,1,.05-.37l.06-.77c0-.38.58-.83,1.64-1.36l.24-.25a1.19,1.19,0,0,1,.48-.28l.2-.1.06-.28c.07-.06.18-.13.33-.23a1.78,1.78,0,0,0,.42-.35,2.26,2.26,0,0,1,.56-.42l.26-.22.36-.05a10.1,10.1,0,0,1,3.52-2.26,17.58,17.58,0,0,1,4.67-1.59A1.39,1.39,0,0,1,162,28a2,2,0,0,1,.67,1.11,1,1,0,0,1-.28.73,1,1,0,0,0-.32.7,1.28,1.28,0,0,1-.37.8,4.75,4.75,0,0,0-.64.86l-.1.37a.48.48,0,0,1-.19.27.68.68,0,0,0-.24.42c-.06.23-.28.42-.65.58,0,0,0,.09,0,.23s-.11.3-.35.49l-.18.2c-.06.39-.14.63-.24.7l-.15.2c-.07.6-.3.92-.67,1-.08,0-.14.12-.17.33a1.05,1.05,0,0,1-.44.63l0,.11a3.9,3.9,0,0,1,1.05-.41l.23-.07.09-.12a.45.45,0,0,0,.22,0,.86.86,0,0,0,.47-.32H160a.17.17,0,0,1,.11-.06l.86-.39.83-.3.18,0a1.21,1.21,0,0,1,1,.23,1.32,1.32,0,0,1,.47.84v.49l.07.26c0,.07-.08.19-.28.37l-.16.16a1.34,1.34,0,0,1-.83.5c-.54.08-.88,0-1-.26,0,0-.09-.06-.25,0a.82.82,0,0,1-.37,0,.47.47,0,0,0-.21,0,1.93,1.93,0,0,1-.48,0,1.23,1.23,0,0,1-.65.31l-.1,0-.22,0-.3.29a.17.17,0,0,1-.11,0,.34.34,0,0,0-.14,0,.53.53,0,0,0-.23.11.45.45,0,0,1-.26.12l-.25-.05a.82.82,0,0,1-.23.11c-.09,0-.17.11-.25.27a.48.48,0,0,1-.31.26c-.19,0-.36.25-.48.66l-.09.12h-.11c-.08,0-.13.12-.13.32a.86.86,0,0,1-.07.38c-.18,0-.29.12-.31.23a6,6,0,0,0-.1.63l-.11.34-.19.15a3.48,3.48,0,0,1-.45,1.35,8.62,8.62,0,0,0-.53,1.09,1.82,1.82,0,0,1-.32.59.79.79,0,0,0-.19.5.94.94,0,0,1-.11.47,4.92,4.92,0,0,0-.3.82l-.4,1-.15.54c-.06.18-.15.28-.28.3s-.1.07-.08.19l0,.35a6.57,6.57,0,0,1-.22.88l-.07.37a.54.54,0,0,1-.19.19.64.64,0,0,0-.17.49.86.86,0,0,1-.13.5.64.64,0,0,0-.1.47.49.49,0,0,1-.28.5,2.93,2.93,0,0,1,0,.43q0,.1-.27.27h0l.2.58c0,.08,0,.13-.05.13s-.16.16-.15.21l.1.19v.07a1,1,0,0,1-.09.36v0a4.07,4.07,0,0,0,.23.63l-.07.22c0,.21.14.3.32.27l.49-.43q.24,0,.33.54l.08.17c-.09.09-.14.15-.13.2a.77.77,0,0,0,.06.15.47.47,0,0,1,.06.15c.05.38-.26.63-.95.73h-.06a.39.39,0,0,1-.22,0l-.37.09A1.73,1.73,0,0,1,150,58a2.52,2.52,0,0,1-1-1.09,4.44,4.44,0,0,1-.51-1.38l.19-2.08a.34.34,0,0,0,0-.24.7.7,0,0,1,.06-.38l.13-.61a4.31,4.31,0,0,1,.44-1,2.71,2.71,0,0,1,.27-.22,1,1,0,0,0,.23-.25c-.22,0-.34-.09-.34-.15a2.24,2.24,0,0,1,.19-.56c.13-.34.25-.53.37-.57s0,0,0,0l-.06-.14v0a3.13,3.13,0,0,1,.16-.42l-.11-.25a.71.71,0,0,1,.17-.24,2.18,2.18,0,0,0,.27-.64,1.41,1.41,0,0,1,.26-.59.41.41,0,0,0,.16-.16l-.13-.48a.45.45,0,0,1,.1-.21l.07-.22a1.11,1.11,0,0,1,.14-.29c.05-.09.12-.25.21-.46l.1-.16a2.59,2.59,0,0,0,.15-.47,1.12,1.12,0,0,1,.27-.81l.51-1.12a5,5,0,0,0,.51-1.33v0a2.38,2.38,0,0,0-.95.49,4,4,0,0,1-.63.45l-.41-.05a4.09,4.09,0,0,0-.48.63,2.73,2.73,0,0,0-1.51.78l-.06,0-.35,0-.07.05-.07.19a2.26,2.26,0,0,0-.44.31,2.66,2.66,0,0,1-.44.3Z"/><path class="cls-3" d="M174.45,45.89l.28-.25a.28.28,0,0,0,.31-.24.56.56,0,0,1,.37-.39,1.43,1.43,0,0,0,.6-.58c.18-.29.37-.44.57-.44s.15,0,.25.17a.55.55,0,0,1,.14.28,2.38,2.38,0,0,1-.33,1.21l-.06.49-.12.23a.8.8,0,0,0-.34.31,1.18,1.18,0,0,1-.41.39l-.17.25a.82.82,0,0,0-.51.42.49.49,0,0,1-.37.32,1,1,0,0,0-.51.36,2.81,2.81,0,0,1-.42.17l0,.18a1.34,1.34,0,0,1-.55.29,2.68,2.68,0,0,0-.57.21.59.59,0,0,1-.25.1,1.3,1.3,0,0,1-.62-.12,2,2,0,0,0-.58-.16.34.34,0,0,1-.13-.22.73.73,0,0,0-.18-.33.84.84,0,0,1-.17-.55l.06-.34a.31.31,0,0,0-.09-.17.3.3,0,0,1-.09-.18.12.12,0,0,1,0-.1.18.18,0,0,0,0-.11.72.72,0,0,0,0-.19.74.74,0,0,1,0-.18l.09-.86c0-.08,0-.11-.07-.11s-.13.06-.25.18a.6.6,0,0,1-.43.18.82.82,0,0,0-.22.45,1.53,1.53,0,0,1-.35.32l-.07.11c0,.08-.11.15-.26.21a.6.6,0,0,0-.32.21l-.17.18-.33,0a1.31,1.31,0,0,0-.19.31,1.58,1.58,0,0,1-.4.45l-1.32,1.12a6.2,6.2,0,0,1-.61.36l-.11.11a4.68,4.68,0,0,1-2,1,3,3,0,0,1-1.11-.24c-.43-.17-.66-.38-.7-.63l-.19-.72a1.2,1.2,0,0,1-.17-.68.93.93,0,0,1,0-.29v-.1l0-.58c0-.15.11-.22.33-.22l0-.48a2.85,2.85,0,0,1,.3-.56,2.88,2.88,0,0,1,.4-.56l.18-.23a.55.55,0,0,1,.24-.46,2.27,2.27,0,0,0,.41-.49,2.29,2.29,0,0,1,.59-.56l.52-.54a5.77,5.77,0,0,1,1.33-1,1.66,1.66,0,0,0,.43-.36,2.21,2.21,0,0,1,.73-.48,4.62,4.62,0,0,0,.81-.39,1.32,1.32,0,0,1,.62-.24h.14a7.61,7.61,0,0,0,.93-.46h.11a1,1,0,0,1,.33.13h0l.28-.14a.34.34,0,0,1,.18,0c.73,0,1.13.49,1.22,1.5,0,.21.09.31.18.31s.29-.22.5-.65a1.4,1.4,0,0,1,1.37-.67q.76,0,.78,1a3.1,3.1,0,0,1-1,2.19,1,1,0,0,0-.1.32l-.24.72v0a.53.53,0,0,1-.15.29.5.5,0,0,0-.14.33l0,.44-.06.5a.55.55,0,0,0,.13.44,1.54,1.54,0,0,0,.81-.49c.16-.22.28-.34.35-.36l.18-.08A1.78,1.78,0,0,1,174.45,45.89Zm-5.86.1a.81.81,0,0,1,.42-.59.88.88,0,0,0,.43-.43,7.69,7.69,0,0,0,.94-.9c.41-.42.62-.69.62-.78s0,0-.07,0h0l-.14.09-.32,0-.33,0-.25-.12-.23,0-.35-.07a1.08,1.08,0,0,0-.49.13,3.32,3.32,0,0,1-.77.27,2.86,2.86,0,0,0-1,.5,1.56,1.56,0,0,1-.67.36,2.83,2.83,0,0,1-.81.77.83.83,0,0,0-.54.62c-.3.26-.45.4-.45.44l-.12.3a1.3,1.3,0,0,1-.35.21.4.4,0,0,0-.24.37,1,1,0,0,1-.23.54.7.7,0,0,0-.2.38c0,.57.13.86.35.86a2.43,2.43,0,0,0,.59-.2,3.19,3.19,0,0,0,.52-.26.69.69,0,0,1,.28-.15l.33-.18a.29.29,0,0,1,.16-.09.3.3,0,0,0,.17-.12,1,1,0,0,1,.32-.22.85.85,0,0,0,.34-.31l1-.57.37-.28a1.46,1.46,0,0,0,.47-.31A1,1,0,0,1,168.59,46ZM173,36.92l-.4.59a3.15,3.15,0,0,0-.66.38,1.68,1.68,0,0,0-.54.47l-.23.11a1.4,1.4,0,0,0-.35.3.62.62,0,0,1-.44.22l-.39-.1-.17.08-.23-.14a1.88,1.88,0,0,1-.32.15c-.22,0-.34-.14-.34-.44s.21-.4.64-.66a1.48,1.48,0,0,1,.61-.7l.17-.18a1.18,1.18,0,0,1,.35-.38.6.6,0,0,0,.25-.35,4.36,4.36,0,0,1,.29-.59,2.18,2.18,0,0,0,.28-.68,3,3,0,0,0,.23-.35.59.59,0,0,1,.55-.28.23.23,0,0,1,.21.09.19.19,0,0,0,.15.08l.69-.08c.59,0,.89.23.89.71a2,2,0,0,1-.33.6,7,7,0,0,0-.53.86Z"/><path class="cls-3" d="M178.35,43.05l.08-.13a.74.74,0,0,0,.8-.4l.08-.07a2.29,2.29,0,0,0,.95-.4,2.64,2.64,0,0,1,1-.4l.77-.16a2.45,2.45,0,0,1,.61.38,1.25,1.25,0,0,1,.42,1.24,2.12,2.12,0,0,1-.46,1.15l0,.54-.05.14a.61.61,0,0,0-.35.45V46l-.6,1c-.21.08-.31.15-.32.22s0,.11.13.18a.3.3,0,0,1,.13.29,3.93,3.93,0,0,1-.18.71.13.13,0,0,0,.07,0h.07a.51.51,0,0,1,.3-.19l.19-.1a.49.49,0,0,1,.15-.27l.21,0c.09,0,.15-.08.17-.27s.29-.35.86-.83a13,13,0,0,0,1-.94,2.07,2.07,0,0,1,.4-.34.59.59,0,0,0,.26-.29.59.59,0,0,1,.23-.28,1.56,1.56,0,0,0,.3-.26,1.19,1.19,0,0,1,.32-.25,1.23,1.23,0,0,0,.44-.38,4.9,4.9,0,0,1,.93-.76,1.3,1.3,0,0,0,.28-.29,1.38,1.38,0,0,1,.56-.42,3.67,3.67,0,0,0,.77-.51,1.64,1.64,0,0,1,1.21-.23,1.57,1.57,0,0,1,1.23,1.5.62.62,0,0,1-.12.37l-.33.42c-.16.2-.29.29-.41.28l-.31-.14a.94.94,0,0,1-.71.27l-.33-.1a1.22,1.22,0,0,1-.53.18.45.45,0,0,0-.35.18.46.46,0,0,1-.31.19.88.88,0,0,0-.36.13l-.3.12a1.19,1.19,0,0,1-.82.58,3.1,3.1,0,0,0-.43.45s-.06.08-.18.13a1,1,0,0,0-.37.28c-.13.14-.23.21-.3.2H185a1,1,0,0,0-.26.47c-.07.22-.28.35-.62.4a.91.91,0,0,0-.24.23,1,1,0,0,1-.43.31,1.13,1.13,0,0,1-.52.6l-.25.35a.91.91,0,0,1-.37.31,1.5,1.5,0,0,0-.29.18s-.11.17-.28.44a1.09,1.09,0,0,1-.52.51,1.73,1.73,0,0,0-.53.35.73.73,0,0,1-.45.23c-.41,0-.82-.41-1.22-1.13a3.45,3.45,0,0,1-.58-1.33,3.64,3.64,0,0,1,.41-1.51,3.15,3.15,0,0,0,.43-1,3.39,3.39,0,0,1,.28-.85l.15-.54.17-.23a1.3,1.3,0,0,0,.25-.45l.12-.28c0-.21,0-.32-.16-.33s-.32.08-.46.28l-.07.06-.45-.15c-.08,0-.18.17-.28.52a.44.44,0,0,1-.37.2c-.2,0-.42.18-.67.5l-.1.06a1,1,0,0,0-.22,0c-.19.26-.32.38-.39.37s-.13-.08-.2-.22a.88.88,0,0,0-.26-.34.3.3,0,0,1-.15-.28c0-.27.33-.59.89-1a.54.54,0,0,0,.24-.24c0-.08.19-.12.49-.11A1.23,1.23,0,0,0,178.35,43.05Z"/><path class="cls-3" d="M192.45,45.09l.42-.23a.44.44,0,0,0,.53-.34,1,1,0,0,1,.71-.58l.26-.26a4.9,4.9,0,0,1,1.55-.4,1.21,1.21,0,0,0,.46-.23.09.09,0,0,1,.08,0l.26.12a1.8,1.8,0,0,0,.61,0,2.33,2.33,0,0,1,.7,0l.74.11a1,1,0,0,1,.26.16,1.19,1.19,0,0,0,.51.21,1,1,0,0,1,.63.48,1,1,0,0,1,.2.7,1.64,1.64,0,0,1-.77,1,2.18,2.18,0,0,1-1,.45,1.94,1.94,0,0,1-.52.28,2.07,2.07,0,0,0-.37.18.48.48,0,0,1-.3.12.11.11,0,0,1-.09-.07.14.14,0,0,0-.1-.06c-.18,0-.43.15-.73.56l-.31-.1a.94.94,0,0,0-.46.34.37.37,0,0,1-.41.16c-.51.34-.84.5-1,.47a1,1,0,0,1-.23-.12.58.58,0,0,0-.2.34c0,.14-.14.2-.33.19l-.26.16-.17-.06-.42.29a1.07,1.07,0,0,0-.57.07c0,.14-.11.3-.2.51a2.56,2.56,0,0,0-.14.34c-.07.34.21.56.82.68l.85,0a1.11,1.11,0,0,0,.65,0,1.12,1.12,0,0,1,.65-.05,1.28,1.28,0,0,0,.33,0l.16.1a1.14,1.14,0,0,1,.54-.38,1.11,1.11,0,0,1,.56-.11l.19-.07a.43.43,0,0,1,.26-.23l.17-.1a.44.44,0,0,1,.28-.09l.24.05.08,0a.9.9,0,0,1,.68-.42c.26,0,.44,0,.52-.16a.44.44,0,0,1,.38-.14.62.62,0,0,0,.45-.15,2.8,2.8,0,0,1,.48-.3,2.35,2.35,0,0,0,.39-.19.24.24,0,0,1,.18,0c.07,0,.09.07.08.17s0,.16,0,.17a.07.07,0,0,0,.09,0,.54.54,0,0,0,0-.18l0-.12a.35.35,0,0,1,.34-.3l.88-.35c.07-.24.16-.36.28-.38a.84.84,0,0,0,.28-.09.27.27,0,0,1,.21,0c.15,0,.21.13.17.3l-.17.43v.49c0,.07-.08.15-.22.25a1.34,1.34,0,0,0-.36.51q-.15.35-.3.36l-.1,0a1.44,1.44,0,0,1-.58.29.55.55,0,0,0-.32.16l-.72.56-.36.26c-.1.08-.17.11-.22.1l-.11-.17s0,0-.06,0-.2,0-.26.16A.75.75,0,0,1,199,51a1.89,1.89,0,0,0-.77.32h-.11l-.31-.06c-.15,0-.27.07-.38.28a.53.53,0,0,1-.57.29,1.1,1.1,0,0,0-.62.1.37.37,0,0,1-.17,0,2.23,2.23,0,0,0-.53.18L194,52.4a.77.77,0,0,1-.24,0l-.5,0q-.11,0-.18-.18c-.06-.1-.09-.16-.12-.16l-.33,0a2.19,2.19,0,0,1-.68,0,.85.85,0,0,1-.35-.2,2.42,2.42,0,0,0-.3-.23c-.34-.07-.52-.38-.56-.92h-.21a4.72,4.72,0,0,1-.23-1.32.58.58,0,0,0-.29-.26.3.3,0,0,1-.16-.38,1.34,1.34,0,0,1,.54-1,1,1,0,0,0,.45-.33l.42-.86s.13-.12.24-.31l.54-.65Zm3.86-.33-.23.06c-.05,0-.2.09-.46.23a4.79,4.79,0,0,1-.74.3,1.91,1.91,0,0,0-.83.73,4.06,4.06,0,0,0-.49.73.1.1,0,0,0,.08.13l.64-.15a2.57,2.57,0,0,0,.69-.28c.23-.12.54-.26.94-.42l.17-.12a1.21,1.21,0,0,1,.37-.19,1.58,1.58,0,0,0,.49-.27l.19,0a1.25,1.25,0,0,1,.71-.46c.21,0,.33-.08.34-.15s-.07-.23-.29-.27a.91.91,0,0,0-.45.09l-.4-.07a1.21,1.21,0,0,0-.42.13Z"/><path class="cls-3" d="M205.43,46.53h.27l.17-.19a4.83,4.83,0,0,0,1.46-.58.37.37,0,0,1,.19-.09,1.21,1.21,0,0,0,.33-.16,2.09,2.09,0,0,1,1.67-.19c.68.21.92.72.72,1.56l0,.28a7.25,7.25,0,0,1,.1,1.08,3.87,3.87,0,0,1,0,1,1.81,1.81,0,0,1-.55.83,6.31,6.31,0,0,0-1.51.93l-.21.07a3.76,3.76,0,0,1-.54.5c-.24,0-.38.07-.41.15L207,52a.32.32,0,0,1-.12.11,2.56,2.56,0,0,0-.32.33l-.2.16a.75.75,0,0,0-.22.24,1.31,1.31,0,0,1-.3.32.54.54,0,0,0-.21.24c-.05.16.14.31.58.45l.29,0,.21.14.21-.06a1,1,0,0,1,.46-.06,1.91,1.91,0,0,0,.55-.05,2.43,2.43,0,0,1,.58-.09,1.87,1.87,0,0,0,.67-.16,1.75,1.75,0,0,1,.63-.17,1.6,1.6,0,0,0,.58-.17A2.94,2.94,0,0,1,211,53a7.59,7.59,0,0,0,1.16-.54,1.76,1.76,0,0,1,.66-.19,2.79,2.79,0,0,0,.43-.36.75.75,0,0,1,.73-.27c.24.07.33.21.26.44a.55.55,0,0,1-.28.31l0,.1,0,.28a.3.3,0,0,1,0,.16.46.46,0,0,1-.19.16.81.81,0,0,0-.28.3.41.41,0,0,1-.41.18c-.14.23-.27.35-.38.35a1.42,1.42,0,0,0-.55.2,7.67,7.67,0,0,1-1,.44,5.77,5.77,0,0,0-.89.38.62.62,0,0,1-.33.14.35.35,0,0,1-.11-.11c-.06-.07-.09-.1-.12-.11s-.13.05-.2.2l-.12.15-.3.06-.09-.07-.06,0c-.14,0-.22,0-.25.1l0,.19v0c0,.16-.16.21-.34.16a3.62,3.62,0,0,0-1.27.3l-.52,0-.47.1a.81.81,0,0,0-.22-.19h-.3l-.5-.11s-.18-.18-.51-.52a1.48,1.48,0,0,1-.52-.89,5.56,5.56,0,0,0-.1-.78,1.16,1.16,0,0,1,0-.53,3.59,3.59,0,0,1,.48-1.12,4.42,4.42,0,0,0,.32-.47.85.85,0,0,1,.3-.3,1.61,1.61,0,0,0,.45-.56,8.69,8.69,0,0,1,1-1,1.61,1.61,0,0,0,.45-.45l.31-.24a1.12,1.12,0,0,0,.18-.24.45.45,0,0,1,.25-.21,1.2,1.2,0,0,0,.23-.26c.09-.33,0-.53-.3-.62-.06,0-.13,0-.24.12a1,1,0,0,1-.57.21,2,2,0,0,0-.52.12,1.41,1.41,0,0,1-.43.1,1.33,1.33,0,0,0-.6.26l-.32,0c-.16.18-.27.28-.35.28l-.67,0a1.36,1.36,0,0,0-.23.16.51.51,0,0,1-.45.07,3.78,3.78,0,0,0-.54.35,1.77,1.77,0,0,0-.4,0l-.36,0a1.47,1.47,0,0,0-.39.24.78.78,0,0,1-.67,0c-.17-.05-.21-.21-.13-.48a1.69,1.69,0,0,1,1-1.15,2.27,2.27,0,0,1,1-.27.39.39,0,0,0,.4-.1.58.58,0,0,1,.41-.18,2.08,2.08,0,0,0,.76-.31,1.83,1.83,0,0,1,.9-.29Z"/><path class="cls-3" d="M221,59.14l-1,.35a.2.2,0,0,0-.1-.12.71.71,0,0,0-.52.13c-.24.13-.39.18-.46.16l-.15-.1a2.27,2.27,0,0,1-.73.11,4.29,4.29,0,0,0-.51,0,1.23,1.23,0,0,1-.52,0,.65.65,0,0,0-.39,0,1.11,1.11,0,0,1-.69-.14l-.24-.14a1.3,1.3,0,0,1-.32,0,.45.45,0,0,1-.22-.26.55.55,0,0,0-.26-.28.59.59,0,0,1-.25-.38,1.32,1.32,0,0,0-.22-.43.84.84,0,0,1-.16-.33l-.14-.29a2.22,2.22,0,0,1-.25-.94,2.15,2.15,0,0,1,.08-.92l0-.07.16-.3.11-.37a.89.89,0,0,0,.28-.21l.22-.52.93-1.14s0-.14,0-.27a.7.7,0,0,1-.44.16.35.35,0,0,0-.32.14c-.09.1-.18.13-.26.1l-.17-.15s-.13.1-.29.28a.44.44,0,0,1-.52.13c-.2-.08-.26-.19-.2-.35l.15-.28.07-.44a1.41,1.41,0,0,1,.48-.41,1.11,1.11,0,0,1,.66-.24.68.68,0,0,0,.5-.16,3,3,0,0,1,.93-.33.88.88,0,0,0,.69-.21,1.79,1.79,0,0,1,.71,0,1.28,1.28,0,0,0,.7-.11,4.78,4.78,0,0,1,1.39-.22,3.7,3.7,0,0,1,1.54.09,1.52,1.52,0,0,0,.39.07l.48.05a2.62,2.62,0,0,0,.48,0,.71.71,0,0,1,.4,0l.4.35a5.57,5.57,0,0,1,.55.48,2.1,2.1,0,0,0,.28.28,3.76,3.76,0,0,1,.5.54.75.75,0,0,1,0,.8,4.17,4.17,0,0,0-.46.32q0,.08.3.36a7.89,7.89,0,0,0,.13.79l-.06.65-.52,1.35-.08.12c-.17.06-.26.1-.27.13l-.09.35-.31.4a.43.43,0,0,1-.28.21.36.36,0,0,0-.22.11l-.15.09-.25.22a1.38,1.38,0,0,1-.39.27.59.59,0,0,0-.29.25.39.39,0,0,1-.27.19.71.71,0,0,0-.26.09A.49.49,0,0,1,221,59.14Zm-5.25-1.67-.09.4,0,.05L216,58l.07.06a2.26,2.26,0,0,0,.46.27,1.28,1.28,0,0,0,.91.08,1,1,0,0,1,.59,0c.11,0,.25,0,.4-.12a1.08,1.08,0,0,1,.25-.19l.23.1h.08a.61.61,0,0,1,.56-.4,1.07,1.07,0,0,0,.65-.23,1.1,1.1,0,0,1,.48-.28A.72.72,0,0,0,221,57l.21-.14a.4.4,0,0,0,.16-.22l.56-.46a4.06,4.06,0,0,0,.36-.59.67.67,0,0,0-.13-.69.87.87,0,0,1,0-.91,1,1,0,0,1,.67-.53c.35-.11.53-.18.54-.23a.1.1,0,0,0-.05-.14,2.72,2.72,0,0,0-.43,0,2.86,2.86,0,0,1-1.41.13,2.59,2.59,0,0,0-.3-.32c-.07,0-.16,0-.28.11a.88.88,0,0,1-.31.2l-.21-.09a1.55,1.55,0,0,0-.3.13.6.6,0,0,1-.54,0l-.28.12c-.06.18-.24.31-.55.4l-.26.14a6.14,6.14,0,0,1-.61.28l-.6.62a1.91,1.91,0,0,0-.44.56.61.61,0,0,1-.31.11.34.34,0,0,0-.28.2.53.53,0,0,0,.05.21.38.38,0,0,1,0,.24l-.15.19-.32.57Z"/><path class="cls-3" d="M249.56,73.83l-.05,0A1.38,1.38,0,0,1,249,74l-.21-.15-.11,0a1.31,1.31,0,0,1-.8,0l-.24-.26-.06,0a.62.62,0,0,0-.53,0,.65.65,0,0,1-.56-.06,1.14,1.14,0,0,1-.26-.31.76.76,0,0,1-.69-.15l-1.09-.14a2.3,2.3,0,0,0-.32-.05.83.83,0,0,1-.33-.13,1.35,1.35,0,0,0-.5-.14.81.81,0,0,1-.43-.13l-.26-.33a2.34,2.34,0,0,1-1.25-.26,8.35,8.35,0,0,0-.78-.38l-.43-.25-.73-.28a1.91,1.91,0,0,1-.56-.27,1.29,1.29,0,0,1-.49-.75,2.4,2.4,0,0,0-.57,0l-.11,0s0,0-.08-.12a.48.48,0,0,0-.11-.15l-.14,0a.48.48,0,0,1-.2-.07,1.43,1.43,0,0,1-.24-.63.36.36,0,0,1-.25,0c-.25-.17-.33-.48-.23-.93l-.3-.09s0-.15,0-.37a1.49,1.49,0,0,1,.21-.54c.26-.36,1.51-.49,3.77-.38a21.33,21.33,0,0,1,4.09.41h.22a.32.32,0,0,1,.24,0,.77.77,0,0,1,.11.16l.09.06a.29.29,0,0,0,.38,0,.4.4,0,0,1,.49,0l.16.07,2.27.26c.1,0,.43.1,1,.26a11.33,11.33,0,0,0,1.2.27,3.32,3.32,0,0,1,.94.33l.21,0a1.35,1.35,0,0,1,.46.17,1,1,0,0,1,.29,1.64l-.55.29a.83.83,0,0,1-.94.08.26.26,0,0,1-.12-.2c0-.08,0-.14,0-.16l-.76-.49-.23-.33-.42-.12-.23-.17a2.72,2.72,0,0,0-.54-.06l-.48-.12a9.85,9.85,0,0,0-2.12-.59,5.61,5.61,0,0,1-1.58-.43,1.61,1.61,0,0,0-.69,0,2,2,0,0,1-1-.13c-1.76-.27-2.72-.28-2.91,0s.37.75,1.56,1.6a2.46,2.46,0,0,0,1.14.57l1.79.74.26,0,.3.21a.84.84,0,0,0,.51.13,1,1,0,0,1,.65.21.76.76,0,0,0,.48.15,1.44,1.44,0,0,1,.44.08.75.75,0,0,0,.27.08,2.93,2.93,0,0,1,.59.19,1,1,0,0,0,.67.09l.24,0,.38,0,.17.13a2,2,0,0,0,.42,0l.95.09.17.12c.2.13.5.1.91-.09a.74.74,0,0,1,.56.15,4.19,4.19,0,0,0,1.48-.1l.57,0a7.84,7.84,0,0,0,.91-.16s0,0,0,0l.21.19.09-.06a.4.4,0,0,0,0-.12l0-.06a.22.22,0,0,1,.24-.09c.1,0,.17,0,.2,0l.12-.36a.28.28,0,0,0,.18-.13.68.68,0,0,0,0-.68l0-.11.08-.11a1.31,1.31,0,0,0-.27-.32,1.48,1.48,0,0,0-.35-1.12,13.53,13.53,0,0,0-1.52-1.83L253.19,66l-.63-.36a2.57,2.57,0,0,1-.38-.35,2.63,2.63,0,0,0-.37-.35,1.41,1.41,0,0,1-.33-.39,2.79,2.79,0,0,1-.6-.22L250.6,64l-.46-.24c-.82-.58-1.15-1-1-1.23a2.21,2.21,0,0,1,2.52-.75,2.18,2.18,0,0,0,.48.08l1.41.45a2.17,2.17,0,0,0,.52.14,5.33,5.33,0,0,1,.65.13l.28,0,.18.08a1.45,1.45,0,0,1,.69.05,11,11,0,0,0,1.68.15,8.2,8.2,0,0,0,1.4,0,1.85,1.85,0,0,1,.34.05c.14,0,.32-.1.51-.38a.48.48,0,0,0,0-.6l-.09-.24a.26.26,0,0,0-.07-.18l-.18-.24a14.18,14.18,0,0,0-1.17-1.12l-.73-.74-.38-.17-.32-.28-.78-.27-.15-.38s0,0,0-.07-.13,0-.27,0a.41.41,0,0,1-.35,0,2.56,2.56,0,0,1-.42-.39l-.06,0c-.14-.1-.25-.1-.31,0a3.12,3.12,0,0,0-.12.81l-.24.22-.2.35a1.06,1.06,0,0,1-.48.22l-.17.17c-.18.13-.51.34-1,.62a6.6,6.6,0,0,0-.85.54l-1.22.66-.29.22a11,11,0,0,1-1.25.76,2.72,2.72,0,0,0-.57.35,1.7,1.7,0,0,1-.63.32l-1.74,1.14a1.16,1.16,0,0,1-.37.07,9.25,9.25,0,0,0-.88.64,1.55,1.55,0,0,1-.79.59l-.25.24a1,1,0,0,1-.3.18,4,4,0,0,0-.44.26c-.13.09-.22.11-.3,0a1.13,1.13,0,0,1-.35-1.09,2.47,2.47,0,0,0,0-1,1.14,1.14,0,0,1,.16-.74,2.38,2.38,0,0,1,.81-.59c.43-.22.7-.37.84-.46a4.13,4.13,0,0,1,.47-.26,3,3,0,0,0,.45-.25.86.86,0,0,1,.27-.14,1,1,0,0,0,.6-.35.92.92,0,0,1,.74-.29.38.38,0,0,1,.08-.17.56.56,0,0,1,.38-.17,1,1,0,0,0,.46-.18,1.7,1.7,0,0,1,.31-.21l.15,0a1.44,1.44,0,0,0,.24-.25.26.26,0,0,1,.36,0c.32-.35.54-.51.68-.46a1.44,1.44,0,0,0,.54,0c-.06-.16-.06-.28,0-.33a.73.73,0,0,1,.71-.3.67.67,0,0,0,0-.2.35.35,0,0,1,0-.13l.92-.56a1.67,1.67,0,0,1,.93-.29l0,0,.19-.45c.1-.13.33-.15.69,0a.45.45,0,0,0,.35-.23l-.07-.05-.17-.25-.72-.33a7.21,7.21,0,0,0-.88-.28l-.13-.18-.07,0a.79.79,0,0,0-.31-.05h-.17a.49.49,0,0,0-.14-.17,3.27,3.27,0,0,0-.8-.42,1.49,1.49,0,0,1-.55-.3,2.2,2.2,0,0,1-.39-.1l-.14-.1-.18,0a2.6,2.6,0,0,1-.6-.17,1.34,1.34,0,0,0-.16-.2,1.78,1.78,0,0,0-.56,0,1.39,1.39,0,0,1-.71-.13.68.68,0,0,0-.38-.11l-.44,0-.35.13a.69.69,0,0,1-.55.12,1.84,1.84,0,0,0-.52,0,.33.33,0,0,1-.27,0,.71.71,0,0,1-.22-.53.84.84,0,0,1,.08-.59,1.28,1.28,0,0,1,.77-.56l.89-.2a3.51,3.51,0,0,1,1.57.37,5.35,5.35,0,0,0,1.1.41s0,0,.05,0l.18.26c0,.08.18.09.45,0a7.29,7.29,0,0,1,2.31.85l.06,0,.37.31.38.1a2.06,2.06,0,0,1,.56.21c.11.09.18.16.19.22a.24.24,0,0,0,.08.13c.06,0,.17,0,.35-.06a2.39,2.39,0,0,1,.88.35,5.14,5.14,0,0,0,.88.42l.09.06.32.28.83.39.93.76.49.24.36.3.87.53,1.17,1.13a4.93,4.93,0,0,1,1.11,1.64,5.92,5.92,0,0,1,.5,1.43,1.26,1.26,0,0,1-.28.89,3.37,3.37,0,0,1-2.88,1.05,9.12,9.12,0,0,1-3.12-.38,3.65,3.65,0,0,0-1.35-.25c0,.06.1.25.43.58a4.86,4.86,0,0,1,.6.67,1.45,1.45,0,0,0,.2.29,7,7,0,0,1,.41.6,4.29,4.29,0,0,0,.51.65c.85,1.24,1.21,2.14,1.09,2.7a1.84,1.84,0,0,0,.19.21c.11.11.07.43-.12.94.14.14.1.47-.11,1l-.07.21a.74.74,0,0,1-.13.37q-.81,1.16-1.17,1.11a.6.6,0,0,0-.27.19,2.5,2.5,0,0,1-1.08.36,2.09,2.09,0,0,1-1.21,0,1,1,0,0,0-.42.07h-.23a1.38,1.38,0,0,0-.45,0,.32.32,0,0,1-.22,0,.5.5,0,0,0-.33.08.44.44,0,0,1-.42,0,.38.38,0,0,0-.1-.16l0,0A2,2,0,0,1,249.56,73.83Z"/><path class="cls-3" d="M259.13,85.29l-1.1-.05a.21.21,0,0,0,0-.15.69.69,0,0,0-.54-.07q-.4,0-.48,0l-.1-.14a2.33,2.33,0,0,1-.73-.17,2.92,2.92,0,0,0-.47-.18,1.31,1.31,0,0,1-.46-.23.61.61,0,0,0-.37-.14,1.21,1.21,0,0,1-.59-.39l-.18-.22a.91.91,0,0,1-.28-.13.47.47,0,0,1-.12-.32.57.57,0,0,0-.13-.36.61.61,0,0,1-.1-.44,1.36,1.36,0,0,0,0-.48.66.66,0,0,1,0-.37l0-.32a3,3,0,0,1,.53-1.79l0,0,.26-.22.25-.31a1.17,1.17,0,0,0,.33-.09l.39-.4,1.29-.73c.06,0,.08-.11.06-.26a.68.68,0,0,1-.48,0,.37.37,0,0,0-.34,0c-.12.07-.22.07-.28,0l-.11-.2a2.1,2.1,0,0,0-.37.15.43.43,0,0,1-.53-.06c-.15-.15-.17-.28-.06-.4l.25-.2.23-.39a1.33,1.33,0,0,1,.59-.21,1,1,0,0,1,.7,0,.68.68,0,0,0,.53,0,2.65,2.65,0,0,1,1,0,.88.88,0,0,0,.71,0,1.79,1.79,0,0,1,.68.22,1.31,1.31,0,0,0,.69.15,4.85,4.85,0,0,1,1.38.3,3.69,3.69,0,0,1,1.39.66,1.72,1.72,0,0,0,.34.21l.43.22a1.83,1.83,0,0,0,.45.16.86.86,0,0,1,.36.17l.25.48a4.28,4.28,0,0,1,.33.64,1.72,1.72,0,0,0,.16.36,5.51,5.51,0,0,1,.27.69.76.76,0,0,1-.26.76,2.42,2.42,0,0,0-.54.14s0,.17.14.43c-.05.19-.11.46-.17.79l-.29.58-1,1.06-.12.08a.73.73,0,0,0-.3,0l-.21.29-.44.26a.4.4,0,0,1-.34.09.33.33,0,0,0-.24,0l-.17,0-.32.11a1.32,1.32,0,0,1-.46.11.62.62,0,0,0-.36.12.4.4,0,0,1-.32.08.91.91,0,0,0-.28,0A.4.4,0,0,1,259.13,85.29Zm-4.27-3.47-.23.34v0l.21.19,0,.09a2.55,2.55,0,0,0,.33.42,1.32,1.32,0,0,0,.81.41.9.9,0,0,1,.57.16.36.36,0,0,0,.41,0c.19-.06.29-.09.31-.07l.18.17.07,0a.59.59,0,0,1,.67-.17,1,1,0,0,0,.69,0,1.41,1.41,0,0,1,.55-.07.8.8,0,0,0,.47-.11l.25,0a.39.39,0,0,0,.23-.14l.68-.23a3.08,3.08,0,0,0,.56-.42.65.65,0,0,0,.13-.68.86.86,0,0,1,.3-.86,1,1,0,0,1,.82-.25,1.76,1.76,0,0,0,.59,0,.1.1,0,0,0,0-.15,1.39,1.39,0,0,0-.39-.18,2.76,2.76,0,0,1-1.35-.4,2,2,0,0,0-.17-.41c-.05,0-.15,0-.3,0a1.18,1.18,0,0,1-.36.07l-.16-.16a.77.77,0,0,0-.33,0,.64.64,0,0,1-.51-.17h-.3a.77.77,0,0,1-.66.18l-.3,0a6.19,6.19,0,0,1-.67,0l-.78.35a1.9,1.9,0,0,0-.61.37.75.75,0,0,1-.33,0,.32.32,0,0,0-.33.08.48.48,0,0,0,0,.21q0,.19-.06.24l-.21.12-.5.42Z"/><path class="cls-3" d="M272.82,98.69l0,0,.06.19.07,0a.62.62,0,0,1,.58-.1.75.75,0,0,1,.64,0l1.07.4.58.1.22.1h.22a.54.54,0,0,1,.42.14c.11.14.11.25,0,.33l-.37.1-.41.42a.86.86,0,0,1-.58.18l-1-.08-1.31-.1-.49-.22a1.38,1.38,0,0,0-.39-.09l-.89-.17a.44.44,0,0,1-.38.11l-.18-.22-.15-.07a1.39,1.39,0,0,1-1-.15l-.29-.08a.36.36,0,0,1-.23-.12l-.25-.43-.27-.21a.93.93,0,0,1-.13-.39,2.12,2.12,0,0,0-.13-.51,1.68,1.68,0,0,1,.11-.9,3.09,3.09,0,0,1,.33-.8.77.77,0,0,0,.13-.21,1.36,1.36,0,0,1,.11-.19l.38-.09,0,0a.7.7,0,0,0,.14-.23.94.94,0,0,1,.31-.37,1.1,1.1,0,0,0,.24-.34c.14,0,.22,0,.26,0a.68.68,0,0,0,.12-.17.67.67,0,0,1,.13-.17l.74-.46.3-.33.35-.24q.28-.23.09-.48a.61.61,0,0,0-.37-.15l-.11-.07a4.59,4.59,0,0,0-.71-.29.61.61,0,0,1-.37-.22,1,1,0,0,1-.41-.19l-.17,0-.34-.09a4.5,4.5,0,0,1-.87-.14c-.56-.12-1.07-.21-1.54-.29a1.9,1.9,0,0,1-.88-.27c-.13-.1-.29-.07-.5.1,0,0-.18,0-.42-.07a2.27,2.27,0,0,0-.54,0,1.07,1.07,0,0,0,0-.38c-.09-.12-.32-.09-.66.1-.17,0-.36,0-.58-.26a.7.7,0,0,0-.28.07h-.1l-.11-.14a1,1,0,0,0-.32-.07,1,1,0,0,1-.43-.13c-.34.08-.55.08-.61,0a.48.48,0,0,1-.08-.2,1.28,1.28,0,0,0-.11-.33.94.94,0,0,1,.07-.61,1.24,1.24,0,0,1,.35-.59c1-.82,1.73-1.07,2.14-.75l.08,0,.11-.09a.33.33,0,0,1,.38,0,1.25,1.25,0,0,0,.56.08,1.25,1.25,0,0,1,.43,0l.15.18s.14,0,.33-.18a.28.28,0,0,1,.21,0,.4.4,0,0,0,.26-.08,1.55,1.55,0,0,1,.59-.14,1.93,1.93,0,0,0,.5-.1l0-.07a1.69,1.69,0,0,1-.74-.22,1.11,1.11,0,0,0-.73-.09l-.14-.25a7.41,7.41,0,0,1-1.05-.33,1,1,0,0,0-.57,0,.14.14,0,0,1-.18,0,1.9,1.9,0,0,0-.51-.18l-.07-.08c-.18-.23-.11-.48.22-.75l1-.34a1.53,1.53,0,0,1,1.1.08,8.65,8.65,0,0,0,1.11.38,1.46,1.46,0,0,1,.76.44l.21,0a1.34,1.34,0,0,0,1.08.18.66.66,0,0,1,.75.14,1.74,1.74,0,0,1,.37,1.6,2.25,2.25,0,0,1-.57,1.12l-.35.32a2.71,2.71,0,0,1-.6.35.93.93,0,0,0-.5.14c-.08,0-.08.13,0,.22a.46.46,0,0,0,.29.13,2.64,2.64,0,0,1,.46.13.54.54,0,0,0,.33.07,1,1,0,0,1,.84.12,1.83,1.83,0,0,0,.55.26l.22,0,.29,0a2,2,0,0,0,.7.25.8.8,0,0,1,.45.18,1.38,1.38,0,0,0,.62.27l.22.16.27.11a.57.57,0,0,1,.2.11l.47.28a2,2,0,0,1,.4.29,1.64,1.64,0,0,1,.32,1.55,2.21,2.21,0,0,1-.58,1.14l-.27.17-.32.36-.06,0-.84.5-.24.24a1.52,1.52,0,0,1-1.12.44.16.16,0,0,0-.19,0l-.12.1-.36.74c-.13.25-.18.39-.15.44l.48.34a.7.7,0,0,0,.55.09,2.59,2.59,0,0,0,.64.11A.37.37,0,0,1,272.82,98.69Z"/><path class="cls-3" d="M279,101.28l.46.16a.44.44,0,0,0,.61.15,1,1,0,0,1,.91.12l.37,0a4.64,4.64,0,0,1,1.35.86,1.46,1.46,0,0,0,.48.17s.06,0,.07,0l.09.28a2.06,2.06,0,0,0,.42.44,2.07,2.07,0,0,1,.47.52l.43.61a1.22,1.22,0,0,1,.06.3,1.18,1.18,0,0,0,.2.51,1,1,0,0,1,.08.8,1.07,1.07,0,0,1-.38.62,1.63,1.63,0,0,1-1.24.11,2.26,2.26,0,0,1-1-.42,1.93,1.93,0,0,1-.56-.19,1.27,1.27,0,0,0-.39-.14c-.15,0-.25-.08-.28-.15a.11.11,0,0,1,0-.11.15.15,0,0,0,0-.11c-.1-.16-.4-.21-.91-.16l-.14-.28a.89.89,0,0,0-.57-.11.35.35,0,0,1-.39-.19c-.59-.14-.94-.27-1-.4s0-.1-.07-.25a.63.63,0,0,0-.39.08c-.12.08-.24,0-.36-.11l-.3-.08-.06-.17-.5-.1a1,1,0,0,0-.44-.37l-.51.2-.35.13c-.29.18-.26.54.07,1.07l.55.65a1.27,1.27,0,0,0,.48.44,1.14,1.14,0,0,1,.49.43,1.07,1.07,0,0,0,.22.24l0,.18a1.18,1.18,0,0,1,.65.14,1.13,1.13,0,0,1,.46.33l.18.1a.41.41,0,0,1,.35,0l.18,0a.38.38,0,0,1,.26.15l.13.21.07,0a.89.89,0,0,1,.77.21.66.66,0,0,0,.47.27.45.45,0,0,1,.36.18.68.68,0,0,0,.42.23,2,2,0,0,1,.55.15l.4.15a.27.27,0,0,1,.17.09c0,.06,0,.12-.08.18s-.12.1-.1.14.06,0,.1,0a.46.46,0,0,0,.13-.12l.1-.07a.36.36,0,0,1,.45.06l.86.4c.22-.11.38-.13.47-.06a.84.84,0,0,0,.26.14.3.3,0,0,1,.17.12c.08.13.05.24-.1.34l-.44.17-.36.33a.56.56,0,0,1-.33,0,1.32,1.32,0,0,0-.62.08c-.24.08-.4.09-.47,0l-.06-.09a1.67,1.67,0,0,1-.6-.22.53.53,0,0,0-.34-.13l-.9-.14-.43-.09a.36.36,0,0,1-.23-.09l.05-.19s0,0,0-.08a.2.2,0,0,0-.29-.07.86.86,0,0,1-.42,0,1.7,1.7,0,0,0-.75-.34l-.09-.08-.17-.27c-.08-.13-.23-.15-.46-.08a.53.53,0,0,1-.6-.22,1.22,1.22,0,0,0-.49-.39s-.09,0-.15-.09a2.12,2.12,0,0,0-.5-.27l-1.24-1a.74.74,0,0,1-.19-.15l-.33-.38a.31.31,0,0,1,0-.25.47.47,0,0,0,0-.2l-.26-.21a2.12,2.12,0,0,1-.45-.51.76.76,0,0,1-.1-.4c0-.16,0-.29,0-.37-.18-.29-.08-.64.29-1l-.14-.16a4.82,4.82,0,0,1,.8-1.07.58.58,0,0,0,0-.39.31.31,0,0,1,.17-.38,1.31,1.31,0,0,1,1.09-.27,1.15,1.15,0,0,0,.55.1l.91-.28a.88.88,0,0,0,.39,0l.84,0Zm2.88,2.6-.2-.12a3.33,3.33,0,0,0-.48-.19,4.54,4.54,0,0,1-.73-.33,1.91,1.91,0,0,0-1.1-.11,4.13,4.13,0,0,0-.87.14.1.1,0,0,0,0,.15l.54.37a3.22,3.22,0,0,0,.68.31,9.73,9.73,0,0,1,.95.39l.2.05a1,1,0,0,1,.39.14,1.69,1.69,0,0,0,.53.17l.16.11a1.27,1.27,0,0,1,.81.21c.17.14.29.19.35.15s.12-.21,0-.4a.9.9,0,0,0-.38-.26l-.21-.35a1.38,1.38,0,0,0-.39-.21Z"/><path class="cls-3" d="M286.42,111.29l.51,0a1.8,1.8,0,0,1,.41.09,2.22,2.22,0,0,0,.94-.07,2.47,2.47,0,0,1,1.05-.06.9.9,0,0,1,.56.5,1.51,1.51,0,0,1,.09.74,2.93,2.93,0,0,1-1,1.46,6.87,6.87,0,0,1-1.42,1.2,1.44,1.44,0,0,0-.42.36,4.06,4.06,0,0,1-.38.37l-.36,0-.63.36-.61.08-.38.19a1.24,1.24,0,0,0-.49,0,.34.34,0,0,0-.15.16,3,3,0,0,0,1,.63.68.68,0,0,1,.4.18,2,2,0,0,0,.66.28l.31.22.47.09a.66.66,0,0,1,.35.15,1.75,1.75,0,0,0,.4.24,3.66,3.66,0,0,1,.67.41l.27.06a1.92,1.92,0,0,1,.71.33l.34.27c0,.08,0,.2-.18.38a1.52,1.52,0,0,1-.51.41.78.78,0,0,1-.68,0,4.42,4.42,0,0,0-.6-.22,1.18,1.18,0,0,1-.48-.39l-.91-.18-.35-.22-.28,0c-.06,0-.17-.12-.35-.36h-.19c-.12,0-.25-.06-.39-.22a4.5,4.5,0,0,0-.88-.28l-.23-.3a1.29,1.29,0,0,1-.45,0c-.19-.22-.36-.31-.53-.26a.72.72,0,0,1-.14-.13l-.08,0a1.92,1.92,0,0,1-.71-.53l-.28-.31-.25,0c-.05,0-.19-.07-.4-.28a1.67,1.67,0,0,0-.61-.41l-.34-.16a1.66,1.66,0,0,0-.66-.43l-.12-.22a1.6,1.6,0,0,0-.67-.53,1.7,1.7,0,0,1-.71-.58,2.82,2.82,0,0,1-.42-1.37,2.26,2.26,0,0,1,.28-.84,7.11,7.11,0,0,0,.34-.68.63.63,0,0,1,.23-.35.33.33,0,0,1,.3,0,1.22,1.22,0,0,0,.61.09c.29,0,.58.22.89.66a1.25,1.25,0,0,0,.21.18,1.06,1.06,0,0,1,.26.27.77.77,0,0,1-.08.54s0,0,0,.08l.16.23a.6.6,0,0,0,0,.3,1.47,1.47,0,0,0,.79.61l.07,0,.06.13s.13,0,.35,0l.68,0,1,.19.16-.09.33,0,.24-.12c.09,0,.18,0,.27.1a.22.22,0,0,0,.3.08l.1-.09A.64.64,0,0,1,285,114h.39l.31-.2h.16l.22-.2.42-.14a1.48,1.48,0,0,0,.26-.24q.24-.23.21-.27a2.23,2.23,0,0,0-.79-.35,3.37,3.37,0,0,0-1-.24.92.92,0,0,1-.57-.21,1.16,1.16,0,0,0-.59-.23.45.45,0,0,1-.37-.14l-1.39-.62-1.44-.71a.51.51,0,0,1-.22-.08c-.2-.39-.08-.69.34-.91a2.44,2.44,0,0,1,.86-.15l.18.12.08,0s0,0,0,0l0,.12,0,0a5.87,5.87,0,0,1,.84.51.71.71,0,0,0,.51.14l.81.42a10,10,0,0,0,1.09.41A5.07,5.07,0,0,0,286.42,111.29Z"/><path class="cls-3" d="M290.8,120.28l.5,0a2.73,2.73,0,0,1,.41.13,2.3,2.3,0,0,0,.94,0,2.49,2.49,0,0,1,1.05,0,.88.88,0,0,1,.51.54,1.52,1.52,0,0,1,0,.74c-.05.34-.41.8-1.09,1.38a6.78,6.78,0,0,1-1.52,1.09,1.62,1.62,0,0,0-.44.33,3.76,3.76,0,0,1-.41.34,1.79,1.79,0,0,0-.36,0l-.65.31-.62,0-.39.17a1.54,1.54,0,0,0-.49,0,.4.4,0,0,0-.17.15,2.91,2.91,0,0,0,.92.7,1,1,0,0,1,.39.21,1.72,1.72,0,0,0,.63.34l.3.24.46.13a.73.73,0,0,1,.34.17,1.38,1.38,0,0,0,.38.27,4.8,4.8,0,0,1,.63.46l.26.08a1.82,1.82,0,0,1,.69.39,3,3,0,0,1,.31.3c0,.07,0,.19-.2.36a1.49,1.49,0,0,1-.54.37.79.79,0,0,1-.68-.09,6.22,6.22,0,0,0-.58-.26,1.16,1.16,0,0,1-.45-.42,8.73,8.73,0,0,0-.89-.26l-.33-.24-.28-.07c-.05,0-.16-.13-.31-.39H289c-.12,0-.25-.08-.37-.25a4.33,4.33,0,0,0-.86-.35l-.21-.31a1.11,1.11,0,0,1-.44,0q-.25-.34-.51-.3a.61.61,0,0,1-.13-.14l-.08,0a1.81,1.81,0,0,1-.66-.58l-.26-.33-.25-.05c-.05,0-.18-.08-.38-.31a1.55,1.55,0,0,0-.57-.45l-.33-.19a1.7,1.7,0,0,0-.63-.48l-.09-.23a1.86,1.86,0,0,0-.64-.58,1.66,1.66,0,0,1-.66-.63,2.76,2.76,0,0,1-.31-1.39,2.24,2.24,0,0,1,.34-.83,5,5,0,0,0,.39-.65.73.73,0,0,1,.26-.33.36.36,0,0,1,.3.06,1.42,1.42,0,0,0,.6.14c.28,0,.56.26.83.72a2.06,2.06,0,0,0,.2.19.87.87,0,0,1,.23.29c0,.11,0,.29-.12.53,0,0,0,0,0,.08l.14.25a.58.58,0,0,0,0,.3,1.44,1.44,0,0,0,.74.66l.06,0,.06.13s.13,0,.34,0l.69,0,1,.26.16-.07a1.67,1.67,0,0,1,.34,0l.24-.1c.1,0,.19,0,.27.11s.18.16.28.11l.12-.09a.58.58,0,0,1,.22-.24l.4,0,.32-.17h.16l.23-.18.44-.11a2.07,2.07,0,0,0,.27-.22c.17-.14.25-.22.23-.26a2.28,2.28,0,0,0-.76-.4,3.64,3.64,0,0,0-1-.32A1,1,0,0,1,289,121a1,1,0,0,0-.56-.27.48.48,0,0,1-.36-.18l-1.34-.72-1.38-.82a.47.47,0,0,1-.21-.1c-.17-.4,0-.69.41-.88a2.47,2.47,0,0,1,.87-.08l.17.13a.13.13,0,0,0,.07,0s0,0,0,0l0,.12v0a5.49,5.49,0,0,1,.8.59.72.72,0,0,0,.5.17l.77.48c.21.12.56.28,1.06.5A4.94,4.94,0,0,0,290.8,120.28Z"/><path class="cls-3" d="M290.19,137.69l-.94-.57a.22.22,0,0,0,0-.15c0-.12-.19-.22-.44-.32s-.39-.18-.41-.25l0-.18a2.33,2.33,0,0,1-.56-.48,2.64,2.64,0,0,0-.33-.39,1.27,1.27,0,0,1-.3-.42.56.56,0,0,0-.26-.3,1.19,1.19,0,0,1-.33-.62l-.05-.28a1.12,1.12,0,0,1-.2-.25.47.47,0,0,1,.06-.33.57.57,0,0,0,.05-.38.58.58,0,0,1,.12-.44,1.21,1.21,0,0,0,.19-.44.82.82,0,0,1,.16-.34l.12-.3a2.15,2.15,0,0,1,.57-.79,2.12,2.12,0,0,1,.75-.53l.07,0,.33-.06.36-.16a.88.88,0,0,0,.34.08l.53-.17,1.48,0c.06,0,.12-.06.17-.2a.75.75,0,0,1-.41-.24A.35.35,0,0,0,291,129a.22.22,0,0,1-.24-.14v-.22a1.74,1.74,0,0,0-.39-.05.42.42,0,0,1-.44-.3c-.07-.21,0-.33.13-.38l.32-.07.38-.23a1.32,1.32,0,0,1,.62.1,1,1,0,0,1,.61.35.74.74,0,0,0,.45.29,2.61,2.61,0,0,1,.85.49.89.89,0,0,0,.6.39,1.87,1.87,0,0,1,.5.51,1.28,1.28,0,0,0,.53.47,4.57,4.57,0,0,1,1.07.92,3.77,3.77,0,0,1,.92,1.23,1.19,1.19,0,0,0,.2.35l.27.39a1.8,1.8,0,0,0,.32.37.76.76,0,0,1,.24.31v.54a4.77,4.77,0,0,1,0,.73,1.45,1.45,0,0,0,0,.39,3.23,3.23,0,0,1-.09.73.74.74,0,0,1-.58.55,2.9,2.9,0,0,0-.55-.14s-.07.16-.07.45c-.14.14-.32.35-.53.61l-.53.38-1.37.47H294c-.15-.09-.25-.13-.28-.12l-.32.16-.51,0a.46.46,0,0,1-.34-.08.36.36,0,0,0-.22-.1l-.17-.06-.34,0a1.34,1.34,0,0,1-.45-.12.62.62,0,0,0-.38-.06.44.44,0,0,1-.32-.09.57.57,0,0,0-.24-.13A.54.54,0,0,1,290.19,137.69Zm-2.1-5.08-.37.19,0,0,.09.27v.1a4.05,4.05,0,0,0,.09.52,1.3,1.3,0,0,0,.53.75,1,1,0,0,1,.42.41c0,.12.15.2.35.23a.73.73,0,0,1,.3.08l.08.23.05.06a.59.59,0,0,1,.66.17,1.08,1.08,0,0,0,.61.34,1.38,1.38,0,0,1,.52.19.74.74,0,0,0,.46.14l.24.07a.4.4,0,0,0,.28,0l.7.13a3,3,0,0,0,.69-.11.66.66,0,0,0,.44-.54.86.86,0,0,1,.68-.61,1,1,0,0,1,.84.17c.3.19.47.28.52.26a.09.09,0,0,0,.07-.13,3.76,3.76,0,0,0-.26-.34c-.18,0-.52-.36-1-1a3.09,3.09,0,0,0,0-.44c0-.07-.11-.12-.26-.14a.8.8,0,0,1-.35-.11l-.07-.22a1.2,1.2,0,0,0-.29-.15.59.59,0,0,1-.37-.4l-.27-.13a.79.79,0,0,1-.66-.16l-.28-.12-.61-.28-.85-.06a1.91,1.91,0,0,0-.71,0,.61.61,0,0,1-.29-.16.36.36,0,0,0-.33-.09.89.89,0,0,0-.13.17.46.46,0,0,1-.16.19h-.24l-.65.13Z"/><text class="cls-4" transform="translate(61.3 218.66)">MFB</text><path class="cls-5" d="M130.18,302.23l.35,0,.38-.09a1.35,1.35,0,0,1,.69,0,.17.17,0,0,1,.11.1l.56-.22a1.18,1.18,0,0,1,.67,0,1.15,1.15,0,0,0,.19-.17,2.18,2.18,0,0,1,.32-.27l.32-.3a2.72,2.72,0,0,0,.49-.52l0-.12a1.42,1.42,0,0,1,.2-.23.78.78,0,0,1,.29-.22.23.23,0,0,0,.15-.12l0-.13a.6.6,0,0,1,.14-.18,1,1,0,0,1,.3-.22,1.84,1.84,0,0,0,.45-.43L136,299l.13,0a.19.19,0,0,0,0-.09.61.61,0,0,0,0-.16.55.55,0,0,0,.19-.18l.17-.29.12-.05.06-.21s.09-.13.24-.26a3.28,3.28,0,0,0,.57-.71l.52-.63v0a1.27,1.27,0,0,0-.32.09l-.34.09a1,1,0,0,0-.24.13.53.53,0,0,1-.37.1,1,1,0,0,1-.65.23.84.84,0,0,0-.45.05l-.14,0a.33.33,0,0,0-.14,0,.41.41,0,0,1-.15,0c-.06,0-.13-.09-.22-.22h0l0,.1c0,.12-.08.19-.14.19h-.35q-.3-.09-.3-.27a.45.45,0,0,0,0-.26.18.18,0,0,1,0-.16,1.05,1.05,0,0,1,.43-.56.83.83,0,0,1,.53-.23l.2,0h0l.19.11c.14.08.22.15.23.2a.13.13,0,0,0,.09.09l.18,0,.14.06s.1,0,.22-.14a.5.5,0,0,1,.4-.11,4.3,4.3,0,0,0,1.17-.28.29.29,0,0,1,.22-.12l.17-.14s.1,0,.27-.06a.9.9,0,0,0,.54-.31,3.58,3.58,0,0,0,.29-.35v-.1a.12.12,0,0,1,.1-.05A1.36,1.36,0,0,1,140,294a3.77,3.77,0,0,0,.54-.33v-.18l0,0a.93.93,0,0,1,.64-.69c.18-.4.35-.61.52-.63l.15,0,.05-.38c0-.06.11-.08.26-.08l.07,0,.6-.66a.35.35,0,0,1,.36-.17s0,0,0,.05h0c.06,0,.1,0,.12-.08a.28.28,0,0,0,0-.08l0-.07a1,1,0,0,1,.53-.49,1.29,1.29,0,0,1,1-.1c.07,0,.18.16.33.4a1.26,1.26,0,0,1,.05,1l-.25.41c0,.2,0,.3,0,.32s-.09.09-.21.09,0,.06-.06.15a.8.8,0,0,1-.11.23,1.41,1.41,0,0,0-.19.34s0,0-.08,0l-.2,0q-.12.3-.15.3h-.18c-.1,0-.16,0-.18.11a1.19,1.19,0,0,0,0,.15v.07c-.06.19-.26.28-.62.25a.41.41,0,0,1-.24.29.91.91,0,0,0-.28.17l-.65.43a4.78,4.78,0,0,1-1.07.44,1.71,1.71,0,0,0-.18.28.75.75,0,0,1-.21.28l-.65.9,0,.09a.31.31,0,0,1-.2.19l0,.16a1.26,1.26,0,0,1-.21.27l-.6.86a4.64,4.64,0,0,1-.36.42,2,2,0,0,0-.25.34,1.3,1.3,0,0,1-.26.31,1.05,1.05,0,0,0-.22.26c-.06.09-.2.13-.43.12a.4.4,0,0,0,.07.12s.06.08.05.11l-.1.11a1.15,1.15,0,0,0-.1.18.78.78,0,0,1-.12.19l-.14.12-.13.13a.42.42,0,0,1-.14.09l-.15.23-.13.06s0,0,0,.07,0,0,0,.08a1.76,1.76,0,0,1-.37.39,1,1,0,0,0-.1.29.53.53,0,0,1,.25.12l.31-.06a.63.63,0,0,1,.14.09l.09.07.19,0,.22.15h.13l.28.1h.18l.17.08h.18l.08,0,.45.21h0a.6.6,0,0,0,.23-.05h0l.14.08a.56.56,0,0,0,.17.09l.27,0,.46.24.14,0,0,0a8,8,0,0,1,1.15.64l.3.16s0,0,.1.06a.52.52,0,0,0,.29,0,1.68,1.68,0,0,1,.61.49l.11.12a1,1,0,0,1,.14.17,2.32,2.32,0,0,0,.2.31.47.47,0,0,1,.1.43,2.23,2.23,0,0,1-.41.9c-.16.17-.29.24-.4.21a1.92,1.92,0,0,1-.86-.7.71.71,0,0,0-.14-.29.41.41,0,0,1-.07-.29l0-.06-.3-.08s-.06-.05-.1-.11l-.2-.1a1.73,1.73,0,0,1-.21-.25.24.24,0,0,0-.13-.1.48.48,0,0,1-.16-.13.91.91,0,0,1-.3-.21l-.21-.06-.05-.07c0-.11,0-.17-.11-.19l-.09,0-.08,0-.19,0-.12-.16h0l-.17,0-.19-.16-.17,0a1.11,1.11,0,0,1-.47-.2l-.17,0c-.06-.09-.1-.13-.11-.13l-.58-.06-.22-.09-.22,0-.07-.1s-.07.05-.17.08a2.17,2.17,0,0,1-.56,0l-.36,0-.2-.07h-.13a1.08,1.08,0,0,1-.53.4s-.06,0-.1.13a.38.38,0,0,1-.21.2,1.16,1.16,0,0,0-.23.14.44.44,0,0,1-.17.08c-.05,0-.15.1-.28.28a.42.42,0,0,1-.47.2l-.15-.09,0,.12a.14.14,0,0,1,0,.11c0,.14-.15.19-.33.14,0,0-.07,0-.18.07a1,1,0,0,1-.39.09l-.1.07a.37.37,0,0,1-.21,0l-.69.1h0l-.15-.07s0,0-.09,0l-.21-.06c-.05,0-.11-.07-.19-.16l-.17.06a1,1,0,0,0-.21-.17c-.18-.05-.3-.11-.34-.19s-.07-.12-.1-.13l-.09-.08a.71.71,0,0,0-.23-.12c-.09,0-.19-.2-.29-.5a1.32,1.32,0,0,1-.1-.64.36.36,0,0,1,.15-.2.74.74,0,0,1,.32-.13l.47-.1Zm-.34.63-.44.1c-.09,0-.15,0-.16.08a.19.19,0,0,1,0,.08,1,1,0,0,1,.26.22.44.44,0,0,0,.22.16l.27.15.29.05.07.07.32-.13s0,0,0,0l.25.09.19-.09a.77.77,0,0,1,.29-.08,1.42,1.42,0,0,1,.43-.3.84.84,0,0,1,.14-.19l.13-.23-.59-.09-.84.06Zm13.51-10.22.36-.14a3,3,0,0,0,.58-.58,2.59,2.59,0,0,0,.58-.9l0-.19a.88.88,0,0,0-.43.15c-.05.06-.25.23-.6.52a2.35,2.35,0,0,0-.56.57,1.78,1.78,0,0,1-.3.42c-.16.2-.26.32-.28.36a.79.79,0,0,1-.16.21.6.6,0,0,0-.14.18s0,.06,0,.06a4,4,0,0,0,.74-.5A.8.8,0,0,1,143.35,292.64Z"/><path class="cls-5" d="M144.21,302.63l.2-.14.06,0c.05,0,.14,0,.26-.14l.12,0a.88.88,0,0,1,.45-.35l.2-.12.13-.06a.86.86,0,0,0,.3-.18.51.51,0,0,1,.32-.15.38.38,0,0,1,.17.06.73.73,0,0,1,.31-.24,1.41,1.41,0,0,0,.37-.27l.15,0a1.33,1.33,0,0,0,.35-.19.47.47,0,0,1,.37-.09,1,1,0,0,1,.58.48,1.09,1.09,0,0,1,.2.75l-.36.9c-.25.67-.45,1-.6,1l-.09.25c-.12.06-.18.11-.19.16v.3a.35.35,0,0,1-.15.16s0,0,0,.07l-.09.5a.23.23,0,0,1-.19.18l.06.07s.15,0,.3,0l.16.05.29-.22.22-.07a2.36,2.36,0,0,1,.5-.15l1.61-.95c.24-.18.4-.26.5-.24s.14.1.12.26a1.16,1.16,0,0,1-.18.42,2.66,2.66,0,0,0-.24.39.75.75,0,0,1-.24.31.91.91,0,0,0-.21.18,1.31,1.31,0,0,1-.4.27,3,3,0,0,0-.56.35,2.88,2.88,0,0,1-.39.26l-.52.29-.09.1a.66.66,0,0,1-.22.07,1.51,1.51,0,0,0-.35.14l-.21.08a.37.37,0,0,1-.22,0,.35.35,0,0,0-.27.1c-.09.07-.16.1-.2.09l-.15-.05-.23,0a.7.7,0,0,1-.39-.33.72.72,0,0,1-.16-.57v-.08l0-.16a1.29,1.29,0,0,0,0-.26.83.83,0,0,1,0-.24l0-.16v-.08a1.18,1.18,0,0,1,.12-.4.64.64,0,0,0,.11-.22,1.54,1.54,0,0,1,.09-.24l.11-.29a.39.39,0,0,1,.14-.18c0-.06.07-.16.15-.31l.08-.2.14-.15a.49.49,0,0,0,.15-.24,1,1,0,0,1,.17-.33.71.71,0,0,0,.14-.2.12.12,0,0,0-.1-.16s-.13,0-.3.14l-.18-.11a.5.5,0,0,0-.14.1s0,.05-.11.05a.35.35,0,0,0-.21.15h-.09l-.13-.1h0q-.1,0-.18.24a.55.55,0,0,1-.35.2l-.25,0a.32.32,0,0,0-.21.18.7.7,0,0,1-.27.27.62.62,0,0,1-.24.1c-.2,0-.27-.18-.23-.43l.2-.55Zm5.72-5.17,0-.48,0-.07c.07-.38.22-.57.46-.56l.47-.08a.84.84,0,0,1,.33.46,1.12,1.12,0,0,1,.09.62.41.41,0,0,1,0,.11,1.37,1.37,0,0,0-.1.31.58.58,0,0,1-.29.37.62.62,0,0,1-.45.09c-.1,0-.21-.12-.33-.3A.82.82,0,0,1,149.93,297.46Z"/><path class="cls-5" d="M148.47,311.14l.15-.26.1-.29a.3.3,0,0,1,.13-.13c.07-.06.12-.11.12-.16a5.31,5.31,0,0,1,.75-1.47l.36-.69a.72.72,0,0,1,.25-.36.38.38,0,0,0,.19-.23c0-.05-.05-.13-.19-.24s-.19-.22-.18-.3.27-.2.78-.37a1.11,1.11,0,0,1,.42-.67.23.23,0,0,0,.1-.16,1.08,1.08,0,0,1,.17-.46l.13-.27a1.06,1.06,0,0,1,.22-.29.63.63,0,0,0,.19-.33v-.1c-.09,0-.24.1-.46.36-.17,0-.34.1-.5.39a.51.51,0,0,1-.44.27.75.75,0,0,1-.52.33c-.13-.12-.2-.22-.19-.3l.21-.74c0-.17.45-.54,1.27-1.12,0,0,.21-.12.49-.4l.69-.67.84-.69a3,3,0,0,0,.62-1,2.12,2.12,0,0,0,.5-.85,6.33,6.33,0,0,1,.43-1,2.16,2.16,0,0,0,.22-.43,13.06,13.06,0,0,1,.9-1.76l.16-.38.18-.13a1.56,1.56,0,0,0,.1-.37c.08,0,.19-.18.32-.49a2.3,2.3,0,0,1,.35-.64,1,1,0,0,0,.23-.35.83.83,0,0,1,.32-.37.62.62,0,0,1,.47-.13s.12.1.22.28a1.32,1.32,0,0,1,.13.6,3.2,3.2,0,0,0,0,.45,2.11,2.11,0,0,1,0,.31l0,.36a5.69,5.69,0,0,1-.17.6c-.11.34-.18.59-.23.73a.36.36,0,0,1-.26.27q-.19,0-.21.12a.16.16,0,0,0,.07.13c.06,0,.08.06.08.08a1.9,1.9,0,0,1-.17.3.79.79,0,0,1-.28.31,1.23,1.23,0,0,1,0,.18,2.2,2.2,0,0,1-.21.36,2.54,2.54,0,0,1-.31.4,1.21,1.21,0,0,0-.27.47,1.09,1.09,0,0,1-.58.58,1.5,1.5,0,0,0-.34.52c-.12.25-.25.4-.4.44l-.17.22v0a1,1,0,0,1-.16.39,3.53,3.53,0,0,0-.29.49,1.39,1.39,0,0,1-.26.36,2.12,2.12,0,0,1-.22.48,1.22,1.22,0,0,0-.19.38l-.09.09a.22.22,0,0,0-.24.2v.27a4.23,4.23,0,0,1-.25.37l-.08.24a.6.6,0,0,1-.26.38c-.11.05-.19.19-.26.43l-.08.28a.28.28,0,0,0,0,.08s.06,0,.15-.12l.16.09a.21.21,0,0,0,.14-.09.37.37,0,0,1,.21-.12l0,0c.05-.11.12-.16.19-.16a.28.28,0,0,0,.2-.09c.06-.06.1-.09.13-.09a.61.61,0,0,1,.14.12h0l.1,0v-.2a.14.14,0,0,1,.12-.14.31.31,0,0,0,.15-.1l.44-.24a1.17,1.17,0,0,0,.42-.2.67.67,0,0,1,.29-.17.49.49,0,0,0,.25-.12.57.57,0,0,1,.37-.06,4.93,4.93,0,0,1,.54-.35l.11-.12.09,0a.46.46,0,0,0,.18-.12.25.25,0,0,1,.21-.1q.21,0,.18.27a.79.79,0,0,1-.41.6l0,0c-.08.31-.2.46-.34.44s-.09.06-.18.19l-.13-.05a1.42,1.42,0,0,1-.25.24h-.07a6.43,6.43,0,0,0-1.54.93.61.61,0,0,1-.12.09l-.2-.06a1,1,0,0,1-.16.23,1.1,1.1,0,0,0-.39.18l-.31.18a.46.46,0,0,0-.19.13.37.37,0,0,1-.23.14l-.16.13h-.06a.34.34,0,0,0-.23.09.35.35,0,0,0-.15.21s0,.1.07.21c.06,0,.22.23.49.82a3,3,0,0,1,.29,1.62,1.08,1.08,0,0,1-.25.69c-.11.1-.17.17-.17.22a1.65,1.65,0,0,0,0,.28v.05a.13.13,0,0,1-.14.13c-.09,0-.14,0-.16.08l0,.3-.07.14c-.1,0-.22.22-.37.53a1.57,1.57,0,0,1-.52.36l0,0,0,.34a.27.27,0,0,1-.13.18,1.53,1.53,0,0,0-.3.27,1.25,1.25,0,0,1-.39.28.57.57,0,0,1-.21.31,1.18,1.18,0,0,0-.29.24l-.07,0c-.07,0-.14.09-.22.24h-.09a1.48,1.48,0,0,1-.36.38.86.86,0,0,0-.24.21l-.19.09a1.57,1.57,0,0,1-.47.45.26.26,0,0,1-.07-.09h0s-.06,0-.09.08a.47.47,0,0,1-.15.17,1.11,1.11,0,0,0-.2.22l-.05,0c-.09,0-.26.11-.5.36a.81.81,0,0,0-.38.12c-.18.17-.29.26-.35.25a1.76,1.76,0,0,1-.21-.24.82.82,0,0,1-.13-.67.43.43,0,0,0-.09-.27c0-.09,0-.22,0-.39l0-.11a.87.87,0,0,1,.13-.33l.1-.25.09-.15a1.42,1.42,0,0,0,.17-.33,5.28,5.28,0,0,1,.27-.53l0-.12c.13-.38.23-.56.27-.54a4.73,4.73,0,0,0,.2-.47c.07-.2.13-.36.16-.49a.61.61,0,0,1,.2-.29Zm2.55-2,0,.53a4.25,4.25,0,0,1-.25.44,4.69,4.69,0,0,0-.32.64c-.06.17-.15.24-.27.22H150a.36.36,0,0,0,0,.09v.27a4.13,4.13,0,0,1-.16.55.92.92,0,0,1-.28.48l-.08.08a3.15,3.15,0,0,1-.25.55c-.13.25-.24.44-.33.58a3.5,3.5,0,0,0-.23.54.89.89,0,0,1-.2.41,4,4,0,0,1-.21.55c-.06.14-.14.34-.25.58a.09.09,0,0,0,.06.06c.05,0,.11-.08.2-.25a.22.22,0,0,1,.15,0c.07,0,.15-.09.22-.24l0,0a.23.23,0,0,0,.19-.11.22.22,0,0,1,.14-.12.5.5,0,0,0,.16-.1l.08,0s.06-.05.1-.12a.76.76,0,0,1,.09-.16l.15,0,.05,0a1.05,1.05,0,0,1,.28-.47.92.92,0,0,0,.23-.25.7.7,0,0,1,.19-.22.56.56,0,0,0,.18-.29,2.18,2.18,0,0,0,.3-.37.67.67,0,0,1,.18-.22l0-.08,0-.16v0a1.48,1.48,0,0,1,.32-.45,2.3,2.3,0,0,0,.41-.61c.07-.17.13-.3.18-.4a2.32,2.32,0,0,0,.14-.35.82.82,0,0,1,.16-.31.59.59,0,0,0,.14-.33,2.22,2.22,0,0,0-.17-1,.4.4,0,0,1,0-.15.56.56,0,0,0-.17-.32c-.11-.13-.19-.19-.25-.2l-.09,0s-.06,0-.14.06-.13.09-.15.21v.05l0,.27C151.33,309,151.22,309,151,309.12Z"/><path class="cls-5" d="M157.56,304l.24-.18a.29.29,0,0,0,.31-.28.63.63,0,0,1,.4-.45l.15-.2a2.88,2.88,0,0,1,.93-.39.94.94,0,0,0,.27-.2l0,0,.17.07a1.11,1.11,0,0,0,.37-.05,1.3,1.3,0,0,1,.43-.05l.45,0,.17.09a.68.68,0,0,0,.32.11.56.56,0,0,1,.42.29.72.72,0,0,1,.15.47,1.14,1.14,0,0,1-.42.73,1.31,1.31,0,0,1-.59.39,1.07,1.07,0,0,1-.3.23.93.93,0,0,0-.22.16.28.28,0,0,1-.17.1.09.09,0,0,1-.06,0l-.07,0c-.11,0-.25.14-.42.44l-.19,0a.6.6,0,0,0-.26.27.23.23,0,0,1-.24.14c-.3.27-.49.41-.58.4l-.15-.07a.51.51,0,0,0-.11.25c0,.1-.07.15-.19.16l-.15.13-.11,0-.24.24a.58.58,0,0,0-.34.09c0,.1-.06.22-.1.37l-.07.24c0,.24.16.38.54.41l.52,0a.66.66,0,0,0,.39-.09.63.63,0,0,1,.4-.08l.2,0,.1.06a.77.77,0,0,1,.31-.31.65.65,0,0,1,.34-.11l.11-.07a.35.35,0,0,1,.15-.18l.09-.08a.26.26,0,0,1,.17-.08l.16,0,0,0a.55.55,0,0,1,.4-.34.38.38,0,0,0,.3-.15.29.29,0,0,1,.23-.13.36.36,0,0,0,.27-.14,1.32,1.32,0,0,1,.28-.23l.22-.17a.17.17,0,0,1,.11-.05s.06,0,.05.12,0,.11,0,.11,0,0,0,0a.3.3,0,0,0,0-.13v-.08a.25.25,0,0,1,.2-.23l.52-.31c0-.17.08-.26.15-.29a.54.54,0,0,0,.17-.08.14.14,0,0,1,.12,0c.09,0,.13.07.12.19l-.08.32,0,.33a.42.42,0,0,1-.12.19.9.9,0,0,0-.2.38c0,.17-.11.26-.17.27h-.06a1,1,0,0,1-.33.24.35.35,0,0,0-.2.14l-.41.44-.2.2c-.06.06-.1.09-.13.09l-.08-.11s0,0,0,0-.12,0-.15.14a.56.56,0,0,1-.13.24,1.08,1.08,0,0,0-.45.28l-.07,0-.19,0c-.1,0-.17.06-.22.22a.34.34,0,0,1-.33.24.69.69,0,0,0-.38.11s-.05,0-.1,0a2.12,2.12,0,0,0-.32.17l-.94.28-.15.05-.3,0a.2.2,0,0,1-.12-.11c0-.07-.06-.11-.08-.11l-.2.05a1.21,1.21,0,0,1-.41,0,.49.49,0,0,1-.23-.11,1.25,1.25,0,0,0-.2-.14c-.2,0-.33-.22-.38-.6l-.13,0a3.91,3.91,0,0,1-.21-.9.38.38,0,0,0-.19-.16.22.22,0,0,1-.12-.25,1,1,0,0,1,.28-.72.67.67,0,0,0,.26-.26l.21-.62a.8.8,0,0,0,.14-.24l.29-.49C157.36,304.38,157.43,304.24,157.56,304Zm2.34-.51-.13.06-.28.19a3.08,3.08,0,0,1-.44.27,1.26,1.26,0,0,0-.46.56,3.89,3.89,0,0,0-.27.54c0,.05,0,.08.06.08l.38-.14a1.73,1.73,0,0,0,.41-.25,5.29,5.29,0,0,1,.55-.36l.1-.09a.59.59,0,0,1,.21-.16,1,1,0,0,0,.29-.23l.11,0a.9.9,0,0,1,.41-.37c.13,0,.2-.08.21-.13s-.06-.15-.19-.17a.6.6,0,0,0-.27.1l-.25,0s-.11,0-.25.12Z"/><path class="cls-5" d="M172.38,303.25l.12-.15V303a1.31,1.31,0,0,1,.1-.3,1.07,1.07,0,0,1,.2-.34.57.57,0,0,0,.13-.21.22.22,0,0,1,.19-.14.53.53,0,0,1-.07-.2l0-.23s0-.05.06-.1l.06-.1.14-.12a.26.26,0,0,0,.09-.21,1,1,0,0,1,.16-.36c.09-.15.16-.23.21-.23a.15.15,0,0,0,.13,0,.19.19,0,0,1,.1-.05s.08,0,.11.11.06.11.08.11.08,0,.08-.13,0-.07-.1-.08a.2.2,0,0,1-.14-.13,1.47,1.47,0,0,0-.07-.17.23.23,0,0,1,0-.09.35.35,0,0,1,.1-.22.28.28,0,0,1,.18-.13.22.22,0,0,0,.17-.11c-.08,0-.13-.1-.13-.17a1.6,1.6,0,0,0,.25-.44c.08-.19.17-.29.27-.29l.11,0,.11-.33-.08-.24a1.27,1.27,0,0,1,.29-.39l.08-.07a.88.88,0,0,1,.5-.59c.37-.46.6-.7.68-.7s0,0,.09.09l.1,0s.07,0,.07.08a3.6,3.6,0,0,0-.34.4h0l.08-.07.17-.18s0,.05,0,.05a.56.56,0,0,0,.11-.36s0-.05-.12-.09l0-.08c0-.05.13-.2.38-.46a4.92,4.92,0,0,1,.82-.69l.11-.15a.11.11,0,0,1,.11-.06.51.51,0,0,1,.26.13l0,0a.78.78,0,0,1,0-.19c0-.05,0-.08.08-.1a.87.87,0,0,1,.45-.32,1.84,1.84,0,0,0,.49-.27l.22-.1a1.48,1.48,0,0,0,.29-.08.94.94,0,0,1,.3-.06.43.43,0,0,0,.17-.08.56.56,0,0,1,.21-.08.57.57,0,0,1,.24.15s0,0,0,0l.14-.12h0a3.26,3.26,0,0,0,.33.31,1.15,1.15,0,0,1,.47.91l0,.51,0,.43a.45.45,0,0,1-.16.37,3.31,3.31,0,0,1-.18.8,2.21,2.21,0,0,0-.18.66,3.2,3.2,0,0,1-.61,1.18s-.05.08-.13.21a3.39,3.39,0,0,0-.32.68,2.22,2.22,0,0,0-.38.59.6.6,0,0,1-.3.33h0l.05.27c-.27.51-.53.77-.8.77a.69.69,0,0,1-.48-.24.71.71,0,0,1-.25-.51c0-.4.39-.89,1.2-1.48l.09,0,.08-.18a.42.42,0,0,1-.05-.12c0-.12.11-.25.33-.41s.2-.37.32-.39l.41-.75,0-.13v-.18s.07-.11.22-.22l0-.05v-.26a.3.3,0,0,1,.17-.25,1.28,1.28,0,0,0,.09-.4,1.89,1.89,0,0,1,.17-.61,2,2,0,0,0-.14-.7.28.28,0,0,0-.26-.13,1.31,1.31,0,0,0-.5.22,1.29,1.29,0,0,1-.46.23.12.12,0,0,1-.09,0l-.09,0s-.07,0-.1.13-.08.14-.13.15a.63.63,0,0,0-.18.14,1.05,1.05,0,0,1-.31.21l-.17.27-.18.15a.25.25,0,0,1-.27.26s-.1.1-.18.3l-.09.1h-.17l0,.11V297a.16.16,0,0,1-.07.13l-.4.51-.07.05h-.09l0,0c0,.3-.09.45-.21.46s-.1.25-.31.44l-.08.12h-.14l0,0s.07.08.07.09a.7.7,0,0,1-.12.28q-.12.21-.18.18a1.47,1.47,0,0,1-.2.61l-.08.18a.87.87,0,0,1-.12.2v.1c0,.21-.17.41-.52.59l.07.3a2.77,2.77,0,0,1-.17.3l-.09.23a.48.48,0,0,1-.15.28.44.44,0,0,1-.1.19.35.35,0,0,0-.07.14l0,.17a2.36,2.36,0,0,0-.19.48.82.82,0,0,1-.1.26,1,1,0,0,0-.11.28,1,1,0,0,1-.2.33c-.08.35-.12.55-.12.58l-.15.15a.84.84,0,0,1-.06.18l0,.1v.17c0,.11-.09.24-.26.39a.2.2,0,0,1,.13.19.88.88,0,0,1-.09.44,1.17,1.17,0,0,0-.14.3,2.68,2.68,0,0,1-.15.4.25.25,0,0,1,.12.21l-.08.82.08.23-.14.08a.41.41,0,0,0,.13.25,2.4,2.4,0,0,1,.35.6.26.26,0,0,0,.18.05l.2,0a1.1,1.1,0,0,1,.28-.06,1.05,1.05,0,0,0,.47-.24h.17a.38.38,0,0,0,.36-.22c.06-.15.13-.22.2-.22a1.08,1.08,0,0,0,.32-.1h.06a.36.36,0,0,1,.09-.13l.17-.23c.09-.13.17-.19.24-.2a3.84,3.84,0,0,0,.57-.51.24.24,0,0,1,.12,0,.18.18,0,0,0,.15-.12,3.5,3.5,0,0,1,.48-.53,2.1,2.1,0,0,0,.51-.65c0-.16.12-.24.2-.24a.54.54,0,0,1,.15,0h0s0,0,.06-.11.16-.21.44-.4c0-.17.11-.31.33-.44l.37-.42.17,0A.29.29,0,0,0,180,304a.25.25,0,0,1,.17-.24h.09l.06-.05c0-.27.13-.41.24-.41h.09c.06,0,.08-.08.08-.24s.15-.26.46-.35l.21-.12a.11.11,0,0,1,.1,0c.19,0,.28.16.29.5a.29.29,0,0,1-.08.21l-.15.15,0,.21-.38.41a.26.26,0,0,0-.1.23c0,.09,0,.14-.07.14a.24.24,0,0,1-.13.1.22.22,0,0,0-.13.14.7.7,0,0,1-.47.49c-.12.33-.23.52-.34.58a.39.39,0,0,0-.18.19c0,.22-.12.32-.28.3a3.25,3.25,0,0,0-.5.7s0,0,0,0l-.15,0-.11.15a.34.34,0,0,1-.25.14c-.1,0-.17.08-.21.22a.71.71,0,0,1-.12.25,1,1,0,0,0-.12.17q-.06.12-.12.12t-.15-.21a.83.83,0,0,0-.17.19l.07.17a.12.12,0,0,1,0,.09.81.81,0,0,0-.15.24.71.71,0,0,1-.53.28s0,.06-.08.17a.36.36,0,0,1-.31.2c-.14.25-.27.38-.37.38l-.46.18a.43.43,0,0,1-.2,0q-.06.18-.15.18l-.15.05a.21.21,0,0,1-.18.12c-.1,0-.15,0-.16-.09a.13.13,0,0,1,0-.07v-.05c0-.05,0-.08,0-.08q0,.52-.24.54a1.19,1.19,0,0,1-.24-.1h0l-.2.13-.09,0a1.34,1.34,0,0,1-.8-.26h-.11c-.22,0-.4-.14-.52-.44l0,0a.42.42,0,0,1-.3-.38,1.63,1.63,0,0,0-.22-.25.86.86,0,0,0-.1-.32.7.7,0,0,1-.08-.16l-.26-.92c0-.26,0-.49-.06-.66l0-.1v-.07l0-.33,0-.12a4.36,4.36,0,0,1,.19-.73,6.77,6.77,0,0,0,.24-.94,1.36,1.36,0,0,1,.09-.38Z"/><path class="cls-5" d="M187.52,307.83l-.46.55a.12.12,0,0,0-.09,0q-.1,0-.24.24c-.09.16-.16.24-.2.24h-.11a1.57,1.57,0,0,1-.36.3,1.46,1.46,0,0,0-.27.17.76.76,0,0,1-.3.13.36.36,0,0,0-.21.13.66.66,0,0,1-.41.13h-.17a.46.46,0,0,1-.18.09.26.26,0,0,1-.19-.09.35.35,0,0,0-.22-.09.45.45,0,0,1-.25-.15.79.79,0,0,0-.24-.2.55.55,0,0,1-.18-.16l-.17-.13a1.52,1.52,0,0,1-.4-.51,1.55,1.55,0,0,1-.23-.59v-.28l0-.27a2.23,2.23,0,0,0,.09-.22l0-.39.17-1s0-.09-.1-.15a.45.45,0,0,1-.2.24.23.23,0,0,0-.13.18c0,.09,0,.14-.11.15l-.14,0s0,.11-.07.26-.12.24-.24.25-.2,0-.21-.15v-.22l-.09-.3a.92.92,0,0,1,.14-.4c.09-.21.19-.33.28-.36a.46.46,0,0,0,.23-.26,1.82,1.82,0,0,1,.4-.5.55.55,0,0,0,.31-.35,1,1,0,0,1,.37-.25.76.76,0,0,0,.34-.29,3,3,0,0,1,.69-.58,2.19,2.19,0,0,1,.85-.43.83.83,0,0,0,.24-.08l.27-.12a1.17,1.17,0,0,0,.25-.16.44.44,0,0,1,.22-.11l.33.09a2.08,2.08,0,0,1,.43.12.84.84,0,0,0,.23.08,2.2,2.2,0,0,1,.43.18.57.57,0,0,1,.26.48,2.35,2.35,0,0,0-.16.35s.09.07.27.12a3.85,3.85,0,0,0,.3.45l.16.42.11,1v.1c-.07.09-.11.15-.1.17l0,.24,0,.35a.41.41,0,0,1-.09.22.22.22,0,0,0-.09.13l-.05.11a.86.86,0,0,0-.08.22.71.71,0,0,1-.13.29.41.41,0,0,0-.08.24.29.29,0,0,1-.09.2.42.42,0,0,0-.11.14A.29.29,0,0,1,187.52,307.83Zm-3.31.63.07.28,0,0,.18,0,.05,0a1.41,1.41,0,0,0,.33,0,.73.73,0,0,0,.51-.24.56.56,0,0,1,.3-.22c.08,0,.14-.07.18-.2s.07-.19.09-.19h.15l0,0a.43.43,0,0,1,.18-.43.68.68,0,0,0,.28-.35.87.87,0,0,1,.18-.32.61.61,0,0,0,.14-.29l.07-.16s0-.1,0-.19l.16-.45a3,3,0,0,0,0-.49.47.47,0,0,0-.27-.38.62.62,0,0,1-.28-.55.69.69,0,0,1,.2-.54,1.06,1.06,0,0,0,.23-.31c0-.05,0-.08-.07-.07a.93.93,0,0,0-.24.12c0,.12-.28.29-.72.52l-.26-.1s-.08.06-.11.16a1.1,1.1,0,0,1-.11.22h-.14s-.06.06-.13.17a.34.34,0,0,1-.28.19l-.12.16a.52.52,0,0,1-.18.42l-.1.17a2.68,2.68,0,0,1-.25.37l-.14.57a1.48,1.48,0,0,0-.07.49.43.43,0,0,1-.13.16.24.24,0,0,0-.1.21s0,.06.09.12a.51.51,0,0,1,.09.14l0,.16v.46Z"/><path class="cls-5" d="M198.23,304.4l.14-.2c.11,0,.16-.08.17-.19a.38.38,0,0,1,.18-.3.89.89,0,0,0,.31-.45c.08-.22.18-.33.3-.35s.1,0,.17.09a.35.35,0,0,1,.11.19,1.69,1.69,0,0,1-.08.85l0,.35-.05.17a.47.47,0,0,0-.18.24.83.83,0,0,1-.21.31l-.08.18a.55.55,0,0,0-.27.33.3.3,0,0,1-.18.25.59.59,0,0,0-.28.3,1.25,1.25,0,0,1-.24.15v.12a.74.74,0,0,1-.31.25,1.74,1.74,0,0,0-.31.19.53.53,0,0,1-.15.1.86.86,0,0,1-.39,0,.78.78,0,0,0-.37-.06.36.36,0,0,1-.1-.15.57.57,0,0,0-.14-.21.67.67,0,0,1-.16-.36v-.24a.2.2,0,0,0-.07-.11.15.15,0,0,1-.07-.12.08.08,0,0,1,0-.07.08.08,0,0,0,0-.08.38.38,0,0,0,0-.13.76.76,0,0,1,0-.11l0-.61c0-.05,0-.07-.05-.06s-.08.05-.14.14a.33.33,0,0,1-.24.16.59.59,0,0,0-.09.33,1.05,1.05,0,0,1-.18.25l0,.08a.25.25,0,0,1-.14.17.4.4,0,0,0-.17.17l-.09.13h-.2l-.09.23a.79.79,0,0,1-.19.35l-.69.88-.34.31,0,.08a2.61,2.61,0,0,1-1.1.83,1.49,1.49,0,0,1-.7-.07c-.28-.08-.44-.2-.49-.37l-.18-.48a.94.94,0,0,1-.17-.46.43.43,0,0,1,0-.19l0-.08-.08-.39q0-.15.18-.18l-.08-.32a2.3,2.3,0,0,1,.13-.42,1.72,1.72,0,0,1,.19-.42l.08-.17a.44.44,0,0,1,.1-.34,1.35,1.35,0,0,0,.2-.37,1.41,1.41,0,0,1,.31-.43l.26-.42a3.25,3.25,0,0,1,.7-.81,1,1,0,0,0,.22-.28,1.15,1.15,0,0,1,.4-.39,3,3,0,0,0,.45-.34.75.75,0,0,1,.35-.22l.09,0a3,3,0,0,0,.51-.39h.07l.22.06h0l.15-.12a.18.18,0,0,1,.11,0c.44-.08.74.23.89.92,0,.14.08.21.14.2s.15-.17.23-.49a.85.85,0,0,1,.77-.58c.31,0,.5.15.57.6a2.33,2.33,0,0,1-.38,1.59.8.8,0,0,0,0,.23l-.07.52v0a.38.38,0,0,1-.06.22.44.44,0,0,0-.05.23l.07.3v.35a.53.53,0,0,0,.12.29.85.85,0,0,0,.45-.4.7.7,0,0,1,.18-.28l.09-.07A1.56,1.56,0,0,1,198.23,304.4Zm-3.54.57a.58.58,0,0,1,.19-.45.55.55,0,0,0,.22-.32,5.61,5.61,0,0,0,.48-.7,1.71,1.71,0,0,0,.3-.6,0,0,0,0,0,0,0h0l-.08.07h-.19l-.2.05-.17-.06L195,303h-.22a.48.48,0,0,0-.28.12,1.91,1.91,0,0,1-.44.25,1.62,1.62,0,0,0-.57.44,1,1,0,0,1-.37.3,1.7,1.7,0,0,1-.42.6.54.54,0,0,0-.26.48c-.16.19-.24.31-.23.33l0,.22a1,1,0,0,1-.19.17.29.29,0,0,0-.11.28.75.75,0,0,1-.09.39.52.52,0,0,0-.08.28c.06.39.16.58.3.56a1.23,1.23,0,0,0,.34-.19,1.6,1.6,0,0,0,.28-.22.46.46,0,0,1,.16-.13l.18-.15a.18.18,0,0,1,.09-.08.19.19,0,0,0,.09-.09.67.67,0,0,1,.17-.18.69.69,0,0,0,.18-.24l.52-.47.2-.23c.14-.11.23-.19.25-.26A.57.57,0,0,1,194.69,305Z"/><path class="cls-5" d="M200.72,303.51l0-.12a1.61,1.61,0,0,1,.1-.56,1.12,1.12,0,0,1,.36-.63s0,0,0,0l-.07-.18s.07-.16.14-.36.17-.3.28-.3a.94.94,0,0,1,.22-.39,1.44,1.44,0,0,0,.25-.4l.33-.37c.22-.27.4-.42.52-.44l.16,0a.4.4,0,0,1,.28-.32.34.34,0,0,1,.28,0h.05s0,0,.11-.12a.38.38,0,0,1,.26-.16,3,3,0,0,1,.52.08.35.35,0,0,1,.2-.2.35.35,0,0,1,.17,0,1.09,1.09,0,0,0,.24.07c.08,0,.19.15.32.4a2.35,2.35,0,0,1,.2.41.71.71,0,0,1-.17.51.83.83,0,0,1-.46.38c-.06,0-.14,0-.25-.12a2.46,2.46,0,0,1-.58-.06,1.61,1.61,0,0,0-.41.28h0l-.12-.08h-.11a1.18,1.18,0,0,0,0,.19,1.08,1.08,0,0,1-.25.24.48.48,0,0,0-.17.18.79.79,0,0,1-.2.24.64.64,0,0,0-.2.32,1.35,1.35,0,0,1-.27.23h-.06a5.79,5.79,0,0,1-.24.72l-.16.58-.18.27a.4.4,0,0,0-.09.26s0,.05,0,.11l0,.12a.31.31,0,0,1-.06.2c0,.08-.08.14-.07.17l.08.26v.44c.06.24.25.33.56.26l.16,0,.43-.18.36-.16a.5.5,0,0,1,.16-.07,1,1,0,0,0,.13-.17l.11,0,.09,0c0-.18.16-.36.5-.56a.76.76,0,0,1,.35-.41,1.55,1.55,0,0,0,.51-.58l.16,0a1,1,0,0,0,.16-.19,1.59,1.59,0,0,1,.29-.29.71.71,0,0,0,.18-.2.4.4,0,0,1,.13-.14.87.87,0,0,1,.36-.52l0-.06c.09-.14.14-.21.17-.22h.14q.11,0,.09-.18a1,1,0,0,1,.25-.48c.16-.22.28-.34.33-.35s.22,0,.26.19a.2.2,0,0,1-.14.25,2.36,2.36,0,0,1,.2.32.5.5,0,0,1-.23.59.08.08,0,0,0,0,.08l0,.22s0,0,0,0l0,.06-.16.06,0,.09a2.35,2.35,0,0,0-.43.61l-.15.3h0c-.09-.06-.16-.09-.2-.08s0,.07-.07.2a1.89,1.89,0,0,1-.4.58,1,1,0,0,0-.18.24l-.18.21-.16,0a1,1,0,0,0,0,.12.82.82,0,0,1-.14.24,1.3,1.3,0,0,0-.17.28.42.42,0,0,1-.16.19h-.2a.38.38,0,0,1-.31.27,2.15,2.15,0,0,0-.14.23c-.06.11-.1.17-.13.17s-.11,0-.25-.09h0c-.08,0-.1.09-.07.21a.17.17,0,0,1-.15.23.81.81,0,0,0-.34.21h0a.5.5,0,0,1-.37,0l-.22-.11-.32.2a.34.34,0,0,1-.27-.06l-.51-.16a1.33,1.33,0,0,1-.23-.29l-.08-.08q-.36,0-.63-.69l-.15-.27a.15.15,0,0,1-.05-.1,1.17,1.17,0,0,1,0-.38,4.87,4.87,0,0,0,0-.7A.65.65,0,0,1,200.72,303.51Z"/><path class="cls-5" d="M207.52,301l0-.16a.52.52,0,0,0,.27-.33,3.79,3.79,0,0,1,.33-.77c.22-.45.35-.69.38-.73a5.43,5.43,0,0,0,.09-1.14.23.23,0,0,0,.08-.2l0-.21.09-.06,0-.05,0-.11a3.61,3.61,0,0,1,.11-1.11c.08-.71.12-1.11.12-1.18a2.79,2.79,0,0,1,0-.33,7.1,7.1,0,0,0,.07-.83,4.91,4.91,0,0,1,.25-1.33,1,1,0,0,0,0-.31,2,2,0,0,1,.12-.55l.05-.28q0-.13.09-.48a3.22,3.22,0,0,1,.15-.55,1.58,1.58,0,0,0,.09-.42.58.58,0,0,1,.08-.32,1,1,0,0,0,.1-.35.33.33,0,0,1,.24-.31.65.65,0,0,1,.7.2,1.6,1.6,0,0,1,.37.6,4.93,4.93,0,0,1,0,.55l.16,1.1a.35.35,0,0,0-.12.33,2.56,2.56,0,0,1,0,1.42.8.8,0,0,0,0,.33.7.7,0,0,1,0,.48,1.59,1.59,0,0,0-.12.63l-.49,1.86,0,.11a.7.7,0,0,0-.09.25h-.18c-.19.05-.26.15-.22.28a.55.55,0,0,0,.1.18v0s-.13.5-.39,1.46a2.27,2.27,0,0,0,0,.51l0,.39a2.64,2.64,0,0,0-.11.76,1.74,1.74,0,0,1-.07.59,3.94,3.94,0,0,0,0,.62.06.06,0,0,0,.08.05s.1-.16.19-.44a1.93,1.93,0,0,1,.24-.59.84.84,0,0,0,.15-.4l.08-.12a1.13,1.13,0,0,0,.14-.19h.11a.27.27,0,0,0,0-.19.37.37,0,0,1,0-.16q.27-.12.27-.33c0-.14,0-.22.11-.23s.1-.11.15-.29a1.14,1.14,0,0,1,.27-.46,1.8,1.8,0,0,0,.29-.35,1.93,1.93,0,0,1,.41-.4,1.61,1.61,0,0,1,.44-.29l.07,0h.09l.14-.07a1.45,1.45,0,0,1,.8,0,.72.72,0,0,1,.52.62l.14.75.05.61a3.75,3.75,0,0,1,0,.67,2.9,2.9,0,0,0,0,.6l0,.24.13.29.06.25c0,.08.07.11.13.09s.09-.1.17-.28c.08,0,.14-.07.17-.21a2.41,2.41,0,0,1,.18-.42s0-.07.11-.13a1.19,1.19,0,0,0,.29-.39,2.1,2.1,0,0,1,.26-.57,3.82,3.82,0,0,1,.53-.74l0-.11a.47.47,0,0,1,.26-.3c.09,0,.16,0,.19.14a.69.69,0,0,1,0,.26,1.5,1.5,0,0,0,0,.35,2.17,2.17,0,0,1,0,.66v.13c0,.15,0,.24-.11.29a.55.55,0,0,0-.16.26,1.1,1.1,0,0,1-.4.44c0,.27-.09.42-.15.43l-.22,0a.6.6,0,0,0-.09.47,2.75,2.75,0,0,0-.22.44l-.21,0c-.06,0-.06.11,0,.28,0,0,0,.09-.16.22a3.47,3.47,0,0,0-.26.34.75.75,0,0,1-.45.25.21.21,0,0,1-.15,0,.72.72,0,0,0-.28-.07.42.42,0,0,1-.31-.21,1.31,1.31,0,0,0-.24-.3.69.69,0,0,1-.13-.17l-.05-.25-.12-.23,0-.19-.13-.2-.11-.75a7,7,0,0,1-.11-1.07s0-.07,0-.15l-.1-.28,0-.17c0-.12-.09-.17-.16-.16a.18.18,0,0,1-.14,0l-.18,0c-.06,0-.09.08-.1.19a.9.9,0,0,1-.09.32l-.27,0v0c0,.06,0,.21-.17.45a.88.88,0,0,0-.36.44c-.05,0-.13.1-.23.27a1.34,1.34,0,0,1-.2.28l0,.21-.15.11a.46.46,0,0,1-.25.41l0,.25a.38.38,0,0,0-.23.35c0,.17,0,.25-.05.26s0,0-.08,0h-.1c-.15.05-.19.2-.13.46a3.72,3.72,0,0,1-.26.68,7.08,7.08,0,0,1-.3.66s0,.1,0,.27a.78.78,0,0,1-.14.42c-.08.1-.14.19-.18.25s-.07.1-.09.1-.3,0-.46-.24a3.68,3.68,0,0,1-.24-.33l0-.26-.08-.21s0-.18,0-.51a3.16,3.16,0,0,1,.07-.82,2.41,2.41,0,0,0,0-.94,2,2,0,0,1-.45.52c-.14,0-.24,0-.3-.25A1.73,1.73,0,0,1,207.52,301Z"/></g></g></svg>