<svg xmlns="http://www.w3.org/2000/svg" xmlns:xlink="http://www.w3.org/1999/xlink" viewBox="0 0 361.36 361.37"><defs><style>.cls-1{fill:url(#New_Gradient_Swatch);}.cls-2{fill:#fff;}.cls-3{fill:url(#New_Gradient_Swatch-2);}.cls-4{fill:url(#New_Gradient_Swatch-3);}.cls-5{fill:url(#New_Gradient_Swatch-4);}.cls-6{fill:#e49e9c;}.cls-7{fill:#e39d9b;}.cls-8,.cls-9{fill-rule:evenodd;}.cls-8{fill:url(#New_Gradient_Swatch-5);}.cls-9{fill:url(#New_Gradient_Swatch-6);}</style><linearGradient id="New_Gradient_Swatch" y1="180.68" x2="361.36" y2="180.68" gradientUnits="userSpaceOnUse"><stop offset="0" stop-color="#c98b7c"/><stop offset="0.06" stop-color="#d39585"/><stop offset="0.21" stop-color="#e5a896"/><stop offset="0.36" stop-color="#f0b3a1"/><stop offset="0.52" stop-color="#f4b7a4"/><stop offset="1" stop-color="#914f4c"/></linearGradient><linearGradient id="New_Gradient_Swatch-2" x1="88.03" y1="180.22" x2="271.84" y2="180.22" xlink:href="#New_Gradient_Swatch"/><linearGradient id="New_Gradient_Swatch-3" x1="295.39" y1="183.39" x2="307.8" y2="183.39" xlink:href="#New_Gradient_Swatch"/><linearGradient id="New_Gradient_Swatch-4" x1="59.61" y1="180.47" x2="72.03" y2="180.47" xlink:href="#New_Gradient_Swatch"/><linearGradient id="New_Gradient_Swatch-5" x1="195.19" y1="126.25" x2="221.55" y2="126.25" xlink:href="#New_Gradient_Swatch"/><linearGradient id="New_Gradient_Swatch-6" x1="175.02" y1="145.29" x2="170.15" y2="253.65" xlink:href="#New_Gradient_Swatch"/></defs><title>Asset 6</title><g id="Layer_2" data-name="Layer 2"><g id="Layer_1-2" data-name="Layer 1"><path class="cls-1" d="M350.08,180.68a12.14,12.14,0,0,1-1.72,24.22,12,12,0,1,1-5.08,23.46,12.14,12.14,0,0,1-8.49,22.75,12.07,12.07,0,1,1-11.59,21.17,12,12,0,1,1-14.42,19.26,12.08,12.08,0,1,1-17.08,17.09,12.12,12.12,0,1,1-19.39,14.56,12.09,12.09,0,0,1-21.22,11.61,12.09,12.09,0,0,1-22.65,8.46,12.13,12.13,0,0,1-23.72,5.13,12,12,0,1,1-24,1.69,12.14,12.14,0,1,1-24.22-1.72A12,12,0,1,1,133,343.28a12.13,12.13,0,1,1-22.74-8.48,12.07,12.07,0,0,1-21.18-11.6,12,12,0,0,1-19.26-14.42,12.08,12.08,0,1,1-17.09-17.07,12.13,12.13,0,0,1-14.55-19.4A12.09,12.09,0,1,1,26.56,251.1a12.09,12.09,0,0,1-8.45-22.65A12.13,12.13,0,1,1,13,204.73a12.06,12.06,0,1,1-1.7-24A12.14,12.14,0,1,1,13,156.46,12,12,0,1,1,18.09,133a12.13,12.13,0,1,1,8.48-22.74A12.07,12.07,0,1,1,38.16,89.09,12,12,0,1,1,52.59,69.82,12.08,12.08,0,0,1,69.66,52.73,12.12,12.12,0,1,1,89.05,38.18a12.1,12.1,0,0,1,21.22-11.62,12.09,12.09,0,0,1,22.65-8.45A12.13,12.13,0,1,1,156.63,13a12.06,12.06,0,0,1,24.05-1.7A12.15,12.15,0,0,1,204.91,13a12,12,0,1,1,23.45,5.08,12.13,12.13,0,1,1,22.74,8.48,12.07,12.07,0,0,1,21.18,11.59,12,12,0,0,1,19.26,14.43,12.08,12.08,0,0,1,17.09,17.07,12.12,12.12,0,1,1,14.55,19.39,12.1,12.1,0,1,1,11.62,21.23,12.08,12.08,0,0,1,8.46,22.64,12.13,12.13,0,0,1,5.13,23.72,12,12,0,0,1,1.69,24Z"/><circle class="cls-2" cx="181.06" cy="183.64" r="148.46" transform="translate(-76.82 181.82) rotate(-45)"/><path class="cls-2" d="M180.85,349.28c-90.73,0-164.56-73.82-164.56-164.56S90.12,20.16,180.85,20.16,345.42,94,345.42,184.72,271.6,349.28,180.85,349.28Zm0-326.63c-89.36,0-162.07,72.7-162.07,162.07S91.49,346.79,180.85,346.79s162.08-72.7,162.08-162.07S270.23,22.65,180.85,22.65Z"/><path class="cls-3" d="M179.94,272.13a91.91,91.91,0,1,1,91.9-91.91A92,92,0,0,1,179.94,272.13Zm0-182.37a90.46,90.46,0,1,0,90.46,90.46A90.56,90.56,0,0,0,179.94,89.76Z"/><path class="cls-4" d="M307.8,183.39a6.21,6.21,0,1,1-6.21-6.2A6.2,6.2,0,0,1,307.8,183.39Z"/><path class="cls-5" d="M72,180.47a6.21,6.21,0,1,1-6.21-6.21A6.22,6.22,0,0,1,72,180.47Z"/><text></text><path class="cls-6" d="M65.07,135.26v-.1l.19-.39c0-.11,0-.35-.17-.69a7.3,7.3,0,0,1,.1-.9l0-.09a3.6,3.6,0,0,1-.09-.4l.13-.27a1.07,1.07,0,0,0,0-.3,3.6,3.6,0,0,1,.1-1,5.21,5.21,0,0,0,.12-1,6.07,6.07,0,0,1,.22-.67l.12-.44.18-.3c.24-.51.75-.71,1.53-.61a.44.44,0,0,0,.21,0,.43.43,0,0,1,.22,0,2.15,2.15,0,0,1,1,1.19l.44.46a1.27,1.27,0,0,1,.14.25,2.24,2.24,0,0,0,.31.47,3.6,3.6,0,0,1,.46,1c.09.12.23.28.42.51a2.12,2.12,0,0,1,.36.49,9.9,9.9,0,0,0,.59,1,4.28,4.28,0,0,0,.66.87,1,1,0,0,0,.39.55,2.15,2.15,0,0,1,.57.63l.09.07a.62.62,0,0,0-.29-.7s-.06-.13-.1-.34l-.14-.21a.75.75,0,0,1-.09-.42.87.87,0,0,1-.19-.46c-.07-.25-.11-.42-.14-.51a1.13,1.13,0,0,1,0-.4c0-.17-.15-.45-.48-.83-.07-.05-.09-.16-.08-.31a.81.81,0,0,0-.08-.43,1.12,1.12,0,0,1-.12-.33l-.12-.19a1.14,1.14,0,0,1-.07-.3L70.83,129a1.65,1.65,0,0,0-.26-.88l0-.13,0-.09c-.06-.21-.09-.35-.12-.42a.61.61,0,0,1-.41-.6,1.23,1.23,0,0,0-.11-.62.44.44,0,0,1,0-.41s.06-.07.16-.12v0s0-.08-.1-.15l-.14-.07a.63.63,0,0,1-.34-.34.71.71,0,0,1,0-.48.93.93,0,0,0-.14-.65.76.76,0,0,1-.08-.69.47.47,0,0,0,0-.5,1.53,1.53,0,0,1-.18-.84,3.92,3.92,0,0,1,0-.78.63.63,0,0,0,0-.27.66.66,0,0,1,0-.25,1.72,1.72,0,0,1,.29-.38l.18-.23a1.82,1.82,0,0,1,.83-.37l.21-.07.06,0,.26.09.11,0c.12-.1.2-.13.26-.1l.14.19a.6.6,0,0,0,.21.17l.27.14.24.16.2.17.16.17a1.33,1.33,0,0,1,.14.19l.4.34a2.13,2.13,0,0,1,.51.62,2.55,2.55,0,0,0,.39.55,1.8,1.8,0,0,1,.31.39l.1,0,.2.09c.11-.31.07-.52-.13-.61a.53.53,0,0,1-.27-.57l-.11-.44a2,2,0,0,1-.42-1.34.72.72,0,0,1-.34-.5l-.26-.8,0-.49a1.28,1.28,0,0,1-.36-.9l-.05-.42a.59.59,0,0,0-.13-.45.67.67,0,0,1-.17-.36q-.06-.26-.21-.78v-.14l-.08-.21a1.59,1.59,0,0,1,0-.43v-.14a2.49,2.49,0,0,1-.06-.83,3.45,3.45,0,0,0,0-.79l.17-.54a.82.82,0,0,1,0-.26q.64-1.37,2.19-.63l.22.14.85.37a6.62,6.62,0,0,0,.44.66l.27.09a1.45,1.45,0,0,1,.25.35l.23.38a3.46,3.46,0,0,1,.18.41l.36.35a1,1,0,0,1,.16.38l.17.08c.14.07.27.36.38.87a1.12,1.12,0,0,1,.43.52,1.6,1.6,0,0,0,.25.45,1.21,1.21,0,0,1,.22.47,1.71,1.71,0,0,1,.52.55,2.29,2.29,0,0,1,.38.65,1.64,1.64,0,0,0,.29.48v.16c.34.23.51.4.52.5l-.14.21.06,0a.2.2,0,0,0,.13,0,.27.27,0,0,1,.18,0,.24.24,0,0,1,.14.17.34.34,0,0,0,.09.17.36.36,0,0,1,.11.13.82.82,0,0,0,.25.2,1.7,1.7,0,0,1,.47.49,1.79,1.79,0,0,0,.38.45,1.33,1.33,0,0,1,.2.14.61.61,0,0,0,.16.12,2.91,2.91,0,0,1,.41.28l1.06,0a1.27,1.27,0,0,1,.36,0,1.52,1.52,0,0,1,.7.51,1,1,0,0,1-.14.8,1,1,0,0,1-.56.51.79.79,0,0,0-.47.35l-.26-.13,0,0-.11.23-.16.07a.77.77,0,0,1-.29.08l-.13,0a1.45,1.45,0,0,1-.57,0l-.33,0-.21-.13-.37-.15a.64.64,0,0,1-.22-.14l-.38-.21-.22-.18a1.89,1.89,0,0,0-.43-.29.71.71,0,0,1-.34-.32.53.53,0,0,0-.19-.25.31.31,0,0,1-.12-.16.89.89,0,0,0-.28-.26.68.68,0,0,1-.27-.5c-.13-.18-.25-.34-.37-.48-.18-.34-.27-.51-.27-.52l.1-.2a.9.9,0,0,1-.27.05c-.26-.12-.34-.29-.24-.49a.44.44,0,0,1,.09-.13l-.08-.11-.28-.06c-.16-.08-.26-.28-.31-.61a1.07,1.07,0,0,1-.56-.74l-.24-.09a2.17,2.17,0,0,0-.27-.42A4.48,4.48,0,0,1,76,117l-.46-.77-.14-.31h0s0,0,0-.06l-.13-.12-.17-.19-.07-.16c.05-.28,0-.44-.08-.49a.83.83,0,0,0-.24,0l-.06,0c-.08,0-.14-.14-.2-.31a2.22,2.22,0,0,0-.33-.55,1.41,1.41,0,0,0-.31-.33.06.06,0,0,0-.09,0,.69.69,0,0,0,0,.77c.06,0,.08.27.08.73l.14.25a.54.54,0,0,1,0,.37.73.73,0,0,0,0,.42c0,.19.15.62.31,1.27a12.06,12.06,0,0,0,.46,1.49l.08.44c0,.17,0,.26.06.28a.72.72,0,0,1,.25.43l.14.27a1,1,0,0,0-.18.2.37.37,0,0,0,0,.35c.12,0,.18-.06.2,0s.24.3.27.66l.35.93s0,.13.06.29a.86.86,0,0,0,.18.44,4.21,4.21,0,0,1,.44.83,5.2,5.2,0,0,1,.28.74.65.65,0,0,0,.11.27,3.09,3.09,0,0,1,.25.63,1.12,1.12,0,0,0,.46.66c0,.22,0,.34,0,.36l.1.15V127a.59.59,0,0,0,.18.13q.12.09.21.81a2.54,2.54,0,0,1,0,.88s0,.08,0,.15a.29.29,0,0,1,0,.14,2,2,0,0,1-.35.3,1.26,1.26,0,0,1-1,.11l-.32-.29-.33-.09c-.06,0-.11-.11-.17-.24a.55.55,0,0,0-.29-.31c-.27-.32-.46-.55-.57-.7l-.21-.13a2.12,2.12,0,0,1-.24-.35.86.86,0,0,0-.32-.36.34.34,0,0,1-.19-.32,9.85,9.85,0,0,0-1.18-2l-.21-.1-.52-.76c-.15-.22-.31-.49-.49-.8l-.27-.29-.4.4a.36.36,0,0,0,0,.27c.16.07.19.44.1,1.08a1.81,1.81,0,0,0,.2.65l0,.51a2,2,0,0,0,.1.38l.09.3a1.23,1.23,0,0,0,.11.81l.08.51A3.46,3.46,0,0,0,72,128a2.78,2.78,0,0,1,.06.68l.12.34,0,.27a2.78,2.78,0,0,0,.25.54.48.48,0,0,1,0,.4l0,.37a1.45,1.45,0,0,1,.46.88l.32.66a2,2,0,0,1,.06.28.36.36,0,0,1,.11.3,3.1,3.1,0,0,0,.2.39l.05.24c0,.3,0,.47,0,.5L74,134c.11.05.15.21.14.49a.32.32,0,0,0,.15.28,1.13,1.13,0,0,1,.28.26l-.12.26a1,1,0,0,0,0,.34.08.08,0,0,0,0,.07l.36.1a.75.75,0,0,1,.29.42,3,3,0,0,0,.22.54c.08.14.11.23.09.26l0,.09v.11a.89.89,0,0,1,.42.65l.14.27a6,6,0,0,0,.48.84,9.16,9.16,0,0,1,.69,1.26,2.51,2.51,0,0,1,.22.92q0,.36,0,.78l-.4.54a.77.77,0,0,0-.38.12.32.32,0,0,1-.29.07l-.59-.07a1.39,1.39,0,0,1-.42-.4,2.33,2.33,0,0,0-.36-.41,2.24,2.24,0,0,1-.37-.38,2.37,2.37,0,0,0-.25-.28c-.26-.12-.4-.24-.42-.35s-.08-.36-.16-.76c0,0,0,0,0-.05l0,0-.26-.08q-.4-.6-.36-.69a.41.41,0,0,1,.08-.1l-.36-.07s-.07-.1-.11-.24a1,1,0,0,0-.17-.39l-.2,0-.06,0a.84.84,0,0,1-.39-.62,6,6,0,0,0-.48-.52l-.48-.69a1,1,0,0,1-.22-.48.35.35,0,0,0-.14-.28.91.91,0,0,1-.24-.24s.06,0,0,0l-.25-.21a.62.62,0,0,1-.19-.49q-.69-.74-.6-.93a.45.45,0,0,1,.14-.13l0-.06c.07-.15.05-.25-.07-.31s-.06,0-.08,0a.41.41,0,0,1,0,.3c0,.07-.07.09-.1.07a.07.07,0,0,1,0-.07l-.5-.62-.26-.16a2.45,2.45,0,0,1-.15-.36l-.21-.4-.14-.07a2.17,2.17,0,0,1-.24-.27,3,3,0,0,0-.43-.44l-.24-.41a1,1,0,0,0-.29-.21c-.15-.07-.23-.09-.25,0l-.24.91a11.73,11.73,0,0,0,.09,1.23l-.09.37a2.48,2.48,0,0,0,0,.47,1.77,1.77,0,0,1-.08.73.86.86,0,0,0,0,.57V135l-.13.27a2.91,2.91,0,0,0,.17.35c.05.07.06.12.05.15.18,1.27.27,2.07.28,2.39a3.53,3.53,0,0,0,.09.77,2.46,2.46,0,0,1,.07.46l.17.08c.17.08.29.28.39.62a1.17,1.17,0,0,1,0,.76,1.1,1.1,0,0,1-.22.22,1.3,1.3,0,0,0-.32.34c-.09.14-.31.13-.65,0-.49-.23-.74-.85-.76-1.84a2.22,2.22,0,0,0,0-.45,10.46,10.46,0,0,1,0-1.54v-.52a1.57,1.57,0,0,1,0-.61,6,6,0,0,0,0-.63,1.73,1.73,0,0,1,0-.36ZM75,123.43l-.19-.27h0s0,0-.06,0,0,.22.18.37.1,0,.11,0A.11.11,0,0,0,75,123.43Z"/><path class="cls-6" d="M91.66,108.24l0-.34a.25.25,0,0,0,0-.36.53.53,0,0,1-.07-.48,1.29,1.29,0,0,0-.09-.75.66.66,0,0,1,0-.65.33.33,0,0,1,.26-.08.5.5,0,0,1,.28,0,2.23,2.23,0,0,1,.68.91l.32.31.1.22a.85.85,0,0,0,0,.41,1.08,1.08,0,0,1,.06.51l.09.26a.73.73,0,0,0,0,.6.42.42,0,0,1,0,.43.82.82,0,0,0,0,.57,1.72,1.72,0,0,1-.12.39l.11.12a1.1,1.1,0,0,1-.09.56,2.4,2.4,0,0,0-.16.52.63.63,0,0,1-.07.24,1.34,1.34,0,0,1-.42.37,1.81,1.81,0,0,0-.44.33.29.29,0,0,1-.23,0,.71.71,0,0,0-.33,0,.73.73,0,0,1-.49-.18l-.21-.23a.21.21,0,0,0-.17,0,.28.28,0,0,1-.18,0,.16.16,0,0,1-.06-.08.1.1,0,0,0,0-.08l-.16-.08a.35.35,0,0,1-.15-.07l-.57-.54s-.09,0-.12,0a.71.71,0,0,0,0,.28.53.53,0,0,1-.1.41.76.76,0,0,0,.2.41,1.87,1.87,0,0,1,0,.42l0,.11a.38.38,0,0,1,0,.3.58.58,0,0,0,0,.34l0,.23-.21.22.12.31a1.23,1.23,0,0,1,.11.53l.07,1.57a5.36,5.36,0,0,1-.08.63l0,.14a4.16,4.16,0,0,1-.39,2,2.7,2.7,0,0,1-.79.66c-.36.21-.64.26-.83.16l-.62-.27a1.1,1.1,0,0,1-.59-.25.72.72,0,0,1-.18-.18l-.08,0-.44-.29c-.11-.08-.1-.2,0-.36l-.36-.23a3,3,0,0,1-.24-.52,2.73,2.73,0,0,1-.18-.61l-.07-.25c-.11-.06-.17-.2-.19-.42a2.39,2.39,0,0,0-.12-.57,1.83,1.83,0,0,1-.08-.73l-.1-.67a5,5,0,0,1,0-1.5,1.89,1.89,0,0,0,0-.51,1.76,1.76,0,0,1,.06-.79,4,4,0,0,0,.16-.79,1.29,1.29,0,0,1,.17-.58l.08-.1A6.39,6.39,0,0,0,85,109l.06-.07a1,1,0,0,1,.28-.17l0,0,0-.28a.37.37,0,0,1,.07-.14c.4-.53,1-.55,1.75-.06.17.1.27.11.33,0s0-.32-.2-.71a1.27,1.27,0,0,1,.28-1.35c.27-.37.64-.37,1.11,0a2.73,2.73,0,0,1,1,1.91,1.05,1.05,0,0,0,.18.25l.39.57,0,0a.48.48,0,0,1,.13.27.53.53,0,0,0,.16.28l.34.21.32.32a.54.54,0,0,0,.39.15,1.39,1.39,0,0,0,.1-.85,1,1,0,0,1-.07-.45l0-.17A1.58,1.58,0,0,1,91.66,108.24Zm-3.15,4.24a.72.72,0,0,1-.2-.63.79.79,0,0,0-.07-.54,8.75,8.75,0,0,0-.12-1.17,2.06,2.06,0,0,0-.23-.87s0,0-.07,0l0,0v.15l-.2.21-.15.26-.23.11-.09.19-.25.22a.77.77,0,0,0-.17.41,3.36,3.36,0,0,1-.24.7,2.75,2.75,0,0,0-.2,1,1.33,1.33,0,0,1-.11.67,2.43,2.43,0,0,1,.1,1,.76.76,0,0,0,.15.73,2.24,2.24,0,0,0,.06.56l.15.25a1,1,0,0,1,0,.37.36.36,0,0,0,.14.38A.9.9,0,0,1,87,117a.66.66,0,0,0,.17.35c.42.31.69.38.81.22a1.86,1.86,0,0,0,.18-.53,3,3,0,0,0,.1-.51.55.55,0,0,1,0-.28l0-.34a.27.27,0,0,1,0-.16.3.3,0,0,0,0-.19,1.12,1.12,0,0,1,0-.35.74.74,0,0,0,0-.42c0-.21.07-.54.13-1v-.42a1.45,1.45,0,0,0,0-.51A.74.74,0,0,1,88.51,112.48Z"/><path class="cls-6" d="M92.26,102.08l.12-.22-.09-.21a4.15,4.15,0,0,0,.12-1.41.42.42,0,0,1,0-.19.91.91,0,0,0,0-.33A1.92,1.92,0,0,1,93,98.29c.43-.46,1-.45,1.54,0l.24.09a6.1,6.1,0,0,1,.91.36,4.43,4.43,0,0,1,.78.41,1.65,1.65,0,0,1,.44.79,6,6,0,0,0,.14,1.59l0,.19a4,4,0,0,1,.19.64c-.09.21-.11.34,0,.4l.21.19a.34.34,0,0,1,0,.14,2.44,2.44,0,0,0,.13.4l0,.22a.65.65,0,0,0,.11.27,1.14,1.14,0,0,1,.13.38.57.57,0,0,0,.11.27c.12.1.32,0,.6-.3a1.54,1.54,0,0,0,.09-.24l.2-.11a.46.46,0,0,0,0-.19,1.05,1.05,0,0,1,.15-.4,1.34,1.34,0,0,0,.17-.47,2.28,2.28,0,0,1,.17-.5,1.88,1.88,0,0,0,.14-.6,1.62,1.62,0,0,1,.11-.58,1.4,1.4,0,0,0,.1-.54,3.23,3.23,0,0,1,.06-.61,6.11,6.11,0,0,0,0-1.15,1.72,1.72,0,0,1,.11-.62,1.47,1.47,0,0,0-.12-.49.71.71,0,0,1,.08-.7.29.29,0,0,1,.46,0,.49.49,0,0,1,.14.35l.07.06.21.15a.28.28,0,0,1,.12.08.38.38,0,0,1,.06.22.69.69,0,0,0,.13.34.37.37,0,0,1,0,.4c.13.21.17.36.12.46a1.34,1.34,0,0,0-.05.52,6.49,6.49,0,0,1-.06,1,6.68,6.68,0,0,0-.05.88c0,.18,0,.28,0,.31s-.06,0-.13,0l-.14,0s0,.13.08.25l.07.15a.88.88,0,0,1-.07.27l-.09,0,0,0q-.14.14,0,.24l.19,0,0,0c.11.1.1.21,0,.34a3.33,3.33,0,0,0-.27,1.14l-.24.41-.11.42c-.15,0-.23.07-.25.1l-.11.24-.3.36-.63.2a1.37,1.37,0,0,1-.92.06,5.84,5.84,0,0,0-.67-.23,1.11,1.11,0,0,1-.45-.18,3.17,3.17,0,0,1-.71-.84c-.11-.21-.19-.36-.25-.45a.84.84,0,0,1-.13-.37,1.55,1.55,0,0,0-.26-.58,9.31,9.31,0,0,1-.4-1.24,1.54,1.54,0,0,0-.18-.55l-.07-.35a.69.69,0,0,0-.12-.23c-.07-.13-.1-.23-.07-.29a1,1,0,0,0-.12-.29.39.39,0,0,0-.62,0s0,.12,0,.24a.91.91,0,0,1-.06.54,1.79,1.79,0,0,0-.11.48,1.46,1.46,0,0,1-.09.38,1.29,1.29,0,0,0,0,.59l-.09.28c.09.21.12.34.09.4l-.28.54a.68.68,0,0,0,0,.24.45.45,0,0,1-.13.39,4.48,4.48,0,0,0,.07.59,1.1,1.1,0,0,0-.14.33L93,106a1.55,1.55,0,0,0,0,.41.63.63,0,0,1-.23.56c-.11.12-.26.09-.44-.09a1.55,1.55,0,0,1-.54-1.25,2,2,0,0,1,.19-.92.36.36,0,0,0,.08-.37.51.51,0,0,1,0-.4,2,2,0,0,0,.06-.74,1.68,1.68,0,0,1,.12-.85Z"/><path class="cls-6" d="M99.76,86.7l-.49-.4-.06-.08c-.33-.37-.39-.69-.17-1,0-.06.17-.26.37-.6a1.1,1.1,0,0,1,.78,0,1.32,1.32,0,0,1,.74.37s0,.06.06.14a1.89,1.89,0,0,0,.23.36.7.7,0,0,1,.13.61,1,1,0,0,1-.32.59,1,1,0,0,1-.63.14A1,1,0,0,1,99.76,86.7Zm.13,10.53,0-.34.07-.06a.72.72,0,0,0,.09-.4l.08-.16a1.21,1.21,0,0,1,0-.78l.06-.32a.41.41,0,0,1,.06-.2,1.37,1.37,0,0,0,.08-.49.74.74,0,0,1,.15-.48.76.76,0,0,1,.21-.14,1,1,0,0,1,0-.54,1.51,1.51,0,0,0,0-.63l.09-.21a2.1,2.1,0,0,0,.13-.55.69.69,0,0,1,.25-.49,1.5,1.5,0,0,1,1-.29,1.36,1.36,0,0,1,1,.34L104,92.6c.47.81.64,1.3.5,1.48l.17.29c0,.18,0,.29,0,.34l.32.22s0,.14,0,.3c0,0,0,0,0,.09l.43.49a.31.31,0,0,1,0,.36h.12c0-.09.09-.21.26-.36l.21-.15,0-.49a1.86,1.86,0,0,0,.13-.32,6.61,6.61,0,0,1,.3-.68l.5-2.58c0-.4.09-.65.21-.75s.24-.08.38.07a1.11,1.11,0,0,1,.28.52,4.19,4.19,0,0,0,.18.58,1,1,0,0,1,.11.52,1.15,1.15,0,0,0,0,.37,1.86,1.86,0,0,1-.1.67,5.73,5.73,0,0,0-.15.91,3,3,0,0,1-.08.64l-.19.83,0,.18a1.49,1.49,0,0,1-.13.29,1.73,1.73,0,0,0-.18.51l-.11.31a.63.63,0,0,1-.18.27.57.57,0,0,0-.16.38c0,.16,0,.26-.08.3l-.2.13-.17.29a1.14,1.14,0,0,1-.71.19,1,1,0,0,1-.76-.26l-.06-.07-.12-.19a2,2,0,0,0-.29-.18,1.71,1.71,0,0,1-.27-.16l-.12-.19-.09,0a1.4,1.4,0,0,1-.31-.44.8.8,0,0,0-.14-.3l-.17-.29-.2-.35a.48.48,0,0,1,0-.29l-.19-.41-.14-.26,0-.27a.52.52,0,0,0-.12-.36,1,1,0,0,1-.17-.45,1.66,1.66,0,0,0-.08-.31.17.17,0,0,0-.27,0s-.08.18-.13.45l-.28.12s0,.09,0,.24,0,.08,0,.16a.5.5,0,0,0,0,.36l-.07.11-.22.07,0,0q-.12.1.09.39a.75.75,0,0,1-.12.55l-.2.31a.42.42,0,0,0,0,.38.9.9,0,0,1,0,.52A.81.81,0,0,1,101,98a.42.42,0,0,1-.66-.08l-.4-.64Z"/><path class="cls-6" d="M118,84.58l.08-.33a.26.26,0,0,0,.1-.35.53.53,0,0,1,.08-.47,1.28,1.28,0,0,0,.14-.74.74.74,0,0,1,.2-.63.4.4,0,0,1,.27,0,.51.51,0,0,1,.26.13,2.24,2.24,0,0,1,.37,1.07l.21.4,0,.23a.68.68,0,0,0-.09.4,1.34,1.34,0,0,1-.1.51v.27a.73.73,0,0,0-.17.57.47.47,0,0,1-.1.43.85.85,0,0,0-.2.54,2.27,2.27,0,0,1-.23.34l.07.14a1,1,0,0,1-.26.5,3.38,3.38,0,0,0-.31.45.77.77,0,0,1-.13.21,1.38,1.38,0,0,1-.52.22,1.79,1.79,0,0,0-.52.19.36.36,0,0,1-.21-.11.69.69,0,0,0-.3-.14.74.74,0,0,1-.41-.33l-.13-.28a.26.26,0,0,0-.15-.08.29.29,0,0,1-.16-.08.11.11,0,0,1,0-.1.22.22,0,0,0,0-.1.77.77,0,0,0-.13-.12l-.12-.11-.38-.69s-.07-.07-.1,0-.07.11-.1.26a.57.57,0,0,1-.22.36.68.68,0,0,0,.06.44,1.58,1.58,0,0,1-.09.42v.12c0,.07,0,.17-.08.29a.53.53,0,0,0-.13.31l0,.23-.26.15a1.56,1.56,0,0,0,0,.33,1.22,1.22,0,0,1-.06.54l-.41,1.51a5.75,5.75,0,0,1-.26.58l0,.14a4.06,4.06,0,0,1-1,1.73,2.72,2.72,0,0,1-1,.4c-.4.09-.68.06-.84-.11l-.51-.44a1.08,1.08,0,0,1-.48-.42.54.54,0,0,1-.12-.22l-.06-.08-.33-.41c-.08-.1,0-.21.13-.33L109,92a1.88,1.88,0,0,1-.07-.57,2.2,2.2,0,0,1,0-.63v-.26a.52.52,0,0,1-.06-.46,2,2,0,0,0,.06-.58,2,2,0,0,1,.15-.72l.11-.66a4.86,4.86,0,0,1,.46-1.44,1.3,1.3,0,0,0,.13-.48,1.93,1.93,0,0,1,.3-.74,5.3,5.3,0,0,0,.4-.7,1.1,1.1,0,0,1,.34-.5l.1-.08a5,5,0,0,0,.46-.81l.07-.06a1.09,1.09,0,0,1,.32-.07l0,0,.13-.25a.25.25,0,0,1,.11-.12q.81-.58,1.68.48c.13.14.23.18.3.14s.1-.31,0-.74.16-.83.68-1.2c.37-.27.72-.17,1.07.31a2.77,2.77,0,0,1,.39,2.13.88.88,0,0,0,.09.29l.2.66,0,0a.49.49,0,0,1,0,.3.45.45,0,0,0,.06.31l.26.31.21.4c.12.16.23.25.32.26a1.31,1.31,0,0,0,.36-.78,1,1,0,0,1,.07-.45l.09-.15A1.71,1.71,0,0,1,118,84.58Zm-4.3,3.08a.73.73,0,0,1,0-.66.81.81,0,0,0,.1-.53,7.52,7.52,0,0,0,.24-1.15,2.23,2.23,0,0,0,0-.9s0,0-.08,0h0l0,.14-.26.14-.22.21-.25,0-.15.14-.29.14a.87.87,0,0,0-.3.34,2.84,2.84,0,0,1-.44.59,2.8,2.8,0,0,0-.5.91,1.18,1.18,0,0,1-.31.6,2.14,2.14,0,0,1-.21,1,.76.76,0,0,0-.07.75,1.51,1.51,0,0,0-.11.55l.06.28a.85.85,0,0,1-.15.34.37.37,0,0,0,0,.4.9.9,0,0,1,.1.51.6.6,0,0,0,0,.39c.31.42.54.57.7.46a2,2,0,0,0,.34-.45,2.52,2.52,0,0,0,.25-.46.5.5,0,0,1,.13-.25l.15-.31a.26.26,0,0,1,.07-.15.3.3,0,0,0,.07-.18,1.19,1.19,0,0,1,.12-.32.78.78,0,0,0,.1-.41c.08-.19.22-.5.42-.91l.12-.41a1.2,1.2,0,0,0,.2-.47A.77.77,0,0,1,113.68,87.66Z"/><path class="cls-6" d="M132.32,77.66l.06,0,.17,0a.1.1,0,0,0,0,0,.58.58,0,0,1,0-.53.78.78,0,0,1,.1-.58c.12-.18.3-.47.54-.88l.19-.5.12-.17,0-.2a.45.45,0,0,1,.2-.34c.14-.08.24-.06.29,0l0,.35.31.43a.74.74,0,0,1,.06.55l-.23.86-.32,1.14-.27.4a1.14,1.14,0,0,0-.15.34l-.31.75a.39.39,0,0,1,0,.36l-.22.12-.08.12a1.29,1.29,0,0,1-.3.83l-.13.24a.32.32,0,0,1-.13.19l-.43.15-.24.2a.8.8,0,0,1-.36,0,1.88,1.88,0,0,0-.48,0,1.45,1.45,0,0,1-.78-.26,2.82,2.82,0,0,1-.65-.42.58.58,0,0,0-.16-.16.58.58,0,0,1-.15-.12,1.65,1.65,0,0,1,0-.35l0,0s-.07-.08-.18-.16a.81.81,0,0,1-.28-.34,1.06,1.06,0,0,0-.26-.27.32.32,0,0,0,0-.23.47.47,0,0,0-.12-.14.51.51,0,0,1-.13-.14l-.28-.74-.25-.32-.15-.35c-.1-.2-.24-.25-.41-.16a.57.57,0,0,0-.2.3l-.08.08a3.8,3.8,0,0,0-.37.59.62.62,0,0,1-.26.29,1,1,0,0,1-.24.33l-.07.14a2.49,2.49,0,0,1-.13.29,4,4,0,0,1-.28.75c-.19.47-.37.91-.51,1.31a2,2,0,0,1-.39.74c-.12.09-.12.25,0,.46,0,0,0,.16-.13.36a2.18,2.18,0,0,0-.13.47,1.23,1.23,0,0,0-.35,0c-.12.07-.12.27,0,.61,0,.15-.1.31-.33.46a.71.71,0,0,0,0,.27l0,.08-.14.08a.73.73,0,0,0-.11.27,1.19,1.19,0,0,1-.19.36c0,.32,0,.5-.11.54a.44.44,0,0,1-.19,0,1.88,1.88,0,0,0-.31,0A.77.77,0,0,1,122,86a1.15,1.15,0,0,1-.47-.41c-.55-1-.65-1.72-.3-2v-.08l-.06-.11a.32.32,0,0,1,0-.35.93.93,0,0,0,.17-.48,1.1,1.1,0,0,1,.09-.38l.18-.1s0-.13-.1-.32a.27.27,0,0,1,0-.2.35.35,0,0,0,0-.24,1.72,1.72,0,0,1,0-.55,1.74,1.74,0,0,0,0-.46l0,0a1.57,1.57,0,0,1-.32.62c-.1.07-.16.29-.21.63l-.25.08a4.52,4.52,0,0,1-.47.88.87.87,0,0,0-.13.49c0,.06,0,.11,0,.17a1.51,1.51,0,0,0-.25.42l-.09,0c-.23.13-.44,0-.62-.32l-.13-.95a1.36,1.36,0,0,1,.26-1,8.69,8.69,0,0,0,.53-.92,1.28,1.28,0,0,1,.51-.6l0-.2a1.17,1.17,0,0,0,.34-.92.59.59,0,0,1,.26-.64,1.56,1.56,0,0,1,1.48-.06,2,2,0,0,1,.89.7l.23.36a2.94,2.94,0,0,1,.21.59,1,1,0,0,0,0,.47c0,.08.11.09.2,0a.43.43,0,0,0,.16-.24,2.75,2.75,0,0,1,.2-.38.54.54,0,0,0,.12-.28.9.9,0,0,1,.24-.73,1.88,1.88,0,0,0,.33-.44l.08-.19v-.27a2,2,0,0,0,.34-.58.61.61,0,0,1,.24-.36,1.32,1.32,0,0,0,.34-.51L126,76l.14-.21a.46.46,0,0,1,.13-.16l.34-.37A1.7,1.7,0,0,1,127,75a1.5,1.5,0,0,1,1.44,0,2,2,0,0,1,.91.71l.11.26.26.36,0,0,.3.84.17.25a1.35,1.35,0,0,1,.2,1.06c0,.05,0,.1,0,.18l.06.13.6.44c.19.16.31.23.36.2l.38-.36a.61.61,0,0,0,.17-.47,2.18,2.18,0,0,0,.22-.55A.32.32,0,0,1,132.32,77.66Z"/><path class="cls-6" d="M145.86,71.31,146,71a.26.26,0,0,0,.19-.3.53.53,0,0,1,.21-.44,1.4,1.4,0,0,0,.33-.68c.07-.3.19-.49.36-.55a.33.33,0,0,1,.26.07c.12.08.19.14.21.2a2.21,2.21,0,0,1,.08,1.13l.09.44,0,.23a.69.69,0,0,0-.2.36,1.13,1.13,0,0,1-.23.46l-.07.27a.73.73,0,0,0-.32.5.43.43,0,0,1-.21.39.82.82,0,0,0-.33.46c-.08.08-.19.17-.31.27l0,.16a1.17,1.17,0,0,1-.38.41,2.32,2.32,0,0,0-.41.35.91.91,0,0,1-.19.16,1.23,1.23,0,0,1-.56.08,1.68,1.68,0,0,0-.55,0,.4.4,0,0,1-.18-.16.71.71,0,0,0-.25-.22.83.83,0,0,1-.31-.42l0-.31a.38.38,0,0,0-.13-.12c-.07,0-.12-.08-.13-.12a.09.09,0,0,1,0-.1.12.12,0,0,0,0-.1.6.6,0,0,0-.09-.15.53.53,0,0,1-.08-.14l-.18-.77c0-.06-.06-.08-.1-.07a.64.64,0,0,0-.16.23.55.55,0,0,1-.31.29.7.7,0,0,0-.06.44,1.27,1.27,0,0,1-.2.38l0,.11a.36.36,0,0,1-.16.26.5.5,0,0,0-.21.27l-.09.21-.3.07s0,.14-.07.32a1.27,1.27,0,0,1-.2.51l-.79,1.35c-.09.12-.23.28-.42.49l-.05.12a4.19,4.19,0,0,1-1.4,1.42,2.63,2.63,0,0,1-1,.12c-.41,0-.67-.12-.78-.32l-.37-.56a1.07,1.07,0,0,1-.35-.53.52.52,0,0,1-.06-.25l0-.09-.21-.49c0-.12,0-.21.22-.28l-.18-.39a2.9,2.9,0,0,1,.09-.57,1.92,1.92,0,0,1,.18-.6l.08-.25a.5.5,0,0,1,.06-.46,2.3,2.3,0,0,0,.21-.54,1.85,1.85,0,0,1,.34-.65l.28-.62a5.1,5.1,0,0,1,.83-1.26,1.34,1.34,0,0,0,.26-.43,1.89,1.89,0,0,1,.48-.63,3.84,3.84,0,0,0,.57-.57,1.13,1.13,0,0,1,.46-.39l.12,0a6.65,6.65,0,0,0,.66-.66l.09,0a1,1,0,0,1,.33,0h0l.19-.21a.28.28,0,0,1,.14-.09c.62-.23,1.12.08,1.49.91.09.18.17.25.25.22s.18-.27.23-.71.37-.75,1-1c.43-.16.74,0,.95.58a2.78,2.78,0,0,1-.19,2.16,1,1,0,0,0,0,.3v.72a.48.48,0,0,1,0,.3.47.47,0,0,0,0,.32l.17.36.1.44a.56.56,0,0,0,.24.34,1.37,1.37,0,0,0,.55-.65.89.89,0,0,1,.19-.42l.12-.12A1.9,1.9,0,0,1,145.86,71.31Zm-5,1.83a.72.72,0,0,1,.19-.63.74.74,0,0,0,.23-.49,7.91,7.91,0,0,0,.54-1,2.21,2.21,0,0,0,.29-.85s0,0-.08,0h0l-.09.12-.28.07-.27.13-.25,0-.18.1-.32,0a1,1,0,0,0-.38.25,2.91,2.91,0,0,1-.58.46A2.67,2.67,0,0,0,139,72a1.33,1.33,0,0,1-.46.5,2.53,2.53,0,0,1-.47.9.74.74,0,0,0-.27.7c-.18.3-.27.47-.25.5v.29a1.23,1.23,0,0,1-.24.28.37.37,0,0,0-.1.39.88.88,0,0,1,0,.53.56.56,0,0,0,0,.38c.18.49.36.7.55.63a1.74,1.74,0,0,0,.44-.34,1.91,1.91,0,0,0,.36-.38.62.62,0,0,1,.2-.21l.23-.25a.24.24,0,0,1,.11-.13.37.37,0,0,0,.11-.15,1.15,1.15,0,0,1,.2-.28.68.68,0,0,0,.2-.37c.14-.16.35-.42.66-.77l.22-.35a1.14,1.14,0,0,0,.31-.41A1.07,1.07,0,0,1,140.89,73.14Z"/><path class="cls-6" d="M159.2,65.1l-.43,0a.84.84,0,0,0-.19.26,1.57,1.57,0,0,1-.43.42.85.85,0,0,0-.34.38.77.77,0,0,1-.09.27l-.11.25a.8.8,0,0,1-.18.27.64.64,0,0,0-.16.32.29.29,0,0,1-.25.24c-.45.07-.72-.19-.81-.77a2.57,2.57,0,0,1,.18-1,1.33,1.33,0,0,1,.57-.9,5.34,5.34,0,0,0,.54-.3,3.81,3.81,0,0,1,.34-.22,8.62,8.62,0,0,0,.79-.71s.27-.14.77-.36l.53-.43c.07-.12.13-.19.19-.21a1,1,0,0,0,.24-.13l.26-.07a1.2,1.2,0,0,1,.51-.4l.41-.25a4.72,4.72,0,0,1,1.07-.63l.08-.08.09-.08.43,0c.12,0,.19-.13.2-.34l.09,0,.4,0a.58.58,0,0,0,.15-.1.92.92,0,0,1,.27-.16.4.4,0,0,0,.25-.21.29.29,0,0,1,.22-.18l.27,0c.08,0,.17-.11.26-.29a2.34,2.34,0,0,1,.4-.56h.13c.06,0,.11-.09.14-.24a.72.72,0,0,1,.18-.37,1.71,1.71,0,0,0,.27-.5,1.08,1.08,0,0,1,.29-.47,1,1,0,0,0,.28-.3.48.48,0,0,1,.28-.22l0,0,0-.21c0-.16.09-.34.37-.53a.8.8,0,0,0,.15-.16l0-.23s0-.1.12-.24.13-.23.12-.28a2,2,0,0,1,.4-.75,3.73,3.73,0,0,1,.6-.77,1.9,1.9,0,0,0,.42-.71l.21-.11a4.34,4.34,0,0,1,.46-.72,2.45,2.45,0,0,0,.33-.58l.2-.3a.12.12,0,0,0,.07-.14c0-.06-.08-.09-.2-.07a1.91,1.91,0,0,1-.6,0l-.26.14h-.29l-.36.25-.38,0a1.82,1.82,0,0,1-.52.35l-.23.1-.19.1a1.54,1.54,0,0,0-.28.18.92.92,0,0,1-.5.19.51.51,0,0,0-.28.2,5.61,5.61,0,0,1-.51.45s0,0,0,0l-.46,0c-.4.55-.66.83-.79.85h-.37a2.76,2.76,0,0,0-.79.6,3.68,3.68,0,0,1-.53.52h-.29a5.37,5.37,0,0,1-.41.52.68.68,0,0,0-.15.27.31.31,0,0,1-.28.22l-.31.32c0,.16-.07.35-.28.58l0,.06.06.35c0,.08-.06.21-.2.38s-.25.25-.34.26a.79.79,0,0,1-.63-.28,1.25,1.25,0,0,1-.4-.72,1.17,1.17,0,0,1,.05-.33l0-.7c0-.34.53-.75,1.48-1.22l.22-.23a1.18,1.18,0,0,1,.43-.26l.18-.09.06-.25.3-.21a1.61,1.61,0,0,0,.38-.31,2.1,2.1,0,0,1,.51-.38l.22-.2.33,0a9,9,0,0,1,3.18-2,16.4,16.4,0,0,1,4.22-1.44,1.25,1.25,0,0,1,1,.44,1.85,1.85,0,0,1,.61,1,.9.9,0,0,1-.26.67.89.89,0,0,0-.29.63,1.16,1.16,0,0,1-.33.72,3.65,3.65,0,0,0-.57.78l-.1.33a.41.41,0,0,1-.17.24.63.63,0,0,0-.22.39c-.05.2-.25.37-.58.52,0,0,0,.08,0,.2s-.1.27-.32.45l-.16.18a1.16,1.16,0,0,1-.22.63l-.13.18c-.07.54-.27.83-.61.88-.07,0-.12.11-.15.31a.93.93,0,0,1-.39.56v.1a3.53,3.53,0,0,1,.94-.37l.22-.06.08-.11a.36.36,0,0,0,.2,0,.72.72,0,0,0,.42-.29h.26s.05,0,.11-.05l.77-.36.75-.27.16,0a1.08,1.08,0,0,1,.88.21,1.15,1.15,0,0,1,.43.76v.45l.07.23c0,.06-.08.17-.26.33l-.14.15a1.2,1.2,0,0,1-.76.45c-.48.07-.79,0-.92-.23,0,0-.08-.06-.22,0a.84.84,0,0,1-.34,0,.54.54,0,0,0-.18,0,1.62,1.62,0,0,1-.44,0,1,1,0,0,1-.58.28l-.1,0-.2,0-.26.26a.2.2,0,0,1-.1,0,.3.3,0,0,0-.13,0,.41.41,0,0,0-.21.1.45.45,0,0,1-.23.11l-.23,0a.67.67,0,0,1-.21.09.53.53,0,0,0-.23.24.39.39,0,0,1-.27.24c-.18,0-.32.23-.44.6l-.08.11h-.1c-.07,0-.11.1-.12.28a.61.61,0,0,1-.06.34c-.16.05-.26.12-.28.21s-.05.29-.08.57l-.1.31-.18.14a3.19,3.19,0,0,1-.4,1.22,6.53,6.53,0,0,0-.48,1,1.61,1.61,0,0,1-.3.54.71.71,0,0,0-.16.45.91.91,0,0,1-.1.42,3.78,3.78,0,0,0-.28.74l-.36.91-.14.49c0,.15-.13.24-.25.26s-.08.07-.07.17l.05.32a7,7,0,0,1-.2.8l-.07.33s-.07.1-.16.17a.56.56,0,0,0-.16.45.76.76,0,0,1-.12.45.57.57,0,0,0-.09.42.44.44,0,0,1-.25.45c0,.19,0,.32,0,.39s-.09.14-.25.24h0l.18.52c0,.07,0,.11-.05.12s-.14.14-.13.18l.09.18v.06a.9.9,0,0,1-.08.32v0s.08.23.22.57l-.07.2c0,.19.13.27.29.25l.44-.39c.15,0,.25.14.3.49l.07.15c-.08.07-.12.13-.11.17a.27.27,0,0,0,.05.14.48.48,0,0,1,.05.14c0,.35-.23.57-.85.66H163a.68.68,0,0,1-.2,0l-.33.08a1.53,1.53,0,0,1-.74-.26,2.26,2.26,0,0,1-.92-1,3.92,3.92,0,0,1-.45-1.24l.17-1.88a.28.28,0,0,0,0-.21.78.78,0,0,1,.06-.35l.11-.55a4.15,4.15,0,0,1,.4-.9l.24-.2a.6.6,0,0,0,.21-.22c-.2,0-.3-.08-.31-.13a4,4,0,0,1,.18-.51c.12-.31.23-.48.33-.52s0,0,0,0,0-.06,0-.12v0a2.2,2.2,0,0,1,.14-.37l-.1-.23a.86.86,0,0,1,.15-.22,1.74,1.74,0,0,0,.25-.57,1.22,1.22,0,0,1,.24-.54.46.46,0,0,0,.14-.14l-.12-.44a.43.43,0,0,1,.09-.19l.07-.2a.76.76,0,0,1,.12-.26,3.46,3.46,0,0,0,.19-.41l.09-.15a1.92,1.92,0,0,0,.13-.42,1,1,0,0,1,.25-.73l.46-1a4.54,4.54,0,0,0,.46-1.2v0a2,2,0,0,0-.85.44,3.28,3.28,0,0,1-.57.4l-.38,0a5.69,5.69,0,0,0-.43.57,2.49,2.49,0,0,0-1.36.7l-.06,0-.31,0-.06,0-.07.17a2.73,2.73,0,0,0-.4.28,3,3,0,0,1-.39.28Z"/><path class="cls-6" d="M183.77,66l.25-.22a.27.27,0,0,0,.28-.22.53.53,0,0,1,.34-.35,1.42,1.42,0,0,0,.54-.53c.16-.26.34-.4.52-.4s.13,0,.22.16a.43.43,0,0,1,.13.25,2.12,2.12,0,0,1-.3,1.09l-.05.45-.11.2a.72.72,0,0,0-.31.28,1,1,0,0,1-.37.36l-.15.22a.77.77,0,0,0-.47.38.42.42,0,0,1-.32.29.82.82,0,0,0-.47.33,3,3,0,0,1-.38.15l0,.16a1.11,1.11,0,0,1-.5.26,3.14,3.14,0,0,0-.5.19.63.63,0,0,1-.23.09,1.17,1.17,0,0,1-.56-.11,2,2,0,0,0-.53-.14.37.37,0,0,1-.11-.2.86.86,0,0,0-.17-.3.75.75,0,0,1-.15-.5l.06-.3a.33.33,0,0,0-.08-.16.25.25,0,0,1-.09-.15.13.13,0,0,1,0-.1.13.13,0,0,0,0-.1.55.55,0,0,0,0-.17l0-.16.09-.78c0-.07,0-.1-.07-.1s-.12.06-.23.17a.57.57,0,0,1-.38.16.71.71,0,0,0-.21.4,1.27,1.27,0,0,1-.31.3l-.06.09c0,.08-.1.14-.24.19a.51.51,0,0,0-.28.19l-.16.16-.3,0s-.08.12-.17.28a1.22,1.22,0,0,1-.36.42l-1.2,1c-.12.08-.31.19-.55.32l-.09.1a4.25,4.25,0,0,1-1.79.88,2.67,2.67,0,0,1-1-.23c-.38-.15-.59-.34-.63-.56L172.1,69a1.09,1.09,0,0,1-.15-.62.73.73,0,0,1,0-.25v-.1l0-.52c0-.13.1-.2.3-.2l0-.43a2.48,2.48,0,0,1,.27-.51,2.73,2.73,0,0,1,.37-.51l.15-.21a.54.54,0,0,1,.22-.41,2.18,2.18,0,0,0,.38-.44,1.84,1.84,0,0,1,.53-.5l.47-.49a4.88,4.88,0,0,1,1.2-.91,1.78,1.78,0,0,0,.38-.33,1.92,1.92,0,0,1,.67-.43,4,4,0,0,0,.72-.36,1.25,1.25,0,0,1,.57-.21h.13a5.37,5.37,0,0,0,.83-.41h.1a1.18,1.18,0,0,1,.31.12h0l.25-.13a.62.62,0,0,1,.16,0c.66,0,1,.44,1.11,1.36,0,.19.08.28.16.28s.26-.2.45-.59a1.26,1.26,0,0,1,1.24-.6c.45,0,.69.28.7.86a2.8,2.8,0,0,1-.89,2,1.23,1.23,0,0,0-.09.29l-.21.65v0a.51.51,0,0,1-.14.26.58.58,0,0,0-.13.3l0,.4,0,.44c0,.21,0,.34.12.4a1.31,1.31,0,0,0,.73-.43,1.16,1.16,0,0,1,.32-.34l.15-.06A2,2,0,0,1,183.77,66Zm-5.29.09a.75.75,0,0,1,.38-.54.79.79,0,0,0,.39-.38,9,9,0,0,0,.85-.81c.37-.39.56-.63.55-.71s0,0-.06,0h0l-.13.09-.29,0-.3,0-.22-.11-.21,0-.32-.06a1,1,0,0,0-.44.12,3.18,3.18,0,0,1-.69.24,2.52,2.52,0,0,0-.93.45,1.15,1.15,0,0,1-.6.32,2.36,2.36,0,0,1-.74.7.74.74,0,0,0-.48.57c-.27.23-.41.35-.41.39l-.11.27a.86.86,0,0,1-.31.19.36.36,0,0,0-.22.34.94.94,0,0,1-.21.48.62.62,0,0,0-.17.34c0,.53.11.78.31.78a1.74,1.74,0,0,0,.53-.18,2.12,2.12,0,0,0,.47-.23.68.68,0,0,1,.25-.14l.3-.16a.28.28,0,0,1,.15-.08.36.36,0,0,0,.15-.11,1.4,1.4,0,0,1,.29-.2.77.77,0,0,0,.31-.28l.87-.51.33-.26a1.08,1.08,0,0,0,.42-.28A1,1,0,0,1,178.48,66.06Zm4-8.19-.36.53a2.89,2.89,0,0,0-.6.34,1.72,1.72,0,0,0-.49.43l-.2.09a1.62,1.62,0,0,0-.32.27.51.51,0,0,1-.39.21l-.35-.09-.16.07-.21-.13a1.35,1.35,0,0,1-.29.13c-.2,0-.3-.12-.31-.39s.19-.36.58-.6a1.36,1.36,0,0,1,.55-.63l.16-.16a.94.94,0,0,1,.31-.34.54.54,0,0,0,.23-.32,2.39,2.39,0,0,1,.27-.53,1.91,1.91,0,0,0,.24-.61,2.46,2.46,0,0,0,.21-.33.52.52,0,0,1,.5-.24.2.2,0,0,1,.19.07c.05,0,.09.08.13.08l.63-.08c.53,0,.8.21.81.64a1.57,1.57,0,0,1-.31.54,6.74,6.74,0,0,0-.47.79Z"/><path class="cls-6" d="M187.29,63.41l.08-.13a.63.63,0,0,0,.72-.36l.07-.06a2.27,2.27,0,0,0,.86-.35,2.31,2.31,0,0,1,.93-.37,5,5,0,0,1,.7-.14,2.15,2.15,0,0,1,.55.34,1.15,1.15,0,0,1,.38,1.12,2,2,0,0,1-.42,1l0,.5,0,.12a.52.52,0,0,0-.31.4v.13l0,.46-.53.93c-.19.07-.29.13-.29.2s0,.09.12.16a.29.29,0,0,1,.11.26,3.52,3.52,0,0,1-.16.64l.06,0h.07a.4.4,0,0,1,.27-.16l.17-.1a.46.46,0,0,1,.13-.24l.19,0c.09,0,.14-.08.15-.25a4.39,4.39,0,0,1,.78-.75c.51-.43.82-.72.94-.84a1.66,1.66,0,0,1,.35-.31.53.53,0,0,0,.24-.26.45.45,0,0,1,.21-.25l.27-.24a.82.82,0,0,1,.29-.22,1.49,1.49,0,0,0,.39-.35,4.46,4.46,0,0,1,.84-.69.89.89,0,0,0,.25-.26,1.47,1.47,0,0,1,.51-.38,3.38,3.38,0,0,0,.7-.46,1.46,1.46,0,0,1,1.09-.21A1.45,1.45,0,0,1,199,63.74a.56.56,0,0,1-.12.33l-.3.38c-.13.18-.26.26-.36.25l-.28-.12a.9.9,0,0,1-.65.24l-.29-.09a1.14,1.14,0,0,1-.48.16.4.4,0,0,0-.31.17.47.47,0,0,1-.28.17.93.93,0,0,0-.34.12l-.26.1a1.09,1.09,0,0,1-.74.53,2.19,2.19,0,0,0-.39.41s-.06.07-.16.11a1,1,0,0,0-.34.25c-.12.13-.21.19-.27.19l-.15,0a1,1,0,0,0-.23.43c-.06.2-.25.32-.56.36a.66.66,0,0,0-.21.21.83.83,0,0,1-.4.28,1,1,0,0,1-.47.55l-.22.31a.91.91,0,0,1-.34.28,1.37,1.37,0,0,0-.26.16l-.25.4a1,1,0,0,1-.47.46,1.45,1.45,0,0,0-.48.31c-.17.15-.3.22-.41.21-.37,0-.73-.37-1.1-1a3.43,3.43,0,0,1-.53-1.21,3.35,3.35,0,0,1,.38-1.36,2.81,2.81,0,0,0,.39-.93,3.16,3.16,0,0,1,.25-.77l.14-.48.15-.21a1.08,1.08,0,0,0,.23-.41l.1-.24c0-.19,0-.29-.15-.31a.46.46,0,0,0-.4.25l-.07.06-.41-.14c-.07,0-.16.16-.25.48a.38.38,0,0,1-.34.17,1.06,1.06,0,0,0-.6.46l-.09,0a.8.8,0,0,0-.19,0c-.18.23-.29.34-.36.33s-.12-.07-.18-.2a.64.64,0,0,0-.23-.3.28.28,0,0,1-.14-.25c0-.25.29-.54.8-.87a.57.57,0,0,0,.22-.22c0-.07.17-.11.44-.1A1.06,1.06,0,0,0,187.29,63.41Z"/><path class="cls-6" d="M200,65.24l.38-.2a.39.39,0,0,0,.48-.31.87.87,0,0,1,.64-.53l.24-.22a4.25,4.25,0,0,1,1.4-.37,1.16,1.16,0,0,0,.41-.21l.07,0,.24.12a2.06,2.06,0,0,0,.55,0,2,2,0,0,1,.64,0l.66.09a1,1,0,0,1,.24.15,1.14,1.14,0,0,0,.46.19.85.85,0,0,1,.57.43,1,1,0,0,1,.18.64,1.51,1.51,0,0,1-.7.89,2,2,0,0,1-.9.4,1.78,1.78,0,0,1-.47.26,1,1,0,0,0-.33.16c-.12.08-.21.12-.28.1a.08.08,0,0,1-.08,0,.15.15,0,0,0-.09-.06c-.17,0-.39.14-.66.5l-.28-.08a.83.83,0,0,0-.42.31.32.32,0,0,1-.36.14q-.69.47-.9.42a1.08,1.08,0,0,1-.2-.1.5.5,0,0,0-.19.3c0,.13-.12.18-.29.17l-.24.15-.15-.06-.38.27a.92.92,0,0,0-.51.06l-.19.46c-.08.18-.12.29-.13.31-.06.3.19.5.75.61l.77,0a1,1,0,0,0,.58,0,1.09,1.09,0,0,1,.59-.05,1,1,0,0,0,.29,0l.15.1a1,1,0,0,1,.49-.35,1.07,1.07,0,0,1,.5-.09l.18-.07a.42.42,0,0,1,.23-.21l.15-.09a.35.35,0,0,1,.26-.07l.22,0,.07,0a.77.77,0,0,1,.61-.38.61.61,0,0,0,.47-.14.39.39,0,0,1,.34-.13.57.57,0,0,0,.41-.14,1.82,1.82,0,0,1,.43-.26l.35-.18a.26.26,0,0,1,.17,0c.06,0,.08.07.07.16s0,.15,0,.15a.05.05,0,0,0,.07,0,.42.42,0,0,0,0-.16l0-.11a.31.31,0,0,1,.31-.26l.79-.32c.06-.21.15-.33.25-.35a.53.53,0,0,0,.25-.08.22.22,0,0,1,.19,0c.14,0,.19.11.16.27l-.16.39v.44a.54.54,0,0,1-.2.23,1.19,1.19,0,0,0-.33.45q-.14.33-.27.33l-.1,0a1.4,1.4,0,0,1-.51.27.47.47,0,0,0-.3.14l-.65.51-.32.23c-.09.07-.15.1-.2.09l-.1-.15s0,0-.05,0-.18,0-.24.15a.64.64,0,0,1-.22.29,1.84,1.84,0,0,0-.69.29l-.1,0-.29-.06c-.13,0-.24.06-.34.25a.49.49,0,0,1-.51.27,1,1,0,0,0-.56.08.4.4,0,0,1-.16,0,2.05,2.05,0,0,0-.48.16l-1.41.22a.53.53,0,0,1-.22,0l-.45,0a.25.25,0,0,1-.16-.16c-.05-.1-.08-.15-.1-.15l-.3,0a2.52,2.52,0,0,1-.62,0,.7.7,0,0,1-.32-.18,1.68,1.68,0,0,0-.27-.21c-.3-.06-.47-.34-.5-.83h-.19a3.92,3.92,0,0,1-.21-1.19.56.56,0,0,0-.26-.24.28.28,0,0,1-.15-.34,1.2,1.2,0,0,1,.49-.89,1,1,0,0,0,.41-.3l.38-.77a.94.94,0,0,0,.21-.29l.49-.58C199.7,65.67,199.83,65.51,200,65.24Zm3.49-.29-.21.06-.42.2a3.36,3.36,0,0,1-.67.27,1.82,1.82,0,0,0-.74.66,3.52,3.52,0,0,0-.45.66c0,.07,0,.1.08.12l.58-.14a2.18,2.18,0,0,0,.62-.25,6.76,6.76,0,0,1,.85-.38l.15-.11a1.42,1.42,0,0,1,.33-.17,1.57,1.57,0,0,0,.45-.24l.17,0a1.18,1.18,0,0,1,.64-.42c.19,0,.29-.07.31-.13s-.07-.21-.26-.25a1,1,0,0,0-.41.09l-.36-.07a1.05,1.05,0,0,0-.38.12Z"/><path class="cls-6" d="M211.75,66.55H212l.15-.17a4,4,0,0,0,1.32-.52.38.38,0,0,1,.18-.08.89.89,0,0,0,.29-.15,1.91,1.91,0,0,1,1.51-.16c.61.18.83.65.65,1.4l0,.26a6.16,6.16,0,0,1,.09,1,4.77,4.77,0,0,1,0,.88,1.71,1.71,0,0,1-.51.75,5.42,5.42,0,0,0-1.36.84l-.19.06a3,3,0,0,1-.48.45c-.23,0-.35.06-.37.14l-.09.28s0,0-.1.1a2.39,2.39,0,0,0-.3.29l-.17.15a.63.63,0,0,0-.2.22,1.28,1.28,0,0,1-.28.29.49.49,0,0,0-.19.21c0,.15.13.29.53.4a1,1,0,0,0,.26,0l.19.12s.08,0,.19-.05a1,1,0,0,1,.42,0,1.64,1.64,0,0,0,.5,0,2.47,2.47,0,0,1,.52-.08,1.73,1.73,0,0,0,.6-.14,1.89,1.89,0,0,1,.57-.16,1.28,1.28,0,0,0,.52-.15,3.32,3.32,0,0,1,.58-.22,6.3,6.3,0,0,0,1-.49,2,2,0,0,1,.6-.17s.15-.1.39-.32a.68.68,0,0,1,.66-.25c.21.07.29.2.23.4a.45.45,0,0,1-.25.28l0,.09,0,.25a.27.27,0,0,1,0,.15s-.07.09-.17.15a.73.73,0,0,0-.25.27.38.38,0,0,1-.37.16c-.12.21-.24.31-.35.31a1.29,1.29,0,0,0-.49.19,7.46,7.46,0,0,1-.92.39,6.06,6.06,0,0,0-.81.35.59.59,0,0,1-.29.12.41.41,0,0,1-.11-.1s-.08-.09-.1-.09-.12,0-.18.17l-.11.14a.9.9,0,0,1-.27,0l-.08-.06h-.06c-.12,0-.2,0-.22.08l0,.18v0c0,.14-.14.19-.3.14a3.48,3.48,0,0,0-1.15.28l-.47,0-.43.09a.83.83,0,0,0-.19-.18h-.27l-.45-.1-.47-.47a1.4,1.4,0,0,1-.47-.8,4.33,4.33,0,0,0-.09-.7,1.35,1.35,0,0,1,0-.49,3.28,3.28,0,0,1,.44-1,3,3,0,0,0,.29-.42.88.88,0,0,1,.27-.28,1.38,1.38,0,0,0,.41-.5,7.87,7.87,0,0,1,.93-.9,1.6,1.6,0,0,0,.41-.41l.28-.22a.81.81,0,0,0,.16-.21c.08-.12.15-.19.22-.19A1,1,0,0,0,214,68c.08-.29,0-.48-.27-.56-.05,0-.12,0-.22.11a1,1,0,0,1-.51.19,1.66,1.66,0,0,0-.47.11,1.39,1.39,0,0,1-.39.09,1.28,1.28,0,0,0-.54.23l-.29,0c-.14.17-.25.25-.31.25s-.28,0-.62,0a.77.77,0,0,0-.2.14.43.43,0,0,1-.4.06,4.15,4.15,0,0,0-.5.32,1.46,1.46,0,0,0-.36,0l-.32,0a1.81,1.81,0,0,0-.36.21.63.63,0,0,1-.6,0c-.15,0-.19-.19-.12-.44a1.53,1.53,0,0,1,.88-1,2.19,2.19,0,0,1,.91-.25.35.35,0,0,0,.36-.09.56.56,0,0,1,.38-.16,1.77,1.77,0,0,0,.68-.28,1.67,1.67,0,0,1,.82-.26Z"/><path class="cls-6" d="M225.84,78l-.94.31a.15.15,0,0,0-.09-.1.59.59,0,0,0-.47.11c-.22.12-.35.17-.41.14l-.14-.09a2.15,2.15,0,0,1-.66.11,1.75,1.75,0,0,0-.46,0,1.37,1.37,0,0,1-.47,0,.52.52,0,0,0-.35,0,1,1,0,0,1-.62-.13l-.23-.12a.87.87,0,0,1-.28,0,.39.39,0,0,1-.2-.23.59.59,0,0,0-.23-.26.5.5,0,0,1-.23-.33,1.18,1.18,0,0,0-.2-.39.69.69,0,0,1-.14-.3l-.13-.26a1.9,1.9,0,0,1-.22-.85,1.85,1.85,0,0,1,.07-.84l0-.06.15-.26.1-.34a1.14,1.14,0,0,0,.25-.19l.2-.47.84-1s0-.13,0-.24a.71.71,0,0,1-.41.14.32.32,0,0,0-.28.12q-.12.15-.24.09l-.16-.13a2.5,2.5,0,0,0-.25.25.4.4,0,0,1-.47.12c-.18-.07-.24-.18-.18-.31l.14-.26.06-.4c0-.08.17-.2.43-.37a1,1,0,0,1,.6-.22.63.63,0,0,0,.45-.13,2.35,2.35,0,0,1,.84-.31.8.8,0,0,0,.62-.19,1.85,1.85,0,0,1,.64,0,1.14,1.14,0,0,0,.63-.1,4.63,4.63,0,0,1,1.26-.2,3.57,3.57,0,0,1,1.39.08,1.26,1.26,0,0,0,.35.07l.44,0a2.1,2.1,0,0,0,.43,0,.79.79,0,0,1,.36,0l.36.32a3.62,3.62,0,0,1,.5.43,1.69,1.69,0,0,0,.25.25,3.63,3.63,0,0,1,.46.49.68.68,0,0,1,0,.72,3.77,3.77,0,0,0-.41.3s.07.14.26.31c0,.18.06.42.12.73l-.05.58-.47,1.22-.08.1a.73.73,0,0,0-.24.13l-.07.31-.29.37a.42.42,0,0,1-.25.18.38.38,0,0,0-.2.1l-.13.08a2.56,2.56,0,0,0-.24.2,1.21,1.21,0,0,1-.35.25.55.55,0,0,0-.26.22.33.33,0,0,1-.25.17.69.69,0,0,0-.23.09A.45.45,0,0,1,225.84,78Zm-4.73-1.51-.08.36v0l.24.1.06.06a2.55,2.55,0,0,0,.42.24,1.14,1.14,0,0,0,.82.07,1,1,0,0,1,.53,0,.34.34,0,0,0,.36-.1c.14-.12.21-.18.23-.17l.21.09H224a.55.55,0,0,1,.5-.36,1,1,0,0,0,.59-.21,1.17,1.17,0,0,1,.44-.25.65.65,0,0,0,.35-.24l.19-.13a.38.38,0,0,0,.16-.2l.49-.41a3.4,3.4,0,0,0,.33-.54.59.59,0,0,0-.12-.62.78.78,0,0,1,0-.82.92.92,0,0,1,.61-.49,1.25,1.25,0,0,0,.49-.2.08.08,0,0,0-.06-.12,1.35,1.35,0,0,0-.38,0,2.7,2.7,0,0,1-1.27.11c-.17-.18-.26-.28-.28-.29s-.14,0-.25.11a.8.8,0,0,1-.28.17l-.19-.07s-.11,0-.27.11a.56.56,0,0,1-.49,0l-.25.1a.66.66,0,0,1-.49.37l-.24.12c-.15.08-.33.16-.56.26l-.54.55a1.7,1.7,0,0,0-.39.51.57.57,0,0,1-.28.1.29.29,0,0,0-.25.18s0,.08,0,.19a.52.52,0,0,1,0,.22l-.14.17-.28.52Z"/><path class="cls-6" d="M251.64,91.22l0,0a1.62,1.62,0,0,1-.49.14l-.2-.14-.1,0a1.16,1.16,0,0,1-.72,0l-.22-.24-.05,0a.58.58,0,0,0-.48,0,.55.55,0,0,1-.51-.06,1.1,1.1,0,0,1-.23-.28.66.66,0,0,1-.63-.13l-1-.13a1.67,1.67,0,0,0-.29,0,.84.84,0,0,1-.3-.12,1.09,1.09,0,0,0-.45-.13.83.83,0,0,1-.39-.11l-.23-.3a2.22,2.22,0,0,1-1.13-.24,6.64,6.64,0,0,0-.71-.34l-.38-.23-.66-.25a1.56,1.56,0,0,1-.51-.24,1.11,1.11,0,0,1-.43-.68,2.41,2.41,0,0,0-.52,0l-.1,0s0,0-.08-.11a.28.28,0,0,0-.1-.13.22.22,0,0,0-.12,0,.36.36,0,0,1-.18-.07,1.38,1.38,0,0,1-.22-.57.32.32,0,0,1-.23,0,.75.75,0,0,1-.2-.84l-.27-.08s0-.14,0-.34a1.18,1.18,0,0,1,.19-.48c.23-.33,1.36-.45,3.4-.35a19.72,19.72,0,0,1,3.7.37H247a.34.34,0,0,1,.23,0l.09.15.08.05a.27.27,0,0,0,.35,0,.35.35,0,0,1,.44,0l.15.06,2,.23.91.24a9.9,9.9,0,0,0,1.08.25,2.56,2.56,0,0,1,.85.3h.19a1.06,1.06,0,0,1,.41.16.93.93,0,0,1,.27,1.47l-.5.27a.75.75,0,0,1-.85.07.22.22,0,0,1-.11-.18c0-.08,0-.12,0-.14l-.68-.44-.21-.31a2.39,2.39,0,0,1-.37-.11l-.21-.15a2,2,0,0,0-.49-.05l-.43-.11a9.37,9.37,0,0,0-1.92-.54,4.81,4.81,0,0,1-1.43-.38,1.3,1.3,0,0,0-.62,0,1.89,1.89,0,0,1-.9-.12c-1.58-.24-2.45-.25-2.62,0s.33.68,1.4,1.44a2.19,2.19,0,0,0,1,.52l1.61.67.23,0,.27.2a.91.91,0,0,0,.47.11,1,1,0,0,1,.58.2.79.79,0,0,0,.44.13,1.18,1.18,0,0,1,.39.07.63.63,0,0,0,.25.07,3.8,3.8,0,0,1,.54.17.88.88,0,0,0,.6.09l.21,0,.35,0,.15.11a1.34,1.34,0,0,0,.38,0l.86.08.16.11c.17.12.44.09.82-.09a.73.73,0,0,1,.5.14,3.56,3.56,0,0,0,1.33-.09l.52,0c.34,0,.62-.09.82-.14,0,0,0,0,.05,0l.19.17.08-.06,0-.11,0,0a.2.2,0,0,1,.22-.08c.09,0,.15,0,.17,0l.12-.33a.25.25,0,0,0,.16-.12.6.6,0,0,0,.05-.61l0-.1.07-.11a1.93,1.93,0,0,0-.24-.29,1.39,1.39,0,0,0-.32-1,12.16,12.16,0,0,0-1.37-1.65l-1-1-.57-.32a2.82,2.82,0,0,1-.35-.32,2.27,2.27,0,0,0-.33-.32,1.35,1.35,0,0,1-.3-.34,2.43,2.43,0,0,1-.54-.21l-.25-.3-.42-.21c-.74-.53-1-.9-.88-1.12a2,2,0,0,1,2.27-.67,1.84,1.84,0,0,0,.43.07l1.28.41a1.48,1.48,0,0,0,.47.12l.59.12.25,0,.16.07a1.44,1.44,0,0,1,.63,0,9.11,9.11,0,0,0,1.51.14,6.57,6.57,0,0,0,1.26,0l.31,0c.13,0,.29-.09.47-.34a.45.45,0,0,0,0-.54l-.08-.22s0-.1-.07-.17a1.92,1.92,0,0,1-.16-.21,10.69,10.69,0,0,0-1.05-1l-.67-.67-.34-.16-.29-.25-.71-.24-.12-.35s0,0,0-.06a.39.39,0,0,0-.24,0,.33.33,0,0,1-.31,0,1.8,1.8,0,0,1-.38-.35l-.05,0c-.13-.09-.23-.1-.29,0a2.45,2.45,0,0,0-.1.73l-.22.19-.19.32a.8.8,0,0,1-.43.2l-.15.15a10.43,10.43,0,0,1-.89.56,9,9,0,0,0-.77.49l-1.1.59-.26.21a10.64,10.64,0,0,1-1.13.69,2.17,2.17,0,0,0-.51.31,1.52,1.52,0,0,1-.57.28l-1.57,1a1.39,1.39,0,0,1-.33.06,9.5,9.5,0,0,0-.81.58,1.48,1.48,0,0,1-.71.54l-.22.21a1.06,1.06,0,0,1-.28.16,3.52,3.52,0,0,0-.4.24c-.1.08-.19.09-.26,0a1,1,0,0,1-.32-1,2.52,2.52,0,0,0,0-.87,1,1,0,0,1,.14-.67,2.11,2.11,0,0,1,.73-.53c.38-.2.64-.34.76-.42a2.44,2.44,0,0,1,.43-.23,2.84,2.84,0,0,0,.4-.23.68.68,0,0,1,.25-.12.9.9,0,0,0,.53-.32.84.84,0,0,1,.67-.26.4.4,0,0,1,.08-.16.51.51,0,0,1,.34-.15.86.86,0,0,0,.41-.16l.28-.19.14,0a1.51,1.51,0,0,0,.22-.22.23.23,0,0,1,.32,0c.29-.31.49-.45.62-.41a1.36,1.36,0,0,0,.48,0,.43.43,0,0,1,0-.31.71.71,0,0,1,.65-.27.91.91,0,0,0,0-.17.35.35,0,0,1,0-.12l.83-.51a1.57,1.57,0,0,1,.85-.26l0,0,.17-.4c.08-.13.29-.14.62,0a.44.44,0,0,0,.32-.21l-.07,0-.15-.23-.65-.3a6.6,6.6,0,0,0-.8-.25l-.12-.16-.06-.05a.66.66,0,0,0-.28,0h-.15a.64.64,0,0,0-.13-.15,2.81,2.81,0,0,0-.72-.38,1.31,1.31,0,0,1-.5-.27l-.35-.09L251,74l-.16,0a2,2,0,0,1-.54-.16l-.15-.18a2,2,0,0,0-.5,0,1.26,1.26,0,0,1-.64-.11.59.59,0,0,0-.35-.11l-.39,0-.32.12a.62.62,0,0,1-.5.11,1.51,1.51,0,0,0-.47,0,.31.31,0,0,1-.24,0c-.11-.07-.17-.23-.2-.48a.77.77,0,0,1,.07-.52,1.13,1.13,0,0,1,.7-.51l.81-.19a3.34,3.34,0,0,1,1.41.34,4.84,4.84,0,0,0,1,.37s0,0,.05,0l.16.24c0,.07.17.08.41,0a6.93,6.93,0,0,1,2.09.77l.05,0,.33.27.35.09a1.81,1.81,0,0,1,.5.2.59.59,0,0,1,.18.19.15.15,0,0,0,.07.12c.05,0,.15,0,.31,0a2.2,2.2,0,0,1,.8.31,5.14,5.14,0,0,0,.79.39l.08,0,.3.25.74.35.84.69.45.22.32.27.79.48,1.06,1a4.47,4.47,0,0,1,1,1.48,5.48,5.48,0,0,1,.45,1.29,1.2,1.2,0,0,1-.26.81,3,3,0,0,1-2.6.94,8.09,8.09,0,0,1-2.81-.34,3.77,3.77,0,0,0-1.23-.23c0,.06.09.23.39.52a3.81,3.81,0,0,1,.54.61l.18.27a5.55,5.55,0,0,1,.38.54,3.42,3.42,0,0,0,.45.59q1.16,1.66,1,2.43a1.52,1.52,0,0,0,.17.19c.1.11.06.39-.11.85.13.13.09.43-.1.89l-.06.19a.85.85,0,0,1-.11.33c-.49.69-.85,1-1.07,1a.51.51,0,0,0-.23.17,2.48,2.48,0,0,1-1,.32,1.89,1.89,0,0,1-1.1,0,1,1,0,0,0-.38.06h-.2a1.45,1.45,0,0,0-.41,0,.27.27,0,0,1-.2,0,.46.46,0,0,0-.3.07.35.35,0,0,1-.37,0,.53.53,0,0,0-.1-.14l0,0A1.76,1.76,0,0,1,251.64,91.22Z"/><path class="cls-6" d="M260.26,101.56l-1,0a.22.22,0,0,0,0-.13c-.08-.08-.24-.1-.48-.07s-.39,0-.44,0l-.09-.13a2.13,2.13,0,0,1-.66-.15,2.25,2.25,0,0,0-.42-.17,1.17,1.17,0,0,1-.42-.2.48.48,0,0,0-.33-.13,1.09,1.09,0,0,1-.53-.35l-.16-.2a.78.78,0,0,1-.26-.12.43.43,0,0,1-.11-.28.5.5,0,0,0-.11-.33.52.52,0,0,1-.1-.4,1.13,1.13,0,0,0,0-.43.74.74,0,0,1,0-.33l0-.3a2.59,2.59,0,0,1,.48-1.62l0,0,.23-.2.22-.27a1,1,0,0,0,.31-.09l.35-.36,1.16-.66c.05,0,.07-.1.05-.23a.63.63,0,0,1-.42,0,.33.33,0,0,0-.32,0,.19.19,0,0,1-.25,0l-.09-.18a1.27,1.27,0,0,0-.34.13.4.4,0,0,1-.48,0c-.14-.13-.15-.26-.05-.36l.22-.19.21-.35a1.31,1.31,0,0,1,.53-.18,1,1,0,0,1,.64,0,.58.58,0,0,0,.47,0,2.34,2.34,0,0,1,.9,0,.8.8,0,0,0,.64,0,1.89,1.89,0,0,1,.62.19,1.14,1.14,0,0,0,.61.15,4.2,4.2,0,0,1,1.25.27,3.26,3.26,0,0,1,1.26.59,1.55,1.55,0,0,0,.31.19c.14.07.27.13.38.2a2.19,2.19,0,0,0,.41.15.73.73,0,0,1,.33.14l.22.44a3.51,3.51,0,0,1,.3.58,1.51,1.51,0,0,0,.15.33,4,4,0,0,1,.24.62.69.69,0,0,1-.23.69,2.29,2.29,0,0,0-.5.12s0,.16.14.39a6.08,6.08,0,0,0-.16.71l-.26.53-.89,1-.11.07a.53.53,0,0,0-.27,0l-.19.27-.4.23a.34.34,0,0,1-.3.08.3.3,0,0,0-.21,0l-.16,0-.29.11a1.26,1.26,0,0,1-.42.1.58.58,0,0,0-.32.1.37.37,0,0,1-.29.08.54.54,0,0,0-.25,0A.41.41,0,0,1,260.26,101.56Zm-3.85-3.14-.21.31v0l.18.18,0,.08a2.5,2.5,0,0,0,.3.38,1.15,1.15,0,0,0,.74.36.84.84,0,0,1,.5.15.35.35,0,0,0,.38,0c.17,0,.26-.08.28-.06l.16.15.07,0a.55.55,0,0,1,.6-.15,1,1,0,0,0,.62,0,1.16,1.16,0,0,1,.5-.07.69.69,0,0,0,.42-.1l.22,0a.4.4,0,0,0,.22-.13l.61-.21a2.36,2.36,0,0,0,.5-.38.56.56,0,0,0,.12-.61.8.8,0,0,1,.28-.78.91.91,0,0,1,.74-.23,1.21,1.21,0,0,0,.53,0,.08.08,0,0,0,0-.13,1.73,1.73,0,0,0-.35-.16,2.63,2.63,0,0,1-1.22-.36c-.09-.23-.14-.36-.15-.37s-.14,0-.27,0a.77.77,0,0,1-.33.06l-.15-.14a.94.94,0,0,0-.29,0,.56.56,0,0,1-.46-.16h-.27a.7.7,0,0,1-.6.16l-.27,0a5.16,5.16,0,0,1-.61,0l-.7.32A1.87,1.87,0,0,0,258,97a.46.46,0,0,1-.29,0,.28.28,0,0,0-.3.07s0,.08,0,.19a.38.38,0,0,1-.06.22l-.19.1-.45.38Z"/><path class="cls-6" d="M272.63,113.66l0,0,.05.17.06,0a.53.53,0,0,1,.52-.09.71.71,0,0,1,.59,0l1,.36.53.09.19.09h.21a.44.44,0,0,1,.37.13c.1.12.1.22,0,.29l-.34.09-.36.38a.77.77,0,0,1-.53.17l-.89-.07-1.18-.1-.45-.19a2,2,0,0,0-.35-.09l-.8-.15a.4.4,0,0,1-.35.1l-.16-.2-.13-.06a1.29,1.29,0,0,1-.87-.14l-.27-.07a.42.42,0,0,1-.2-.1l-.23-.39-.24-.2a.87.87,0,0,1-.12-.35,1.73,1.73,0,0,0-.12-.46,1.47,1.47,0,0,1,.11-.81,2.51,2.51,0,0,1,.29-.72.78.78,0,0,0,.12-.19.58.58,0,0,1,.1-.17,1.19,1.19,0,0,1,.34-.09l0,0a.56.56,0,0,0,.12-.21,1,1,0,0,1,.28-.34,1,1,0,0,0,.23-.3.46.46,0,0,0,.23,0,.61.61,0,0,0,.11-.16.73.73,0,0,1,.11-.15l.67-.41.27-.3.32-.22c.17-.14.2-.28.08-.43a.57.57,0,0,0-.34-.14l-.09-.06a3.16,3.16,0,0,0-.65-.26.56.56,0,0,1-.33-.2,1,1,0,0,1-.37-.17l-.15,0a1.75,1.75,0,0,1-.31-.08,3.35,3.35,0,0,1-.79-.13c-.5-.1-1-.19-1.39-.26a2,2,0,0,1-.8-.24q-.17-.15-.45.09a.79.79,0,0,1-.38-.07l-.48,0a.89.89,0,0,0,0-.34c-.08-.11-.29-.07-.6.1-.15,0-.32,0-.52-.24a.66.66,0,0,0-.25.06H264l-.1-.12a.77.77,0,0,0-.29-.06,1.06,1.06,0,0,1-.39-.12c-.31.07-.49.07-.55,0a.5.5,0,0,1-.07-.19,2.08,2.08,0,0,0-.1-.3.78.78,0,0,1,.06-.54,1.22,1.22,0,0,1,.32-.54c.92-.74,1.56-1,1.93-.67l.07,0,.1-.08a.3.3,0,0,1,.35,0,1,1,0,0,0,.5.07,1.3,1.3,0,0,1,.39,0l.13.17s.13,0,.3-.17a.3.3,0,0,1,.19,0,.39.39,0,0,0,.24-.07,1.32,1.32,0,0,1,.53-.13,1.61,1.61,0,0,0,.45-.09l0-.07a1.63,1.63,0,0,1-.67-.19,1,1,0,0,0-.66-.08l-.12-.23a5.48,5.48,0,0,1-1-.3.83.83,0,0,0-.5,0,.14.14,0,0,1-.17,0,2,2,0,0,0-.46-.16l-.06-.08c-.17-.21-.1-.43.19-.67l.92-.31a1.34,1.34,0,0,1,1,.07,8.13,8.13,0,0,0,1,.35,1.24,1.24,0,0,1,.69.39l.19,0a1.19,1.19,0,0,0,1,.16.62.62,0,0,1,.68.13,1.54,1.54,0,0,1,.33,1.45,2,2,0,0,1-.51,1l-.31.3a3.65,3.65,0,0,1-.54.32.92.92,0,0,0-.46.12c-.07.05-.07.12,0,.2a.43.43,0,0,0,.27.11,2.41,2.41,0,0,1,.41.13.57.57,0,0,0,.3.06.9.9,0,0,1,.76.1,1.55,1.55,0,0,0,.49.24l.2,0,.27,0a2,2,0,0,0,.63.23.64.64,0,0,1,.4.16,1.33,1.33,0,0,0,.56.25l.2.14.24.09.18.1.43.26a1.86,1.86,0,0,1,.36.26,1.46,1.46,0,0,1,.29,1.4,2,2,0,0,1-.52,1l-.24.16-.3.32-.05,0-.76.45-.22.21a1.3,1.3,0,0,1-1,.4c-.05,0-.11,0-.18,0l-.11.09-.32.67c-.12.22-.17.35-.13.39l.43.31a.6.6,0,0,0,.49.08,2.77,2.77,0,0,0,.58.11A.33.33,0,0,1,272.63,113.66Z"/><path class="cls-6" d="M278.24,116l.41.14a.4.4,0,0,0,.56.14.88.88,0,0,1,.82.11l.33,0a4.47,4.47,0,0,1,1.22.77,1.22,1.22,0,0,0,.43.16l.07,0,.08.25a1.63,1.63,0,0,0,.37.39,1.87,1.87,0,0,1,.43.47l.38.55a.6.6,0,0,1,.06.28,1.22,1.22,0,0,0,.18.46.84.84,0,0,1,.07.72.9.9,0,0,1-.34.56,1.46,1.46,0,0,1-1.12.1,1.86,1.86,0,0,1-.92-.38,1.83,1.83,0,0,1-.51-.17,1.21,1.21,0,0,0-.34-.13.41.41,0,0,1-.26-.13.1.1,0,0,1,0-.1.1.1,0,0,0,0-.1c-.09-.15-.36-.19-.82-.14l-.12-.26a.86.86,0,0,0-.51-.1.33.33,0,0,1-.36-.17c-.54-.12-.85-.24-.92-.36a1.56,1.56,0,0,1-.06-.22.46.46,0,0,0-.35.07c-.11.07-.22,0-.33-.1l-.27-.07-.06-.16-.45-.09a1,1,0,0,0-.4-.33l-.46.18a2.11,2.11,0,0,0-.31.12q-.39.24.06,1l.5.59a1,1,0,0,0,.43.39,1,1,0,0,1,.44.4,1.17,1.17,0,0,0,.2.21l0,.16a1.4,1.4,0,0,1,1,.43l.16.08a.42.42,0,0,1,.32,0l.16,0a.39.39,0,0,1,.24.13l.12.19.06,0a.78.78,0,0,1,.69.19.65.65,0,0,0,.43.25.35.35,0,0,1,.32.16.62.62,0,0,0,.39.2,1.85,1.85,0,0,1,.48.14,3.49,3.49,0,0,0,.37.13.22.22,0,0,1,.15.09s0,.11-.07.16-.11.09-.09.13a.06.06,0,0,0,.09,0l.12-.11.09-.06a.32.32,0,0,1,.41,0l.77.37c.2-.11.34-.12.43-.06a.6.6,0,0,0,.23.13.25.25,0,0,1,.15.11q.12.18-.09.3l-.39.16-.33.29c-.05,0-.15,0-.3,0a1.16,1.16,0,0,0-.55.08c-.23.08-.37.08-.43,0l-.05-.08a1.4,1.4,0,0,1-.55-.19.45.45,0,0,0-.31-.12l-.81-.13-.39-.08c-.11,0-.18,0-.2-.08l0-.17s0,0,0-.08a.2.2,0,0,0-.27-.06.82.82,0,0,1-.38,0,1.6,1.6,0,0,0-.68-.3l-.08-.07-.15-.24c-.07-.12-.21-.14-.41-.08a.48.48,0,0,1-.55-.19.92.92,0,0,0-.44-.35.51.51,0,0,1-.14-.09,1.81,1.81,0,0,0-.45-.25l-1.11-.88c-.11-.06-.17-.1-.18-.13l-.29-.34c0-.06,0-.13,0-.24a.28.28,0,0,0,0-.17l-.23-.19a1.93,1.93,0,0,1-.4-.47.69.69,0,0,1-.1-.35,2.68,2.68,0,0,0,0-.34c-.16-.27-.08-.58.26-.94l-.13-.14a4.72,4.72,0,0,1,.73-1,.47.47,0,0,0,0-.35.28.28,0,0,1,.16-.34,1.16,1.16,0,0,1,1-.25,1,1,0,0,0,.5.09l.82-.25a.85.85,0,0,0,.35,0l.77,0Zm2.6,2.35-.18-.11-.44-.17a4.07,4.07,0,0,1-.66-.3,1.75,1.75,0,0,0-1-.09,4,4,0,0,0-.78.12c-.06,0-.07.08,0,.13l.49.34a2.6,2.6,0,0,0,.61.28,8.24,8.24,0,0,1,.86.35l.18,0a1.28,1.28,0,0,1,.35.13,1.78,1.78,0,0,0,.48.16l.14.1a1.13,1.13,0,0,1,.74.19c.15.12.26.16.31.13s.11-.19,0-.36a.86.86,0,0,0-.34-.24l-.19-.31a1.21,1.21,0,0,0-.35-.19Z"/><path class="cls-6" d="M284.93,125.07h.45a2.07,2.07,0,0,1,.38.09,2.11,2.11,0,0,0,.84-.07,2.14,2.14,0,0,1,.95,0,.76.76,0,0,1,.5.45,1.24,1.24,0,0,1,.09.67,2.7,2.7,0,0,1-.89,1.32,6.64,6.64,0,0,1-1.29,1.08,1.65,1.65,0,0,0-.38.32,2.67,2.67,0,0,1-.34.34,1.46,1.46,0,0,0-.33,0l-.56.33-.56.07-.34.18a1.32,1.32,0,0,0-.44,0,.47.47,0,0,0-.14.14,2.58,2.58,0,0,0,.88.57.76.76,0,0,1,.36.17,1.6,1.6,0,0,0,.6.25l.28.2.42.08a.67.67,0,0,1,.32.14,1.42,1.42,0,0,0,.36.21,4.72,4.72,0,0,1,.6.37l.24.05a2,2,0,0,1,.65.31,2.71,2.71,0,0,1,.3.25c0,.06,0,.17-.16.34a1.47,1.47,0,0,1-.46.37.73.73,0,0,1-.61,0,4.59,4.59,0,0,0-.54-.2,1,1,0,0,1-.44-.35l-.82-.17-.31-.19-.26,0s-.15-.11-.31-.32c0,0-.06,0-.18,0a.43.43,0,0,1-.35-.21,4.08,4.08,0,0,0-.79-.25l-.21-.27a1,1,0,0,1-.4,0q-.27-.3-.48-.24a.4.4,0,0,1-.13-.11l-.07,0a1.56,1.56,0,0,1-.64-.48l-.26-.28-.23,0s-.16-.06-.36-.25a1.4,1.4,0,0,0-.55-.37l-.31-.15a1.68,1.68,0,0,0-.59-.39l-.1-.2a1.6,1.6,0,0,0-.61-.47,1.54,1.54,0,0,1-.65-.53,2.48,2.48,0,0,1-.37-1.23,2.11,2.11,0,0,1,.25-.77,3.38,3.38,0,0,0,.3-.61.61.61,0,0,1,.22-.32.29.29,0,0,1,.26,0,1.51,1.51,0,0,0,.56.08c.25,0,.52.2.8.59a1,1,0,0,0,.19.16.86.86,0,0,1,.23.25.62.62,0,0,1-.07.49s0,0,0,.07l.14.21a.57.57,0,0,0,0,.27,1.26,1.26,0,0,0,.71.55l.06,0,.06.11s.12,0,.31,0l.62,0,.89.17.15-.07a1,1,0,0,1,.3-.05l.21-.11c.08,0,.17,0,.25.09a.2.2,0,0,0,.26.08l.1-.09a.65.65,0,0,1,.18-.24H284l.28-.18h.15l.19-.17L285,127l.23-.21c.14-.14.2-.23.19-.25a2,2,0,0,0-.72-.32,3,3,0,0,0-.9-.21.92.92,0,0,1-.52-.2,1,1,0,0,0-.53-.2.42.42,0,0,1-.33-.13l-1.26-.56-1.3-.64c-.12,0-.19-.05-.2-.07-.18-.36-.07-.63.31-.83a2.41,2.41,0,0,1,.78-.13l.16.11s.06,0,.07,0,0,0,0,0v.14a5.27,5.27,0,0,1,.76.47.65.65,0,0,0,.46.12l.73.38a9,9,0,0,0,1,.37A5.13,5.13,0,0,0,284.93,125.07Z"/><path class="cls-6" d="M288.87,133.16l.45.05a2.25,2.25,0,0,1,.37.12,2.25,2.25,0,0,0,.85,0,2.19,2.19,0,0,1,.95,0,.78.78,0,0,1,.46.48,1.27,1.27,0,0,1,0,.67c0,.31-.37.72-1,1.25a6.94,6.94,0,0,1-1.37,1,1.28,1.28,0,0,0-.4.29,4.62,4.62,0,0,1-.37.31h-.32l-.59.28-.56,0-.35.15a1,1,0,0,0-.45,0,.27.27,0,0,0-.15.13,2.56,2.56,0,0,0,.83.63.76.76,0,0,1,.35.19,1.67,1.67,0,0,0,.58.3l.26.22.42.12a.62.62,0,0,1,.3.16,2.05,2.05,0,0,0,.35.24,3.79,3.79,0,0,1,.57.41l.24.08a1.62,1.62,0,0,1,.61.35,2.12,2.12,0,0,1,.29.27c0,.06,0,.17-.18.32a1.55,1.55,0,0,1-.49.34.75.75,0,0,1-.62-.08c-.24-.12-.41-.2-.52-.24s-.24-.16-.4-.38l-.81-.23-.3-.22-.25-.06c-.05,0-.14-.12-.29-.35h-.17c-.11,0-.23-.06-.34-.22a5,5,0,0,0-.77-.32l-.19-.28a1.24,1.24,0,0,1-.4,0c-.16-.21-.31-.3-.46-.28a.66.66,0,0,1-.12-.12l-.07,0a1.64,1.64,0,0,1-.6-.52l-.23-.3-.23,0c-.05,0-.16-.07-.34-.28a1.53,1.53,0,0,0-.52-.41l-.3-.17a1.6,1.6,0,0,0-.56-.43l-.09-.21a1.46,1.46,0,0,0-.57-.51,1.57,1.57,0,0,1-.6-.58,2.48,2.48,0,0,1-.28-1.26,2.12,2.12,0,0,1,.31-.74,5.26,5.26,0,0,0,.35-.59q.12-.25.24-.3a.3.3,0,0,1,.26,0,1.26,1.26,0,0,0,.55.13c.25,0,.5.23.75.65a1.32,1.32,0,0,0,.18.18.67.67,0,0,1,.21.26.62.62,0,0,1-.11.48s0,0,0,.07l.13.22a.47.47,0,0,0,0,.27,1.3,1.3,0,0,0,.67.6l.05,0,0,.12s.12,0,.31,0l.62,0,.88.23.15-.06a1.38,1.38,0,0,1,.3,0l.22-.1c.09,0,.17,0,.24.11s.16.14.26.1l.1-.08a.54.54,0,0,1,.2-.22l.36,0,.3-.16h.14l.21-.16.39-.1.25-.19q.23-.19.21-.24a2.33,2.33,0,0,0-.69-.37,3.11,3.11,0,0,0-.89-.28,1,1,0,0,1-.5-.23,1,1,0,0,0-.51-.25.42.42,0,0,1-.32-.15l-1.21-.66-1.25-.73a.4.4,0,0,1-.19-.1c-.15-.36,0-.62.37-.79a2.09,2.09,0,0,1,.78-.07l.16.11s0,0,.06,0,0,0,0,0l0,.11,0,0a6,6,0,0,1,.72.53.68.68,0,0,0,.45.16l.7.43a10.33,10.33,0,0,0,.95.45A4.09,4.09,0,0,0,288.87,133.16Z"/><path class="cls-6" d="M288.32,148.89l-.85-.51a.19.19,0,0,0,0-.14c0-.1-.16-.2-.39-.29s-.35-.16-.37-.22l0-.16a2,2,0,0,1-.51-.45,2.08,2.08,0,0,0-.3-.34,1.25,1.25,0,0,1-.27-.39.56.56,0,0,0-.23-.27c-.1-.05-.2-.24-.3-.55l-.05-.26a.82.82,0,0,1-.17-.23.36.36,0,0,1,.05-.29.63.63,0,0,0,.05-.35.52.52,0,0,1,.1-.39,1.13,1.13,0,0,0,.18-.4.59.59,0,0,1,.14-.3l.11-.27a1.92,1.92,0,0,1,.51-.72,1.89,1.89,0,0,1,.68-.48l.06,0,.3-.07.32-.13a1.1,1.1,0,0,0,.31.07l.49-.16,1.33,0c.05,0,.11-.06.15-.19a.68.68,0,0,1-.37-.21A.31.31,0,0,0,289,141c-.13,0-.2,0-.23-.12v-.21l-.36,0a.4.4,0,0,1-.4-.27c-.06-.19,0-.3.13-.35l.28-.05.35-.22a1.39,1.39,0,0,1,.56.1,1,1,0,0,1,.55.31.62.62,0,0,0,.4.26,2.53,2.53,0,0,1,.77.45.8.8,0,0,0,.55.35,2,2,0,0,1,.45.46,1.08,1.08,0,0,0,.47.42,4.36,4.36,0,0,1,1,.83,3.42,3.42,0,0,1,.83,1.12,1.33,1.33,0,0,0,.18.31l.25.36a2,2,0,0,0,.28.33.72.72,0,0,1,.22.28v.49a3.92,3.92,0,0,1,0,.66,2.13,2.13,0,0,0,0,.35,4,4,0,0,1-.08.66.69.69,0,0,1-.53.5,2.13,2.13,0,0,0-.49-.13s-.06.15-.07.41a6.45,6.45,0,0,0-.48.55l-.47.34-1.24.42h-.13c-.14-.08-.22-.11-.25-.1l-.29.14-.46,0a.43.43,0,0,1-.31-.07.3.3,0,0,0-.2-.09l-.15-.05a1.44,1.44,0,0,0-.31-.05,1.43,1.43,0,0,1-.41-.11.48.48,0,0,0-.33-.06.38.38,0,0,1-.3-.07.48.48,0,0,0-.21-.13A.46.46,0,0,1,288.32,148.89Zm-1.9-4.59-.33.17,0,0,.08.24v.09a2.45,2.45,0,0,0,.08.47,1.18,1.18,0,0,0,.48.68,1,1,0,0,1,.38.37c0,.11.14.18.31.21s.27.05.28.07l.07.21.05.05a.56.56,0,0,1,.6.15.89.89,0,0,0,.54.31,1.36,1.36,0,0,1,.47.18.74.74,0,0,0,.42.12l.22.06a.33.33,0,0,0,.24,0l.64.11a2.57,2.57,0,0,0,.62-.1.56.56,0,0,0,.4-.48c.05-.26.26-.44.61-.56a.92.92,0,0,1,.76.15,1.33,1.33,0,0,0,.47.25.08.08,0,0,0,.06-.12,2,2,0,0,0-.23-.31c-.17,0-.47-.33-.91-.9a3.62,3.62,0,0,0,.05-.4c0-.06-.1-.1-.25-.12a.86.86,0,0,1-.31-.1l-.07-.2s-.09-.06-.25-.13a.58.58,0,0,1-.34-.36l-.24-.13a.64.64,0,0,1-.6-.14l-.25-.1c-.15-.06-.33-.15-.55-.26l-.77-.06a2,2,0,0,0-.64,0,.55.55,0,0,1-.26-.15.32.32,0,0,0-.3-.08.53.53,0,0,0-.12.16c-.05.1-.1.15-.15.16h-.21l-.58.12Z"/><path class="cls-7" d="M142.6,295.81l.3,0,.31-.07a1.17,1.17,0,0,1,.59,0,.19.19,0,0,1,.09.09l.48-.19a1.06,1.06,0,0,1,.56,0,.74.74,0,0,0,.16-.14,1.54,1.54,0,0,1,.27-.22l.28-.25a2.68,2.68,0,0,0,.42-.43l0-.1s.06-.08.16-.19a.76.76,0,0,1,.25-.19.17.17,0,0,0,.13-.1l0-.11.12-.15a1,1,0,0,1,.26-.18,1.24,1.24,0,0,0,.39-.35l.15-.11.1,0s0,0,0-.07a.34.34,0,0,0,0-.13.52.52,0,0,0,.17-.15l.14-.25.11,0,.05-.18s.08-.11.21-.22a3.17,3.17,0,0,0,.49-.59l.44-.52v0a1.26,1.26,0,0,0-.28.07l-.28.08s-.08,0-.21.1a.45.45,0,0,1-.31.08.8.8,0,0,1-.55.18.77.77,0,0,0-.37,0l-.13,0s-.06,0-.12,0-.1,0-.12,0a.5.5,0,0,1-.19-.18h0l0,.08c0,.1-.08.16-.13.15h-.29c-.17-.05-.25-.13-.25-.23a.57.57,0,0,0,0-.22.15.15,0,0,1,0-.13.86.86,0,0,1,.37-.47.72.72,0,0,1,.46-.19l.16,0h0l.15.1c.12.07.19.13.2.17a.11.11,0,0,0,.07.08l.16,0,.11.06a.44.44,0,0,0,.19-.12.4.4,0,0,1,.33-.09,3.62,3.62,0,0,0,1-.22.2.2,0,0,1,.18-.09l.15-.12s.08,0,.23,0a.71.71,0,0,0,.45-.26,1.46,1.46,0,0,0,.25-.29.54.54,0,0,0,0-.08s0,0,.08,0c.15-.25.26-.39.32-.41a2.88,2.88,0,0,0,.46-.27v-.19A.77.77,0,0,1,152,288c.15-.34.3-.52.44-.53l.13,0,.05-.32c0-.06.09-.08.22-.07h.06l.51-.56c.1-.12.2-.16.3-.13s0,0,0,0h0c.05,0,.08,0,.1-.07v-.07l0-.05c0-.15.19-.29.45-.41a1.08,1.08,0,0,1,.81-.07c.06,0,.15.13.27.34a1,1,0,0,1,0,.81l-.21.35c0,.16,0,.25,0,.26s-.07.08-.17.08,0,.05-.06.13a.46.46,0,0,1-.1.18c0,.06-.09.16-.16.29l-.06,0h-.18c-.06.17-.11.25-.13.25h-.15a.17.17,0,0,0-.15.09.84.84,0,0,0,0,.12v.07c-.05.16-.22.23-.53.2a.32.32,0,0,1-.21.24.84.84,0,0,0-.23.14l-.55.36a3.65,3.65,0,0,1-.91.35,1,1,0,0,0-.15.24.73.73,0,0,1-.19.24l-.55.74,0,.08c0,.07-.07.12-.16.16l0,.14a1.28,1.28,0,0,1-.18.21l-.52.73c-.12.14-.22.26-.31.35a1.46,1.46,0,0,0-.21.28,1.36,1.36,0,0,1-.22.25,1,1,0,0,0-.2.22c0,.08-.16.11-.36.1a.37.37,0,0,0,.06.1s.05.07,0,.1l-.09.09-.08.14a.83.83,0,0,1-.11.17l-.11.1-.12.1a.25.25,0,0,1-.12.08l-.13.19-.11.05s0,0,0,.06V295a1.71,1.71,0,0,1-.31.33.61.61,0,0,0-.09.24.4.4,0,0,1,.2.11l.26-.05a.28.28,0,0,1,.12.08l.08.06.16,0,.18.12h.11l.23.09h.16l.14.08h.15l.07,0,.38.18h0s.08,0,.19,0h0l.12.07a.41.41,0,0,0,.14.08l.22,0,.39.21h.11s0,0,0,0a6.21,6.21,0,0,1,1,.56l.26.14s0,0,.08,0a.5.5,0,0,0,.24,0,1.29,1.29,0,0,1,.51.41l.09.1.12.16a2.17,2.17,0,0,0,.16.25.4.4,0,0,1,.08.37,1.74,1.74,0,0,1-.36.75c-.13.15-.24.2-.33.18a1.57,1.57,0,0,1-.72-.61.66.66,0,0,0-.11-.24.31.31,0,0,1-.06-.25l0-.05-.26-.07a.24.24,0,0,1-.08-.09l-.17-.09a1.11,1.11,0,0,1-.17-.21.17.17,0,0,0-.11-.09.28.28,0,0,1-.13-.11.61.61,0,0,1-.25-.18l-.19-.05,0-.06c0-.09,0-.15-.08-.16l-.08,0-.07,0-.15,0-.11-.14h0l-.14,0-.16-.13-.14,0a1,1,0,0,1-.4-.18l-.14,0-.09-.12-.49-.05-.19-.07-.19,0-.05-.08s-.06,0-.14.06a1.39,1.39,0,0,1-.48,0l-.3,0-.16-.07h-.12a.78.78,0,0,1-.45.33s-.05,0-.09.11a.35.35,0,0,1-.17.17.89.89,0,0,0-.2.11l-.14.07s-.13.08-.24.23a.36.36,0,0,1-.41.16l-.11-.08a.36.36,0,0,0,0,.1.12.12,0,0,1,0,.1c0,.12-.12.15-.28.11l-.15.06a.81.81,0,0,1-.33.07l-.09.06a.23.23,0,0,1-.18,0l-.58.08h0L143,298H143l-.17-.05s-.09-.06-.16-.14l-.15.05s-.06-.07-.17-.14-.25-.1-.28-.17-.06-.11-.09-.11l-.07-.07a.86.86,0,0,0-.19-.11q-.12,0-.24-.42a1.09,1.09,0,0,1-.08-.54.3.3,0,0,1,.13-.17.69.69,0,0,1,.27-.1l.4-.08Zm-.3.53-.37.07c-.08,0-.12,0-.13.07s0,0,0,.07a.7.7,0,0,1,.22.19.32.32,0,0,0,.18.13l.23.13.24.05.06.06L143,297h0l.21.08.16-.08a.83.83,0,0,1,.25-.06,1.1,1.1,0,0,1,.36-.25l.12-.16.11-.19a3.24,3.24,0,0,0-.49-.08l-.72,0Zm11.52-8.46.31-.11a2.55,2.55,0,0,0,.49-.48,2.27,2.27,0,0,0,.5-.75.51.51,0,0,0,0-.17.72.72,0,0,0-.36.12c0,.05-.22.2-.51.44a1.76,1.76,0,0,0-.49.47,1.29,1.29,0,0,1-.25.35l-.24.3s-.06.09-.14.17-.12.13-.12.16,0,0,0,.05a2.85,2.85,0,0,0,.63-.42Z"/><path class="cls-7" d="M154.45,296.32l.17-.11h0c.05,0,.12,0,.22-.11l.1,0a1,1,0,0,1,.38-.29l.17-.09a.33.33,0,0,1,.12-.05.82.82,0,0,0,.25-.15c.13-.1.21-.14.27-.12a.39.39,0,0,1,.14,0,.75.75,0,0,1,.27-.19,1,1,0,0,0,.31-.23l.13,0a1.08,1.08,0,0,0,.3-.16.37.37,0,0,1,.31-.07.77.77,0,0,1,.48.41.87.87,0,0,1,.17.63l-.31.76c-.22.56-.4.84-.53.85l-.08.2c-.09.05-.15.1-.15.14V298s-.05.08-.13.14,0,0,0,.05l-.08.42a.23.23,0,0,1-.17.16l.05.05s.13,0,.25,0l.14,0,.24-.18a.53.53,0,0,0,.2-.06,1.86,1.86,0,0,1,.42-.12l1.37-.78c.2-.15.34-.22.42-.2s.12.09.1.22a1,1,0,0,1-.16.36,1.77,1.77,0,0,0-.21.32.65.65,0,0,1-.2.26.9.9,0,0,0-.18.15,1,1,0,0,1-.34.22,3,3,0,0,0-.48.29,1.55,1.55,0,0,1-.33.21l-.44.24-.08.09a.58.58,0,0,1-.18,0,1.34,1.34,0,0,0-.3.12l-.18.07a.33.33,0,0,1-.18,0,.32.32,0,0,0-.24.08c-.07.06-.13.08-.16.07l-.13,0-.19,0a.61.61,0,0,1-.33-.28.63.63,0,0,1-.13-.49v-.06l.05-.14s0-.1,0-.21a1.25,1.25,0,0,1,0-.2l0-.14v-.07a1.07,1.07,0,0,1,.11-.33,1.14,1.14,0,0,0,.09-.19l.08-.2.1-.25a.35.35,0,0,1,.12-.14,2,2,0,0,1,.13-.26l.07-.17.12-.13a.44.44,0,0,0,.13-.2.61.61,0,0,1,.15-.27.58.58,0,0,0,.11-.17c0-.08,0-.13-.08-.14a.75.75,0,0,0-.25.12l-.15-.1-.12.08s0,0-.09,0a.27.27,0,0,0-.19.12h-.07l-.11-.09h0c-.06,0-.11.05-.15.2a.49.49,0,0,1-.31.16l-.2,0a.23.23,0,0,0-.18.15.52.52,0,0,1-.24.22.57.57,0,0,1-.2.09c-.16,0-.23-.16-.18-.37l.16-.46Zm4.88-4.29,0-.41v-.06c.07-.31.2-.47.39-.47a1.82,1.82,0,0,0,.41,0,.69.69,0,0,1,.27.39,1,1,0,0,1,.07.52.31.31,0,0,1,0,.09,1.07,1.07,0,0,0-.1.26.46.46,0,0,1-.24.31.54.54,0,0,1-.38.08c-.09,0-.18-.11-.28-.27A.64.64,0,0,1,159.33,292Z"/><path class="cls-7" d="M158,303.55l.12-.22.1-.24s0-.06.1-.11a.24.24,0,0,0,.11-.13,4.36,4.36,0,0,1,.65-1.23l.31-.58a.61.61,0,0,1,.21-.3c.1-.07.16-.13.17-.2s0-.11-.16-.2-.16-.18-.15-.25.23-.17.66-.31a1,1,0,0,1,.36-.56.2.2,0,0,0,.09-.13.82.82,0,0,1,.15-.39l.11-.22a1,1,0,0,1,.19-.25.51.51,0,0,0,.16-.27v-.08c-.07,0-.2.08-.39.29-.14,0-.29.08-.42.32a.44.44,0,0,1-.38.23.62.62,0,0,1-.44.27c-.11-.11-.17-.19-.16-.25l.18-.62c0-.15.39-.46,1.09-.93,0,0,.18-.11.41-.34l.6-.55c.32-.27.56-.46.72-.58a2.68,2.68,0,0,0,.53-.86,1.75,1.75,0,0,0,.43-.72,6.52,6.52,0,0,1,.37-.8,1.26,1.26,0,0,0,.19-.36,9.78,9.78,0,0,1,.78-1.47l.14-.32.16-.1s0-.14.08-.32c.07,0,.16-.15.28-.41a1.9,1.9,0,0,1,.3-.53.83.83,0,0,0,.2-.3.63.63,0,0,1,.27-.3.6.6,0,0,1,.4-.12s.1.09.18.25a1,1,0,0,1,.1.51c0,.18,0,.31,0,.37a1.57,1.57,0,0,1,0,.27l0,.3a2.9,2.9,0,0,1-.15.51l-.2.61a.32.32,0,0,1-.22.22c-.11,0-.17.06-.18.1a.14.14,0,0,0,.06.11l.06.06a.94.94,0,0,1-.14.26.88.88,0,0,1-.24.26q0,.13,0,.15a1.52,1.52,0,0,1-.18.3,2,2,0,0,1-.27.33,1.38,1.38,0,0,0-.23.4,1,1,0,0,1-.5.49,1.1,1.1,0,0,0-.29.43.63.63,0,0,1-.34.37l-.15.17v0a.87.87,0,0,1-.15.33c-.08.11-.16.25-.25.4a1,1,0,0,1-.22.31,1.48,1.48,0,0,1-.19.4,1.35,1.35,0,0,0-.16.32l-.08.07a.19.19,0,0,0-.21.17v.23l-.21.31-.07.2a.58.58,0,0,1-.22.32c-.1,0-.17.16-.23.35l-.07.24a.2.2,0,0,0,0,.07.43.43,0,0,0,.12-.1l.14.08s.07,0,.12-.08a.32.32,0,0,1,.17-.1h0c.05-.09.1-.14.16-.14a.2.2,0,0,0,.17-.07.2.2,0,0,1,.11-.07.43.43,0,0,1,.12.1h0l.09,0v-.17c0-.07,0-.11.1-.12a.18.18,0,0,0,.13-.09l.37-.19a.86.86,0,0,0,.36-.17.55.55,0,0,1,.25-.13.68.68,0,0,0,.21-.1.49.49,0,0,1,.31,0,2.79,2.79,0,0,1,.46-.28l.09-.1a.1.1,0,0,1,.08,0,.5.5,0,0,0,.16-.11c.07-.06.12-.08.17-.07s.17.09.15.23a.65.65,0,0,1-.35.5l0,0c-.07.27-.17.39-.29.37s-.07.05-.15.15l-.11,0a.82.82,0,0,1-.22.19h0a5.66,5.66,0,0,0-1.31.77.37.37,0,0,1-.1.07l-.17,0a.82.82,0,0,1-.14.19,1,1,0,0,0-.33.15,1.68,1.68,0,0,1-.26.15.41.41,0,0,0-.17.11.29.29,0,0,1-.19.11l-.13.11h-.06a.36.36,0,0,0-.32.25.34.34,0,0,0,.05.18c.06,0,.19.2.41.7a2.49,2.49,0,0,1,.23,1.37,1,1,0,0,1-.22.58c-.09.08-.15.14-.15.18a1.17,1.17,0,0,0,0,.24v0a.11.11,0,0,1-.12.1c-.07,0-.12,0-.14.07l0,.25-.05.12c-.09,0-.19.18-.32.44a1.16,1.16,0,0,1-.44.3l0,0,0,.28a.21.21,0,0,1-.11.15,1.13,1.13,0,0,0-.26.23.94.94,0,0,1-.33.23.44.44,0,0,1-.18.26,1,1,0,0,0-.25.2l-.06,0c-.06,0-.12.07-.19.2h-.07a1.13,1.13,0,0,1-.31.31.72.72,0,0,0-.2.18l-.16.08a1.63,1.63,0,0,1-.4.36s0,0-.06-.07h0s-.05,0-.08.07a.31.31,0,0,1-.12.14,1,1,0,0,0-.18.18l0,0q-.12,0-.42.3a.67.67,0,0,0-.32.1c-.15.14-.25.21-.3.2a.81.81,0,0,1-.17-.2.67.67,0,0,1-.11-.56.33.33,0,0,0-.07-.23c0-.08,0-.19,0-.34l0-.09a.73.73,0,0,1,.11-.27l.09-.21a.36.36,0,0,1,.08-.12,1.87,1.87,0,0,0,.15-.28,4.78,4.78,0,0,1,.23-.45l0-.1c.12-.32.2-.47.24-.46a2.6,2.6,0,0,0,.17-.39c.06-.16.11-.3.14-.4a.51.51,0,0,1,.17-.25Zm2.17-1.67,0,.44s-.08.15-.21.37a2.82,2.82,0,0,0-.28.54c-.06.14-.13.2-.24.18h-.09l0,.08v.23a3.77,3.77,0,0,1-.14.45.77.77,0,0,1-.25.41l-.06.06a2.47,2.47,0,0,1-.22.46c-.11.21-.21.38-.28.49a1.89,1.89,0,0,0-.2.45.77.77,0,0,1-.18.35,3.7,3.7,0,0,1-.18.46q-.09.18-.21.48a0,0,0,0,0,0,.05s.1-.06.17-.2a.25.25,0,0,1,.13,0c.06,0,.12-.07.19-.19l0,0a.21.21,0,0,0,.16-.1.21.21,0,0,1,.12-.1.41.41,0,0,0,.14-.08h.07s.05-.05.08-.11a.73.73,0,0,1,.09-.13l.12,0,0,0a.81.81,0,0,1,.24-.39.67.67,0,0,0,.2-.21.57.57,0,0,1,.16-.18.45.45,0,0,0,.15-.25,1.76,1.76,0,0,0,.26-.3.77.77,0,0,1,.16-.19l0-.07,0-.13v0a1.25,1.25,0,0,1,.28-.37,2.22,2.22,0,0,0,.35-.51l.15-.34a1.1,1.1,0,0,0,.12-.29.8.8,0,0,1,.14-.26.49.49,0,0,0,.12-.28,1.83,1.83,0,0,0-.13-.83.38.38,0,0,1,0-.13.5.5,0,0,0-.14-.27c-.09-.11-.16-.17-.21-.17l-.08,0s0,0-.12.05-.11.08-.12.18v0l0,.23C160.39,301.74,160.3,301.8,160.13,301.88Z"/><path class="cls-7" d="M165.72,297.65l.21-.15a.25.25,0,0,0,.27-.23.53.53,0,0,1,.34-.38l.13-.17a2.36,2.36,0,0,1,.78-.32.65.65,0,0,0,.23-.16l0,0,.14.06a.75.75,0,0,0,.31,0,1.18,1.18,0,0,1,.37,0l.38,0a.42.42,0,0,1,.14.08.54.54,0,0,0,.27.09.49.49,0,0,1,.35.25.68.68,0,0,1,.12.4,1,1,0,0,1-.36.61,1,1,0,0,1-.5.32,1.05,1.05,0,0,1-.26.2.63.63,0,0,0-.18.12.31.31,0,0,1-.15.09.07.07,0,0,1,0,0l-.06,0c-.09,0-.21.11-.36.37l-.16,0a.53.53,0,0,0-.22.23.19.19,0,0,1-.21.11c-.25.23-.41.34-.49.33l-.12-.05a.35.35,0,0,0-.1.2c0,.09-.06.13-.16.13l-.13.11-.09,0-.2.2a.46.46,0,0,0-.29.07c0,.08-.05.18-.09.31a1.25,1.25,0,0,0-.06.21c0,.19.13.31.45.35l.44,0a.57.57,0,0,0,.33-.07.56.56,0,0,1,.33-.06l.17,0,.09.05a.7.7,0,0,1,.26-.25.52.52,0,0,1,.29-.09l.1,0a.3.3,0,0,1,.12-.16l.08-.06a.25.25,0,0,1,.15-.07l.12,0,0,0a.48.48,0,0,1,.34-.28.37.37,0,0,0,.26-.12.24.24,0,0,1,.19-.11.31.31,0,0,0,.23-.11,1.16,1.16,0,0,1,.24-.2A1.33,1.33,0,0,0,170,299a.16.16,0,0,1,.09,0s.05,0,.05.1,0,.09,0,.1,0,0,0,0a.4.4,0,0,0,0-.11V299a.22.22,0,0,1,.17-.19l.44-.25c0-.14.07-.22.13-.24a.37.37,0,0,0,.14-.07.12.12,0,0,1,.11,0c.08,0,.11.06.1.16l-.07.27v.28s0,.09-.11.16a.74.74,0,0,0-.16.31c-.05.15-.1.22-.15.23h0a1,1,0,0,1-.28.2.28.28,0,0,0-.17.11l-.35.37-.17.17a.2.2,0,0,1-.11.07l-.07-.09,0,0c-.06,0-.1,0-.13.12a.41.41,0,0,1-.12.2,1,1,0,0,0-.38.23h-.22q-.12,0-.18.18a.28.28,0,0,1-.29.2.57.57,0,0,0-.31.09.19.19,0,0,1-.09,0,1,1,0,0,0-.27.13l-.8.23-.12,0h-.26a.17.17,0,0,1-.1-.09l-.06-.1-.17.05a1.07,1.07,0,0,1-.35,0,.32.32,0,0,1-.2-.09.66.66,0,0,0-.16-.12c-.17,0-.28-.19-.32-.51h-.11a3.29,3.29,0,0,1-.16-.76.35.35,0,0,0-.16-.13.18.18,0,0,1-.1-.21.87.87,0,0,1,.25-.61.62.62,0,0,0,.22-.22l.18-.52a.49.49,0,0,0,.12-.2l.25-.41S165.62,297.83,165.72,297.65Zm2-.41-.12.05-.23.16a2.11,2.11,0,0,1-.37.22,1,1,0,0,0-.4.47,1.9,1.9,0,0,0-.23.46s0,.06,0,.06l.32-.12a1.37,1.37,0,0,0,.35-.2,5.06,5.06,0,0,1,.47-.3l.08-.08a.73.73,0,0,1,.18-.13,1.08,1.08,0,0,0,.25-.18l.09,0a.69.69,0,0,1,.35-.31c.11,0,.17-.06.17-.11s0-.13-.16-.14a.49.49,0,0,0-.22.08l-.21,0a.56.56,0,0,0-.21.1Z"/><path class="cls-7" d="M178.22,297.14l.11-.12v-.09a1.28,1.28,0,0,1,.09-.25,1,1,0,0,1,.17-.29.34.34,0,0,0,.11-.17.21.21,0,0,1,.16-.12.47.47,0,0,1-.05-.16l0-.2,0-.08.06-.08.11-.11a.26.26,0,0,0,.09-.17.65.65,0,0,1,.12-.3c.09-.13.15-.2.19-.2a.15.15,0,0,0,.11,0,.12.12,0,0,1,.08,0s.07,0,.1.09,0,.1.06.1.07,0,.07-.11,0-.06-.09-.08a.14.14,0,0,1-.11-.1.64.64,0,0,0-.06-.14.27.27,0,0,1,0-.08.3.3,0,0,1,.09-.19.22.22,0,0,1,.16-.1.17.17,0,0,0,.14-.1c-.07,0-.11-.09-.11-.14a1.25,1.25,0,0,0,.21-.37c.07-.16.15-.24.23-.25l.1.05.09-.28-.06-.21a1,1,0,0,1,.24-.32l.08-.07a.72.72,0,0,1,.42-.49c.32-.38.51-.58.58-.58s0,0,.07.07l.09,0s.06,0,.06.07a2.5,2.5,0,0,0-.29.34h0l.07-.07.14-.14s0,0,0,0a.51.51,0,0,0,.1-.3s0,0-.1-.09l0-.06s.11-.17.32-.38a4.39,4.39,0,0,1,.71-.58l.08-.12a.11.11,0,0,1,.1-.05c.05,0,.12,0,.22.11l0,0a.51.51,0,0,1,0-.16s0-.07.08-.08a.61.61,0,0,1,.38-.27,1.59,1.59,0,0,0,.41-.22l.19-.09a.83.83,0,0,0,.25-.06.62.62,0,0,1,.25-.05l.15-.06a.32.32,0,0,1,.17-.07.46.46,0,0,1,.2.13s0,0,0,0l.11-.09h0l.28.25a1,1,0,0,1,.39.78l-.05.43,0,.36a.43.43,0,0,1-.14.32,2.09,2.09,0,0,1-.16.66,2,2,0,0,0-.15.56,2.84,2.84,0,0,1-.53,1l-.11.18a2.66,2.66,0,0,0-.27.56,1.87,1.87,0,0,0-.32.5.54.54,0,0,1-.26.28h0l0,.22c-.23.43-.45.65-.68.65a.6.6,0,0,1-.41-.21.63.63,0,0,1-.2-.43c0-.33.34-.75,1-1.24l.07,0,.07-.14a.82.82,0,0,1,0-.11c0-.09.1-.21.28-.34s.18-.31.27-.32l.35-.64,0-.1v-.16s.06-.09.19-.18l0,0v-.22a.25.25,0,0,1,.15-.21,1.11,1.11,0,0,0,.07-.34,1.9,1.9,0,0,1,.15-.51,1.68,1.68,0,0,0-.11-.59.23.23,0,0,0-.21-.11,1,1,0,0,0-.43.18,1,1,0,0,1-.39.19.09.09,0,0,1-.07,0,.13.13,0,0,0-.08,0s-.06,0-.09.1-.06.12-.11.14a.4.4,0,0,0-.15.11,1.46,1.46,0,0,1-.26.18l-.15.22-.15.12a.22.22,0,0,1-.24.22s-.08.08-.15.25l-.07.08h-.15v.19a.14.14,0,0,1-.06.11l-.35.42-.06,0h-.07l0,0c0,.24-.08.37-.18.38s-.09.21-.26.37l-.07.1h-.12l0,0,.07.08a.63.63,0,0,1-.11.24c-.07.11-.12.16-.16.15a1.39,1.39,0,0,1-.16.51l-.08.15a.85.85,0,0,1-.1.17v.08c0,.18-.15.34-.45.49l.06.26a1.38,1.38,0,0,1-.14.25l-.08.2a.43.43,0,0,1-.13.23.8.8,0,0,1-.08.16.22.22,0,0,0-.06.12l0,.14a1.76,1.76,0,0,0-.16.4.73.73,0,0,1-.09.22.64.64,0,0,0-.1.24.75.75,0,0,1-.17.27c-.07.3-.11.46-.11.49l-.12.13-.06.15,0,.08v.15c0,.09-.08.2-.23.32a.17.17,0,0,1,.11.17.6.6,0,0,1-.08.36.91.91,0,0,0-.11.25,2.47,2.47,0,0,1-.14.34.21.21,0,0,1,.1.18l-.07.69.06.2-.12.06a.43.43,0,0,0,.11.21,1.88,1.88,0,0,1,.29.51.22.22,0,0,0,.16,0l.16,0,.24-.05a.9.9,0,0,0,.4-.19h.14a.32.32,0,0,0,.31-.19c0-.12.11-.18.17-.18a.79.79,0,0,0,.26-.08h.06a.31.31,0,0,1,.07-.12.74.74,0,0,0,.15-.19c.08-.11.14-.16.2-.16a3.29,3.29,0,0,0,.49-.43s0,0,.1,0a.18.18,0,0,0,.13-.11,2.85,2.85,0,0,1,.41-.44,1.77,1.77,0,0,0,.43-.54c0-.14.1-.21.17-.21l.13,0h0s0,0,.05-.09.14-.17.37-.33a.49.49,0,0,1,.28-.37l.32-.35.14,0s.06-.09.07-.19a.2.2,0,0,1,.14-.2h.07l.06,0c0-.23.11-.34.2-.34h.08c.05,0,.07-.07.07-.2s.13-.22.39-.29l.18-.11s0,0,.08,0,.24.14.24.42a.21.21,0,0,1-.07.18l-.13.12v.18l-.33.34a.34.34,0,0,0-.09.2c0,.08,0,.11-.05.12a.23.23,0,0,1-.12.08.29.29,0,0,0-.11.11.59.59,0,0,1-.4.42,1,1,0,0,1-.28.48.36.36,0,0,0-.16.17c0,.18-.1.26-.24.25a2.54,2.54,0,0,0-.42.58l0,0-.13,0-.09.13a.36.36,0,0,1-.21.11c-.09,0-.15.07-.19.18a.5.5,0,0,1-.1.22.46.46,0,0,0-.1.14c0,.06-.07.1-.1.1s-.1-.06-.12-.18a.47.47,0,0,0-.15.16l.06.14a.08.08,0,0,1,0,.07,1.39,1.39,0,0,0-.13.21.6.6,0,0,1-.45.23s0,.05-.07.14a.28.28,0,0,1-.25.17c-.13.21-.24.32-.32.32l-.39.15-.17,0c0,.09-.08.14-.13.14l-.13,0a.17.17,0,0,1-.15.1c-.09,0-.13,0-.13-.08a.21.21,0,0,1,0-.06v0s0-.07,0-.07q0,.45-.21.45l-.2-.08h0l-.18.1s0,0-.07,0a1.2,1.2,0,0,1-.68-.24h-.09c-.18,0-.33-.12-.43-.37l0,0a.33.33,0,0,1-.24-.32,2.16,2.16,0,0,0-.19-.21.77.77,0,0,0-.08-.27.55.55,0,0,1-.07-.13l-.21-.78a4.29,4.29,0,0,1,0-.56l0-.08v-.06l0-.28,0-.11a4.52,4.52,0,0,1,.17-.61,4.73,4.73,0,0,0,.2-.79A1.52,1.52,0,0,1,178,298Z"/><path class="cls-7" d="M191,301.11l-.39.46-.08,0c-.06,0-.13.07-.21.2s-.13.2-.17.2h-.09a1,1,0,0,1-.31.25l-.23.14a.63.63,0,0,1-.24.11.28.28,0,0,0-.18.11.55.55,0,0,1-.35.1h-.15a.31.31,0,0,1-.15.07c-.05,0-.1,0-.16-.07a.31.31,0,0,0-.18-.09.29.29,0,0,1-.21-.12.69.69,0,0,0-.2-.17.36.36,0,0,1-.16-.14l-.14-.11a1.14,1.14,0,0,1-.33-.43,1.32,1.32,0,0,1-.19-.5v-.24l0-.22a1.15,1.15,0,0,0,.07-.19l0-.33.14-.84s0-.08-.08-.13a.35.35,0,0,1-.17.2.22.22,0,0,0-.11.16.13.13,0,0,1-.09.12l-.12,0a1,1,0,0,0-.06.22c0,.13-.1.2-.2.2s-.17,0-.18-.13v-.18l-.08-.26a1.1,1.1,0,0,1,.12-.33c.09-.17.17-.27.25-.3a.39.39,0,0,0,.19-.22,1.5,1.5,0,0,1,.34-.42.43.43,0,0,0,.26-.29,1.11,1.11,0,0,1,.32-.21.64.64,0,0,0,.29-.24,2.37,2.37,0,0,1,.58-.49,1.81,1.81,0,0,1,.73-.35.93.93,0,0,0,.19-.07l.23-.1a1.79,1.79,0,0,0,.22-.13.41.41,0,0,1,.18-.1l.28.08a1.75,1.75,0,0,1,.36.11l.2.07a1.73,1.73,0,0,1,.36.15.48.48,0,0,1,.21.41,2.13,2.13,0,0,0-.13.29s.07.06.22.11l.25.38.13.35.09.85v.08a.36.36,0,0,0-.09.14l.05.21-.05.29a.25.25,0,0,1-.08.18.23.23,0,0,0-.07.11l0,.09s0,.09-.06.19a.9.9,0,0,1-.11.24.39.39,0,0,0-.08.21.24.24,0,0,1-.07.17.35.35,0,0,0-.1.12A.27.27,0,0,1,191,301.11Zm-2.8.51.06.24h.16l0,0a1.53,1.53,0,0,0,.27,0,.67.67,0,0,0,.44-.2c.1-.12.18-.18.25-.18s.12-.07.16-.17.06-.16.07-.16l.13,0,0,0a.37.37,0,0,1,.16-.36.62.62,0,0,0,.24-.29.68.68,0,0,1,.15-.27.53.53,0,0,0,.12-.25l.06-.13a.22.22,0,0,0,0-.15l.14-.39a2.11,2.11,0,0,0,0-.41.39.39,0,0,0-.22-.32.53.53,0,0,1-.24-.47.63.63,0,0,1,.18-.46.74.74,0,0,0,.19-.26.05.05,0,0,0-.06-.06l-.2.11c0,.1-.24.24-.61.43a1,1,0,0,0-.22-.08s-.07,0-.1.13a.49.49,0,0,1-.09.18h-.12a.55.55,0,0,0-.1.15.29.29,0,0,1-.25.15l-.1.14a.41.41,0,0,1-.15.35l-.09.14a2.13,2.13,0,0,1-.21.31l-.12.48a1.24,1.24,0,0,0-.06.41.37.37,0,0,1-.12.14.22.22,0,0,0-.08.18s0,.05.08.1a.26.26,0,0,1,.07.12l0,.13v.39Z"/><path class="cls-7" d="M200.11,298.28l.12-.17c.09,0,.13-.07.14-.16a.3.3,0,0,1,.16-.25.82.82,0,0,0,.26-.38c.07-.18.15-.28.25-.3a.25.25,0,0,1,.15.09c.05.06.09.11.09.15a1.51,1.51,0,0,1-.07.72v.29l-.05.15a.35.35,0,0,0-.14.2.86.86,0,0,1-.18.26l-.07.15a.45.45,0,0,0-.23.28c0,.12-.08.19-.16.21a.47.47,0,0,0-.23.25l-.2.12V300a.57.57,0,0,1-.26.21,1.47,1.47,0,0,0-.27.16.26.26,0,0,1-.12.07.69.69,0,0,1-.32,0,.72.72,0,0,0-.32-.05.26.26,0,0,1-.08-.13.38.38,0,0,0-.12-.17.63.63,0,0,1-.13-.31v-.2a.37.37,0,0,0-.06-.1s-.06-.07-.06-.09a.08.08,0,0,1,0-.07.06.06,0,0,0,0-.06.23.23,0,0,0,0-.11l0-.1,0-.51s0-.06,0-.06-.07.05-.12.12a.28.28,0,0,1-.2.14.43.43,0,0,0-.08.27,1.07,1.07,0,0,1-.15.22l0,.06a.2.2,0,0,1-.12.14.31.31,0,0,0-.14.14l-.08.12H197a1.81,1.81,0,0,0-.07.19.92.92,0,0,1-.17.29l-.59.74a2.6,2.6,0,0,1-.28.26l0,.07a2.29,2.29,0,0,1-.94.69,1.27,1.27,0,0,1-.59-.06c-.23-.07-.37-.18-.41-.32l-.15-.4a.78.78,0,0,1-.14-.39.34.34,0,0,1,0-.17v-.06l-.07-.33q0-.12.15-.15l-.06-.27a1.52,1.52,0,0,1,.11-.35,1.74,1.74,0,0,1,.16-.35l.07-.15a.34.34,0,0,1,.09-.28,1.66,1.66,0,0,0,.17-.32,1.31,1.31,0,0,1,.26-.36l.22-.35a2.64,2.64,0,0,1,.6-.68,1.42,1.42,0,0,0,.19-.24,1,1,0,0,1,.33-.33,2.07,2.07,0,0,0,.38-.28.68.68,0,0,1,.31-.18h.07l.44-.33h.05l.18.06h0l.13-.1a.19.19,0,0,1,.09,0c.37,0,.62.21.75.79,0,.12.07.18.12.17s.12-.15.2-.41a.68.68,0,0,1,.65-.48c.25,0,.41.12.47.5a1.89,1.89,0,0,1-.33,1.34,1,1,0,0,0,0,.19l-.06.44v0a.41.41,0,0,1-.05.18.34.34,0,0,0,0,.2l.06.25v.3a.33.33,0,0,0,.11.24.71.71,0,0,0,.37-.33.81.81,0,0,1,.15-.24l.09-.06A.84.84,0,0,1,200.11,298.28Zm-3,.46a.46.46,0,0,1,.17-.38.49.49,0,0,0,.18-.27,4.93,4.93,0,0,0,.41-.59c.18-.28.26-.44.25-.5s0,0,0,0h0L198,297h-.17l-.17,0-.13,0-.12,0-.18,0a.45.45,0,0,0-.24.11,2.36,2.36,0,0,1-.37.21,1.33,1.33,0,0,0-.49.36.64.64,0,0,1-.31.25,1.51,1.51,0,0,1-.35.51.48.48,0,0,0-.23.4c-.13.17-.2.26-.19.28l0,.19a.73.73,0,0,1-.16.14.24.24,0,0,0-.1.23.54.54,0,0,1-.07.33.37.37,0,0,0-.07.24c0,.33.13.49.25.47a1.11,1.11,0,0,0,.28-.15,1.74,1.74,0,0,0,.25-.19.38.38,0,0,1,.13-.11l.15-.12a.13.13,0,0,1,.08-.07s.05,0,.08-.08a.6.6,0,0,1,.14-.15.43.43,0,0,0,.15-.2l.45-.4.16-.19a.73.73,0,0,0,.22-.21A.41.41,0,0,1,197.12,298.74Z"/><path class="cls-7" d="M202.21,297.54l0-.1a1.23,1.23,0,0,1,.08-.48.94.94,0,0,1,.31-.52s0,0,0,0l-.06-.15s.06-.14.12-.3.14-.26.23-.26a1.13,1.13,0,0,1,.19-.32,1.17,1.17,0,0,0,.22-.34l.27-.31a1.18,1.18,0,0,1,.45-.37l.14,0a.34.34,0,0,1,.24-.27c.11,0,.19,0,.23,0h0s0,0,.09-.11a.36.36,0,0,1,.22-.13,2.55,2.55,0,0,1,.44.07.27.27,0,0,1,.18-.16s.06,0,.13,0l.21.06c.07,0,.16.13.26.34a1.74,1.74,0,0,1,.17.35.55.55,0,0,1-.15.43.65.65,0,0,1-.39.31c-.05,0-.12,0-.21-.1a2.21,2.21,0,0,1-.48-.05,1.17,1.17,0,0,0-.35.24h0l-.1-.06h-.09a.75.75,0,0,0,0,.15.75.75,0,0,1-.21.2.4.4,0,0,0-.14.15.92.92,0,0,1-.17.21.44.44,0,0,0-.17.27.84.84,0,0,1-.23.18l-.05,0c0,.11-.1.32-.21.6l-.14.49-.15.23a.33.33,0,0,0-.08.21l0,.1,0,.1a.23.23,0,0,1-.06.17c0,.07-.06.11-.05.14l.07.22v.37c0,.21.21.28.47.22l.14,0,.36-.15.3-.13.13-.06a.43.43,0,0,0,.12-.15l.09,0,.08,0c0-.15.13-.31.42-.47a.69.69,0,0,1,.31-.35,1.27,1.27,0,0,0,.42-.48l.14,0a.67.67,0,0,0,.14-.15,1.14,1.14,0,0,1,.24-.25c.09-.07.14-.12.15-.16a.34.34,0,0,1,.12-.12.67.67,0,0,1,.3-.44l0-.05c.07-.12.12-.18.14-.18h.11q.09,0,.09-.15c0-.08.06-.22.21-.4s.23-.28.28-.29.18,0,.21.16a.16.16,0,0,1-.11.21,1.17,1.17,0,0,1,.16.27.42.42,0,0,1-.19.5.06.06,0,0,0,0,.07l0,.18v0a.17.17,0,0,1,0,.05l-.13.05,0,.07a2.42,2.42,0,0,0-.36.51l-.13.26h0c-.08,0-.13-.08-.17-.07s0,.06-.06.16a1.33,1.33,0,0,1-.35.49,1,1,0,0,0-.15.21l-.14.17-.14,0a.46.46,0,0,0,0,.09.4.4,0,0,1-.12.2.93.93,0,0,0-.14.25.52.52,0,0,1-.14.16h-.17a.31.31,0,0,1-.26.23,1.07,1.07,0,0,0-.12.19.45.45,0,0,1-.11.15.71.71,0,0,1-.21-.08h0c-.06,0-.08.07-.06.17s0,.17-.13.2a.68.68,0,0,0-.28.17h0a.39.39,0,0,1-.31,0l-.19-.09-.27.17a.3.3,0,0,1-.23-.06l-.43-.13a1,1,0,0,1-.18-.25l-.07-.07c-.2,0-.38-.19-.53-.58L202,299a.19.19,0,0,1,0-.08,1.28,1.28,0,0,1,0-.33,5.27,5.27,0,0,0,0-.59A.57.57,0,0,1,202.21,297.54Z"/><path class="cls-7" d="M208,295.47l0-.13c.14-.09.22-.18.23-.29a5,5,0,0,1,.29-.64,6.25,6.25,0,0,1,.32-.61,4.33,4.33,0,0,0,.08-1,.18.18,0,0,0,.07-.17l0-.18.07,0,0-.05,0-.09a3,3,0,0,1,.1-.93c.07-.61.1-.94.1-1a2.05,2.05,0,0,1,0-.28c0-.12,0-.35.06-.7a4.51,4.51,0,0,1,.22-1.12.61.61,0,0,0,0-.25,1.37,1.37,0,0,1,.1-.47l0-.24c0-.08,0-.21.08-.4a2.4,2.4,0,0,1,.13-.46,1.55,1.55,0,0,0,.08-.36.59.59,0,0,1,.06-.26.89.89,0,0,0,.09-.3.28.28,0,0,1,.21-.26.52.52,0,0,1,.58.17,1.33,1.33,0,0,1,.32.51s0,.17,0,.46l.13.93a.3.3,0,0,0-.11.28,2.15,2.15,0,0,1,0,1.2.7.7,0,0,0,0,.27.63.63,0,0,1-.05.41,1.34,1.34,0,0,0-.1.53l-.42,1.56,0,.1a.56.56,0,0,0-.07.21h-.15c-.16,0-.22.12-.19.23a.56.56,0,0,0,.08.15v0s-.12.42-.34,1.24a1.49,1.49,0,0,0,0,.42l0,.33a1.87,1.87,0,0,0-.09.64,1.47,1.47,0,0,1-.07.5c0,.33,0,.5,0,.52a.05.05,0,0,0,.07,0s.09-.13.16-.37a2.24,2.24,0,0,1,.21-.49.73.73,0,0,0,.13-.34l.07-.1a.77.77,0,0,0,.11-.16h.1a.3.3,0,0,0,0-.16.31.31,0,0,1,0-.14.31.31,0,0,0,.23-.27c0-.11,0-.18.09-.2s.09-.09.13-.23a.86.86,0,0,1,.23-.39,1.77,1.77,0,0,0,.25-.3,1.41,1.41,0,0,1,.35-.33,1.64,1.64,0,0,1,.37-.25h.13l.12-.06a1.27,1.27,0,0,1,.67,0,.6.6,0,0,1,.44.53l.11.63,0,.52a4.17,4.17,0,0,1,0,.57,3.6,3.6,0,0,0,0,.5l0,.2.11.25,0,.21c0,.07.06.09.12.07s.07-.08.14-.23.12-.06.15-.17a1.73,1.73,0,0,1,.15-.36s0-.06.09-.11a.83.83,0,0,0,.24-.32,1.92,1.92,0,0,1,.23-.49,3.69,3.69,0,0,1,.45-.62l0-.09c.07-.15.14-.23.22-.25s.14,0,.17.11a.78.78,0,0,1,0,.22.8.8,0,0,0,0,.3,1.93,1.93,0,0,1,0,.56v.11a.27.27,0,0,1-.09.24.49.49,0,0,0-.14.22.92.92,0,0,1-.34.37c0,.23-.07.35-.13.36l-.18,0a.51.51,0,0,0-.08.4,3.26,3.26,0,0,0-.19.37l-.18,0s0,.09,0,.24a.71.71,0,0,1-.14.19,2,2,0,0,0-.22.28c0,.08-.17.15-.38.21,0,0-.07,0-.13,0a.7.7,0,0,0-.24-.06.29.29,0,0,1-.25-.18,1.45,1.45,0,0,0-.2-.25.4.4,0,0,1-.11-.15l0-.2-.1-.2,0-.16a.46.46,0,0,1-.1-.17l-.1-.63q-.09-.69-.09-.9s0-.06,0-.13l-.09-.24,0-.14c0-.1-.07-.15-.13-.14s-.1,0-.12,0l-.15,0s-.08.07-.09.16a.9.9,0,0,1-.07.27l-.23,0v0s0,.18-.14.38a.66.66,0,0,0-.3.37c-.05,0-.11.08-.2.22a.91.91,0,0,1-.17.24l0,.18-.13.09a.38.38,0,0,1-.21.34l0,.22a.31.31,0,0,0-.2.29c0,.14,0,.21,0,.22h-.15c-.13,0-.17.17-.11.39a4.71,4.71,0,0,1-.23.57c-.15.35-.24.54-.25.55s0,.09,0,.23a.69.69,0,0,1-.13.35l-.15.21a.18.18,0,0,1-.08.09q-.18.06-.39-.21l-.2-.27v-.23l-.07-.17s0-.15,0-.44a2.66,2.66,0,0,1,.07-.69,2.21,2.21,0,0,0,0-.79,1.88,1.88,0,0,1-.39.44c-.11,0-.2,0-.25-.21A1.55,1.55,0,0,1,208,295.47Z"/><polygon class="cls-8" points="210.17 112.97 211.47 123.11 221.55 124.94 212.33 129.39 213.7 139.53 206.63 132.07 197.41 136.52 202.32 127.56 195.19 120.1 205.26 122 210.17 112.97"/><path class="cls-9" d="M143.33,154.5c34.86,22.11,52.45,10.14,63.63-24.06-3.92,50-21.58,94-40.94,123.87,1.9-38.06,4.51-68.15-22.69-99.81Zm29.75-11.9a9.43,9.43,0,1,1-8.43,10.27,9.42,9.42,0,0,1,8.43-10.27Z"/></g></g></svg>